<svg width="192" height="98" viewBox="0 0 192 98" fill="none" xmlns="http://www.w3.org/2000/svg">
<path d="M6.8516 82.3709C4.88059 82.3709 3.19116 81.8119 1.87715 80.6937C0.657003 79.5756 0 78.0847 0 76.2211C0 74.2643 0.75086 72.7734 2.25258 71.7485C3.7543 70.7235 5.44374 70.2576 7.32089 70.2576C9.19804 70.2576 10.6998 70.5371 12.1076 71.1894V70.9098C12.1076 69.6053 11.6383 68.7667 10.6059 68.394C9.76118 68.1145 8.82261 67.9281 7.79017 67.9281C5.81917 67.9281 3.94202 68.394 2.34644 69.3258V64.2009C4.22359 63.2691 6.57003 62.8032 9.38575 62.8032C12.1076 62.8032 14.3602 63.4555 16.0496 64.8532C17.7391 66.1577 18.5838 68.0213 18.5838 70.2576V75.8484C18.5838 76.5006 18.9592 76.8733 19.7101 76.8733C20.1794 76.8733 20.5548 76.7802 20.7425 76.687V81.2528C19.8978 81.905 18.7715 82.1846 17.4575 82.1846C15.2049 82.1846 13.7032 81.4392 12.8585 80.0415C11.2629 81.6255 9.29189 82.3709 6.8516 82.3709ZM9.01032 78.0847C10.3243 78.0847 11.3568 77.5256 12.0138 76.5006V74.5439C11.2629 73.9848 10.4182 73.7052 9.29189 73.7052C8.44717 73.7052 7.79017 73.8916 7.22703 74.3575C6.66388 74.7302 6.38231 75.2893 6.38231 75.9416C6.38231 76.5938 6.66388 77.0597 7.13317 77.4324C7.60246 77.8051 8.25946 78.0847 9.01032 78.0847Z" fill="#252525"/>
<path d="M31.2553 82.3709C27.7826 82.3709 25.1546 81.8119 23.3713 80.6937V75.2893C24.1222 75.8484 25.2485 76.3143 26.6563 76.687C27.9703 77.0597 29.472 77.2461 31.0676 77.2461C32.5693 77.2461 33.3202 76.9665 33.3202 76.3143C33.3202 75.9416 33.0386 75.662 32.4755 75.4757L31.6308 75.1961C31.4431 75.1029 30.5983 74.9166 29.0028 74.5439C26.844 73.8916 25.3423 73.2393 24.4976 72.4939C23.6529 71.7485 23.1836 70.444 23.1836 68.7667C23.1836 66.9031 23.9345 65.5054 25.4362 64.3873C26.9379 63.3623 29.0966 62.8032 31.7246 62.8032C34.4465 62.8032 36.7929 63.3623 38.7639 64.5736V69.8849C36.6052 68.5804 34.3526 67.8349 31.9123 67.8349C30.5045 67.8349 29.8475 68.1145 29.8475 68.7667C29.8475 69.1394 30.129 69.419 30.6922 69.6053L31.5369 69.8849C31.7246 69.9781 32.1939 70.0712 32.8509 70.1644C33.5079 70.3508 33.8833 70.3508 33.9772 70.444C35.9482 70.9098 37.4499 71.6553 38.3885 72.5871C39.3271 73.5189 39.7964 74.7302 39.7964 76.4074C39.7964 78.1779 39.0455 79.6687 37.4499 80.7869C35.9482 81.8119 33.8833 82.3709 31.2553 82.3709Z" fill="#252525"/>
<path d="M50.3061 82.3705C46.8334 82.3705 44.2054 81.8115 42.4221 80.6933V75.2889C43.173 75.848 44.2992 76.3139 45.7071 76.6866C47.0211 77.0593 48.5228 77.2457 50.1184 77.2457C51.6201 77.2457 52.371 76.9661 52.371 76.3139C52.371 75.9411 52.0894 75.6616 51.5263 75.4752L50.6816 75.2889C50.4938 75.1957 49.6491 75.0093 48.0535 74.6366C45.8948 73.9844 44.3931 73.3321 43.5484 72.5867C42.7037 71.8412 42.2344 70.5367 42.2344 68.8595C42.2344 66.9959 42.9852 65.5982 44.487 64.48C45.9887 63.4551 48.1474 62.896 50.7754 62.896C53.4973 62.896 55.8437 63.4551 57.8147 64.6664V69.8845C55.656 68.58 53.4034 67.8345 50.9631 67.8345C49.5553 67.8345 48.8983 68.1141 48.8983 68.7663C48.8983 69.139 49.1798 69.4186 49.743 69.6049L50.6816 69.8845C50.8693 69.9776 51.3386 70.0708 51.9956 70.164C52.6526 70.3504 53.028 70.3504 53.1218 70.4435C55.0929 70.9094 56.5946 71.6549 57.5331 72.5867C58.4717 73.5185 58.941 74.7298 58.941 76.407C58.941 78.1775 58.1901 79.6683 56.5946 80.7865C54.999 81.8115 52.9341 82.3705 50.3061 82.3705Z" fill="#252525"/>
<path d="M65.6059 61.6848C64.5734 61.6848 63.7287 61.3121 62.9778 60.5667C62.227 59.8212 61.8516 58.9826 61.8516 57.9577C61.8516 56.9327 62.227 56.0009 62.9778 55.3486C63.7287 54.6964 64.5734 54.2305 65.6059 54.2305C66.6383 54.2305 67.5769 54.6032 68.2339 55.3486C68.8909 56.0941 69.3602 56.9327 69.3602 57.9577C69.3602 58.9826 68.9847 59.9144 68.2339 60.5667C67.483 61.2189 66.6383 61.6848 65.6059 61.6848ZM68.8909 81.9048H62.4147V63.3621H68.8909V81.9048Z" fill="#252525"/>
<path d="M80.81 82.3709C77.3373 82.3709 74.7093 81.8119 72.926 80.6937V75.2893C73.6769 75.8484 74.8031 76.3143 76.211 76.687C77.525 77.0597 79.0267 77.2461 80.6223 77.2461C82.124 77.2461 82.8749 76.9665 82.8749 76.3143C82.8749 75.9416 82.5933 75.662 82.0302 75.4757L81.1855 75.1961C80.9977 75.1029 80.153 74.9166 78.5574 74.5439C76.3987 73.8916 74.897 73.2393 74.0523 72.4939C73.2076 71.7485 72.7383 70.444 72.7383 68.7667C72.7383 66.9031 73.4891 65.5054 74.9909 64.3873C76.4926 63.3623 78.6513 62.8032 81.2793 62.8032C84.0012 62.8032 86.3476 63.3623 88.3186 64.5736V69.8849C86.1599 68.5804 83.9073 67.8349 81.467 67.8349C80.0592 67.8349 79.4022 68.1145 79.4022 68.7667C79.4022 69.1394 79.6837 69.419 80.2469 69.6053L81.0916 69.8849C81.2793 69.9781 81.7486 70.0712 82.4056 70.1644C83.0626 70.3508 83.438 70.3508 83.5319 70.444C85.5029 70.9098 87.0046 71.6553 87.9432 72.5871C88.8818 73.5189 89.3511 74.7302 89.3511 76.4074C89.3511 78.1779 88.6002 79.6687 87.0046 80.7869C85.5029 81.8119 83.438 82.3709 80.81 82.3709Z" fill="#252525"/>
<path d="M100.71 82.3707C98.7394 82.3707 97.1438 81.8116 96.0175 80.7866C94.7974 79.7616 94.2342 78.2708 94.2342 76.314V68.4869H90.9492V63.362H94.2342V58.6099H100.71V63.362H105.497V68.5801H100.71V74.5436C100.71 75.3822 100.898 75.9413 101.18 76.2208C101.555 76.5935 102.024 76.6867 102.869 76.6867C103.714 76.6867 104.652 76.5004 105.403 76.0345V81.1593C104.371 81.998 102.775 82.3707 100.71 82.3707Z" fill="#252525"/>
<path d="M114.508 82.3709C112.537 82.3709 110.847 81.8119 109.533 80.6937C108.313 79.5756 107.656 78.0847 107.656 76.2211C107.656 74.2643 108.407 72.7734 109.909 71.7485C111.411 70.7235 113.1 70.2576 114.977 70.2576C116.854 70.2576 118.356 70.5371 119.764 71.1894V70.9098C119.764 69.6053 119.295 68.7667 118.262 68.394C117.417 68.1145 116.479 67.9281 115.446 67.9281C113.475 67.9281 111.598 68.394 110.003 69.3258V64.2009C111.88 63.2691 114.226 62.8032 117.042 62.8032C119.764 62.8032 122.016 63.4555 123.706 64.8532C125.395 66.1577 126.24 68.0213 126.24 70.2576V75.8484C126.24 76.5006 126.615 76.8733 127.366 76.8733C127.836 76.8733 128.211 76.7802 128.399 76.687V81.2528C127.554 81.905 126.428 82.1846 125.114 82.1846C122.861 82.1846 121.359 81.4392 120.515 80.0415C119.013 81.6255 116.948 82.3709 114.508 82.3709ZM116.667 78.0847C117.981 78.0847 119.013 77.5256 119.67 76.5006V74.5439C118.919 73.9848 118.074 73.7052 116.948 73.7052C116.103 73.7052 115.446 73.8916 114.883 74.3575C114.32 74.7302 114.039 75.2893 114.039 75.9416C114.039 76.5938 114.32 77.0597 114.789 77.4324C115.353 77.8051 115.916 78.0847 116.667 78.0847Z" fill="#252525"/>
<path d="M138.254 70.2572V81.9046H131.777V63.3619H138.254V65.4118C139.849 63.7346 141.726 62.896 143.885 62.896C145.95 62.896 147.545 63.5483 148.766 64.9459C149.986 66.3436 150.549 68.2072 150.549 70.5367V81.9046H144.073V71.7481C144.073 70.7231 143.791 69.8845 143.322 69.4186C142.853 68.9527 142.196 68.6731 141.351 68.6731C140.037 68.6731 139.004 69.2322 138.254 70.2572Z" fill="#252525"/>
<path d="M163.781 82.3709C161.059 82.3709 158.619 81.5323 156.554 79.7619C154.489 77.9915 153.457 75.662 153.457 72.5871C153.457 69.5122 154.489 67.1827 156.554 65.4122C158.619 63.6418 161.059 62.8032 163.781 62.8032C165.846 62.8032 167.723 63.1759 169.319 63.9214V69.3258C167.817 68.6735 166.316 68.394 164.814 68.394C163.406 68.394 162.186 68.7667 161.247 69.5122C160.309 70.2576 159.839 71.2826 159.839 72.5871C159.839 73.8916 160.309 74.9166 161.247 75.662C162.186 76.4074 163.312 76.7802 164.814 76.7802C166.597 76.7802 168.193 76.4074 169.601 75.662V81.0664C167.817 81.9982 165.846 82.3709 163.781 82.3709Z" fill="#252525"/>
<path d="M182.551 82.3709C179.641 82.3709 177.201 81.5323 175.136 79.7619C173.165 77.9915 172.133 75.5688 172.133 72.5871C172.133 69.7917 173.071 67.5554 174.855 65.5986C176.638 63.735 179.078 62.8032 182.082 62.8032C184.804 62.8032 186.962 63.735 188.558 65.5054C190.247 67.2758 191.092 69.6053 191.092 72.4939V74.078H178.609C178.891 75.0098 179.548 75.7552 180.486 76.2211C181.425 76.687 182.645 76.9665 184.053 76.9665C186.118 76.9665 188.089 76.4074 190.06 75.3825V80.321C188.182 81.7187 185.648 82.3709 182.551 82.3709ZM178.515 70.8167H184.71C184.71 69.8849 184.428 69.1394 183.865 68.5804C183.302 68.0213 182.645 67.7417 181.8 67.7417C180.955 67.7417 180.205 68.0213 179.641 68.5804C178.984 69.0463 178.609 69.7917 178.515 70.8167Z" fill="#252525"/>
<path fill-rule="evenodd" clip-rule="evenodd" d="M78.936 51.9942C79.2175 51.1556 79.3114 50.1306 79.3114 49.1988C79.3114 46.4035 78.1851 44.074 76.0264 42.3036C73.8676 40.5331 70.9581 39.6013 67.2976 39.6013C62.8863 39.6013 58.9443 40.44 55.4716 42.1172V29.6311L71.3335 16.0269H46.1797V0H95.1733V14.3497L80.6254 27.1153C84.5674 28.1402 88.4156 30.1902 92.076 33.3583C96.4873 37.1787 98.7399 42.3967 98.7399 49.1057C98.7399 50.0375 98.7399 51.0624 98.646 51.9011H78.936V51.9942Z" fill="#E42122"/>
<path fill-rule="evenodd" clip-rule="evenodd" d="M117.604 33.9174L113.568 23.6676L109.532 33.9174H117.604ZM91.6992 29.8175L104.276 0H122.954L144.823 51.9942H124.737L123.517 48.8261H110.94H103.619H101.273C101.179 42.024 99.0201 35.9673 93.7641 31.4947C93.1071 30.9356 92.3562 30.3766 91.6992 29.8175Z" fill="#E42122"/>
<path d="M24.4957 90.6641L27.593 97.0003H26.4667L25.8097 95.6026H23.1817L22.5247 96.9071H21.3984L24.4957 90.6641ZM23.651 94.5776H25.4343L24.5896 92.714L23.651 94.5776Z" fill="#252525"/>
<path d="M28.4375 90.6641H30.6901C31.8164 90.6641 32.5672 91.4095 32.5672 92.3413C32.5672 92.9004 32.3795 93.2731 32.0041 93.5526C32.5672 93.8322 33.0365 94.2981 33.0365 95.0435C33.0365 96.1617 32.1918 96.8139 30.9717 96.8139H28.5314V90.6641H28.4375ZM30.5024 93.2731C31.1594 93.2731 31.4409 92.9004 31.4409 92.4345C31.4409 91.9686 31.1594 91.5959 30.5024 91.5959H29.4699V93.2731H30.5024ZM30.8778 95.9753C31.6287 95.9753 31.9102 95.6026 31.9102 95.0435C31.9102 94.4844 31.5348 94.1117 30.8778 94.1117H29.4699V95.8821H30.8778V95.9753Z" fill="#252525"/>
<path d="M34.6346 91.689H33.0391V90.6641H37.3565V91.689H35.6671V96.9071H34.6346V91.689Z" fill="#252525"/>
<path d="M37.7305 93.8322C37.7305 92.0618 39.1383 90.6641 40.9216 90.6641C42.7049 90.6641 44.1128 92.0618 44.1128 93.8322C44.1128 95.6026 42.7049 97.0003 40.9216 97.0003C39.2322 97.0003 37.7305 95.6026 37.7305 93.8322ZM43.1742 93.8322C43.1742 92.6208 42.2356 91.5959 41.0155 91.5959C39.7953 91.5959 38.8568 92.5276 38.8568 93.8322C38.8568 95.1367 39.7953 96.0685 41.0155 96.0685C42.2356 96.0685 43.1742 95.0435 43.1742 93.8322Z" fill="#252525"/>
<path d="M45.332 90.6641L48.4293 93.9253L51.5266 90.6641V97.0003H50.4942V93.1799L48.4293 95.4162L46.3645 93.1799V97.0003H45.332V90.6641Z" fill="#252525"/>
<path d="M52.6523 93.8322C52.6523 92.0618 54.0602 90.6641 55.8435 90.6641C57.6268 90.6641 59.0347 92.0618 59.0347 93.8322C59.0347 95.6026 57.6268 97.0003 55.8435 97.0003C54.0602 97.0003 52.6523 95.6026 52.6523 93.8322ZM58.0022 93.8322C58.0022 92.6208 57.0636 91.5959 55.8435 91.5959C54.6234 91.5959 53.6848 92.5276 53.6848 93.8322C53.6848 95.1367 54.6234 96.0685 55.8435 96.0685C57.0636 96.0685 58.0022 95.0435 58.0022 93.8322Z" fill="#252525"/>
<path d="M61.0057 91.689H59.4102V90.6641H63.7276V91.689H62.132V96.9071H61.0057V91.689Z" fill="#252525"/>
<path d="M64.5742 97.0003V90.6641H65.6066V94.6708L69.9241 90.6641V97.0003H68.8917V92.9936L64.5742 97.0003Z" fill="#252525"/>
<path d="M71.4258 90.6641H73.6784C74.8047 90.6641 75.5555 91.4095 75.5555 92.3413C75.5555 92.9004 75.3678 93.2731 74.9924 93.5526C75.5555 93.8322 76.0248 94.2981 76.0248 95.0435C76.0248 96.1617 75.1801 96.8139 73.9599 96.8139H71.5196V90.6641H71.4258ZM73.4907 93.2731C74.1477 93.2731 74.4292 92.9004 74.4292 92.4345C74.4292 91.9686 74.1477 91.5959 73.4907 91.5959H72.4582V93.2731H73.4907ZM73.7722 95.9753C74.5231 95.9753 74.8046 95.6026 74.8046 95.0435C74.8046 94.4844 74.4292 94.1117 73.7722 94.1117H72.3644V95.8821H73.7722V95.9753Z" fill="#252525"/>
<path d="M81.4685 90.6641L84.4719 96.9071H83.3457L82.6886 95.5094H80.0606L79.4036 96.9071H78.2773L81.4685 90.6641ZM80.5299 94.5776H82.3132L81.4685 92.714L80.5299 94.5776Z" fill="#252525"/>
<path d="M84.7539 93.8322C84.7539 92.0618 86.1618 90.6641 87.9451 90.6641C88.7898 90.6641 89.6345 90.9436 90.1976 91.5959L89.5406 92.2481C89.1652 91.8754 88.6021 91.5959 87.9451 91.5959C86.7249 91.5959 85.7863 92.5276 85.7863 93.8322C85.7863 95.1367 86.7249 96.0685 87.9451 96.0685C88.6021 96.0685 89.0713 95.7889 89.5406 95.4162L90.1976 96.1617C89.6345 96.7207 88.8836 97.0935 87.9451 97.0935C86.2556 97.0003 84.7539 95.6026 84.7539 93.8322Z" fill="#252525"/>
<path d="M90.5742 93.8322C90.5742 92.0618 91.9821 90.6641 93.7654 90.6641C94.6101 90.6641 95.4548 90.9436 96.018 91.5959L95.3609 92.3413C94.9855 91.9686 94.4224 91.689 93.7654 91.689C92.5452 91.689 91.6066 92.6208 91.6066 93.9253C91.6066 95.2299 92.5452 96.1617 93.7654 96.1617C94.4224 96.1617 94.8917 95.8821 95.3609 95.5094L96.018 96.2548C95.4548 96.8139 94.704 97.1866 93.7654 97.1866C91.9821 97.0003 90.5742 95.6026 90.5742 93.8322Z" fill="#252525"/>
<path d="M97.0508 97.0003V90.6641H98.0832V94.6708L102.401 90.6641V97.0003H101.368V92.9936L97.0508 97.0003Z" fill="#252525"/>
<path d="M103.527 93.8322C103.527 92.0618 104.935 90.6641 106.718 90.6641C107.563 90.6641 108.408 90.9436 108.971 91.5959L108.314 92.3413C107.939 91.9686 107.375 91.689 106.718 91.689C105.498 91.689 104.56 92.6208 104.56 93.9253C104.56 95.2299 105.498 96.1617 106.718 96.1617C107.375 96.1617 107.845 95.8821 108.314 95.5094L108.971 96.2548C108.408 96.8139 107.657 97.1866 106.718 97.1866C104.935 97.0003 103.527 95.6026 103.527 93.8322Z" fill="#252525"/>
<path d="M111.037 91.689H109.441V90.6641H113.759V91.689H112.163V96.9071H111.131V91.689H111.037Z" fill="#252525"/>
<path d="M115.82 90.6641L118.917 97.0003H117.791L117.134 95.6026H114.506L113.849 97.0003H112.723L115.82 90.6641ZM114.975 94.5776H116.759L115.914 92.714L114.975 94.5776Z" fill="#252525"/>
<path d="M119.762 90.6641H120.794V93.2731H123.891V90.6641H124.924V96.9071H123.891V94.2049H120.794V96.9071H119.762V90.6641Z" fill="#252525"/>
<path d="M126.051 93.8322C126.051 92.0618 127.459 90.6641 129.242 90.6641C130.087 90.6641 130.931 90.9436 131.495 91.5959L130.838 92.3413C130.462 91.9686 129.899 91.689 129.242 91.689C128.022 91.689 127.083 92.6208 127.083 93.9253C127.083 95.2299 128.022 96.1617 129.242 96.1617C129.899 96.1617 130.368 95.8821 130.838 95.5094L131.495 96.2548C130.931 96.8139 130.181 97.1866 129.242 97.1866C127.552 97.0003 126.051 95.6026 126.051 93.8322Z" fill="#252525"/>
<path d="M137.031 90.6641L140.128 97.0003H138.908L138.251 95.6026H135.623L134.966 97.0003H133.84L137.031 90.6641ZM136.092 94.5776H137.876L137.031 92.714L136.092 94.5776Z" fill="#252525"/>
<path d="M143.32 92.8072L141.349 97.0003H140.223L143.32 90.6641L146.417 97.0003H145.291L143.32 92.8072Z" fill="#252525"/>
<path d="M149.233 93.0868C150.547 93.0868 151.392 93.8323 151.392 95.0436C151.392 96.1617 150.547 97.0004 149.233 97.0004H147.168V90.7573H148.2V93.0868H149.233ZM148.294 95.9754H149.327C150.078 95.9754 150.547 95.6027 150.547 94.9504C150.547 94.2982 150.078 93.9254 149.327 93.9254H148.294V95.9754Z" fill="#252525"/>
<path d="M155.617 96.9072V94.6709H154.867L153.271 96.9072H152.051L153.74 94.4845C153.459 94.3913 153.271 94.2981 153.083 94.1118C152.708 93.7391 152.426 93.2732 152.426 92.7141C152.426 91.5028 153.365 90.7573 154.585 90.7573H156.556V97.0004H155.617V96.9072ZM155.617 91.5959H154.773C154.022 91.5959 153.553 91.9687 153.553 92.6209C153.553 93.2732 154.022 93.6459 154.773 93.6459H155.617V91.5959Z" fill="#252525"/>
<path d="M158.148 90.6641H159.181V93.2731H162.278V90.6641H163.311V96.9071H162.278V94.2049H159.181V96.9071H158.148V90.6641Z" fill="#252525"/>
<path d="M164.438 93.8322C164.438 92.0618 165.845 90.6641 167.629 90.6641C168.473 90.6641 169.318 90.9436 169.881 91.5959L169.224 92.3413C168.849 91.9686 168.286 91.689 167.629 91.689C166.409 91.689 165.47 92.6208 165.47 93.9253C165.47 95.2299 166.409 96.1617 167.629 96.1617C168.286 96.1617 168.755 95.8821 169.224 95.5094L169.881 96.2548C169.318 96.8139 168.567 97.1866 167.629 97.1866C165.845 97.0003 164.438 95.6026 164.438 93.8322Z" fill="#252525"/>
</svg>
