<svg width="280" height="170" viewBox="0 0 280 170" fill="none" xmlns="http://www.w3.org/2000/svg">
<g clip-path="url(#clip0_5156_91068)">
<path d="M198.858 67.0995C198.448 70.3371 198.472 73.4788 198.569 76.6445C198.593 77.1001 198.569 77.5318 198.978 77.8436C200.063 78.683 200.424 79.93 200.786 81.1292C201.002 81.8966 201.412 82.3043 202.183 82.5441C207.677 84.2708 212.978 86.3813 218.134 88.9234C225.266 92.4248 229.579 98.0847 231.651 105.639C233.29 111.611 234.254 117.678 234.735 123.842C235.314 130.988 235.266 138.135 234.88 145.282C234.687 149.143 234.422 153.004 233.748 156.817C233.579 157.729 233.796 158.04 234.784 158.016C237.145 157.945 239.53 157.993 241.892 158.016C242.325 158.016 243.048 157.849 243 158.544C242.952 159.144 242.301 158.904 241.892 158.904C216.303 158.904 190.738 158.904 165.149 158.904C122.621 158.904 80.0938 158.928 37.5662 158.904C37.012 158.904 36 159.36 36 158.424C36 157.681 36.9879 158.04 37.518 158.016C40.7708 157.969 44.0236 157.969 47.2765 158.016C48.0957 158.016 48.3607 157.777 48.4089 156.937C48.7222 151.805 49.0354 146.649 49.445 141.541C49.8064 136.888 50.1678 132.236 50.3606 127.559C50.4329 126 50.0474 124.537 49.5414 123.122C46.6741 115.064 44.2887 106.886 42.7225 98.4924C41.8792 93.9597 41.5418 89.4031 42.2888 84.7984C43.5899 76.7644 48.3848 71.5842 55.7338 68.4425C60.4323 66.452 65.2513 64.7972 70.0703 63.1664C72.022 62.5189 73.5882 61.3197 74.9857 59.8568C75.3712 59.4491 75.564 58.9215 75.6603 58.3459C76.1663 54.9165 76.4555 51.439 76.3591 47.9616C76.335 47.5299 76.4314 47.1942 75.7567 47.0503C71.2751 46.1149 68.7692 41.0787 70.9377 36.9057C71.8292 35.179 71.757 33.6921 71.4437 31.9654C70.6004 27.3368 70.2872 22.7082 72.6485 18.3194C75.1062 13.7388 79.1059 11.0288 83.8767 9.30207C88.9367 7.45543 94.1653 6.64003 99.5385 7.07171C103.08 7.3595 106.574 8.07897 109.779 9.75773C112.935 11.3885 114.236 14.0746 114.092 17.528C113.971 20.19 113.465 22.7322 111.851 24.9625C111.634 25.2743 111.634 25.5861 111.731 25.9698C113.273 31.7735 112.911 37.6732 112.574 43.5728C112.357 47.4819 111.851 51.3191 110.622 55.0604C109.321 59.0174 106.695 61.5356 102.695 62.6388C102.502 62.6867 102.309 62.7347 101.924 62.8546C102.839 63.718 103.731 64.2696 104.815 64.5574C111.562 66.3081 118.019 68.7783 123.633 73.0471C127.055 75.6372 128.983 79.2106 130.284 83.1916C131.561 87.1008 132.284 91.1058 132.79 95.1828C133.585 101.61 133.994 108.037 134.259 114.513C134.332 116.143 134.476 117.774 134.476 119.429C134.476 120.076 134.741 120.484 135.32 120.724C137.103 121.491 138.669 122.595 140.09 123.914C140.982 124.753 142.187 124.561 143.247 124.801C145.174 125.281 147.174 125.472 149.126 125.904C149.969 126.096 150.09 125.856 150.162 125.089C151.005 118.182 152.09 111.323 153.8 104.56C155.704 97.1014 160.258 92.137 167.221 89.1153C169.414 88.156 171.582 87.1487 173.871 86.4053C174.811 86.0935 175.341 85.5659 175.655 84.6785C175.92 83.9351 176.642 83.1197 176.474 82.5441C176.329 82.0165 175.124 82.1364 174.426 81.8726C170.064 80.1699 167.486 76.9323 166.282 72.5195C165.607 70.0493 165.438 67.4832 165.535 64.9411C165.583 63.8619 165.197 63.5741 164.185 63.5741C156.427 63.5981 148.692 63.5981 140.934 63.5741C138.259 63.5741 137.392 62.7347 137.392 60.0966C137.392 45.7792 137.392 31.4857 137.392 17.1683C137.392 14.6022 138.259 13.7388 140.861 13.7388C167.366 13.7388 193.87 13.7388 220.375 13.7388C222.857 13.7388 223.652 14.5542 223.652 17.0244C223.652 31.4857 223.652 45.9711 223.652 60.4324C223.652 62.7347 222.784 63.5741 220.447 63.5741C215.821 63.5741 211.219 63.5981 206.592 63.5501C205.701 63.5501 205.123 63.8139 204.617 64.5574C203.123 66.7877 201.051 67.6751 198.858 67.0995ZM154.933 39.6157V39.6877L154.861 39.7117C154.812 39.7836 154.764 39.8316 154.716 39.9035C152.812 42.7574 150.933 45.6353 149.03 48.4892C147.487 50.8155 145.945 53.1418 144.379 55.4441C144.162 55.7558 144.018 56.3794 143.415 55.9237C142.837 55.492 143.319 55.1803 143.512 54.8205C143.56 54.7486 143.608 54.7006 143.656 54.6287C147.174 49.3526 150.716 44.0765 154.21 38.7764C154.764 37.937 155.053 37.9849 155.704 38.6564C159.174 42.2778 162.667 45.8511 166.137 49.4485C166.523 49.8322 166.812 50.3358 167.39 50.5517C168.089 47.8896 168.739 45.2516 169.51 42.6135C169.775 41.7262 169.655 41.1746 168.932 40.551C166.378 38.3207 166.788 34.6034 169.727 32.9007C171.221 32.0373 172.835 31.4617 174.522 31.102C181.076 29.711 187.63 29.5671 194.159 31.126C197.268 31.8694 200.328 32.8527 202.545 35.3948C202.81 35.6826 203.075 35.6826 203.388 35.6826C205.147 35.5867 206.352 36.498 207.219 37.913C208.592 40.1194 209.05 42.6135 208.857 45.1317C208.592 48.9688 207.556 52.6381 205.291 55.8518C204.978 56.3074 204.954 56.6672 205.195 57.1468C205.87 58.5378 206.159 60.0247 205.87 61.5596C205.677 62.4949 206.038 62.5908 206.833 62.5668C211.291 62.5428 215.749 62.5428 220.206 62.5428C222.302 62.5428 222.664 62.2071 222.664 60.1446C222.664 45.9231 222.664 31.7016 222.664 17.4561C222.664 15.2257 222.254 14.818 220.037 14.794C194.015 14.794 167.992 14.794 141.994 14.794C141.464 14.794 140.958 14.77 140.428 14.794C139.102 14.842 138.524 15.3696 138.5 16.6886C138.476 18.2475 138.5 19.8063 138.5 21.3652C138.5 34.3636 138.5 47.338 138.5 60.3365C138.5 62.0872 138.91 62.5189 140.548 62.5189C148.62 62.5189 156.692 62.5189 164.764 62.5428C165.462 62.5428 165.751 62.399 165.776 61.6315C165.872 58.7297 166.474 55.8758 166.908 52.9979C167.029 52.2544 166.908 51.7508 166.354 51.1992C162.619 47.362 158.909 43.4769 155.174 39.6157C155.077 39.5918 155.005 39.5918 154.933 39.6157ZM215.122 157.657C214.978 157.777 214.978 157.849 215.17 157.897C220.953 157.897 226.712 157.897 232.495 157.921C232.808 157.825 232.736 157.561 232.76 157.321C233.651 151.277 233.964 145.162 234.157 139.07C234.326 133.89 234.133 128.686 233.748 123.506C233.29 117.438 232.35 111.491 230.615 105.639C228.808 99.5236 225.748 94.3674 220.037 91.0818C214.375 87.8442 208.351 85.47 202.159 83.5034C201.701 83.3595 201.508 83.3595 201.316 83.9111C199.509 89.3071 196.159 93.6959 192.063 97.5571C190.377 99.1399 190.063 99.0919 188.425 97.4611C187.172 96.1901 187.124 96.1901 186.136 97.677C185.63 98.4204 184.762 99.02 184.835 100.027C184.979 102.425 185.124 104.8 185.341 107.198C185.871 113.481 186.425 119.765 186.955 126.048C187.413 131.54 187.847 137.032 188.328 142.5C188.377 143.004 188.208 143.339 187.919 143.675C185.799 146.121 183.654 148.543 181.534 151.014C180.955 151.685 180.546 151.781 179.968 150.99C178.016 148.304 176.04 145.642 174.064 142.98C173.655 142.404 173.39 141.828 173.51 141.085C174.257 136.408 174.98 131.708 175.727 127.031C177.124 118.374 178.546 109.716 179.943 101.058C180.136 99.8114 180.449 98.6123 179.437 97.4371C178.474 96.334 178.57 96.262 177.606 97.4371C176.859 98.3485 176.281 98.2765 175.775 97.1733C175.317 96.1901 175.124 95.1348 174.883 94.0796C174.353 91.8253 174.377 89.523 174.426 87.1247C170.811 88.4917 167.438 89.9067 164.209 91.7293C159.728 94.2715 156.86 98.0367 155.318 102.881C153.873 107.342 153.005 111.922 152.258 116.527C151.776 119.429 151.343 122.355 151.054 125.305C150.981 126.048 151.198 126.24 151.921 126.312C153.029 126.432 154.114 126.72 155.222 126.935C155.487 126.983 155.824 127.103 155.776 127.463C155.704 127.823 155.318 127.751 155.077 127.703C153.849 127.535 152.62 127.319 151.415 127.103C148.62 126.624 145.825 126.168 142.885 125.664C145.994 131.3 145.536 136.528 141.632 141.517C145.753 142.884 149.728 144.155 153.945 144.514C156.065 144.682 158.186 144.73 160.234 144.035C160.619 143.843 160.475 143.483 160.475 143.195C160.475 139.526 160.475 135.881 160.451 132.212C160.451 131.852 160.499 131.492 160.234 131.18C160.113 125.137 160.547 119.117 160.716 113.098C160.764 111.347 160.884 109.596 160.981 107.845C161.005 107.486 161.029 107.054 161.535 107.102C161.993 107.15 161.896 107.558 161.896 107.869C161.872 108.517 161.824 109.141 161.8 109.788C161.607 113.457 161.414 117.127 161.222 120.796C161.125 124.058 161.077 127.319 161.222 130.605C161.27 131.516 161.342 132.427 161.342 133.339C161.366 141.181 161.39 148.999 161.438 156.841C161.438 157.201 161.198 157.633 161.655 157.921C161.944 157.945 162.21 157.969 162.499 157.969C179.317 157.969 196.135 157.969 212.954 157.969C213.267 157.969 213.58 157.921 213.917 157.897C214.182 157.753 214.11 157.489 214.134 157.273C214.303 152.237 214.496 147.224 214.592 142.188C214.712 136.96 214.11 131.756 213.628 126.552C213.339 123.29 212.978 120.052 212.761 116.791C212.568 114.177 212.544 111.539 212.448 108.901C212.448 108.589 212.303 108.085 212.857 108.061C213.484 108.013 213.339 108.541 213.387 108.925C213.411 109.164 213.387 109.404 213.387 109.644C213.363 114.393 213.869 119.117 214.255 123.842C214.64 128.518 215.291 133.195 215.387 137.895C215.604 144.49 215.315 151.062 215.122 157.657ZM95.1291 115.544C95.1773 115.568 95.2496 115.592 95.2978 115.616C95.2737 115.568 95.2496 115.52 95.2255 115.472C93.2256 112.738 91.2257 110.004 89.2017 107.294C84.1177 100.459 79.5878 93.2402 74.7206 86.2614C74.311 85.6618 74.3592 85.2301 74.8411 84.7025C75.7085 83.7432 76.5037 82.76 77.2988 81.7527C78.1662 80.6735 78.0698 80.2658 76.8651 79.6183C75.4435 78.8748 73.9014 78.4191 72.3834 77.9395C71.3232 77.6037 71.01 77.0522 71.1305 75.9969C71.4437 73.3349 71.7088 70.6968 71.9738 68.0348C72.0943 66.7877 72.1907 65.5406 71.9738 64.0058C71.4678 64.7972 71.4678 65.4447 71.4437 66.0443C71.2751 69.4018 70.8413 72.7113 70.4076 76.0449C70.1908 77.6997 70.3835 77.9875 71.9979 78.563C73.1304 78.9468 74.2869 79.3065 75.3953 79.7382C77.4916 80.5296 77.4916 80.5296 76.0218 82.1604C75.4676 82.7839 74.9375 83.4314 74.3833 84.055C73.5882 84.9423 73.6364 85.8057 74.311 86.765C76.1663 89.475 77.9735 92.185 79.8047 94.919C84.2863 101.586 88.768 108.253 93.8039 114.537C94.1171 114.968 94.4062 115.544 95.1291 115.544ZM97.635 79.2585C97.9482 79.0187 97.8036 78.659 97.8518 78.3712C98.0205 77.5798 98.3337 76.8363 98.7915 76.1888C99.177 75.6132 99.0807 75.2535 98.7192 74.7259C97.8036 73.4068 96.5989 72.4715 95.2978 71.5602C94.6954 71.1285 94.334 71.2964 93.8761 71.776C93.1051 72.5675 92.6714 73.5507 92.0208 74.4141C91.1775 75.5413 91.1775 76.3807 92.2618 77.3879C93.1051 78.1793 93.6593 79.1626 93.5629 80.4576C93.2015 86.3573 92.9123 92.257 92.575 98.1566C92.5027 99.3557 92.6473 100.435 93.1292 101.538C94.3821 104.464 95.5869 107.438 96.8639 110.364C97.1772 111.107 97.3458 111.922 98.0687 112.594C98.6711 109.5 99.2734 106.55 99.8276 103.577C100.117 102.018 100.695 100.483 100.575 98.8761C100.237 94.1755 99.4421 89.547 98.6229 84.9184C98.2855 82.9998 97.9723 81.1292 97.635 79.2585ZM98.3819 65.6366C97.8518 65.6366 97.6109 65.6366 97.3699 65.6366C92.2136 65.7805 88.4548 63.3582 85.5393 59.3292C85.3224 59.0174 85.0815 58.7057 85.3706 58.3699C85.6839 57.9862 85.9489 58.3699 86.1898 58.5138C90.6233 61.2958 95.37 62.7347 100.671 62.0392C104.888 61.4876 107.996 59.4731 109.538 55.3961C110.55 52.7101 111.104 49.9042 111.393 47.0503C112.044 40.647 112.598 34.2437 111.297 27.8644C110.719 25.0105 109.923 22.2046 108.333 19.6864C107.321 20.3819 106.309 20.9095 105.177 21.2693C101.442 22.4444 97.7554 22.0607 94.093 20.9335C91.3944 20.1181 88.6957 19.4706 85.8525 19.8063C84.0695 19.9982 82.9129 20.9575 82.3587 22.6123C81.9973 23.6675 82.0214 24.7707 82.2142 25.8019C82.7202 28.5839 82.7684 31.3658 82.3587 34.1478C82.1419 35.6347 81.925 37.1456 81.2986 38.5365C81.0335 39.1361 80.6239 39.6637 79.9252 39.7117C79.1782 39.7596 79.0818 39.0641 78.8409 38.6085C78.3108 37.5772 77.8289 36.546 76.8651 35.8025C74.9616 34.3396 72.8894 34.7713 71.757 36.8818C71.01 38.2727 70.9377 39.7836 71.1064 41.3185C71.3955 43.7647 73.6123 46.1389 75.7326 46.3788C76.9615 46.5226 77.0338 46.6665 77.1301 47.7697C77.4434 51.0553 77.0338 54.3169 76.6 57.5545C76.4555 58.5858 76.7928 59.2093 77.5879 59.7369C80.3348 61.6555 83.0575 63.622 85.8284 65.4927C87.8524 66.8597 90.0932 67.771 92.3341 68.7303C94.0207 69.4737 95.3459 68.9941 96.5507 67.8909C97.2253 67.2434 97.6832 66.4999 98.3819 65.6366ZM179.076 84.2469C180.208 86.0455 181.269 87.6763 182.546 89.1393C182.811 89.427 183.052 89.5709 183.461 89.3311C188.377 86.717 193.147 83.8871 197.316 80.1699C197.822 79.7382 197.966 79.2346 197.87 78.563C197.388 74.7259 197.629 70.9127 197.991 67.0995C198.063 66.452 198.063 66.0203 198.978 66.404C199.798 66.7398 200.713 66.5959 201.533 66.1882C204.062 64.9651 205.653 61.7754 205.002 59.0894C204.689 57.7943 204.255 56.4993 202.713 56.1635C201.219 55.8038 199.942 56.2835 198.906 57.3627C198.4 57.8903 197.991 58.4659 197.485 58.9935C197.171 59.3292 197.099 59.9767 196.473 59.8568C195.822 59.7369 195.677 59.1374 195.533 58.5858C194.906 56.2355 194.159 53.9572 193.292 51.7028C191.991 48.2494 190.762 44.748 191.774 40.8628C191.34 41.0067 191.051 41.1026 190.762 41.1986C184.955 43.381 179.028 43.9565 173.004 42.2778C170.402 41.5583 170.763 41.6063 170.089 44.0525C168.546 49.6404 167.245 55.2762 166.643 61.0559C166.233 64.989 166.185 68.8262 167.221 72.6634C168.498 77.4119 172.619 81.1292 177.293 81.4889C181.63 81.8246 185.75 81.1531 189.22 78.2513C189.413 78.0834 189.654 77.6517 189.991 78.0354C190.256 78.3472 190.015 78.611 189.798 78.8508C189.244 79.4264 188.642 79.978 188.184 80.6255C185.967 83.6473 182.883 84.5346 179.076 84.2469ZM112.237 138.015C112.55 138.015 112.743 138.063 112.935 138.015C114.092 137.751 114.983 136.96 116.044 136.528C118.236 135.665 119.417 135.353 120.838 137.44C121.2 137.967 121.465 137.584 121.73 137.488C122.381 137.248 123.2 136.96 123.633 137.488C124.694 138.759 126.115 139.646 127.103 140.845C128.236 142.236 129.633 143.459 130.476 145.114C130.669 145.498 131.055 145.786 131.464 145.953C132.428 146.337 133.368 146.361 134.115 145.57C134.838 144.826 134.38 144.083 133.922 143.411C132.934 141.996 131.778 140.749 130.549 139.526C130.308 139.286 129.609 139.094 130.139 138.543C130.717 137.943 130.958 138.687 131.223 138.951C131.874 139.598 132.476 140.294 133.055 141.013C133.946 142.092 134.741 143.219 135.681 144.275C136.283 144.946 137.103 144.994 137.874 144.514C138.669 144.011 139.006 143.291 138.596 142.356C138.331 141.732 138.066 141.109 137.705 140.557C136.476 138.735 135.054 137.056 133.464 135.521C133.175 135.257 132.597 134.969 133.055 134.49C133.416 134.13 133.777 134.562 134.042 134.85C135.922 136.648 137.657 138.615 138.934 140.869C139.464 141.804 139.994 141.661 140.62 141.229C141.343 140.725 141.584 139.982 141.512 139.142C141.391 137.991 140.958 136.984 140.235 136.097C137.657 132.931 134.838 129.981 131.826 127.223C129.898 125.472 129.127 125.52 126.959 126.983C125.609 127.895 124.212 128.542 122.501 128.422C120.405 128.278 119.561 127.031 120.357 125.089C120.622 124.441 121.079 123.938 121.561 123.482C122.091 122.978 122.646 122.451 123.393 121.755C121.778 121.923 120.501 122.139 119.2 122.187C117.827 122.235 116.959 123.362 115.73 123.674C115.658 123.698 115.61 123.938 115.586 124.082C115.272 126 115.032 127.943 114.622 129.837C114.068 132.619 114.26 135.593 112.237 138.015ZM160.595 144.994C160.017 145.114 159.631 145.186 159.246 145.258C155.053 145.881 150.957 145.282 146.933 144.107C145.03 143.555 143.126 142.932 141.199 142.428C140.669 142.284 139.97 141.996 139.705 143.004C139.102 145.306 138.886 145.426 136.356 145.45C135.874 145.45 135.633 145.498 135.633 146.073C135.705 149.671 135.536 153.244 135.777 156.841C135.85 157.801 136.187 157.993 137.054 157.993C144.235 157.969 151.415 157.969 158.595 157.969C159.077 157.969 159.559 157.969 160.041 157.945C160.378 157.945 160.571 157.945 160.571 157.441C160.595 153.34 160.595 149.239 160.595 144.994ZM142.572 138.495C144.042 135.665 144.548 132.763 143.705 129.693C143.271 128.135 142.693 126.6 141.175 125.832C140.259 125.377 139.488 124.777 138.765 124.129C135.898 121.539 132.452 120.316 128.669 120.028C127.175 119.909 125.706 120.244 124.67 121.491C123.778 122.571 122.838 123.602 121.85 124.609C121.224 125.257 120.622 126.072 121.176 126.935C121.682 127.727 122.67 127.703 123.561 127.583C125.055 127.391 126.212 126.552 127.32 125.616C127.585 125.377 127.802 125.041 128.212 125.113C129.464 125.377 130.79 125.281 131.922 126.192C134.428 128.206 136.597 130.557 138.741 132.907C140.259 134.586 141.946 136.145 142.572 138.495ZM199.195 79.3784C198.376 80.4816 197.364 81.345 196.352 82.1844C192.69 85.2061 188.618 87.6044 184.425 89.7868C183.63 90.1945 183.389 90.4823 184.064 91.2497C185.823 93.2642 187.582 95.3027 189.461 97.1973C190.039 97.7729 190.425 97.8209 191.051 97.2693C195.075 93.6479 198.256 89.451 200.28 84.4387C200.448 84.031 200.593 83.5993 200.472 83.1677C200.087 81.8726 199.798 80.6015 199.195 79.3784ZM76.2145 59.8808C76.2386 60.7921 76.3591 61.4397 76.6 62.0872C77.9494 65.4207 79.3228 68.7783 80.648 72.1118C80.8167 72.5195 81.0576 72.8073 81.3709 73.0471C83.2985 74.486 85.2501 75.877 87.1536 77.316C87.8042 77.8196 88.1897 77.7476 88.8162 77.1721C90.8402 75.3254 91.7317 72.6874 93.6352 70.7928C94.0448 70.3851 93.6111 70.2652 93.2256 70.1452C88.2379 68.4665 83.9008 65.6605 79.7083 62.6148C78.5758 61.7514 77.4675 60.8641 76.2145 59.8808ZM81.7805 74.534C81.7082 74.582 81.66 74.6299 81.5877 74.7019C84.9369 82.4002 88.2861 90.1225 91.7076 98.0127C91.9967 92.5447 92.1413 87.3166 92.5991 82.1364C92.7678 80.2898 92.5027 78.8748 91.3221 77.4599C90.6233 76.6445 90.3583 76.6684 89.7559 77.4838C88.5271 79.1146 88.2379 79.1386 86.5272 77.9635C84.9369 76.8363 83.3707 75.6612 81.7805 74.534ZM107.899 138.423C110.694 138.735 112.116 137.727 112.743 134.945C113.417 131.9 114.044 128.83 114.622 125.76C114.815 124.753 114.935 123.698 114.574 122.691C114.236 121.755 113.489 121.635 112.646 121.707C111.803 121.779 111.947 122.427 111.851 122.93C111.393 125.544 110.839 128.135 110.213 130.725C109.562 133.315 108.839 135.881 107.899 138.423ZM103.129 72.4236C103.177 69.2099 102.767 66.4999 101.418 63.9818C101.273 63.694 101.394 63.1664 100.888 63.1664C100.406 63.1904 100.358 63.67 100.213 64.0298C99.3457 66.38 98.0928 68.4665 95.7797 69.7136C95.2014 70.0253 95.105 70.3131 95.7556 70.6968C96.8639 71.3444 97.7795 72.2557 98.647 73.191C99.3939 74.0064 100.069 74.9177 100.791 75.7571C101.707 76.8363 102.044 76.7884 102.647 75.5173C103.153 74.4141 103.153 73.215 103.129 72.4236ZM176.667 97.0774C176.932 96.8616 177.004 96.8376 177.052 96.7656C178.425 95.0389 179.799 93.3362 181.148 91.5854C182.281 90.0985 182.257 90.0985 181.124 88.6356C180.449 87.7483 179.775 86.8369 179.172 85.9016C178.618 85.0143 178.16 84.079 177.606 83.0717C174.257 87.6284 175.149 92.257 176.667 97.0774ZM103.321 76.3806C101.972 77.9635 101.827 77.9635 100.454 76.7644C100.189 76.5485 99.8517 76.0689 99.6108 76.5725C99.0566 77.6997 98.2373 78.7069 98.6229 80.2178C99.5385 83.7912 99.9963 87.4845 100.526 91.1298C100.743 92.6167 100.96 94.0796 101.177 95.5665C102.382 89.2831 103.105 82.9998 103.321 76.3806ZM110.55 120.148C110.044 119.669 109.586 119.669 109.152 119.621C103.803 118.925 98.4542 118.038 93.1292 117.175C87.1536 116.191 81.154 115.424 75.1543 114.728C74.311 114.632 73.6123 114.465 73.2749 113.433C70.504 105.064 67.4921 96.7896 64.8176 88.3958C64.6007 87.7483 64.5526 86.9089 63.8056 86.5012C63.4924 86.8849 63.7333 87.1727 63.8297 87.4605C66.8175 96.334 69.7812 105.231 72.793 114.105C73.0099 114.752 72.9376 114.968 72.2629 115.04C71.7088 115.112 71.1546 115.208 70.6004 115.328C70.3594 115.376 70.0944 115.472 70.1185 115.76C70.1667 116.143 70.4558 116.143 70.745 116.095C71.0582 116.047 71.3714 115.999 71.6847 115.904C73.1063 115.496 74.552 115.256 76.0459 115.52C77.2747 115.736 78.5035 115.856 79.7324 115.999C84.6237 116.623 89.4909 117.295 94.358 118.086C99.1048 118.853 103.851 119.573 108.598 120.292C109.225 120.34 109.827 120.46 110.55 120.148ZM104.984 142.284C104.478 141.732 104.044 141.709 103.611 141.661C99.0325 141.181 94.4544 140.701 89.8764 140.222C81.7805 139.382 73.6846 138.687 65.6609 137.32C60.7455 136.48 56.1675 135.209 53.2761 130.701C53.1315 130.485 52.9388 130.269 52.6978 130.437C52.3123 130.701 52.746 130.892 52.8665 131.108C54.9387 134.538 58.1433 136.432 61.9262 137.296C66.0705 138.255 70.2631 138.903 74.4797 139.334C79.4914 139.838 84.5032 140.413 89.515 140.965C93.9002 141.445 98.2855 141.876 102.671 142.332C103.394 142.38 104.092 142.452 104.984 142.284ZM106.116 67.1235C105.996 68.0108 106.454 68.5624 106.767 69.138C107.924 71.3204 108.936 73.5987 109.707 75.949C110.574 78.587 111.128 78.1553 108.405 79.8821C107.128 80.6975 107.08 81.2491 108.261 82.2803C109.297 83.1676 110.333 84.055 111.393 84.8944C112.212 85.5419 112.405 86.2374 112.116 87.2926C109.851 95.1588 107.032 102.833 103.538 110.244C102.743 111.898 101.9 113.529 101.081 115.184C102.189 114.656 102.574 113.577 103.056 112.618C106.839 105.279 109.634 97.557 112.044 89.6908C113.369 85.374 113.923 86.0455 109.996 82.664C109.369 82.1124 108.213 81.6328 108.189 81.0332C108.116 80.1938 109.393 79.978 110.092 79.5223C110.959 78.9468 111.225 78.3232 110.887 77.292C110.237 75.4453 109.61 73.5987 108.791 71.8C108.044 70.2412 107.393 68.5864 106.116 67.1235ZM118.308 144.49C119.345 144.466 120.067 144.035 120.718 143.411C121.609 142.548 122.405 141.589 123.465 140.917C124.284 140.389 124.284 139.766 123.802 138.999C123.272 138.159 122.67 137.727 121.754 138.351C120.236 139.382 118.742 140.437 117.248 141.517C116.574 142.02 116.309 142.716 116.598 143.531C116.935 144.347 117.682 144.395 118.308 144.49ZM121.85 146.649C123.706 145.905 125.489 144.754 126.886 143.171C127.489 142.5 126.645 141.709 126.163 141.085C125.657 140.461 125.103 140.653 124.573 141.037C123.152 142.092 121.85 143.267 120.646 144.538C120.26 144.946 120.26 145.498 120.501 146.001C120.718 146.457 121.176 146.625 121.85 146.649ZM123.079 120.172C123.706 119.693 123.633 119.381 123.658 119.117C123.971 115.4 123.778 111.683 123.923 107.989C124.139 102.21 124.043 96.4059 124.067 90.6262C124.067 90.2185 124.115 89.7388 123.393 89.6429C123.393 99.7634 123.417 109.812 123.079 120.172ZM118.308 136.744C116.622 136.888 115.297 137.751 114.212 138.951C113.586 139.646 113.465 140.509 114.02 141.253C114.574 142.044 115.393 141.613 115.971 141.277C117.321 140.509 118.574 139.598 119.851 138.711C120.043 138.567 120.357 138.447 120.116 138.039C119.706 137.368 119.296 136.672 118.308 136.744ZM125.947 148.352C127.416 148.304 128.163 147.105 129.175 146.313C130.211 145.522 129.296 144.994 128.91 144.371C128.477 143.627 127.995 143.627 127.368 144.083C126.597 144.658 125.826 145.21 125.079 145.786C124.549 146.193 124.188 146.673 124.501 147.416C124.742 148.088 125.2 148.448 125.947 148.352ZM97.7795 158.088C97.9723 157.825 98.0687 157.777 98.0687 157.705C98.4301 153.532 98.6229 149.359 98.5265 145.162C98.5265 144.85 98.5265 144.442 98.0928 144.442C97.6832 144.442 97.8277 144.874 97.8277 145.114C97.9 148.783 97.7795 152.453 97.5627 156.122C97.5627 156.721 97.4181 157.345 97.7795 158.088ZM123.441 147.992C123.296 148.016 123.248 148.016 123.248 148.04C122.959 151.182 123.248 154.299 123.2 157.441C123.2 157.681 123.296 157.945 123.633 157.873C123.947 157.801 123.874 157.489 123.874 157.273C123.826 155.163 123.826 153.052 123.73 150.942C123.633 149.982 123.874 148.951 123.441 147.992Z" fill="#1F2E43"/>
<path d="M160.258 144.059C158.21 144.754 156.089 144.706 153.969 144.538C149.752 144.178 145.752 142.907 141.656 141.54C145.56 136.552 145.993 131.324 142.909 125.688C145.849 126.192 148.644 126.647 151.439 127.127C152.668 127.343 153.896 127.535 155.101 127.727C155.342 127.775 155.728 127.846 155.8 127.487C155.872 127.151 155.511 127.031 155.246 126.959C154.162 126.719 153.053 126.432 151.945 126.336C151.222 126.264 150.981 126.048 151.077 125.328C151.367 122.402 151.8 119.477 152.282 116.551C153.029 111.946 153.896 107.366 155.342 102.905C156.908 98.0604 159.776 94.2712 164.233 91.7531C167.438 89.9304 170.835 88.5155 174.45 87.1485C174.425 89.5707 174.377 91.873 174.907 94.1033C175.148 95.1586 175.341 96.2138 175.799 97.1971C176.305 98.3003 176.883 98.3722 177.63 97.4609C178.594 96.2857 178.497 96.3577 179.461 97.4609C180.449 98.612 180.16 99.8351 179.967 101.082C178.57 109.74 177.148 118.397 175.751 127.055C175.004 131.732 174.281 136.432 173.534 141.109C173.413 141.852 173.678 142.428 174.088 143.003C176.064 145.665 178.064 148.327 179.991 151.013C180.57 151.805 180.979 151.709 181.558 151.037C183.654 148.567 185.798 146.145 187.943 143.699C188.232 143.363 188.401 143.027 188.352 142.524C187.87 137.032 187.437 131.54 186.979 126.072C186.449 119.788 185.871 113.505 185.365 107.222C185.172 104.847 185.003 102.449 184.859 100.051C184.81 99.0197 185.678 98.4441 186.16 97.7007C187.148 96.1898 187.172 96.2138 188.449 97.4848C190.063 99.1156 190.4 99.1636 192.087 97.5808C196.183 93.7196 199.532 89.3309 201.34 83.9348C201.532 83.3832 201.701 83.3832 202.183 83.5271C208.375 85.4937 214.399 87.8679 220.061 91.1056C225.772 94.3911 228.832 99.5473 230.639 105.663C232.374 111.515 233.314 117.462 233.771 123.53C234.157 128.71 234.35 133.914 234.181 139.094C233.988 145.186 233.675 151.301 232.783 157.345C232.759 157.561 232.832 157.848 232.518 157.944C232.109 157.585 231.603 157.752 231.121 157.752C225.796 157.728 220.447 157.704 215.122 157.68C215.315 151.109 215.604 144.514 215.435 137.919C215.315 133.219 214.688 128.542 214.303 123.865C213.893 119.141 213.411 114.416 213.435 109.668C213.435 109.428 213.435 109.188 213.435 108.948C213.411 108.589 213.556 108.037 212.905 108.085C212.375 108.109 212.496 108.613 212.496 108.924C212.568 111.562 212.616 114.201 212.809 116.815C213.026 120.076 213.387 123.314 213.676 126.575C214.134 131.78 214.736 136.984 214.64 142.212C214.544 147.248 214.351 152.26 214.182 157.297C214.182 157.513 214.254 157.776 213.965 157.92C213.58 157.585 213.122 157.728 212.688 157.728C196.111 157.728 179.534 157.728 162.98 157.728C162.547 157.728 162.089 157.585 161.727 157.92C161.27 157.633 161.511 157.201 161.511 156.841C161.462 148.999 161.462 141.181 161.414 133.338C161.414 132.427 161.318 131.516 161.294 130.604C161.607 130.269 161.486 129.861 161.486 129.477C161.486 127.103 161.511 124.705 161.486 122.331C161.486 121.827 161.655 121.299 161.294 120.82C161.486 117.15 161.679 113.481 161.872 109.812C161.896 109.164 161.968 108.541 161.968 107.893C161.968 107.605 162.065 107.174 161.607 107.126C161.101 107.078 161.077 107.509 161.053 107.869C160.956 109.62 160.836 111.371 160.788 113.121C160.619 119.141 160.185 125.16 160.306 131.204C160.258 135.473 160.258 139.766 160.258 144.059Z" fill="#AC2A21"/>
<path d="M155.177 39.5916C158.887 43.4528 162.598 47.314 166.357 51.1751C166.887 51.7267 167.007 52.2303 166.911 52.9738C166.477 55.8517 165.899 58.7056 165.778 61.6074C165.754 62.3749 165.465 62.5188 164.766 62.5188C156.695 62.4948 148.623 62.4948 140.551 62.4948C138.913 62.4948 138.503 62.0631 138.503 60.3124C138.503 47.314 138.503 34.3395 138.503 21.3411C138.503 19.7822 138.479 18.2234 138.503 16.6645C138.527 15.3455 139.105 14.7939 140.43 14.7699C140.961 14.746 141.467 14.7699 141.997 14.7699C168.019 14.7699 194.042 14.7699 220.04 14.7699C222.257 14.7699 222.667 15.1776 222.667 17.432C222.667 31.6535 222.667 45.875 222.667 60.1205C222.667 62.183 222.329 62.5188 220.209 62.5188C215.751 62.5188 211.294 62.4948 206.836 62.5427C206.041 62.5427 205.68 62.4708 205.872 61.5355C206.186 60.0006 205.897 58.5137 205.198 57.1227C204.957 56.6431 204.981 56.2594 205.294 55.8277C207.559 52.6141 208.571 48.9448 208.86 45.1076C209.053 42.5894 208.595 40.0953 207.222 37.8889C206.354 36.4979 205.15 35.5866 203.391 35.6585C203.077 35.6825 202.788 35.6825 202.547 35.3708C200.331 32.8286 197.271 31.8454 194.162 31.1019C187.633 29.543 181.079 29.7109 174.525 31.0779C172.838 31.4377 171.224 32.0132 169.73 32.8766C166.79 34.5793 166.381 38.2966 168.935 40.527C169.658 41.1505 169.778 41.7021 169.513 42.5894C168.766 45.2035 168.116 47.8416 167.393 50.5276C166.815 50.3117 166.525 49.8081 166.14 49.4244C162.646 45.8271 159.152 42.2537 155.707 38.6324C155.08 37.9608 154.767 37.9369 154.213 38.7523C150.719 44.0524 147.177 49.3285 143.659 54.6046C143.611 54.6765 143.563 54.7245 143.515 54.7964C143.322 55.1562 142.84 55.4919 143.418 55.8996C144.045 56.3553 144.189 55.7318 144.382 55.42C145.948 53.1177 147.49 50.7914 149.032 48.4651C150.936 45.6112 152.815 42.7333 154.719 39.8794C154.767 39.8075 154.815 39.7595 154.863 39.6876L154.936 39.6636V39.5916L155.056 39.5677L155.177 39.5916ZM181.031 25.8738C183.536 25.8738 185.271 24.147 185.295 21.7008C185.319 19.2786 183.392 17.36 180.982 17.384C178.573 17.408 176.669 19.3266 176.693 21.7488C176.718 24.0991 178.573 25.8738 181.031 25.8738ZM217.631 51.295C217.607 49.5203 216.185 48.1054 214.402 48.1294C212.571 48.1533 211.222 49.5923 211.27 51.5109C211.294 53.2856 212.764 54.6525 214.547 54.6046C216.33 54.5326 217.631 53.1177 217.631 51.295ZM212.812 22.1325C212.33 22.6601 212.041 22.9959 211.703 23.3316C208.764 26.3294 205.8 29.3272 202.885 32.349C202.62 32.6368 201.776 32.8766 202.403 33.5241C203.029 34.1477 203.318 33.4042 203.632 33.0924C206.74 29.9747 209.8 26.8091 212.884 23.6914C213.101 23.4755 213.246 23.0678 213.752 23.0918C213.752 23.7393 213.727 24.3868 213.752 25.0104C213.776 25.4181 214.065 25.7299 214.402 25.7299C214.739 25.7299 214.836 25.3222 214.836 24.9864C214.836 23.8592 214.812 22.7561 214.812 21.6289C214.812 21.1972 214.643 20.9814 214.161 21.0053C212.956 21.0773 211.752 21.0773 210.547 21.1253C210.258 21.1492 209.872 21.0773 209.872 21.5809C209.896 22.0845 210.234 22.1325 210.619 22.1325C211.27 22.1325 211.896 22.1325 212.812 22.1325Z" fill="#F7FAFC"/>
<path d="M98.3808 65.6363C97.682 66.4997 97.2001 67.2432 96.5736 67.8187C95.3689 68.9459 94.0437 69.4016 92.357 68.6581C90.1162 67.6988 87.8753 66.7635 85.8514 65.4205C83.0804 63.5499 80.3577 61.5833 77.6109 59.6647C76.8157 59.1132 76.4784 58.5136 76.623 57.4824C77.0808 54.2447 77.4663 51.0071 77.1531 47.6976C77.0567 46.5944 76.9844 46.4505 75.7556 46.3066C73.6593 46.0668 71.4426 43.6925 71.1293 41.2463C70.9366 39.7354 71.0089 38.2245 71.7799 36.8096C72.9124 34.6991 75.0086 34.2675 76.888 35.7304C77.8518 36.4738 78.3337 37.5051 78.8638 38.5363C79.1048 38.992 79.2252 39.7115 79.9481 39.6395C80.6468 39.5915 81.0565 39.0639 81.3215 38.4644C81.9239 37.0734 82.1648 35.5625 82.3817 34.0756C82.7913 31.2937 82.719 28.5117 82.2371 25.7298C82.0444 24.6985 82.0203 23.5953 82.3817 22.5401C82.9359 20.8853 84.0924 19.926 85.8755 19.7342C88.7187 19.4224 91.4173 20.0459 94.1159 20.8613C97.7784 21.9645 101.465 22.3722 105.2 21.1971C106.308 20.8374 107.344 20.3097 108.356 19.6143C109.946 22.1324 110.741 24.9383 111.32 27.7922C112.621 34.1715 112.067 40.5748 111.416 46.9781C111.127 49.832 110.573 52.6379 109.561 55.3239C108.043 59.4249 104.935 61.4155 100.694 61.9671C95.393 62.6625 90.6463 61.2476 86.2128 58.4416C85.9718 58.2978 85.7068 57.914 85.3936 58.2977C85.1044 58.6575 85.3454 58.9693 85.5622 59.257C88.4536 63.3101 92.2365 65.7083 97.3929 65.5644C97.6338 65.6363 97.8748 65.6363 98.3808 65.6363ZM105.32 44.436C105.32 42.1816 104.886 40.2391 104.549 38.2965C104.477 37.9128 104.429 37.2413 103.898 37.3132C103.176 37.4091 103.561 38.1046 103.609 38.4884C103.85 40.0952 104.115 41.702 104.429 43.2848C104.645 44.34 104.549 45.3473 104.091 46.3066C103.682 47.122 102.887 47.098 102.115 47.122C101.85 47.122 101.634 47.2419 101.682 47.5537C101.73 47.8654 101.971 47.9374 102.212 47.9374C103.272 48.0333 104.188 47.8415 104.79 46.8342C105.296 45.9948 105.368 45.1075 105.32 44.436ZM105.055 50.8153C104.429 50.5754 104.019 50.9112 103.561 51.127C101.537 52.0623 99.5373 52.0623 97.5856 51.0071C96.9592 50.6714 96.3809 50.2397 95.7544 49.88C95.4894 49.7361 95.2002 49.2564 94.8629 49.76C94.5978 50.1677 94.9111 50.4315 95.2243 50.6474C97.441 52.1343 99.8505 52.8298 102.501 52.3501C103.489 52.1583 104.477 51.8225 105.055 50.8153ZM97.5856 36.9535C97.6097 36.1381 97.2724 35.7544 96.5254 35.7064C95.7062 35.6584 94.9111 36.4499 94.9834 37.4331C95.0316 38.1526 95.0315 39.016 96.0917 39.1119C96.9351 39.1838 97.5615 38.2725 97.5856 36.9535ZM106.501 37.2892C106.501 38.2485 106.621 39.0399 107.657 39.1599C108.428 39.2318 108.983 38.3205 108.983 37.2413C108.958 36.4259 108.693 35.8023 107.754 35.8263C106.718 35.8023 106.428 36.4738 106.501 37.2892ZM96.7664 28.9434C95.658 29.0873 94.5737 29.1352 93.634 29.7588C93.2485 30.0226 92.4293 30.1665 92.8148 30.814C93.1521 31.3896 93.6581 30.79 94.0196 30.5742C95.0556 29.9267 96.164 29.8067 97.3447 29.9506C97.8266 29.9986 98.5494 30.7181 98.7422 29.9506C98.9349 29.2312 97.9952 29.2072 97.441 29.0873C97.2001 28.9913 96.9591 28.9674 96.7664 28.9434ZM76.7916 40.9106C76.4784 39.8553 76.2616 38.7282 75.5628 37.7689C75.2737 37.3612 74.8641 37.1214 74.334 37.1693C74.093 37.1933 73.828 37.1933 73.7557 37.4811C73.6593 37.8168 73.9966 37.8888 74.1894 37.9368C74.9604 38.1286 75.2496 38.6802 75.4182 39.3757C75.5628 39.9513 75.7315 40.5268 75.9001 41.0784C75.9965 41.3662 76.0447 41.7739 76.4784 41.63C76.7676 41.5581 76.8157 41.2463 76.7916 40.9106ZM108.067 29.3271C107.778 29.3271 107.513 29.3031 107.224 29.3271C106.838 29.3511 106.284 29.3271 106.356 29.8547C106.404 30.3104 106.934 30.1665 107.272 30.1425C108.26 30.0945 109.175 30.1665 109.922 30.9099C110.139 31.1258 110.38 31.1737 110.645 30.9099C110.934 30.6221 110.693 30.3823 110.549 30.1905C109.898 29.3751 109.007 29.3031 108.067 29.3271Z" fill="#FCFCFB"/>
<path d="M179.079 84.2468C182.91 84.5585 185.97 83.6712 188.211 80.6494C188.693 80.0019 189.295 79.4743 189.826 78.8747C190.066 78.6349 190.307 78.3711 190.018 78.0593C189.681 77.6756 189.44 78.1073 189.247 78.2752C185.778 81.201 181.633 81.8485 177.32 81.5128C172.646 81.1531 168.526 77.4358 167.249 72.6873C166.212 68.8501 166.261 65.0129 166.67 61.0798C167.273 55.2761 168.574 49.6643 170.116 44.0764C170.79 41.6302 170.453 41.5582 173.031 42.3017C179.031 43.9804 184.982 43.4049 190.789 41.2225C191.078 41.1026 191.392 41.0306 191.801 40.8867C190.765 44.7719 191.994 48.2733 193.319 51.7267C194.187 53.9811 194.934 56.2834 195.56 58.6097C195.705 59.1613 195.849 59.7608 196.5 59.8807C197.126 60.0006 197.223 59.3531 197.512 59.0174C197.994 58.4897 198.427 57.9142 198.933 57.3866C199.97 56.3074 201.247 55.8277 202.74 56.1874C204.283 56.5472 204.716 57.8422 205.029 59.1133C205.704 61.7993 204.09 65.0129 201.56 66.2121C200.716 66.6198 199.825 66.7876 199.006 66.4279C198.114 66.0442 198.09 66.4759 198.018 67.1234C197.656 70.9366 197.415 74.7738 197.897 78.5869C197.97 79.2345 197.825 79.7381 197.343 80.1938C193.175 83.911 188.404 86.7169 183.489 89.355C183.079 89.5708 182.814 89.4509 182.573 89.1632C181.272 87.6762 180.188 86.0454 179.079 84.2468ZM175.32 67.7709C175.585 67.675 176.14 68.0107 176.164 67.4831C176.188 67.1234 175.682 67.0275 175.32 66.9795C175.2 66.9555 175.079 66.9315 174.959 66.9075C172.935 66.5238 172.477 65.7804 173.2 63.8138C173.875 61.9432 174.598 60.0966 175.296 58.2499C175.441 57.8902 175.489 57.4345 175.103 57.2906C174.646 57.1228 174.573 57.6743 174.453 57.9382C173.706 59.8088 172.983 61.7034 172.308 63.622C171.441 66.26 172.501 67.7229 175.32 67.7709ZM182.236 70.7447C182.139 70.7207 182.067 70.6488 182.019 70.6728C181.73 70.7927 181.44 70.9126 181.175 71.0805C179.103 72.1597 176.959 72.6873 174.646 71.8239C174.308 71.704 173.754 71.4162 173.61 71.8479C173.465 72.3276 174.092 72.4714 174.477 72.6153C177.031 73.5507 179.392 73.071 181.633 71.656C181.922 71.4402 182.308 71.2483 182.236 70.7447ZM183.898 58.2739C183.97 57.3866 183.489 56.811 182.621 56.811C181.73 56.835 181.2 57.3866 181.224 58.3698C181.224 59.2812 181.609 59.9047 182.549 60.0246C183.32 60.1445 183.898 59.3771 183.898 58.2739ZM170.525 57.7463C170.55 58.4658 170.622 59.2332 171.562 59.1613C172.598 59.1133 172.742 58.2739 172.79 57.4345C172.839 56.6911 172.501 56.0915 171.754 56.1155C170.839 56.1635 170.525 56.8829 170.525 57.7463ZM199.729 62.5667C200.018 62.4468 200.21 62.231 200.331 61.9192C200.596 61.2237 200.933 60.5282 201.198 59.8328C201.439 59.2092 201.704 58.7536 202.5 58.9454C202.716 58.9934 203.054 59.0413 203.102 58.7536C203.174 58.4418 202.861 58.2979 202.62 58.154C202.21 57.9142 201.825 57.9621 201.512 58.2499C200.379 59.2812 199.801 60.6242 199.391 62.0391C199.319 62.279 199.391 62.4948 199.729 62.5667ZM185.994 52.8779C186.308 52.758 186.284 52.5661 186.284 52.4222C186.235 51.4629 185.609 50.9113 184.814 50.5756C183.946 50.1919 183.007 50.2878 182.115 50.5996C182.019 50.6235 181.922 50.8634 181.946 50.9833C181.971 51.2471 182.212 51.2471 182.404 51.2231C183.97 51.0312 185.175 51.5828 185.994 52.8779ZM172.14 49.5204C171.465 49.4244 170.911 49.7602 170.333 50.048C170.092 50.1679 169.875 50.4077 170.044 50.7195C170.212 50.9833 170.477 50.8634 170.694 50.7674C171.369 50.4077 172.068 50.4317 172.79 50.5276C173.152 50.5756 173.61 51.0073 173.802 50.4317C173.995 49.8321 173.32 49.8081 172.983 49.6403C172.718 49.4964 172.405 49.5443 172.14 49.5204Z" fill="#FCFCFB"/>
<path d="M112.234 138.015C114.258 135.593 114.066 132.595 114.668 129.861C115.078 127.967 115.319 126.024 115.632 124.106C115.656 123.962 115.704 123.722 115.776 123.698C117.005 123.362 117.873 122.259 119.246 122.211C120.547 122.163 121.824 121.947 123.439 121.779C122.692 122.475 122.137 123.002 121.607 123.506C121.101 123.986 120.668 124.465 120.403 125.113C119.607 127.055 120.451 128.302 122.547 128.446C124.258 128.566 125.655 127.919 127.005 127.007C129.173 125.545 129.944 125.521 131.872 127.247C134.884 129.981 137.727 132.931 140.281 136.121C141.004 137.008 141.437 138.015 141.558 139.166C141.63 140.03 141.389 140.773 140.666 141.253C140.016 141.685 139.51 141.829 138.98 140.893C137.703 138.615 135.968 136.672 134.089 134.874C133.799 134.61 133.462 134.154 133.101 134.514C132.643 134.97 133.221 135.257 133.51 135.545C135.101 137.08 136.498 138.759 137.751 140.581C138.136 141.133 138.377 141.781 138.642 142.38C139.052 143.291 138.715 144.035 137.92 144.539C137.173 145.018 136.329 144.97 135.727 144.299C134.811 143.243 133.992 142.116 133.101 141.037C132.522 140.318 131.92 139.622 131.269 138.975C131.004 138.687 130.763 137.967 130.185 138.567C129.655 139.119 130.354 139.31 130.595 139.55C131.824 140.773 132.98 142.02 133.968 143.435C134.426 144.107 134.884 144.85 134.161 145.594C133.414 146.361 132.474 146.337 131.51 145.977C131.077 145.81 130.691 145.522 130.522 145.138C129.703 143.483 128.282 142.26 127.149 140.869C126.161 139.646 124.716 138.759 123.679 137.512C123.222 136.96 122.427 137.248 121.776 137.512C121.511 137.608 121.246 137.991 120.884 137.464C119.487 135.377 118.306 135.689 116.09 136.552C115.005 136.984 114.114 137.776 112.981 138.039C112.74 138.063 112.548 138.015 112.234 138.015Z" fill="#FAFAFA"/>
<path d="M97.6334 79.2585C97.9707 81.1291 98.284 82.9998 98.6213 84.8704C99.4405 89.499 100.212 94.1515 100.573 98.8281C100.693 100.435 100.115 101.97 99.826 103.529C99.2719 106.502 98.6695 109.476 98.0671 112.546C97.3443 111.874 97.1756 111.035 96.8624 110.316C95.6094 107.39 94.3806 104.44 93.1276 101.49C92.6698 100.411 92.5012 99.3077 92.5735 98.1086C92.9349 92.209 93.1999 86.3093 93.5613 80.4097C93.6336 79.1146 93.1035 78.1074 92.2602 77.3399C91.1759 76.3566 91.1759 75.4933 92.0193 74.3661C92.6698 73.5027 93.1035 72.5195 93.8746 71.7281C94.3324 71.2484 94.6938 71.1045 95.2962 71.5122C96.5732 72.3996 97.8021 73.3589 98.7177 74.6779C99.0791 75.2055 99.1996 75.5652 98.79 76.1408C98.3322 76.7883 98.0189 77.5318 97.8503 78.3232C97.4888 78.9228 96.8865 78.9467 96.3082 78.9947C95.7058 79.0427 95.0793 78.9467 94.3324 79.3784C95.5853 79.3544 96.5973 79.3065 97.6334 79.2585Z" fill="#AC2A21"/>
<path d="M142.576 138.495C141.949 136.169 140.263 134.586 138.745 132.907C136.6 130.557 134.432 128.207 131.926 126.192C130.793 125.281 129.468 125.377 128.215 125.113C127.805 125.041 127.589 125.377 127.324 125.616C126.215 126.552 125.059 127.391 123.565 127.583C122.673 127.703 121.685 127.727 121.179 126.936C120.625 126.072 121.227 125.233 121.854 124.609C122.842 123.626 123.782 122.571 124.673 121.492C125.709 120.22 127.179 119.909 128.673 120.029C132.456 120.292 135.901 121.539 138.769 124.13C139.491 124.801 140.263 125.377 141.178 125.832C142.696 126.6 143.274 128.159 143.708 129.693C144.551 132.739 144.045 135.641 142.576 138.495Z" fill="#FAFAFA"/>
<path d="M199.196 79.3784C199.798 80.6015 200.087 81.8726 200.449 83.1436C200.569 83.5993 200.425 84.007 200.256 84.4147C198.232 89.451 195.051 93.6479 191.028 97.2453C190.401 97.7968 190.016 97.7729 189.437 97.1733C187.534 95.2787 185.799 93.2402 184.04 91.2257C183.389 90.4583 183.63 90.1705 184.401 89.7628C188.594 87.5804 192.666 85.1821 196.328 82.1604C197.364 81.345 198.352 80.4816 199.196 79.3784Z" fill="#AC2A21"/>
<path d="M76.2109 59.8809C77.488 60.8641 78.5722 61.7515 79.7288 62.5909C83.9213 65.6606 88.2825 68.4426 93.2461 70.1213C93.6557 70.2652 94.0653 70.3851 93.6557 70.7688C91.7522 72.6634 90.8366 75.3015 88.8367 77.1481C88.2102 77.7237 87.8247 77.7957 87.1742 77.292C85.2707 75.8291 83.319 74.4381 81.3914 73.0232C81.0781 72.7833 80.8372 72.4956 80.6685 72.0879C79.3433 68.7303 77.9699 65.3968 76.6206 62.0633C76.3314 61.4397 76.235 60.7922 76.2109 59.8809Z" fill="#FAFAFA"/>
<path d="M81.7787 74.5342C83.369 75.6853 84.9351 76.8365 86.5254 77.9397C88.2121 79.1148 88.5253 79.0908 89.7541 77.46C90.3565 76.6446 90.6216 76.6206 91.3203 77.436C92.501 78.851 92.766 80.266 92.5973 82.1126C92.1395 87.3168 91.995 92.5209 91.7058 97.9889C88.2843 90.0987 84.9351 82.3764 81.5859 74.6781C81.6582 74.6301 81.7064 74.5821 81.7787 74.5342Z" fill="#F7F7F6"/>
<path d="M107.898 138.423C108.814 135.881 109.561 133.315 110.187 130.701C110.814 128.111 111.368 125.521 111.826 122.906C111.922 122.379 111.778 121.731 112.621 121.683C113.488 121.611 114.235 121.731 114.549 122.667C114.91 123.674 114.79 124.729 114.597 125.736C114.019 128.806 113.416 131.876 112.717 134.922C112.115 137.728 110.693 138.735 107.898 138.423Z" fill="#F7F7F6"/>
<path d="M103.128 72.4234C103.152 73.2388 103.152 74.4139 102.622 75.5411C101.996 76.8122 101.658 76.8601 100.767 75.7809C100.044 74.9176 99.3695 74.0302 98.6225 73.2148C97.7551 72.2795 96.8636 71.3682 95.7311 70.7207C95.0806 70.3369 95.1769 70.0492 95.7552 69.7374C98.0924 68.4903 99.3213 66.4278 100.189 64.0536C100.333 63.6699 100.381 63.2142 100.863 63.1902C101.369 63.1662 101.249 63.7178 101.393 64.0056C102.767 66.4758 103.176 69.2098 103.128 72.4234Z" fill="#F7F7F6"/>
<path d="M176.665 97.0775C175.147 92.257 174.255 87.6284 177.629 83.0718C178.183 84.079 178.641 85.0383 179.195 85.9017C179.797 86.837 180.472 87.7483 181.147 88.6357C182.279 90.0986 182.303 90.0986 181.171 91.5855C179.821 93.3362 178.448 95.039 177.075 96.7657C177.002 96.8376 176.93 96.8616 176.665 97.0775Z" fill="#AC2A21"/>
<path d="M103.322 76.3805C103.105 83.0236 102.382 89.307 101.177 95.5664C100.96 94.0795 100.719 92.6166 100.527 91.1297C100.021 87.4604 99.5387 83.7911 98.6231 80.2177C98.2376 78.7068 99.0568 77.6996 99.611 76.5724C99.8519 76.0688 100.213 76.5484 100.454 76.7642C101.852 77.9634 101.972 77.9394 103.322 76.3805Z" fill="#F4F3F3"/>
<path d="M110.546 120.148C109.823 120.46 109.221 120.34 108.667 120.244C103.92 119.525 99.1734 118.805 94.4267 118.038C89.5595 117.246 84.6923 116.575 79.801 115.951C78.5722 115.784 77.3192 115.688 76.1145 115.472C74.6206 115.208 73.1749 115.448 71.7533 115.855C71.4401 115.951 71.1268 115.975 70.8136 116.047C70.5245 116.095 70.2112 116.095 70.1871 115.712C70.163 115.4 70.4281 115.328 70.669 115.28C71.2232 115.16 71.7774 115.064 72.3316 114.992C72.9821 114.92 73.0785 114.68 72.8617 114.057C69.8498 105.183 66.862 96.3099 63.8983 87.4124C63.802 87.1246 63.561 86.8368 63.8742 86.4531C64.6212 86.8848 64.6694 87.7002 64.8862 88.3477C67.5608 96.7415 70.5726 105.039 73.3436 113.385C73.6809 114.417 74.3796 114.584 75.223 114.68C81.2226 115.376 87.2223 116.143 93.1978 117.127C98.5228 118.014 103.872 118.877 109.221 119.573C109.558 119.693 110.04 119.669 110.546 120.148Z" fill="#2B6695"/>
<path d="M95.1265 115.568C94.4037 115.568 94.1145 114.968 93.7531 114.513C88.7173 108.229 84.2356 101.562 79.7539 94.8952C77.9227 92.1852 76.1156 89.4512 74.2603 86.7412C73.6097 85.7819 73.5374 84.9185 74.3326 84.0312C74.8867 83.4076 75.4168 82.7601 75.971 82.1366C77.4408 80.5297 77.4649 80.5058 75.3445 79.7143C74.2121 79.2827 73.0796 78.9469 71.9472 78.5392C70.3087 77.9636 70.14 77.6998 70.3569 76.0211C70.7906 72.6875 71.2243 69.378 71.393 66.0204C71.4171 65.4209 71.4171 64.7734 71.9231 63.9819C72.1399 65.5168 72.0435 66.7639 71.9231 68.011C71.658 70.673 71.393 73.335 71.0797 75.9731C70.9593 77.0043 71.2725 77.5799 72.3327 77.9157C73.8507 78.3953 75.3927 78.851 76.8143 79.5944C78.0191 80.218 78.1155 80.6497 77.248 81.7289C76.4529 82.7361 75.6337 83.7194 74.7904 84.6787C74.3085 85.2063 74.2603 85.638 74.6699 86.2375C79.5371 93.2164 84.0669 100.435 89.151 107.27C91.1749 109.98 93.1748 112.738 95.1747 115.448C95.1747 115.496 95.1506 115.52 95.1265 115.568Z" fill="#2B6695"/>
<path d="M104.981 142.284C104.089 142.452 103.391 142.38 102.692 142.308C98.3066 141.852 93.9213 141.397 89.536 140.941C84.5243 140.413 79.5125 139.814 74.5007 139.31C70.26 138.902 66.0675 138.231 61.9473 137.272C58.1402 136.408 54.9597 134.514 52.8875 131.084C52.7671 130.868 52.3334 130.676 52.7189 130.413C52.9598 130.245 53.1526 130.485 53.2972 130.676C56.1645 135.209 60.7666 136.48 65.682 137.296C73.7056 138.663 81.8015 139.358 89.8974 140.197C94.4755 140.677 99.0535 141.157 103.632 141.636C104.041 141.684 104.475 141.732 104.981 142.284Z" fill="#2B6695"/>
<path d="M106.115 67.1235C107.392 68.5865 108.042 70.2412 108.765 71.8481C109.584 73.6227 110.211 75.4694 110.861 77.34C111.223 78.3473 110.934 78.9948 110.066 79.5704C109.367 80.026 108.115 80.2419 108.163 81.0813C108.211 81.6568 109.343 82.1605 109.97 82.7121C113.897 86.0696 113.343 85.4221 112.018 89.7389C109.608 97.6051 106.813 105.327 103.03 112.666C102.549 113.625 102.163 114.68 101.055 115.232C101.874 113.577 102.717 111.947 103.512 110.292C107.006 102.881 109.825 95.2068 112.09 87.3406C112.403 86.2854 112.211 85.5899 111.367 84.9424C110.307 84.103 109.271 83.2157 108.235 82.3283C107.054 81.3211 107.103 80.7455 108.38 79.9301C111.102 78.2274 110.524 78.659 109.681 75.997C108.91 73.6467 107.922 71.3684 106.741 69.186C106.476 68.5865 106.018 68.0109 106.115 67.1235Z" fill="#2B6695"/>
<path d="M118.305 144.49C117.679 144.395 116.932 144.371 116.618 143.555C116.305 142.74 116.594 142.044 117.269 141.541C118.739 140.461 120.257 139.406 121.775 138.375C122.714 137.751 123.317 138.183 123.823 139.022C124.305 139.79 124.329 140.413 123.486 140.941C122.425 141.613 121.63 142.572 120.739 143.435C120.064 144.035 119.341 144.466 118.305 144.49Z" fill="#F7F7F6"/>
<path d="M121.851 146.649C121.176 146.625 120.719 146.457 120.502 145.977C120.261 145.474 120.261 144.922 120.646 144.515C121.851 143.243 123.176 142.068 124.574 141.013C125.08 140.629 125.658 140.462 126.164 141.061C126.67 141.685 127.489 142.476 126.887 143.148C125.489 144.754 123.706 145.929 121.851 146.649Z" fill="#F7F7F6"/>
<path d="M123.078 120.173C123.415 109.812 123.391 99.7396 123.391 89.6431C124.114 89.739 124.066 90.2186 124.066 90.6263C124.042 96.4061 124.162 102.21 123.921 107.99C123.777 111.707 123.946 115.424 123.656 119.117C123.632 119.405 123.729 119.693 123.078 120.173Z" fill="#2C6592"/>
<path d="M118.305 136.744C119.293 136.672 119.702 137.368 120.112 138.063C120.353 138.447 120.04 138.591 119.847 138.735C118.57 139.622 117.293 140.534 115.968 141.301C115.389 141.637 114.57 142.068 114.016 141.277C113.486 140.51 113.582 139.646 114.209 138.975C115.317 137.752 116.618 136.888 118.305 136.744Z" fill="#F4F3F3"/>
<path d="M125.946 148.351C125.199 148.423 124.741 148.088 124.452 147.416C124.139 146.673 124.501 146.193 125.031 145.785C125.802 145.21 126.573 144.658 127.32 144.083C127.946 143.603 128.428 143.627 128.862 144.37C129.247 144.994 130.163 145.521 129.127 146.313C128.163 147.104 127.416 148.327 125.946 148.351Z" fill="#F7F7F6"/>
<path d="M161.703 157.92C162.065 157.561 162.546 157.729 162.956 157.729C179.533 157.729 196.111 157.729 212.664 157.729C213.098 157.729 213.556 157.585 213.941 157.92C213.628 157.944 213.315 157.992 212.977 157.992C196.159 157.992 179.341 157.992 162.522 157.992C162.257 157.944 161.992 157.92 161.703 157.92Z" fill="#AC2A21"/>
<path d="M97.7806 158.088C97.4192 157.345 97.5637 156.697 97.5878 156.122C97.7806 152.452 97.9252 148.783 97.8529 145.114C97.8529 144.874 97.7083 144.466 98.1179 144.442C98.5275 144.442 98.5275 144.85 98.5516 145.162C98.648 149.359 98.4553 153.532 98.0938 157.705C98.0697 157.777 97.9734 157.849 97.7806 158.088Z" fill="#2C6592"/>
<path d="M123.442 147.992C123.875 148.951 123.634 149.982 123.683 150.965C123.803 153.076 123.803 155.186 123.827 157.297C123.827 157.513 123.924 157.824 123.586 157.896C123.273 157.968 123.152 157.729 123.152 157.465C123.201 154.323 122.912 151.181 123.201 148.064C123.249 148.04 123.297 148.04 123.442 147.992Z" fill="#2C6592"/>
<path d="M215.125 157.633C220.45 157.657 225.799 157.657 231.124 157.705C231.582 157.705 232.088 157.537 232.522 157.897C226.739 157.897 220.98 157.897 215.197 157.873C215.173 157.825 215.149 157.729 215.125 157.633Z" fill="#AC2A21"/>
<path d="M160.258 144.059C160.258 139.766 160.258 135.497 160.258 131.204C160.523 131.516 160.475 131.876 160.475 132.235C160.475 135.905 160.499 139.55 160.499 143.219C160.499 143.507 160.643 143.867 160.258 144.059Z" fill="#CF5A53"/>
<path d="M161.271 120.796C161.633 121.252 161.44 121.803 161.464 122.307C161.488 124.681 161.488 127.079 161.464 129.454C161.464 129.837 161.585 130.245 161.271 130.581C161.127 127.319 161.151 124.057 161.271 120.796Z" fill="#AC2A21"/>
<path d="M97.6369 79.2585C96.6009 79.3065 95.5889 79.3544 94.3359 79.4024C95.107 78.9707 95.7334 79.0666 96.3117 79.0187C96.9141 78.9707 97.5165 78.9467 97.8538 78.3472C97.8056 78.6829 97.9261 79.0187 97.6369 79.2585Z" fill="#1F2E43"/>
<path d="M154.84 39.6875C154.792 39.7594 154.744 39.8074 154.695 39.8794C154.744 39.8314 154.792 39.7594 154.84 39.6875Z" fill="#1F2E43"/>
<path d="M155.171 39.5919L155.05 39.5679L154.93 39.5919C155.002 39.5919 155.074 39.5919 155.171 39.5919Z" fill="#1F2E43"/>
<path d="M95.2292 115.472C95.2533 115.52 95.2774 115.568 95.3015 115.616C95.2533 115.592 95.181 115.568 95.1328 115.544C95.1569 115.52 95.181 115.496 95.2292 115.472Z" fill="#2B6695"/>
<path d="M215.119 157.657C215.143 157.729 215.167 157.801 215.167 157.897C214.974 157.873 214.974 157.777 215.119 157.657Z" fill="#AC2A21"/>
<path d="M181.025 25.8738C178.567 25.8738 176.712 24.0991 176.688 21.7488C176.664 19.3266 178.567 17.408 180.977 17.384C183.41 17.36 185.314 19.2786 185.29 21.7008C185.29 24.171 183.531 25.8738 181.025 25.8738Z" fill="#AC2A21"/>
<path d="M217.628 51.2951C217.652 53.1418 216.327 54.5327 214.544 54.5807C212.737 54.6287 211.291 53.2617 211.267 51.487C211.219 49.5924 212.568 48.1295 214.399 48.1055C216.158 48.1055 217.604 49.5204 217.628 51.2951Z" fill="#AC2A21"/>
<path d="M212.805 22.1327C211.914 22.1327 211.263 22.1327 210.637 22.1327C210.251 22.1327 209.914 22.0848 209.89 21.5811C209.866 21.0775 210.275 21.1494 210.564 21.1255C211.769 21.0775 212.974 21.0535 214.179 21.0056C214.661 20.9816 214.829 21.2214 214.829 21.6291C214.829 22.7563 214.853 23.8594 214.853 24.9866C214.853 25.3224 214.757 25.7301 214.42 25.7301C214.082 25.7301 213.793 25.4183 213.769 25.0106C213.745 24.3871 213.769 23.7395 213.769 23.092C213.263 23.068 213.143 23.4757 212.902 23.6916C209.817 26.8093 206.733 29.9749 203.649 33.0926C203.336 33.4044 203.047 34.1718 202.42 33.5243C201.77 32.8768 202.613 32.637 202.902 32.3492C205.818 29.3274 208.781 26.3296 211.721 23.3318C212.01 22.9961 212.323 22.6603 212.805 22.1327Z" fill="#1F2E43"/>
<path d="M105.325 44.4362C105.373 45.1077 105.277 45.9951 104.795 46.8344C104.216 47.8417 103.277 48.0336 102.217 47.9376C101.976 47.9136 101.735 47.8417 101.686 47.5539C101.638 47.2421 101.855 47.1222 102.12 47.1222C102.891 47.0982 103.686 47.1462 104.096 46.3068C104.554 45.3475 104.65 44.3403 104.433 43.2851C104.12 41.7022 103.831 40.0954 103.614 38.4886C103.566 38.1049 103.18 37.4094 103.903 37.3135C104.409 37.2415 104.481 37.913 104.554 38.2967C104.891 40.2393 105.325 42.1819 105.325 44.4362Z" fill="#1F2E43"/>
<path d="M105.058 50.8156C104.48 51.8469 103.492 52.1586 102.48 52.3505C99.8295 52.8062 97.3959 52.1347 95.2033 50.6478C94.89 50.4319 94.5768 50.1681 94.8418 49.7604C95.1792 49.2568 95.4683 49.7364 95.7333 49.8803C96.3598 50.2401 96.9381 50.6717 97.5646 51.0075C99.5404 52.0627 101.54 52.0387 103.54 51.1274C104.022 50.9116 104.456 50.5518 105.058 50.8156Z" fill="#1F2E43"/>
<path d="M97.5841 36.9537C97.56 38.2728 96.9094 39.1841 96.0661 39.1122C95.03 39.0162 95.0059 38.1529 94.9577 37.4334C94.8854 36.4501 95.6806 35.6587 96.4998 35.7067C97.2708 35.7546 97.6082 36.1383 97.5841 36.9537Z" fill="#1F2E43"/>
<path d="M106.503 37.2896C106.43 36.4742 106.72 35.8027 107.78 35.8027C108.695 35.8027 108.984 36.4023 109.009 37.2177C109.033 38.3209 108.454 39.2322 107.683 39.1363C106.623 39.0403 106.503 38.2489 106.503 37.2896Z" fill="#1F2E43"/>
<path d="M96.771 28.9434C96.9637 28.9913 97.2047 29.0153 97.4456 29.0633C98.0239 29.1832 98.9395 29.2072 98.7468 29.9266C98.554 30.6941 97.8312 29.9986 97.3493 29.9266C96.1686 29.7827 95.0602 29.9027 94.0242 30.5502C93.6868 30.766 93.1567 31.3656 92.8194 30.79C92.4339 30.1425 93.2531 29.9746 93.6386 29.7348C94.5783 29.1352 95.6626 29.0873 96.771 28.9434Z" fill="#1F2E43"/>
<path d="M76.7951 40.9108C76.8192 41.2466 76.771 41.5584 76.4819 41.6543C76.0482 41.7742 76 41.3665 75.9036 41.1027C75.7349 40.5271 75.5663 39.9755 75.4217 39.3999C75.253 38.7045 74.9639 38.1529 74.1929 37.961C74.0001 37.913 73.6628 37.8411 73.7591 37.5053C73.8314 37.2415 74.1206 37.2175 74.3374 37.1936C74.8675 37.1456 75.2771 37.3854 75.5663 37.7931C76.265 38.7284 76.4819 39.8556 76.7951 40.9108Z" fill="#1F2E43"/>
<path d="M108.065 29.3276C109.005 29.3036 109.896 29.3755 110.547 30.1909C110.692 30.3828 110.933 30.6226 110.643 30.9104C110.378 31.1742 110.137 31.1262 109.921 30.9104C109.174 30.1669 108.258 30.095 107.27 30.143C106.957 30.1669 106.403 30.3108 106.355 29.8552C106.306 29.3276 106.861 29.3515 107.222 29.3276C107.511 29.3036 107.776 29.3276 108.065 29.3276Z" fill="#1F2E43"/>
<path d="M175.316 67.7708C172.497 67.7228 171.437 66.2599 172.352 63.6458C173.003 61.7273 173.75 59.8566 174.497 57.962C174.617 57.6742 174.689 57.1466 175.147 57.3145C175.509 57.4584 175.46 57.8901 175.34 58.2738C174.641 60.1204 173.918 61.9671 173.244 63.8377C172.521 65.7803 172.979 66.5477 175.003 66.9314C175.123 66.9554 175.244 66.9794 175.364 67.0034C175.726 67.0513 176.232 67.1712 176.207 67.507C176.135 68.0106 175.581 67.6749 175.316 67.7708Z" fill="#1F2E43"/>
<path d="M182.234 70.7449C182.306 71.2485 181.945 71.4403 181.607 71.6322C179.367 73.0472 177.005 73.5268 174.451 72.5915C174.066 72.4476 173.439 72.2797 173.584 71.8241C173.728 71.3924 174.283 71.6802 174.62 71.8001C176.933 72.6634 179.077 72.1358 181.15 71.0566C181.439 70.9127 181.704 70.7688 181.993 70.6489C182.065 70.6489 182.137 70.7209 182.234 70.7449Z" fill="#1F2E43"/>
<path d="M183.894 58.2741C183.894 59.3773 183.34 60.1448 182.521 60.0488C181.581 59.9289 181.195 59.3054 181.195 58.394C181.195 57.4108 181.725 56.8592 182.593 56.8352C183.46 56.8112 183.966 57.3868 183.894 58.2741Z" fill="#1F2E43"/>
<path d="M170.523 57.7462C170.523 56.9068 170.837 56.1634 171.752 56.1394C172.499 56.1154 172.837 56.691 172.788 57.4584C172.74 58.2978 172.596 59.1372 171.56 59.1852C170.62 59.2091 170.548 58.4417 170.523 57.7462Z" fill="#1F2E43"/>
<path d="M199.722 62.5668C199.385 62.4949 199.313 62.2791 199.385 62.0153C199.794 60.6003 200.373 59.2573 201.505 58.226C201.818 57.9383 202.228 57.8903 202.614 58.1301C202.855 58.274 203.144 58.4179 203.095 58.7297C203.023 59.0175 202.686 58.9935 202.493 58.9215C201.698 58.7297 201.433 59.1853 201.192 59.8089C200.927 60.5044 200.614 61.1999 200.325 61.8953C200.204 62.2311 200.011 62.4469 199.722 62.5668Z" fill="#1F2E43"/>
<path d="M185.993 52.8779C185.198 51.5829 183.969 51.0313 182.403 51.2471C182.21 51.2711 181.969 51.2471 181.945 51.0073C181.945 50.8874 182.018 50.6475 182.114 50.6236C183.005 50.3358 183.945 50.2399 184.813 50.5996C185.584 50.9353 186.234 51.4869 186.282 52.4462C186.282 52.5661 186.307 52.758 185.993 52.8779Z" fill="#1F2E43"/>
<path d="M172.133 49.5207C172.398 49.5446 172.712 49.4967 172.953 49.6166C173.314 49.7845 173.965 49.8085 173.772 50.408C173.603 51.0076 173.121 50.5759 172.76 50.5039C172.037 50.408 171.338 50.384 170.664 50.7438C170.471 50.8397 170.182 50.9596 170.013 50.6958C169.844 50.384 170.061 50.1442 170.302 50.0243C170.88 49.7605 171.435 49.4247 172.133 49.5207Z" fill="#1F2E43"/>
</g>
<defs>
<clipPath id="clip0_5156_91068">
<rect width="207" height="152" fill="white" transform="translate(36 7)"/>
</clipPath>
</defs>
</svg>
