<svg width="280" height="170" viewBox="0 0 280 170" fill="none" xmlns="http://www.w3.org/2000/svg">
<path d="M29.6352 128.973C27.1039 128.973 24.9342 128.255 23.2467 126.819C21.6797 125.383 20.8359 123.468 20.8359 121.075C20.8359 118.562 21.8002 116.647 23.7289 115.331C25.6575 114.015 27.8272 113.416 30.2379 113.416C32.6487 113.416 34.5773 113.775 36.3854 114.613V114.254C36.3854 112.579 35.7827 111.502 34.4568 111.023C33.3719 110.664 32.1665 110.425 30.8406 110.425C28.3093 110.425 25.8986 111.023 23.8494 112.22V105.638C26.2602 104.441 29.2736 103.843 32.8898 103.843C36.3854 103.843 39.2783 104.68 41.448 106.475C43.6177 108.151 44.7025 110.544 44.7025 113.416V120.596C44.7025 121.434 45.1847 121.913 46.149 121.913C46.7517 121.913 47.2338 121.793 47.4749 121.673V127.537C46.3901 128.375 44.9436 128.734 43.2561 128.734C40.3632 128.734 38.4345 127.776 37.3497 125.981C35.3005 128.016 32.7692 128.973 29.6352 128.973ZM32.4076 123.468C34.0952 123.468 35.4211 122.75 36.2649 121.434V118.921C35.3005 118.203 34.2157 117.844 32.7692 117.844C31.6844 117.844 30.8406 118.083 30.1174 118.682C29.3942 119.16 29.0325 119.878 29.0325 120.716C29.0325 121.554 29.3942 122.152 29.9969 122.631C30.5995 123.109 31.4433 123.468 32.4076 123.468Z" fill="#252525"/>
<path d="M60.9757 128.973C56.5158 128.973 53.1407 128.255 50.8505 126.819V119.878C51.8148 120.596 53.2612 121.195 55.0693 121.673C56.7568 122.152 58.6854 122.391 60.7346 122.391C62.6632 122.391 63.6275 122.032 63.6275 121.195C63.6275 120.716 63.2659 120.357 62.5427 120.118L61.4578 119.759C61.2168 119.639 60.1319 119.4 58.0828 118.921C55.3104 118.083 53.3818 117.246 52.2969 116.288C51.2121 115.331 50.6094 113.656 50.6094 111.502C50.6094 109.108 51.5737 107.313 53.5023 105.877C55.4309 104.561 58.2033 103.843 61.5784 103.843C65.074 103.843 68.0874 104.561 70.6187 106.116V112.938C67.8464 111.262 64.9534 110.305 61.8194 110.305C60.0114 110.305 59.1676 110.664 59.1676 111.502C59.1676 111.98 59.5292 112.339 60.2524 112.579L61.3373 112.938C61.5784 113.057 62.1811 113.177 63.0248 113.297C63.8686 113.536 64.3508 113.536 64.4713 113.656C67.0026 114.254 68.9312 115.211 70.1366 116.408C71.342 117.605 71.9447 119.16 71.9447 121.314C71.9447 123.588 70.9804 125.503 68.9312 126.939C67.0026 128.255 64.3508 128.973 60.9757 128.973Z" fill="#252525"/>
<path d="M85.4444 128.973C80.9845 128.973 77.6094 128.255 75.3192 126.819V119.878C76.2835 120.596 77.73 121.195 79.538 121.673C81.2256 122.152 83.1542 122.391 85.2034 122.391C87.132 122.391 88.0963 122.032 88.0963 121.195C88.0963 120.716 87.7347 120.357 87.0114 120.118L85.9266 119.878C85.6855 119.759 84.6007 119.519 82.5515 119.041C79.7791 118.203 77.8505 117.365 76.7657 116.408C75.6808 115.451 75.0781 113.775 75.0781 111.621C75.0781 109.228 76.0424 107.433 77.971 105.997C79.8997 104.68 82.672 103.962 86.0471 103.962C89.5427 103.962 92.5562 104.68 95.0875 106.236V112.937C92.3151 111.262 89.4222 110.305 86.2882 110.305C84.4801 110.305 83.6363 110.664 83.6363 111.501C83.6363 111.98 83.998 112.339 84.7212 112.578L85.9266 112.937C86.1677 113.057 86.7704 113.177 87.6141 113.296C88.4579 113.536 88.94 113.536 89.0606 113.655C91.5919 114.254 93.5205 115.211 94.7259 116.408C95.9313 117.605 96.534 119.16 96.534 121.314C96.534 123.588 95.5697 125.503 93.5205 126.939C91.4713 128.255 88.8195 128.973 85.4444 128.973Z" fill="#252525"/>
<path d="M105.095 102.407C103.769 102.407 102.684 101.928 101.72 100.971C100.756 100.014 100.273 98.9366 100.273 97.6202C100.273 96.3039 100.756 95.1072 101.72 94.2695C102.684 93.4318 103.769 92.8335 105.095 92.8335C106.421 92.8335 107.626 93.3122 108.47 94.2695C109.314 95.2269 109.917 96.3039 109.917 97.6202C109.917 98.9366 109.434 100.133 108.47 100.971C107.506 101.809 106.421 102.407 105.095 102.407ZM109.314 128.375H100.997V104.561H109.314V128.375Z" fill="#252525"/>
<path d="M124.616 128.973C120.156 128.973 116.781 128.255 114.491 126.819V119.878C115.455 120.596 116.902 121.195 118.71 121.673C120.397 122.152 122.326 122.391 124.375 122.391C126.304 122.391 127.268 122.032 127.268 121.195C127.268 120.716 126.907 120.357 126.183 120.118L125.098 119.759C124.857 119.639 123.773 119.4 121.723 118.921C118.951 118.083 117.022 117.246 115.938 116.288C114.853 115.331 114.25 113.656 114.25 111.502C114.25 109.108 115.214 107.313 117.143 105.877C119.072 104.561 121.844 103.843 125.219 103.843C128.715 103.843 131.728 104.561 134.259 106.116V112.938C131.487 111.262 128.594 110.305 125.46 110.305C123.652 110.305 122.808 110.664 122.808 111.502C122.808 111.98 123.17 112.339 123.893 112.579L124.978 112.938C125.219 113.057 125.822 113.177 126.665 113.297C127.509 113.536 127.991 113.536 128.112 113.656C130.643 114.254 132.572 115.211 133.777 116.408C134.983 117.605 135.585 119.16 135.585 121.314C135.585 123.588 134.621 125.503 132.572 126.939C130.643 128.255 127.991 128.973 124.616 128.973Z" fill="#252525"/>
<path d="M150.177 128.973C147.645 128.973 145.596 128.255 144.15 126.939C142.583 125.623 141.859 123.708 141.859 121.195V111.143H137.641V104.561H141.859V98.458H150.177V104.561H156.324V111.262H150.177V118.921C150.177 119.998 150.418 120.716 150.779 121.075C151.261 121.554 151.864 121.674 152.949 121.674C154.034 121.674 155.239 121.434 156.204 120.836V127.418C154.878 128.495 152.828 128.973 150.177 128.973Z" fill="#252525"/>
<path d="M167.893 128.973C165.362 128.973 163.192 128.255 161.505 126.819C159.938 125.383 159.094 123.468 159.094 121.075C159.094 118.562 160.058 116.647 161.987 115.331C163.915 114.015 166.085 113.416 168.496 113.416C170.907 113.416 172.835 113.775 174.643 114.613V114.254C174.643 112.579 174.041 111.502 172.715 111.023C171.63 110.664 170.424 110.425 169.098 110.425C166.567 110.425 164.156 111.023 162.107 112.22V105.638C164.518 104.441 167.531 103.843 171.148 103.843C174.643 103.843 177.536 104.68 179.706 106.475C181.876 108.151 182.96 110.544 182.96 113.416V120.596C182.96 121.434 183.443 121.913 184.407 121.913C185.01 121.913 185.492 121.793 185.733 121.673V127.537C184.648 128.375 183.201 128.734 181.514 128.734C178.621 128.734 176.692 127.776 175.608 125.981C173.679 128.016 171.027 128.973 167.893 128.973ZM170.665 123.468C172.353 123.468 173.679 122.75 174.523 121.434V118.921C173.558 118.203 172.474 117.844 171.027 117.844C169.942 117.844 169.098 118.083 168.375 118.682C167.652 119.16 167.29 119.878 167.29 120.716C167.29 121.554 167.652 122.152 168.255 122.631C168.978 123.109 169.701 123.468 170.665 123.468Z" fill="#252525"/>
<path d="M198.387 113.416V128.375H190.07V104.561H198.387V107.193C200.437 105.039 202.847 103.962 205.62 103.962C208.272 103.962 210.321 104.8 211.888 106.595C213.455 108.39 214.178 110.783 214.178 113.775V128.375H205.861V115.331C205.861 114.015 205.499 112.937 204.897 112.339C204.294 111.741 203.45 111.382 202.365 111.382C200.678 111.382 199.352 112.1 198.387 113.416Z" fill="#252525"/>
<path d="M231.173 128.973C227.678 128.973 224.544 127.896 221.892 125.622C219.24 123.349 217.914 120.357 217.914 116.408C217.914 112.459 219.24 109.467 221.892 107.193C224.544 104.92 227.678 103.843 231.173 103.843C233.825 103.843 236.236 104.321 238.285 105.279V112.22C236.356 111.382 234.428 111.023 232.499 111.023C230.691 111.023 229.124 111.502 227.919 112.459C226.713 113.416 226.111 114.733 226.111 116.408C226.111 118.083 226.713 119.4 227.919 120.357C229.124 121.314 230.571 121.793 232.499 121.793C234.789 121.793 236.839 121.314 238.647 120.357V127.298C236.356 128.494 233.825 128.973 231.173 128.973Z" fill="#252525"/>
<path d="M255.286 128.973C251.549 128.973 248.415 127.896 245.763 125.622C243.232 123.349 241.906 120.237 241.906 116.408C241.906 112.818 243.112 109.946 245.402 107.433C247.692 105.039 250.826 103.843 254.683 103.843C258.179 103.843 260.951 105.039 263 107.313C265.17 109.587 266.255 112.579 266.255 116.288V118.323H250.223C250.585 119.519 251.429 120.477 252.634 121.075C253.84 121.673 255.407 122.032 257.215 122.032C259.866 122.032 262.398 121.314 264.929 119.998V126.34C262.518 128.135 259.264 128.973 255.286 128.973ZM250.103 114.134H258.058C258.058 112.938 257.697 111.98 256.974 111.262C256.25 110.544 255.407 110.185 254.322 110.185C253.237 110.185 252.273 110.544 251.549 111.262C250.706 111.861 250.223 112.818 250.103 114.134Z" fill="#252525"/>
<path fill-rule="evenodd" clip-rule="evenodd" d="M122.209 89.9612C122.57 88.8842 122.691 87.5678 122.691 86.3711C122.691 82.7811 121.244 79.7894 118.472 77.5157C115.699 75.242 111.963 74.0454 107.262 74.0454C101.596 74.0454 96.5338 75.1224 92.0739 77.2764V61.2409L112.445 43.7694H80.1406V23.1865H143.062V41.6154L124.378 58.0099C129.441 59.3262 134.383 61.9589 139.084 66.0276C144.749 70.934 147.642 77.6354 147.642 86.2515C147.642 87.4482 147.642 88.7645 147.522 89.8415H122.209V89.9612Z" fill="#AC2A21"/>
<path fill-rule="evenodd" clip-rule="evenodd" d="M171.87 66.7456L166.687 53.5822L161.504 66.7456H171.87ZM138.602 61.4802L154.754 23.1865H178.741L206.826 89.9612H181.031L179.464 85.8925H163.312H153.91H150.896C150.776 77.1567 148.004 69.3783 141.253 63.6343C140.41 62.9162 139.445 62.1982 138.602 61.4802Z" fill="#AC2A21"/>
<path d="M52.2981 139.624L56.2758 147.761H54.8294L53.9856 145.966H50.6105L49.7668 147.641H48.3203L52.2981 139.624ZM51.2132 144.65H53.5035L52.4186 142.256L51.2132 144.65Z" fill="#252525"/>
<path d="M57.3594 139.624H60.2523C61.6988 139.624 62.6631 140.581 62.6631 141.778C62.6631 142.496 62.422 142.974 61.9398 143.333C62.6631 143.692 63.2658 144.291 63.2658 145.248C63.2658 146.684 62.1809 147.522 60.6139 147.522H57.4799V139.624H57.3594ZM60.0112 142.974C60.855 142.974 61.2166 142.496 61.2166 141.897C61.2166 141.299 60.855 140.82 60.0112 140.82H58.6853V142.974H60.0112ZM60.4934 146.445C61.4577 146.445 61.8193 145.966 61.8193 145.248C61.8193 144.53 61.3371 144.051 60.4934 144.051H58.6853V146.325H60.4934V146.445Z" fill="#252525"/>
<path d="M65.3148 140.94H63.2656V139.624H68.8104V140.94H66.6407V147.641H65.3148V140.94Z" fill="#252525"/>
<path d="M69.2891 143.692C69.2891 141.419 71.0971 139.624 73.3874 139.624C75.6776 139.624 77.4857 141.419 77.4857 143.692C77.4857 145.966 75.6776 147.761 73.3874 147.761C71.2177 147.761 69.2891 145.966 69.2891 143.692ZM76.2803 143.692C76.2803 142.137 75.0749 140.82 73.5079 140.82C71.9409 140.82 70.7355 142.017 70.7355 143.692C70.7355 145.368 71.9409 146.564 73.5079 146.564C75.0749 146.564 76.2803 145.248 76.2803 143.692Z" fill="#252525"/>
<path d="M79.0547 139.624L83.0325 143.812L87.0102 139.624V147.761H85.6843V142.855L83.0325 145.727L80.3806 142.855V147.761H79.0547V139.624Z" fill="#252525"/>
<path d="M88.4531 143.692C88.4531 141.419 90.2612 139.624 92.5514 139.624C94.8417 139.624 96.6497 141.419 96.6497 143.692C96.6497 145.966 94.8417 147.761 92.5514 147.761C90.2612 147.761 88.4531 145.966 88.4531 143.692ZM95.3238 143.692C95.3238 142.137 94.1184 140.82 92.5514 140.82C90.9844 140.82 89.779 142.017 89.779 143.692C89.779 145.368 90.9844 146.564 92.5514 146.564C94.1184 146.564 95.3238 145.248 95.3238 143.692Z" fill="#252525"/>
<path d="M99.1898 140.94H97.1406V139.624H102.685V140.94H100.636V147.641H99.1898V140.94Z" fill="#252525"/>
<path d="M103.773 147.761V139.624H105.099V144.769L110.644 139.624V147.761H109.318V142.615L103.773 147.761Z" fill="#252525"/>
<path d="M112.57 139.624H115.463C116.91 139.624 117.874 140.581 117.874 141.778C117.874 142.496 117.633 142.974 117.151 143.333C117.874 143.692 118.477 144.291 118.477 145.248C118.477 146.684 117.392 147.522 115.825 147.522H112.691V139.624H112.57ZM115.222 142.974C116.066 142.974 116.428 142.496 116.428 141.897C116.428 141.299 116.066 140.82 115.222 140.82H113.896V142.974H115.222ZM115.584 146.445C116.548 146.445 116.91 145.966 116.91 145.248C116.91 144.53 116.428 144.051 115.584 144.051H113.776V146.325H115.584V146.445Z" fill="#252525"/>
<path d="M125.465 139.624L129.323 147.641H127.876L127.032 145.846H123.657L122.814 147.641H121.367L125.465 139.624ZM124.26 144.65H126.55L125.465 142.256L124.26 144.65Z" fill="#252525"/>
<path d="M129.68 143.692C129.68 141.419 131.488 139.624 133.778 139.624C134.863 139.624 135.948 139.983 136.671 140.82L135.827 141.658C135.345 141.179 134.622 140.82 133.778 140.82C132.211 140.82 131.006 142.017 131.006 143.692C131.006 145.368 132.211 146.564 133.778 146.564C134.622 146.564 135.224 146.205 135.827 145.727L136.671 146.684C135.948 147.402 134.983 147.881 133.778 147.881C131.608 147.761 129.68 145.966 129.68 143.692Z" fill="#252525"/>
<path d="M137.156 143.692C137.156 141.419 138.964 139.624 141.255 139.624C142.339 139.624 143.424 139.983 144.147 140.82L143.304 141.778C142.822 141.299 142.098 140.94 141.255 140.94C139.688 140.94 138.482 142.137 138.482 143.812C138.482 145.487 139.688 146.684 141.255 146.684C142.098 146.684 142.701 146.325 143.304 145.846L144.147 146.804C143.424 147.522 142.46 148 141.255 148C138.964 147.761 137.156 145.966 137.156 143.692Z" fill="#252525"/>
<path d="M145.477 147.761V139.624H146.802V144.769L152.347 139.624V147.761H151.021V142.615L145.477 147.761Z" fill="#252525"/>
<path d="M153.789 143.692C153.789 141.419 155.597 139.624 157.887 139.624C158.972 139.624 160.057 139.983 160.78 140.82L159.937 141.778C159.454 141.299 158.731 140.94 157.887 140.94C156.32 140.94 155.115 142.137 155.115 143.812C155.115 145.487 156.32 146.684 157.887 146.684C158.731 146.684 159.334 146.325 159.937 145.846L160.78 146.804C160.057 147.522 159.093 148 157.887 148C155.597 147.761 153.789 145.966 153.789 143.692Z" fill="#252525"/>
<path d="M163.432 140.94H161.383V139.624H166.928V140.94H164.878V147.641H163.553V140.94H163.432Z" fill="#252525"/>
<path d="M169.579 139.624L173.557 147.761H172.111L171.267 145.966H167.892L167.048 147.761H165.602L169.579 139.624ZM168.494 144.65H170.785L169.7 142.256L168.494 144.65Z" fill="#252525"/>
<path d="M174.641 139.624H175.967V142.974H179.944V139.624H181.27V147.641H179.944V144.171H175.967V147.641H174.641V139.624Z" fill="#252525"/>
<path d="M182.719 143.692C182.719 141.419 184.527 139.624 186.817 139.624C187.902 139.624 188.987 139.983 189.71 140.82L188.866 141.778C188.384 141.299 187.661 140.94 186.817 140.94C185.25 140.94 184.045 142.137 184.045 143.812C184.045 145.487 185.25 146.684 186.817 146.684C187.661 146.684 188.264 146.325 188.866 145.846L189.71 146.804C188.987 147.522 188.022 148 186.817 148C184.647 147.761 182.719 145.966 182.719 143.692Z" fill="#252525"/>
<path d="M196.825 139.624L200.803 147.761H199.236L198.392 145.966H195.017L194.173 147.761H192.727L196.825 139.624ZM195.619 144.65H197.91L196.825 142.256L195.619 144.65Z" fill="#252525"/>
<path d="M204.9 142.376L202.368 147.761H200.922L204.9 139.624L208.877 147.761H207.431L204.9 142.376Z" fill="#252525"/>
<path d="M212.488 142.735C214.175 142.735 215.26 143.692 215.26 145.248C215.26 146.684 214.175 147.761 212.488 147.761H209.836V139.743H211.162V142.735H212.488ZM211.282 146.445H212.608C213.573 146.445 214.175 145.966 214.175 145.128C214.175 144.291 213.573 143.812 212.608 143.812H211.282V146.445Z" fill="#252525"/>
<path d="M220.69 147.641V144.769H219.726L217.676 147.641H216.109L218.279 144.53C217.917 144.41 217.676 144.291 217.435 144.051C216.953 143.573 216.592 142.974 216.592 142.256C216.592 140.701 217.797 139.743 219.364 139.743H221.895V147.761H220.69V147.641ZM220.69 140.82H219.605C218.641 140.82 218.038 141.299 218.038 142.137C218.038 142.974 218.641 143.453 219.605 143.453H220.69V140.82Z" fill="#252525"/>
<path d="M223.945 139.624H225.271V142.974H229.249V139.624H230.575V147.641H229.249V144.171H225.271V147.641H223.945V139.624Z" fill="#252525"/>
<path d="M232.016 143.692C232.016 141.419 233.824 139.624 236.114 139.624C237.199 139.624 238.284 139.983 239.007 140.82L238.163 141.778C237.681 141.299 236.958 140.94 236.114 140.94C234.547 140.94 233.342 142.137 233.342 143.812C233.342 145.487 234.547 146.684 236.114 146.684C236.958 146.684 237.56 146.325 238.163 145.846L239.007 146.804C238.284 147.522 237.319 148 236.114 148C233.824 147.761 232.016 145.966 232.016 143.692Z" fill="#252525"/>
</svg>
