<svg width="280" height="170" viewBox="0 0 280 170" fill="none" xmlns="http://www.w3.org/2000/svg">
<g clip-path="url(#clip0_5156_91063)">
<path d="M42.7017 67.433C49.2031 63.784 56.2892 60.8923 62.6874 57.5186C73.6606 51.7352 84.4962 45.6075 94.919 38.8947C108.885 29.9097 122.92 22.887 139.431 20.0641C157.834 16.897 177.132 18.3773 194.71 24.6771C194.882 24.746 195.019 24.7804 195.191 24.8492C209.123 29.9441 221.954 38.5504 230.966 50.4615C241.458 64.3003 246.273 81.2375 245.654 98.5188C245.517 102.925 245.104 107.332 244.622 111.704C239.291 157.799 179.368 162.24 154.532 160.759C129.731 159.279 80.0587 143.753 66.8152 145.406C52.471 147.196 36.6475 142.135 27.1879 130.913C15.9051 117.521 17.0747 96.9697 25.8119 82.5112C29.9054 75.7983 35.994 71.2198 42.7017 67.433Z" fill="#FAFAFA"/>
<path d="M227.766 24.7803H190.375V70.4279H227.766V24.7803Z" stroke="#2E405B" stroke-miterlimit="10" stroke-linecap="round" stroke-linejoin="round"/>
<path d="M225.327 27.7754H192.82V67.4675H225.327V27.7754Z" stroke="#2E405B" stroke-miterlimit="10" stroke-linecap="round" stroke-linejoin="round"/>
<path d="M214.836 40.5815H203.312V54.6614H214.836V40.5815Z" stroke="#2E405B" stroke-miterlimit="10" stroke-linecap="round" stroke-linejoin="round"/>
<path d="M102.109 77.6227V19.3755" stroke="#2E405B" stroke-miterlimit="10" stroke-linecap="round" stroke-linejoin="round"/>
<path d="M25.6719 109.775H102.106V80.2388" stroke="#2E405B" stroke-miterlimit="10" stroke-linecap="round" stroke-linejoin="round"/>
<path d="M181.773 62.1314V19.6509" stroke="#2E405B" stroke-miterlimit="10" stroke-linecap="round" stroke-linejoin="round"/>
<path d="M105.336 21.8887V109.776H181.77V64.1282" stroke="#2E405B" stroke-miterlimit="10" stroke-linecap="round" stroke-linejoin="round"/>
<path d="M105.336 19.3755V20.3738" stroke="#2E405B" stroke-miterlimit="10" stroke-linecap="round" stroke-linejoin="round"/>
<path d="M58.182 146.748H52.6094V153.048H58.182V146.748Z" fill="white" stroke="#2E405B" stroke-miterlimit="10" stroke-linecap="round" stroke-linejoin="round"/>
<path d="M75.9346 119.621H34.8281V147.368H75.9346V119.621Z" fill="white" stroke="#2E405B" stroke-miterlimit="10" stroke-linecap="round" stroke-linejoin="round"/>
<path d="M74.7313 120.826H36.1016V146.197H74.7313V120.826Z" fill="#DFDFDF" stroke="#2E405B" stroke-miterlimit="10" stroke-linecap="round" stroke-linejoin="round"/>
<path d="M132.348 117.349H108.509C106.273 117.349 104.313 118.933 103.866 121.136L97.2266 152.979H130.731L136.992 123.064C137.611 120.103 135.375 117.349 132.348 117.349Z" fill="#2E405B" stroke="#2E405B" stroke-miterlimit="10" stroke-linecap="round" stroke-linejoin="round"/>
<path d="M205.06 84.611C205.06 84.611 203.512 88.8453 200.279 89.3961C197.011 89.9813 191.266 83.6471 194.912 80.3767C198.524 77.1408 203.512 82.3045 205.06 84.611Z" fill="#DFDFDF" stroke="#2E405B" stroke-miterlimit="10" stroke-linecap="round" stroke-linejoin="round"/>
<path d="M210.051 63.8872C210.051 63.8872 205.27 75.5917 207.162 81.3407C209.088 87.0896 220.956 91.3239 224.43 83.8193C227.87 76.349 220.199 65.7805 217.344 63.4741C214.454 61.202 211.014 61.9594 210.051 63.8872Z" fill="#DFDFDF" stroke="#2E405B" stroke-miterlimit="10" stroke-linecap="round" stroke-linejoin="round"/>
<path d="M238.055 68.879C238.055 68.879 229.799 76.3492 228.836 83.8539C227.873 91.3241 233.445 94.0437 239.19 93.0798C244.934 92.1159 247.824 77.5197 246.104 70.8068C244.384 64.0939 238.055 68.879 238.055 68.879Z" fill="#DFDFDF" stroke="#2E405B" stroke-miterlimit="10" stroke-linecap="round" stroke-linejoin="round"/>
<path d="M239.597 110.361C239.597 110.361 230.378 110.74 229.999 115.146C229.621 119.553 234.024 120.517 238.427 116.696C242.83 112.84 243.415 110.533 239.597 110.361Z" fill="#DFDFDF" stroke="#2E405B" stroke-miterlimit="10" stroke-linecap="round" stroke-linejoin="round"/>
<path d="M230.141 116.214C230.141 116.214 237.399 112.875 240.667 112.324" stroke="#2E405B" stroke-miterlimit="10" stroke-linecap="round" stroke-linejoin="round"/>
<path d="M241.632 139.244C241.632 139.244 234.856 132.978 231.485 135.835C228.079 138.693 230.522 142.479 236.335 142.893C242.183 143.306 244.212 142.101 241.632 139.244Z" fill="#DFDFDF" stroke="#2E405B" stroke-miterlimit="10" stroke-linecap="round" stroke-linejoin="round"/>
<path d="M230.828 136.662C230.828 136.662 238.293 139.484 241.01 141.378" stroke="#2E405B" stroke-miterlimit="10" stroke-linecap="round" stroke-linejoin="round"/>
<path d="M205.959 137.385C205.959 137.385 215.281 128.744 219.959 132.669C224.637 136.593 221.301 141.826 213.251 142.411C205.236 142.996 202.416 141.344 205.959 137.385Z" fill="#DFDFDF" stroke="#2E405B" stroke-miterlimit="10" stroke-linecap="round" stroke-linejoin="round"/>
<path d="M220.855 133.839C220.855 133.839 210.57 137.695 206.82 140.346" stroke="#2E405B" stroke-miterlimit="10" stroke-linecap="round" stroke-linejoin="round"/>
<path d="M216.761 119.552C216.761 119.552 215.798 124.165 212.358 125.887C208.918 127.608 202.761 123.959 206.028 118.416C209.262 112.84 215.041 117.246 216.761 119.552Z" fill="#DFDFDF" stroke="#2E405B" stroke-miterlimit="10" stroke-linecap="round" stroke-linejoin="round"/>
<path d="M208.71 105.163C208.71 105.163 206.99 101.307 200.282 103.82C193.574 106.299 190.891 110.155 195.088 111.497C199.319 112.84 208.71 105.163 208.71 105.163Z" fill="#DFDFDF" stroke="#2E405B" stroke-miterlimit="10" stroke-linecap="round" stroke-linejoin="round"/>
<path d="M207.403 104.991C207.403 104.991 200.282 105.748 196.43 109.018" stroke="#2E405B" stroke-miterlimit="10" stroke-linecap="round" stroke-linejoin="round"/>
<path d="M227.867 59.1022C227.867 59.1022 229.002 61.7874 231.307 61.2021C233.612 60.6169 234.197 57.1744 237.843 58.1383C241.489 59.1022 244.551 63.3365 244.551 61.4087C244.551 59.4809 239.941 54.4893 234.781 54.4893C229.622 54.4893 228.074 56.5892 227.867 59.1022Z" fill="#DFDFDF" stroke="#2E405B" stroke-miterlimit="10" stroke-linecap="round" stroke-linejoin="round"/>
<path d="M208.711 105.163C208.711 105.163 216.967 103.58 220.407 112.771C220.75 113.666 221.026 114.63 221.266 115.594" stroke="#2E405B" stroke-miterlimit="10" stroke-linecap="round" stroke-linejoin="round"/>
<path d="M243.18 96.2811C243.18 96.2811 244.9 92.4255 251.607 94.9385C258.315 97.4171 260.998 101.273 256.802 102.615C252.571 103.958 243.18 96.2811 243.18 96.2811Z" fill="#DFDFDF" stroke="#2E405B" stroke-miterlimit="10" stroke-linecap="round" stroke-linejoin="round"/>
<path d="M244.688 96.5222C244.688 96.5222 251.602 96.1435 254.87 100.171" stroke="#2E405B" stroke-miterlimit="10" stroke-linecap="round" stroke-linejoin="round"/>
<path d="M243.179 96.2812C243.179 96.2812 240.427 95.7648 237.469 97.0729" stroke="#2E405B" stroke-miterlimit="10" stroke-linecap="round" stroke-linejoin="round"/>
<path d="M213.114 89.3962C209.055 85.2652 205.065 84.6455 205.065 84.6455C205.065 84.6455 199.148 83.0964 196.844 85.1963" stroke="#2E405B" stroke-miterlimit="10" stroke-linecap="round" stroke-linejoin="round"/>
<path d="M213.941 68.1214L213.562 66.5034" stroke="#2E405B" stroke-miterlimit="10" stroke-linecap="round" stroke-linejoin="round"/>
<path d="M223.267 152.979C223.267 152.979 224.127 119.931 223.267 109.879C222.407 99.8268 218.382 88.0878 218.382 88.0878L214.289 69.8081" stroke="#2E405B" stroke-miterlimit="10" stroke-linecap="round" stroke-linejoin="round"/>
<path d="M240.328 75.2129L241.05 73.6294" stroke="#2E405B" stroke-miterlimit="10" stroke-linecap="round" stroke-linejoin="round"/>
<path d="M225.258 152.945C225.258 152.945 225.533 122.788 226.703 114.182C227.838 105.576 232.447 92.0811 232.447 92.0811L239.499 77.0029" stroke="#2E405B" stroke-miterlimit="10" stroke-linecap="round" stroke-linejoin="round"/>
<path d="M230.141 116.213C230.141 116.213 228.146 133.495 226.977 153.014" stroke="#2E405B" stroke-miterlimit="10" stroke-linecap="round" stroke-linejoin="round"/>
<path d="M220.409 152.945C220.409 152.945 220.994 125.37 219.824 121.652C218.689 117.935 216.763 119.553 216.763 119.553C216.763 119.553 211.465 120.172 209.539 123.27" stroke="#2E405B" stroke-miterlimit="10" stroke-linecap="round" stroke-linejoin="round"/>
<path d="M221.719 117.728C223.232 126.128 221.822 152.979 221.822 152.979" stroke="#2E405B" stroke-miterlimit="10" stroke-linecap="round" stroke-linejoin="round"/>
<path d="M235.817 97.9678C234.166 99.1038 232.55 100.928 231.449 103.889C228.009 113.08 228.387 153.013 228.387 153.013" stroke="#2E405B" stroke-miterlimit="10" stroke-linecap="round" stroke-linejoin="round"/>
<path d="M214.117 90.4634C215.906 92.5633 217.66 95.4206 218.967 99.2418C223.542 112.427 225.262 146.611 224.402 152.91" stroke="#2E405B" stroke-miterlimit="10" stroke-linecap="round" stroke-linejoin="round"/>
<path d="M225.739 102.822C225.464 119.484 225.258 152.945 225.258 152.945" stroke="#2E405B" stroke-miterlimit="10" stroke-linecap="round" stroke-linejoin="round"/>
<path d="M225.773 100.757C225.945 89.7406 226.186 78.9656 226.393 73.1822C226.977 58.2761 227.872 59.1023 227.872 59.1023C227.872 59.1023 228.938 55.7631 234.889 56.1418" stroke="#2E405B" stroke-miterlimit="10" stroke-linecap="round" stroke-linejoin="round"/>
<path d="M218.442 113.322C218.442 113.322 213.66 109.053 215.552 106.953C217.479 104.853 229.346 103.304 232.82 106.058C236.26 108.778 228.589 112.668 225.734 113.494C222.845 114.32 219.405 114.045 218.442 113.322Z" fill="#DFDFDF" stroke="#2E405B" stroke-miterlimit="10" stroke-linecap="round" stroke-linejoin="round"/>
<path d="M222.877 109.811C222.808 110.258 222.773 110.671 222.773 111.084" stroke="#2E405B" stroke-miterlimit="10" stroke-linecap="round" stroke-linejoin="round"/>
<path d="M224.527 104.819C224.527 104.819 223.805 106.23 223.289 107.986" stroke="#2E405B" stroke-miterlimit="10" stroke-linecap="round" stroke-linejoin="round"/>
<path d="M218.442 141.309C218.442 141.309 213.66 137.04 215.552 134.941C217.479 132.841 229.346 131.291 232.82 134.045C236.26 136.765 228.589 140.655 225.734 141.481C222.879 142.307 219.405 141.998 218.442 141.309Z" fill="#DFDFDF" stroke="#2E405B" stroke-miterlimit="10" stroke-linecap="round" stroke-linejoin="round"/>
<path d="M224.528 132.806C224.528 132.806 222.773 136.318 222.773 139.072" stroke="#2E405B" stroke-miterlimit="10" stroke-linecap="round" stroke-linejoin="round"/>
<path d="M222.019 129.467C222.019 129.467 218.751 126.575 220.059 125.13C221.366 123.684 229.449 122.651 231.789 124.51C234.128 126.369 228.933 128.985 226.973 129.57C225.012 130.156 222.673 129.949 222.019 129.467Z" fill="#DFDFDF" stroke="#2E405B" stroke-miterlimit="10" stroke-linecap="round" stroke-linejoin="round"/>
<path d="M226.149 123.718C226.149 123.718 224.945 126.094 224.945 127.987" stroke="#2E405B" stroke-miterlimit="10" stroke-linecap="round" stroke-linejoin="round"/>
<path d="M86.453 129.26C86.453 129.26 82.4284 135.526 82.5659 135.801C82.7035 136.076 85.2834 139.14 85.4898 139.278C85.6962 139.416 86.9346 139.347 86.9346 139.347L88.9641 137.626C88.9641 137.626 88.9641 137.212 88.7577 136.868C88.5513 136.524 87.9321 136.455 87.9321 136.455C87.9321 136.455 89.0329 133.804 88.9641 133.116C88.8953 132.427 88.7577 130.362 88.7577 130.362L86.453 129.26Z" fill="white" stroke="#2E405B" stroke-miterlimit="10" stroke-linecap="round" stroke-linejoin="round"/>
<path d="M87.9697 136.524L86.5938 137.935" stroke="#2E405B" stroke-miterlimit="10" stroke-linecap="round" stroke-linejoin="round"/>
<path d="M87.1766 93.4238C87.1766 93.4238 100.386 116.076 100.386 116.385C100.386 116.695 88.7933 130.465 88.7933 130.465L86.4542 129.295L91.5796 115.456L84.9062 110.843L87.1766 93.4238Z" fill="white" stroke="#2E405B" stroke-miterlimit="10" stroke-linecap="round" stroke-linejoin="round"/>
<path d="M86.5926 104.165L89.6541 114.079L86.0078 111.669L86.5926 104.165Z" fill="#2E405B" stroke="#2E405B" stroke-miterlimit="10" stroke-linecap="round" stroke-linejoin="round"/>
<path d="M97.2571 114.354L91.5469 115.421L94.6428 113.39" stroke="#2E405B" stroke-miterlimit="10" stroke-linecap="round" stroke-linejoin="round"/>
<path d="M87.0391 127.677L90.1005 128.778" stroke="#2E405B" stroke-miterlimit="10" stroke-linecap="round" stroke-linejoin="round"/>
<path d="M86.8677 101.892L85.251 116.592L85.5605 134.217H57.6632L57.1816 126.127C57.1816 126.127 48.1347 98.243 48.2035 97.2791C48.2723 96.3152 63.2702 88.9483 63.2702 88.9483L75.9633 88.5352L87.1773 93.3891L87.2461 97.348" fill="white"/>
<path d="M86.8677 101.892L85.251 116.592L85.5605 134.217H57.6632L57.1816 126.127C57.1816 126.127 48.1347 98.243 48.2035 97.2791C48.2723 96.3152 63.2702 88.9483 63.2702 88.9483L75.9633 88.5352L87.1773 93.3891L87.2461 97.348" stroke="#2E405B" stroke-miterlimit="10" stroke-linecap="round" stroke-linejoin="round"/>
<path d="M69.7693 93.527L72.3836 96.6597L70.5948 131.291L73.8971 135.113L77.9906 130.878L74.0347 96.7974L74.9979 92.15L73.4843 88.2944L66.7422 88.8452L69.7693 93.527Z" fill="#AC2A21" stroke="#2E405B" stroke-miterlimit="10" stroke-linecap="round" stroke-linejoin="round"/>
<path d="M62.6172 77.313L64.3371 85.6439L70.7697 91.1519L75.0695 87.6061L74.8975 83.4062H73.04L64.9563 79.3441L62.6172 77.313Z" fill="white" stroke="#2E405B" stroke-miterlimit="10" stroke-linecap="round" stroke-linejoin="round"/>
<path d="M72.25 89.7748L73.6259 95.9025L77.4098 89.8436L74.9675 85.8848L75.0707 87.606L72.25 89.7748Z" fill="white" stroke="#2E405B" stroke-miterlimit="10" stroke-linecap="round" stroke-linejoin="round"/>
<path d="M64.3327 85.6436L62.2344 89.3615L70.2837 96.3153L71.0061 90.4286L64.3327 85.6436Z" fill="white" stroke="#2E405B" stroke-miterlimit="10" stroke-linecap="round" stroke-linejoin="round"/>
<path d="M61.793 75.0063C61.793 75.0063 60.933 73.0785 60.0386 74.008C59.1443 74.9375 60.1762 77.4849 61.3114 78.1734C62.4466 78.8619 63.2033 78.5177 63.2033 78.5177C63.2033 78.5177 65.1297 81.7192 65.5424 81.9946C65.9552 82.27 71.975 85.024 72.7662 85.265C73.5573 85.506 76.2404 84.6109 76.7908 83.8536C77.3412 83.1306 76.9284 75.7981 76.7908 73.6637C76.6532 71.5294 75.1741 63.0608 74.8989 62.6133C74.6237 62.1313 75.1741 57.1741 73.9013 57.1741C72.6286 57.1741 71.4246 57.8282 71.4246 57.8282C71.4246 57.8282 72.2158 56.3479 71.287 56.8299C70.3583 57.3118 68.8791 58.379 63.5129 60.3757C58.1467 62.3723 59.901 65.6771 60.0386 66.0214C60.1762 66.3656 61.793 75.0063 61.793 75.0063Z" fill="white" stroke="#2E405B" stroke-miterlimit="10" stroke-linecap="round" stroke-linejoin="round"/>
<path d="M61.7938 75.0066C61.7938 75.0066 61.7594 74.9033 61.6562 74.7656L61.7938 75.0066Z" stroke="#2E405B" stroke-miterlimit="10" stroke-linecap="round" stroke-linejoin="round"/>
<path d="M74.8645 62.4758C74.6925 61.5119 75.1053 57.2088 73.9013 57.2088C72.6286 57.2088 71.4246 57.8629 71.4246 57.8629C71.4246 57.8629 72.2158 56.3826 71.287 56.8646C70.3583 57.3465 68.8791 58.4137 63.5129 60.4103C58.1467 62.407 59.901 65.7118 60.0386 66.056C60.1762 66.4003 61.793 75.041 61.793 75.041L62.9969 74.6279C62.9969 74.6279 62.0682 71.805 62.5154 71.3575C62.9969 70.8755 63.8569 70.3592 63.8569 70.0838C63.8569 69.8084 62.7217 67.2609 63.3753 66.538C63.9945 65.8839 72.5598 63.1643 74.8645 62.4758Z" fill="#2E405B" stroke="#2E405B" stroke-miterlimit="10" stroke-linecap="round" stroke-linejoin="round"/>
<path d="M73.177 69.8428L74.3122 77.4851L72.5234 77.0376" stroke="#2E405B" stroke-miterlimit="10" stroke-linecap="round" stroke-linejoin="round"/>
<path d="M70.6323 70.3934C70.6323 70.3934 68.2244 70.0491 66.8828 70.8753" stroke="#2E405B" stroke-width="2" stroke-miterlimit="10" stroke-linecap="round" stroke-linejoin="round"/>
<path d="M73.6641 68.1904C73.6641 68.1904 73.9393 65.9872 75.5904 66.7101" stroke="#2E405B" stroke-width="2" stroke-miterlimit="10" stroke-linecap="round" stroke-linejoin="round"/>
<path d="M68.8828 78.7241C68.8828 78.7241 70.7059 79.447 72.0475 79.5159" stroke="#2E405B" stroke-miterlimit="10" stroke-linecap="round" stroke-linejoin="round"/>
<path d="M70.0804 72.5276C70.0804 72.9751 69.874 73.3194 69.5988 73.3194C69.3236 73.3194 69.1172 72.9751 69.1172 72.5276C69.1172 72.0801 69.3236 71.7358 69.5988 71.7358C69.874 71.7358 70.0804 72.0801 70.0804 72.5276Z" fill="#2E405B" stroke="#2E405B" stroke-miterlimit="10" stroke-linecap="round" stroke-linejoin="round"/>
<path d="M75.8616 70.8753C75.8616 71.3228 75.6552 71.6671 75.38 71.6671C75.1048 71.6671 74.8984 71.3228 74.8984 70.8753C74.8984 70.4277 75.1048 70.0835 75.38 70.0835C75.6552 70.0835 75.8616 70.4277 75.8616 70.8753Z" fill="#2E405B" stroke="#2E405B" stroke-miterlimit="10" stroke-linecap="round" stroke-linejoin="round"/>
<path d="M70.5263 86.0913C70.5263 86.0913 69.5975 84.4733 69.8727 84.4045C70.1479 84.3356 73.4846 83.3373 73.4158 82.7865C73.347 82.2357 72.3494 81.7881 71.5239 81.9947C70.7327 82.2012 66.6392 82.993 66.7768 83.6127C66.9144 84.2323 68.1872 87.847 68.6688 88.7076C69.1503 89.5682 69.6663 96.9696 69.6663 96.9696H73.0718L73.2094 94.8352C73.2094 94.8352 74.9637 94.491 75.1357 94.0435C75.3421 93.5615 75.2045 92.1501 75.2045 92.1501C75.2045 92.1501 76.7525 91.8747 76.7525 91.5304C76.7525 91.1862 77.234 88.1912 76.7525 87.7781C76.2709 87.365 73.003 85.2995 72.3838 85.2995C71.799 85.2651 70.5263 86.0913 70.5263 86.0913Z" fill="white" stroke="#2E405B" stroke-miterlimit="10" stroke-linecap="round" stroke-linejoin="round"/>
<path d="M75.2031 92.1155L75.2719 90.773L75.8911 90.4287" stroke="#2E405B" stroke-miterlimit="10" stroke-linecap="round" stroke-linejoin="round"/>
<path d="M70.5275 86.0913L69.1172 87.0208" stroke="#2E405B" stroke-miterlimit="10" stroke-linecap="round" stroke-linejoin="round"/>
<path d="M61.6513 97.8645L69.0126 110.292L69.6662 96.9351H73.0716C73.0716 96.9351 75.2388 110.705 75.7203 114.079C76.2019 117.487 76.1331 120.964 75.6515 121.687C75.17 122.41 73.0028 124.819 72.2117 124.819C71.4205 124.819 68.9438 123.477 68.5654 122.823C68.359 122.478 63.3368 119.69 59.0369 115.249C54.9779 111.049 50.7812 104.922 50.7812 104.922" fill="white"/>
<path d="M61.6513 97.8645L69.0126 110.292L69.6662 96.9351H73.0716C73.0716 96.9351 75.2387 110.705 75.7203 114.079C76.2019 117.487 76.1331 120.964 75.6515 121.687C75.17 122.41 73.0028 124.819 72.2117 124.819C71.4205 124.819 68.9438 123.477 68.5654 122.823C68.359 122.478 63.3368 119.69 59.0369 115.249C54.9779 111.049 50.7812 104.922 50.7812 104.922" stroke="#2E405B" stroke-miterlimit="10" stroke-linecap="round" stroke-linejoin="round"/>
<path d="M69.0116 110.292L68.1172 118.21" stroke="#2E405B" stroke-miterlimit="10" stroke-linecap="round" stroke-linejoin="round"/>
<path d="M69.4922 98.8975H73.1041" stroke="#2E405B" stroke-miterlimit="10" stroke-linecap="round" stroke-linejoin="round"/>
<path d="M57.6641 134.217V152.979H86.0774L85.5614 134.217H57.6641Z" fill="#2E405B" stroke="#2E405B" stroke-miterlimit="10" stroke-linecap="round" stroke-linejoin="round"/>
<path d="M141.08 63.887C141.08 63.887 136.884 65.023 135.749 67.777C134.613 70.531 135.439 71.0818 135.68 71.013C135.921 70.9441 136.471 69.877 136.471 69.877C136.471 69.877 135.577 72.39 136.712 73.4227C137.847 74.4899 139.704 75.9358 139.704 75.9358C139.704 75.9358 139.464 79.1717 138.5 81.2028C137.537 83.2339 136.161 85.4715 136.884 86.3666C137.606 87.2616 138.5 85.9535 138.5 85.9535C138.5 85.9535 139.292 87.9845 142.147 88.7075C144.967 89.4304 150.884 90.4631 153.292 90.1189C155.7 89.8091 157.351 88.3632 157.351 88.3632C157.351 88.3632 156.629 89.7402 157.901 88.914C159.208 88.1222 160 87.0551 161.307 84.1289C162.614 81.2028 163.405 76.6243 162.752 73.0441C162.098 69.4983 158.968 66.5033 156.869 64.7821C154.771 63.0952 150.471 61.4772 146.619 61.8559C142.697 62.3379 141.08 63.887 141.08 63.887Z" fill="#2E405B" stroke="#2E405B" stroke-miterlimit="10" stroke-linecap="round" stroke-linejoin="round"/>
<path d="M161.372 95.7988L162.438 109.121L156.831 119.518L154.492 114.733L161.372 95.7988Z" fill="#AC2A21" stroke="#2E405B" stroke-miterlimit="10" stroke-linecap="round" stroke-linejoin="round"/>
<path d="M157.454 106.987L155.837 117.384L154.461 115.077L157.454 106.987Z" fill="#2E405B" stroke="#2E405B" stroke-miterlimit="10" stroke-linecap="round" stroke-linejoin="round"/>
<path d="M125.219 152.979L126.388 140.139L160.133 141.516L160.684 152.738L125.219 152.979Z" fill="#2E405B" stroke="#2E405B" stroke-miterlimit="10" stroke-linecap="round" stroke-linejoin="round"/>
<path d="M143.009 68.5C143.009 68.5 142.493 71.9425 143.078 72.5277C143.663 73.113 146.655 74.5588 146.655 74.5588C146.655 74.5588 146.277 70.7376 146.277 70.5311C146.277 70.2901 148.375 75.6948 149.407 76.3489C150.439 77.0374 152.4 78.6554 152.4 78.6554C152.4 78.6554 152.71 79.5504 152.985 79.4816C153.294 79.4127 153.948 78.7242 153.948 78.7242C153.948 78.7242 156.115 78.139 155.874 79.8603C155.633 81.5815 154.154 83.888 153.26 84.0601C152.366 84.2322 151.678 84.129 151.678 84.129C151.678 84.129 150.474 87.7092 150.336 88.9141C150.198 90.1189 150.095 90.3255 150.267 90.773C150.439 91.2205 153.845 92.8729 154.601 93.0795C155.358 93.3205 161.344 95.7646 161.344 95.7646L154.257 115.662L161.584 141.929C161.584 141.929 150.611 144.476 140.12 143.512C129.628 142.548 125.328 140.311 125.328 140.311L134.237 115.112L131.038 93.4926L142.837 91.3238L143.078 88.6387C143.078 88.6387 140.154 87.8125 139.191 85.7125C138.193 83.5437 139.122 79.7226 139.191 78.621C139.26 77.4849 139.328 75.9358 139.191 74.6621C139.019 73.3539 139.638 69.3951 143.009 68.5Z" fill="#AC2A21" stroke="#2E405B" stroke-miterlimit="10" stroke-linecap="round" stroke-linejoin="round"/>
<path d="M137.711 112.22C137.711 112.22 145.829 117.074 146.139 117.177" stroke="#2E405B" stroke-miterlimit="10" stroke-linecap="round" stroke-linejoin="round"/>
<path d="M140.977 115.353L146.687 119.243" stroke="#2E405B" stroke-miterlimit="10" stroke-linecap="round" stroke-linejoin="round"/>
<path d="M153.289 92.5287C152.016 91.9435 150.399 91.0828 150.296 90.773C150.158 90.3255 150.227 90.0845 150.365 88.9141C150.502 87.7092 151.706 84.129 151.706 84.129C151.706 84.129 152.394 84.1978 153.289 84.0601C154.183 83.9224 155.697 81.5815 155.903 79.8603C156.144 78.139 153.977 78.7242 153.977 78.7242C153.977 78.7242 153.289 79.4127 153.013 79.4816C152.704 79.5504 152.429 78.6554 152.429 78.6554C152.429 78.6554 150.502 77.003 149.436 76.3489C148.404 75.6604 146.306 70.2901 146.306 70.5311C146.306 70.7721 146.684 74.5588 146.684 74.5588C146.684 74.5588 143.691 73.1474 143.107 72.5277C142.522 71.9425 143.038 68.5 143.038 68.5C139.667 69.3951 139.082 73.3539 139.22 74.6277C139.357 75.9014 139.288 77.4849 139.22 78.5865C139.151 79.7226 138.222 83.5093 139.22 85.6781C140.183 87.778 143.107 88.6042 143.107 88.6042L142.866 91.2894L139.564 91.909L138.016 100.756L150.227 101.617L153.289 92.5287Z" fill="white" stroke="#2E405B" stroke-miterlimit="10" stroke-linecap="round" stroke-linejoin="round"/>
<path d="M142.83 91.2896L142.727 93.6305" stroke="#2E405B" stroke-miterlimit="10" stroke-linecap="round" stroke-linejoin="round"/>
<path d="M150.362 86.2632C150.362 86.2632 148.711 87.8467 146.062 88.0877" stroke="#2E405B" stroke-miterlimit="10" stroke-linecap="round" stroke-linejoin="round"/>
<path d="M142.312 82.9927C142.312 82.9927 144.617 83.8878 146.509 81.96" stroke="#2E405B" stroke-miterlimit="10" stroke-linecap="round" stroke-linejoin="round"/>
<path d="M143.212 75.0752C143.212 75.0752 143.315 75.3506 143.212 76.3489C143.109 77.3472 141.32 79.998 141.871 80.2734C142.421 80.5488 142.868 80.4455 143.969 80.5144" stroke="#2E405B" stroke-miterlimit="10" stroke-linecap="round" stroke-linejoin="round"/>
<path d="M141.938 76.5555C141.938 77.0374 141.697 77.4161 141.422 77.4161C141.147 77.4161 140.906 77.0374 140.906 76.5555C140.906 76.0735 141.147 75.6948 141.422 75.6948C141.697 75.6948 141.938 76.0735 141.938 76.5555Z" fill="#2E405B"/>
<path d="M146.962 77.0721C146.962 77.554 146.721 77.9327 146.446 77.9327C146.17 77.9327 145.93 77.554 145.93 77.0721C145.93 76.5901 146.17 76.2114 146.446 76.2114C146.721 76.2114 146.962 76.5901 146.962 77.0721Z" fill="#2E405B"/>
<path d="M140.492 74.6279C140.492 74.6279 141.696 73.7328 142.659 74.2148" stroke="#2E405B" stroke-miterlimit="10" stroke-linecap="round" stroke-linejoin="round"/>
<path d="M145.82 74.4902C145.82 74.4902 147.609 74.2492 148.228 75.695" stroke="#2E405B" stroke-miterlimit="10" stroke-linecap="round" stroke-linejoin="round"/>
<path d="M131.036 93.4583L129.66 103.132L125.429 111.945L117.001 99.2761C117.001 99.2761 116.726 97.245 116.244 96.4877C115.762 95.7303 114.146 95.3172 113.183 94.6632C112.219 93.9747 111.566 91.8747 110.775 92.6321C110.018 93.3894 110.499 94.732 110.775 95.1451C111.05 95.5238 113.286 97.3483 113.286 97.3483L107.92 99.0696C107.92 99.0696 103.689 97.0385 103.31 97.8303C102.932 98.5876 106.372 102.271 107.748 102.65C109.089 103.028 114.49 102.168 114.49 102.168C114.49 102.168 120.544 116.971 121.885 118.623C123.227 120.241 124.947 122.272 125.36 122.169C125.738 122.066 134.063 113.287 134.063 113.287L131.036 93.4583Z" fill="white" stroke="#2E405B" stroke-miterlimit="10" stroke-linecap="round" stroke-linejoin="round"/>
<path d="M115.042 100.584C115.042 100.584 113.631 99.5858 113.115 99.5858C112.599 99.5858 107.612 100.412 107.612 100.412C107.612 100.412 105.032 99.0006 104.516 99.2416" stroke="#2E405B" stroke-miterlimit="10" stroke-linecap="round" stroke-linejoin="round"/>
<path d="M129.317 118.21C131.621 115.869 133.926 113.321 133.926 113.321L131.037 93.458L129.661 103.131L125.43 111.944L129.317 118.21Z" fill="#AC2A21" stroke="#2E405B" stroke-miterlimit="10" stroke-linecap="round" stroke-linejoin="round"/>
<path d="M163.097 105.438C163.097 105.438 163.338 101.169 164.267 100.515C165.196 99.861 168.188 98.9315 168.532 98.3463C168.876 97.761 169.358 98.002 169.289 98.7594C169.22 99.5167 168.292 100.584 168.051 100.687C167.81 100.756 166.537 101.513 166.537 101.513C166.537 101.513 167.535 102.34 167.776 102.443C168.016 102.512 171.284 103.2 171.284 103.2C171.284 103.2 174.552 100.515 174.552 101.204C174.552 101.892 172.385 105.989 172.144 106.471C171.903 106.987 170.046 107.125 169.289 107.228C168.532 107.297 164.955 107.641 164.955 107.641C164.955 107.641 164.026 117.108 163.957 119.277C163.889 121.445 162.444 123.477 161.687 123.959C160.93 124.475 156.768 120.86 156.837 119.518C156.94 118.175 162.1 107.538 162.1 107.538L163.097 105.438Z" fill="white" stroke="#2E405B" stroke-miterlimit="10" stroke-linecap="round" stroke-linejoin="round"/>
<path d="M164.164 106.161C164.164 106.161 164.955 104.508 166.125 104.784C167.294 105.025 170.803 105.438 170.803 105.438C170.803 105.438 172.385 103.338 173.073 103.269" stroke="#2E405B" stroke-miterlimit="10" stroke-linecap="round" stroke-linejoin="round"/>
<path d="M213.941 117.349H190.103C187.867 117.349 185.906 118.933 185.459 121.136L178.82 152.979H212.325L218.585 123.064C219.204 120.103 216.969 117.349 213.941 117.349Z" fill="#2E405B" stroke="#2E405B" stroke-miterlimit="10" stroke-linecap="round" stroke-linejoin="round"/>
<path d="M185.495 116.145L170.222 123.374L165.853 142.962C165.853 142.962 163.961 143.031 163.892 143.547C163.823 144.063 163.961 145.096 163.961 145.096C163.961 145.096 162.654 145.165 162.516 146.335C162.379 147.506 162.516 148.745 162.723 149.33C162.929 149.916 165.131 152.601 165.784 152.704C166.438 152.773 167.229 152.91 167.47 152.979C167.676 153.048 204.93 152.979 204.93 152.979C204.93 152.979 206.375 152.842 206.753 152.532C207.131 152.256 207.2 151.568 207.2 151.568C207.2 151.568 208.232 150.776 208.301 150.26C208.37 149.743 207.923 146.611 207.923 145.957C207.923 145.303 210.537 126.231 210.709 124.923C210.847 123.615 210.434 123.098 210.055 122.72C209.677 122.341 205.687 120 203.932 119.277C202.178 118.554 196.158 115.869 196.158 115.869L185.495 116.145Z" fill="white" stroke="#2E405B" stroke-miterlimit="10" stroke-linecap="round" stroke-linejoin="round"/>
<path d="M187.113 129.157C187.491 128.985 195.712 119.346 198.017 116.592C196.916 116.11 195.781 115.8 195.781 115.8L185.496 116.007L182.469 117.556C183.26 120.035 185.599 126.438 186.081 127.608C186.665 129.088 186.665 129.398 187.113 129.157Z" fill="#AC2A21" stroke="#2E405B" stroke-miterlimit="10" stroke-linecap="round" stroke-linejoin="round"/>
<path d="M183.877 94.3877C183.877 94.3877 181.056 97.7269 181.056 99.0007C181.056 100.24 181.607 101.617 180.988 102.34C180.403 103.063 177.032 104.612 177.685 105.438C178.339 106.264 179.371 106.918 179.371 106.918L179.268 108.846C179.268 108.846 180.472 113.528 181.125 113.735C181.779 113.976 183.877 113.907 183.877 113.907C183.877 113.907 186.491 124.372 187.179 124.51C187.833 124.613 195.779 115.766 195.779 115.766L195.469 112.254C195.469 112.254 198.565 107.159 199.425 104.853C200.251 102.512 198.6 97.6925 196.192 95.4549C193.818 93.2517 188.968 92.873 187.179 93.0795C185.391 93.2517 183.877 94.3877 183.877 94.3877Z" fill="white" stroke="#2E405B" stroke-miterlimit="10" stroke-linecap="round" stroke-linejoin="round"/>
<path d="M182.156 99.4828C182.156 99.4828 183.704 99.0008 184.771 99.9647" stroke="#2E405B" stroke-width="2" stroke-miterlimit="10" stroke-linecap="round" stroke-linejoin="round"/>
<path d="M183.878 102.375C183.741 102.822 183.431 103.097 183.225 103.029C183.018 102.96 182.95 102.547 183.087 102.099C183.225 101.652 183.534 101.376 183.741 101.445C183.947 101.514 184.016 101.927 183.878 102.375Z" fill="#2E405B" stroke="#2E405B" stroke-miterlimit="10" stroke-linecap="round" stroke-linejoin="round"/>
<path d="M184.328 91.5993C184.328 91.5993 178.824 92.5632 180.131 93.6303C181.438 94.6975 188.662 96.6253 190.244 97.1761C191.792 97.7269 187.63 98.6564 188.215 99.1384C188.799 99.6203 190.003 101.892 190.003 101.892C190.003 101.892 189.763 104.887 188.971 106.505C188.18 108.123 184.534 110.258 184.534 110.258C184.534 110.258 182.608 107.676 181.61 107.676C180.578 107.676 179.168 107.917 179.271 108.881C179.374 109.845 179.821 112.426 179.856 112.633C179.925 112.874 179.133 115.249 179.959 115.8C180.785 116.351 185.084 114.595 187.011 113.769C188.937 112.943 189.831 112.53 189.935 111.325C190.038 110.12 191.895 104.75 191.895 104.75C191.895 104.75 193.134 103.923 194.269 104.096C195.404 104.268 195.404 106.781 194.372 107.676C193.34 108.571 192.033 109.466 192.033 109.466L195.37 112.289C195.37 112.289 202.731 104.887 202.834 101.996C202.937 99.1383 199.291 94.0434 197.743 92.4255C196.333 90.8075 187.355 90.3944 184.328 91.5993Z" fill="#2E405B" stroke="#2E405B" stroke-miterlimit="10" stroke-linecap="round" stroke-linejoin="round"/>
<path d="M179.367 109.638C179.367 109.638 181.259 108.915 181.809 109.018C182.807 109.191 183.805 110.258 183.426 111.084C183.117 111.807 182.601 112.53 181.913 112.874C181.225 113.218 180.95 113.39 180.846 113.046C180.743 112.702 180.434 112.392 180.09 112.323C179.746 112.254 179.849 112.633 179.849 112.633C179.849 112.633 179.574 110.086 179.367 109.638Z" fill="white" stroke="#2E405B" stroke-miterlimit="10" stroke-linecap="round" stroke-linejoin="round"/>
<path d="M180.023 110.43C180.023 110.43 181.055 110.464 182.294 109.776" stroke="#2E405B" stroke-miterlimit="10" stroke-linecap="round" stroke-linejoin="round"/>
<path d="M164.992 145.165C164.992 145.165 167.985 145.612 169.223 148.366" stroke="#2E405B" stroke-miterlimit="10" stroke-linecap="round" stroke-linejoin="round"/>
<path d="M166.883 143.719C166.883 143.719 169.36 144.373 170.151 145.406" stroke="#2E405B" stroke-miterlimit="10" stroke-linecap="round" stroke-linejoin="round"/>
<path d="M199.769 131.533L197.637 144.167C197.637 144.167 194.266 144.752 194.266 145.785C194.266 146.817 196.089 149.434 196.089 149.434" stroke="#2E405B" stroke-miterlimit="10" stroke-linecap="round" stroke-linejoin="round"/>
<path d="M200.114 129.226L199.977 130.052" stroke="#2E405B" stroke-miterlimit="10" stroke-linecap="round" stroke-linejoin="round"/>
<path d="M203.859 142.652C204.238 142.652 204.582 142.686 204.926 142.755" stroke="#2E405B" stroke-miterlimit="10" stroke-linecap="round" stroke-linejoin="round"/>
<path d="M198.5 143.65C198.5 143.65 200.598 142.858 202.8 142.686" stroke="#2E405B" stroke-miterlimit="10" stroke-linecap="round" stroke-linejoin="round"/>
<path d="M204.031 144.58C204.031 144.58 206.439 145.612 207.402 148.883" stroke="#2E405B" stroke-miterlimit="10" stroke-linecap="round" stroke-linejoin="round"/>
<path d="M204.926 152.841C204.926 152.841 205.132 151.223 203.171 148.676C201.211 146.128 199.319 145.887 198.803 146.128C198.287 146.335 184.424 151.395 184.424 151.395C184.424 151.395 175.893 146.507 175.136 146.851C174.414 147.23 169.805 152.91 169.805 152.91L204.926 152.841Z" fill="white" stroke="#2E405B" stroke-miterlimit="10" stroke-linecap="round" stroke-linejoin="round"/>
<path d="M171.766 152.91L176.375 148.091" stroke="#2E405B" stroke-miterlimit="10" stroke-linecap="round" stroke-linejoin="round"/>
<path d="M174.273 152.704L178.401 148.951" stroke="#2E405B" stroke-miterlimit="10" stroke-linecap="round" stroke-linejoin="round"/>
<path d="M177.477 152.979L180.332 150.225" stroke="#2E405B" stroke-miterlimit="10" stroke-linecap="round" stroke-linejoin="round"/>
<path d="M180.672 152.772L181.841 151.809" stroke="#2E405B" stroke-miterlimit="10" stroke-linecap="round" stroke-linejoin="round"/>
<path d="M173.281 128.916L173.522 127.264" stroke="#2E405B" stroke-miterlimit="10" stroke-linecap="round" stroke-linejoin="round"/>
<path d="M169.805 152.91L172.969 131.05" stroke="#2E405B" stroke-miterlimit="10" stroke-linecap="round" stroke-linejoin="round"/>
<path d="M168.293 152.91C168.293 152.91 167.845 148.607 165.816 147.643C163.786 146.679 161.447 147.781 160.553 148.022C159.659 148.229 151.781 152.979 151.781 152.979L168.293 152.91Z" fill="white" stroke="#2E405B" stroke-miterlimit="10" stroke-linecap="round" stroke-linejoin="round"/>
<path d="M158.629 150.294C158.629 150.294 156.496 148.676 155.567 147.884C154.604 147.092 154.019 147.023 152.127 147.23C150.235 147.436 148.859 152.944 148.859 152.944H155.946L158.629 150.294Z" fill="white" stroke="#2E405B" stroke-miterlimit="10" stroke-linecap="round" stroke-linejoin="round"/>
<path d="M157.633 149.468C157.633 149.468 155.019 152.394 155.294 152.6C155.569 152.807 156.979 152.738 156.979 152.738C156.979 152.738 159.387 150.914 159.456 150.397C159.525 149.915 157.633 149.468 157.633 149.468Z" fill="white" stroke="#2E405B" stroke-miterlimit="10" stroke-linecap="round" stroke-linejoin="round"/>
<path d="M154.395 147.781L151.781 152.979L150.336 152.704C150.336 152.704 151.953 147.746 152.159 147.23C152.365 146.714 153.535 146.576 154.567 147.23" fill="white"/>
<path d="M154.395 147.781L151.781 152.979L150.336 152.704C150.336 152.704 151.953 147.746 152.159 147.23C152.365 146.714 153.535 146.576 154.567 147.23" stroke="#2E405B" stroke-miterlimit="10" stroke-linecap="round" stroke-linejoin="round"/>
<path d="M152.159 147.23C152.159 147.23 149.991 146.989 149.682 147.505C149.372 148.022 148.891 152.945 148.891 152.945L150.335 152.738L152.159 147.23Z" fill="white" stroke="#2E405B" stroke-miterlimit="10" stroke-linecap="round" stroke-linejoin="round"/>
<path d="M149.406 147.712C149.406 147.712 147.686 148.297 147.617 148.745C147.549 149.227 147.652 152.772 147.652 152.772L148.89 152.876L149.406 147.712Z" fill="white" stroke="#2E405B" stroke-miterlimit="10" stroke-linecap="round" stroke-linejoin="round"/>
<path d="M147.552 149.261C147.552 149.261 145.866 150.535 145.763 150.81C145.66 151.086 144.766 152.119 145.11 152.187C145.454 152.256 146.726 151.292 146.726 151.292L147.483 150.982L147.552 149.261Z" fill="white" stroke="#2E405B" stroke-miterlimit="10" stroke-linecap="round" stroke-linejoin="round"/>
<path d="M245.037 152.979H19.3125" stroke="#2E405B" stroke-miterlimit="10" stroke-linecap="round" stroke-linejoin="round"/>
<path d="M170.801 152.256H146.172V152.979H170.801V152.256Z" fill="#C6C6C6" stroke="#2E405B" stroke-miterlimit="10" stroke-linecap="round" stroke-linejoin="round"/>
<path d="M141.906 133.047H112.461L117.139 152.979H146.584L141.906 133.047Z" fill="#C6C6C6" stroke="#2E405B" stroke-miterlimit="10" stroke-linecap="round" stroke-linejoin="round"/>
<path d="M129.832 143.375C129.832 144.407 129.007 145.234 127.975 145.234C126.943 145.234 126.117 144.407 126.117 143.375C126.117 142.342 126.943 141.516 127.975 141.516C129.007 141.516 129.832 142.376 129.832 143.375Z" fill="#AC2A21" stroke="#2E405B" stroke-miterlimit="10" stroke-linecap="round" stroke-linejoin="round"/>
<path d="M44.3863 142.893C44.3863 142.893 42.6319 141.688 41.2904 142.652C39.9488 143.615 39.7768 148.366 41.2904 150.019C42.1503 150.982 44.4551 150.191 44.4551 150.191L44.6271 147.884C44.6271 147.884 43.1823 149.33 42.4255 147.815C41.944 146.851 42.1847 144.648 43.0447 144.235C43.9047 143.822 44.6959 144.717 44.6959 144.717L44.3863 142.893Z" fill="#AC2A21" stroke="#2E405B" stroke-miterlimit="10" stroke-linecap="round" stroke-linejoin="round"/>
<path d="M45.3516 138.624C45.3516 138.624 48.2411 137.419 48.2411 135.078C48.2411 132.737 46.7963 132.737 46.5899 131.085" stroke="#2E405B" stroke-miterlimit="10" stroke-linecap="round" stroke-linejoin="round"/>
<path d="M48.7918 130.947C48.7918 130.947 48.5854 132.29 49.9958 133.391C51.4405 134.493 50.787 136.283 50.099 137.178" stroke="#2E405B" stroke-miterlimit="10" stroke-linecap="round" stroke-linejoin="round"/>
<path d="M49.2422 129.742C49.2422 129.742 49.5862 128.95 50.3429 128.641" stroke="#2E405B" stroke-miterlimit="10" stroke-linecap="round" stroke-linejoin="round"/>
<path d="M54.6699 139.657H43.9375V153.014H54.6699V139.657Z" fill="#AC2A21" stroke="#2E405B" stroke-miterlimit="10" stroke-linecap="round" stroke-linejoin="round"/>
<path d="M58.3493 39.1698H57.8333V35.8994H50.9192V39.1698H50.4032C45.3466 39.1698 41.2188 43.2664 41.2188 48.3613V49.2908H67.465V48.3269C67.5338 43.2664 63.4059 39.1698 58.3493 39.1698Z" fill="#2E405B" stroke="#2E405B" stroke-miterlimit="10" stroke-linecap="round" stroke-linejoin="round"/>
<path d="M54.3906 36.3471V17.1724" stroke="#2E405B" stroke-miterlimit="10" stroke-linecap="round" stroke-linejoin="round"/>
<path d="M163.748 39.1698H163.232V35.8994H156.318V39.1698H155.802C150.745 39.1698 146.617 43.2664 146.617 48.3613V49.2908H172.863V48.3269C172.932 43.2664 168.804 39.1698 163.748 39.1698Z" fill="#2E405B" stroke="#2E405B" stroke-miterlimit="10" stroke-linecap="round" stroke-linejoin="round"/>
<path d="M159.789 36.3471V17.1724" stroke="#2E405B" stroke-miterlimit="10" stroke-linecap="round" stroke-linejoin="round"/>
<path d="M130.113 51.873H113.326C111.228 51.873 109.508 53.5943 109.508 55.6942V62.7858C109.508 64.8857 111.228 66.607 113.326 66.607H126.535L129.562 70.3249V66.5725H130.113C132.211 66.5725 133.931 64.8513 133.931 62.7514V55.6598C133.931 53.5599 132.211 51.873 130.113 51.873Z" fill="white" stroke="#2E405B" stroke-miterlimit="10" stroke-linecap="round" stroke-linejoin="round"/>
<path d="M117.869 59.1368C117.869 59.722 117.421 60.1695 116.837 60.1695C116.252 60.1695 115.805 59.722 115.805 59.1368C115.805 58.5515 116.252 58.104 116.837 58.104C117.421 58.104 117.869 58.5515 117.869 59.1368Z" fill="#AC2A21" stroke="#2E405B" stroke-miterlimit="10" stroke-linecap="round" stroke-linejoin="round"/>
<path d="M121.719 60.1695C122.289 60.1695 122.751 59.7071 122.751 59.1368C122.751 58.5664 122.289 58.104 121.719 58.104C121.15 58.104 120.688 58.5664 120.688 59.1368C120.688 59.7071 121.15 60.1695 121.719 60.1695Z" fill="#AC2A21" stroke="#2E405B" stroke-miterlimit="10" stroke-linecap="round" stroke-linejoin="round"/>
<path d="M126.571 60.1695C127.141 60.1695 127.603 59.7071 127.603 59.1368C127.603 58.5664 127.141 58.104 126.571 58.104C126.001 58.104 125.539 58.5664 125.539 59.1368C125.539 59.7071 126.001 60.1695 126.571 60.1695Z" fill="#AC2A21" stroke="#2E405B" stroke-miterlimit="10" stroke-linecap="round" stroke-linejoin="round"/>
</g>
<defs>
<clipPath id="clip0_5156_91063">
<rect width="240" height="144" fill="white" transform="translate(19 17)"/>
</clipPath>
</defs>
</svg>
