<svg width="55" height="62" viewBox="0 0 55 62" fill="none" xmlns="http://www.w3.org/2000/svg">
<path d="M16.7457 19.195C15.7112 19.195 14.7606 19.2089 13.81 19.195C12.8314 19.181 12.5099 18.8594 12.4959 17.8948C12.4819 16.8464 12.4959 15.7979 12.4959 14.7494C12.4959 13.7289 12.8174 13.3654 13.824 13.4213C14.509 13.4633 14.6767 13.2396 14.8026 12.5546C15.5714 7.99722 18.0878 4.73994 22.2957 2.81074C22.7151 2.61503 22.9527 2.46125 22.9947 1.944C23.0646 0.923483 23.8055 0.11266 24.84 0.0707212C26.6014 -0.0131571 28.3769 -0.0131571 30.1383 0.0707212C31.1868 0.12664 31.9137 0.951443 31.9976 2.0139C32.0256 2.46125 32.2213 2.62901 32.5987 2.79676C36.9604 4.78188 39.5466 8.10905 40.2316 12.8901C40.2456 13.002 40.2736 13.1138 40.3015 13.2256C40.3155 13.2676 40.3575 13.2955 40.4274 13.4074C40.7489 13.4074 41.1263 13.3794 41.4898 13.4074C42.1049 13.4633 42.4824 13.7988 42.4824 14.4419C42.4964 15.6301 42.4964 16.8184 42.4824 18.0067C42.4684 18.8035 42.1329 19.153 41.3221 19.181C40.3295 19.2089 39.323 19.181 38.2325 19.181C38.2325 19.5584 38.2465 19.88 38.2325 20.1875C38.1626 22.2286 38.1906 24.2836 37.9669 26.3106C37.7572 28.1979 36.8066 29.8475 35.5205 31.2455C35.143 31.6509 35.171 32.0004 35.2269 32.4897C35.3527 33.5521 35.9538 34.0135 36.9184 34.3909C41.5597 36.1803 46.159 38.0815 50.8003 39.8989C51.5971 40.2065 51.9746 40.6678 52.0725 41.5206C52.8413 47.8534 53.6382 54.1862 54.435 60.505C54.5469 61.3717 54.1275 61.889 53.2467 61.9589C53.107 61.9729 52.9672 61.9589 52.8274 61.9589C45.5579 61.9729 38.2885 61.9868 31.019 61.9868C21.4709 61.9868 11.9088 61.9729 2.36062 61.9589C2.12297 61.9589 1.89929 61.9729 1.66164 61.9449C0.864792 61.875 0.431421 61.3717 0.529279 60.5749C1.04653 56.367 1.57776 52.1731 2.10899 47.9652C2.36062 45.9102 2.66817 43.8552 2.86389 41.8002C2.96175 40.7657 3.36716 40.2065 4.35972 39.815C9.11282 37.9697 13.824 36.0405 18.5631 34.1672C19.1782 33.9296 19.4578 33.5801 19.6256 32.965C19.8492 32.1681 19.8073 31.6089 19.2062 30.9239C17.5286 29.0227 16.7737 26.716 16.7457 24.1857C16.7318 22.5641 16.7457 20.9424 16.7457 19.195ZM52.3101 59.9039C52.2682 59.4985 52.2402 59.121 52.1983 58.7575C51.5133 53.3054 50.8283 47.8673 50.1572 42.4153C50.1013 41.9539 49.9336 41.7303 49.5142 41.5625C46.9838 40.5699 44.4675 39.5494 41.9372 38.5429C41.7554 38.473 41.5737 38.431 41.3221 38.3611C41.3221 39.7172 41.3081 40.9753 41.3221 42.2335C41.336 42.7927 41.1263 43.2121 40.651 43.5197C39.98 43.953 39.323 44.4283 38.61 44.9176C39.309 45.5327 39.9381 46.0779 40.5672 46.6231C41.5038 47.448 41.5318 47.7136 40.8188 48.7341C38.3723 52.229 35.9399 55.71 33.4934 59.2049C33.3396 59.4146 33.2138 59.6383 33.0321 59.9039C39.5327 59.9039 45.9074 59.9039 52.3101 59.9039ZM16.3823 44.9036C15.7112 44.4423 15.1381 43.995 14.523 43.6315C13.8799 43.254 13.6422 42.7508 13.6702 42.0238C13.7121 40.8216 13.6842 39.6193 13.6842 38.3611C13.4745 38.4171 13.3626 38.445 13.2648 38.487C10.6366 39.5354 7.99444 40.5979 5.36626 41.6324C4.96085 41.7862 4.90493 42.0518 4.84901 42.4292C4.41564 45.9801 3.95431 49.5449 3.52094 53.0958C3.24134 55.3605 2.96175 57.6112 2.68215 59.9039C9.11282 59.9039 15.5015 59.9039 21.9741 59.9039C21.7784 59.5963 21.6247 59.3726 21.4709 59.149C18.9965 55.6261 16.536 52.1032 14.0616 48.5663C13.5024 47.7695 13.5584 47.42 14.2853 46.7769C14.9563 46.1618 15.6413 45.5607 16.3823 44.9036ZM36.2334 19.2649C30.3759 19.2649 24.6163 19.2649 18.7868 19.2649C18.7868 21.0263 18.7309 22.7458 18.8008 24.4513C18.9685 28.4495 21.8344 31.7348 25.7626 32.5456C29.621 33.3424 33.5214 31.4132 35.3108 27.8624C36.7227 25.1084 36.0517 22.1726 36.2334 19.2649ZM21.6386 33.2166C21.2053 34.8103 20.7719 36.376 20.3805 37.9557C20.2966 38.2912 20.3245 38.7106 20.4643 39.0182C21.7365 41.884 23.9732 43.4358 27.0907 43.5896C30.2501 43.7433 32.6686 42.4153 34.2483 39.6193C34.6258 38.9343 34.7935 38.2912 34.5139 37.5084C34.2064 36.6836 34.0247 35.8168 33.801 34.9641C33.6472 34.3909 33.5214 33.8177 33.3676 33.2306C29.4114 35.4813 25.539 35.4813 21.6386 33.2166ZM16.0607 47.8813C16.2285 48.133 16.3683 48.3566 16.5081 48.5523C18.9685 52.0613 21.415 55.5702 23.8754 59.0791C24.5464 60.0297 24.8679 60.1555 26.0842 59.834C26.0283 59.6383 25.9863 59.4286 25.9304 59.2328C24.3787 54.1582 22.8409 49.0976 21.2612 44.0369C21.1074 43.5336 20.7439 43.0863 20.4504 42.625C19.8073 41.5765 19.0664 40.5839 18.5351 39.4935C18.2835 38.9902 18.3814 38.2912 18.3953 37.6761C18.4093 37.2428 18.5771 36.8094 18.7029 36.3061C17.7802 36.6696 16.9974 37.0051 16.1866 37.2987C15.8231 37.4245 15.6973 37.6202 15.6973 38.0117C15.7252 39.172 15.6833 40.3463 15.7252 41.5066C15.7392 41.7722 15.9209 42.1217 16.1446 42.2894C16.8436 42.8346 17.5985 43.296 18.3254 43.7992C19.2481 44.4423 19.2761 45.0714 18.4373 45.8263C17.6404 46.4973 16.8576 47.1823 16.0607 47.8813ZM38.9595 47.8953C38.1067 47.1544 37.2959 46.4554 36.4991 45.7424C35.7581 45.0854 35.7721 44.4144 36.5829 43.8552C37.3518 43.3239 38.1347 42.8207 38.8756 42.2615C39.0713 42.1217 39.2531 41.8281 39.267 41.6044C39.309 40.3742 39.295 39.13 39.281 37.8998C39.281 37.7321 39.1692 37.4525 39.0434 37.3965C38.1626 37.0051 37.2679 36.6696 36.2894 36.2782C36.3872 36.6696 36.4152 36.9492 36.513 37.2008C36.9045 38.2074 36.8066 39.1859 36.2614 40.0806C35.6743 41.0313 34.9893 41.912 34.3602 42.8207C34.1784 43.0863 33.9548 43.3379 33.8709 43.6315C32.2772 48.804 30.6975 53.9905 29.1178 59.1769C29.0479 59.4006 28.992 59.6383 28.9081 59.9458C29.3974 59.9458 29.8028 59.9738 30.1942 59.9318C30.3899 59.9039 30.6416 59.792 30.7534 59.6383C33.4515 55.7519 36.1775 51.8516 38.9595 47.8953ZM23.6238 44.8617C24.9239 49.1115 26.1681 53.1796 27.4123 57.2477C27.4682 57.2337 27.5241 57.2337 27.58 57.2198C28.8242 53.1517 30.0684 49.0836 31.3545 44.8617C28.7263 45.8682 26.2519 45.8682 23.6238 44.8617ZM40.4693 15.4903C31.7739 15.4903 23.1624 15.4903 14.5369 15.4903C14.5369 16.0635 14.5369 16.5947 14.5369 17.112C23.2044 17.112 31.8298 17.112 40.4693 17.112C40.4693 16.5528 40.4693 16.0495 40.4693 15.4903ZM28.7263 13.3375C29.1737 9.54896 29.6071 5.84434 30.0404 2.06982C28.307 2.06982 26.6713 2.06982 24.9378 2.06982C25.3852 5.85832 25.8186 9.57692 26.2519 13.3375C27.1047 13.3375 27.8876 13.3375 28.7263 13.3375ZM18.2276 8.89192C17.4168 10.192 16.8995 11.6739 16.7318 13.3375C18.7728 13.3375 20.7579 13.3375 22.6731 13.3375C21.2192 11.8836 19.7374 10.4157 18.2276 8.89192ZM38.2745 13.3375C38.0648 11.6599 37.5895 10.1781 36.7507 8.9059C35.2409 10.4157 33.773 11.8836 32.3191 13.3375C34.2343 13.3375 36.2195 13.3375 38.2745 13.3375ZM31.9976 4.55821C31.9137 4.61413 31.8438 4.67005 31.7599 4.73994C31.4943 6.9767 31.2287 9.19947 30.9771 11.4362C32.4729 9.96835 33.9128 8.54242 35.4925 7.00466C34.3182 6.19383 33.1579 5.36903 31.9976 4.55821ZM24.0292 11.5201C23.7496 9.18549 23.484 6.94874 23.2183 4.698C23.1484 4.64209 23.0785 4.60015 23.0086 4.54423C21.8344 5.36903 20.674 6.17985 19.5137 6.99068C21.0794 8.57038 22.5054 9.99631 24.0292 11.5201Z" fill="url(#paint0_linear_4920_97311)"/>
<defs>
<linearGradient id="paint0_linear_4920_97311" x1="27.4842" y1="0.0078125" x2="27.4842" y2="61.9868" gradientUnits="userSpaceOnUse">
<stop stop-color="#15CC4A"/>
<stop offset="1" stop-color="#1B2DBE"/>
</linearGradient>
</defs>
</svg>
