<svg width="62" height="62" viewBox="0 0 62 62" fill="none" xmlns="http://www.w3.org/2000/svg">
<path d="M10.734 11.6338C9.7412 11.6459 8.61525 11.7428 8.15519 10.7137C7.79198 9.8904 7.77987 8.90973 7.58616 7.90485C6.85974 7.8201 6.00014 7.72324 5.14054 7.63849C4.14777 7.54164 3.80877 6.93629 4.28094 6.05247C5.10422 4.50278 5.95171 2.9894 7.38034 1.91188C9.52328 0.301645 11.9205 -0.315813 14.5598 0.144254C16.2306 0.434822 17.8892 0.785925 19.5479 1.10071C20.0201 1.19756 20.4438 1.41549 20.4317 1.93609C20.4196 2.23877 20.2017 2.6383 19.9595 2.8078C19.7416 2.96519 19.3421 2.91676 19.0273 2.85622C17.526 2.57776 16.0247 2.27509 14.5235 1.97241C11.2788 1.33074 8.20361 2.73515 6.6297 5.5803C6.58127 5.66505 6.54495 5.76191 6.4602 5.94351C20.7102 7.46899 34.9117 8.99448 49.1374 10.5321C49.1374 9.92672 49.1374 9.3698 49.1374 8.75234C47.6846 8.46177 46.2196 8.1712 44.7668 7.89274C37.6479 6.51254 30.5289 5.12023 23.41 3.74004C23.1558 3.69161 22.8894 3.63107 22.6715 3.48579C22.2962 3.23154 22.1751 2.84412 22.3688 2.42037C22.5746 1.9482 22.9621 1.79081 23.4585 1.89977C25.105 2.22666 26.7395 2.54144 28.386 2.85622C35.4081 4.22432 42.4301 5.59241 49.4522 6.94839C49.658 6.98471 49.9607 6.88786 50.1302 6.74257C52.0431 5.13234 53.9439 3.4979 55.8447 1.87556C56.9949 0.894888 58.2903 1.31863 58.5446 2.78358C59.4526 7.97749 60.0337 13.2077 59.8884 18.4864C59.7916 22.0458 59.38 25.5569 58.363 28.9953C58.1693 29.6611 57.7697 29.9638 57.2612 29.8549C56.6801 29.7338 56.4501 29.2374 56.6074 28.5231C56.9707 26.8523 57.3944 25.1816 57.6486 23.4987C58.2056 19.915 58.2419 16.295 57.9271 12.6992C57.6729 9.80565 57.2612 6.93629 56.9101 4.05482C56.8859 3.88532 56.8375 3.71582 56.7891 3.46157C55.421 4.62385 54.1134 5.73769 52.818 6.85154C52.2126 7.37214 51.3772 7.80799 51.0624 8.47388C50.7598 9.13976 50.9777 10.0599 50.9777 10.859C50.9777 19.4913 50.9777 28.1357 50.9777 36.768C50.9777 36.9859 50.9777 37.2038 50.9777 37.4217C51.0261 37.4581 51.0624 37.4823 51.1109 37.5186C51.6799 36.9496 52.3337 36.429 52.818 35.7994C53.617 34.7461 54.3071 33.608 55.0456 32.4942C55.1667 32.3126 55.2272 32.0825 55.3604 31.913C55.6631 31.5014 56.0626 31.3561 56.5227 31.6104C56.9707 31.8525 57.1644 32.252 56.9464 32.7363C55.5299 35.7873 53.508 38.3298 50.566 40.049C49.8759 40.4485 49.2101 40.049 49.1616 39.262C49.1495 39.0804 49.1616 38.8988 49.1616 38.7172C49.1616 30.206 49.1616 21.6826 49.1616 13.1714C49.1616 12.9293 49.1616 12.6871 49.1616 12.3844C45.9412 12.0333 42.7449 11.6943 39.476 11.3432C39.476 12.4208 39.476 13.4256 39.476 14.4305C39.476 16.1618 38.6891 16.9488 36.9699 16.9488C36.6067 16.9488 36.2556 16.9488 35.8076 16.9488C37.212 27.833 38.6164 38.6445 40.0208 49.5166C40.3598 49.5166 40.6867 49.5166 41.0015 49.5166C42.0427 49.5409 42.5512 50.0494 42.5754 51.0906C42.5875 52.1802 42.5754 53.2698 42.5875 54.3594C42.5875 54.4926 42.6117 54.6379 42.6238 54.8558C42.9265 54.8558 43.1929 54.8679 43.4713 54.8558C45.6022 54.6984 46.147 55.6549 46.0501 57.4588C46.0017 58.3427 46.038 59.2265 46.038 60.195C46.3044 60.195 46.5465 60.195 46.7766 60.195C51.4014 60.195 56.0142 60.195 60.6391 60.195C60.8449 60.195 61.0507 60.1708 61.2444 60.2071C61.7166 60.2919 62.0072 60.5825 62.0193 61.0667C62.0314 61.5873 61.7408 61.89 61.2444 61.9869C61.0507 62.0232 60.8449 61.999 60.6391 61.999C40.9047 61.999 21.1702 61.999 1.4479 61.999C0.491448 61.999 0.0313813 61.6963 0.0555953 61.0546C0.0798094 60.4493 0.503555 60.1829 1.4479 60.1708C2.62228 60.1587 2.31961 60.3645 2.67071 59.2991C3.3487 57.2772 3.99037 55.2433 4.65626 53.2093C4.76522 52.8824 4.7289 52.6887 4.46255 52.4344C2.27118 50.4126 2.18643 47.2526 4.22041 45.0855C4.77733 44.4922 5.28582 44.4075 5.73378 44.8312C6.14542 45.2308 6.08489 45.7514 5.56429 46.3083C4.25673 47.7248 4.24462 49.6861 5.55218 50.9695C6.85974 52.2528 8.84529 52.2286 10.2134 50.8726C12.6953 48.4149 15.153 45.9451 17.6229 43.4631C19.0031 42.0708 19.0273 40.0611 17.7076 38.7535C16.388 37.446 14.4024 37.4823 12.998 38.8746C11.4967 40.3637 10.0076 41.8771 8.49418 43.3542C8.26415 43.5721 7.90094 43.79 7.62248 43.7658C7.34402 43.7416 6.93238 43.451 6.87184 43.2089C6.7992 42.9062 6.90816 42.4219 7.12609 42.1919C8.1794 41.0538 9.31746 39.9884 10.395 38.8625C10.6008 38.6445 10.7703 38.2813 10.7703 37.9787C10.7945 29.3827 10.7824 20.7867 10.7824 12.1907C10.7582 12.0454 10.7461 11.8638 10.734 11.6338ZM21.0007 54.8316C21.0128 54.5774 21.0249 54.3716 21.037 54.1536C21.037 53.1003 21.0249 52.0591 21.0492 51.0058C21.0734 50.0372 21.594 49.5287 22.5625 49.4924C22.9015 49.4803 23.2405 49.4924 23.5916 49.4924C24.996 38.6082 26.4005 27.7967 27.8049 16.9246C27.2964 16.9246 26.8726 16.9246 26.4489 16.9246C24.9718 16.9125 24.1364 16.065 24.1243 14.5758C24.1243 13.3288 24.1243 12.0697 24.1243 10.8226C24.1243 10.4473 24.1243 10.072 24.1243 9.66036C21.2308 9.35769 18.4098 9.05501 15.601 8.75234C15.2741 11.2706 15.2741 11.2706 12.6348 11.6822C12.6348 20.024 12.6348 28.3778 12.6348 36.7801C14.2692 35.8599 15.9037 35.7146 17.5623 36.4895C20.7465 37.9787 21.4608 42.1314 18.9667 44.6859C16.6906 47.0105 14.3782 49.2866 12.09 51.5869C11.9326 51.7443 11.7873 52.0954 11.8478 52.2891C12.6348 54.8074 13.4581 57.3136 14.2934 59.8197C14.3419 59.9529 14.5114 60.1466 14.6203 60.1587C15.601 60.1829 16.5817 60.1708 17.5865 60.1708C17.5865 58.9722 17.5744 57.8705 17.5865 56.7566C17.5987 55.5217 18.2645 54.8437 19.4995 54.8316C19.9595 54.8316 20.4196 54.8316 21.0007 54.8316ZM44.1614 56.684C35.9045 56.684 27.6959 56.684 19.451 56.684C19.451 57.8584 19.451 58.9843 19.451 60.1224C27.708 60.1224 35.9287 60.1224 44.1614 60.1224C44.1614 58.9601 44.1614 57.8342 44.1614 56.684ZM22.8894 54.7953C28.834 54.7953 34.7543 54.7953 40.6867 54.7953C40.6867 53.6209 40.6867 52.495 40.6867 51.3569C34.7301 51.3569 28.8097 51.3569 22.8894 51.3569C22.8894 52.5313 22.8894 53.6451 22.8894 54.7953ZM26.4126 41.8045C26.0736 44.4075 25.7467 46.9136 25.4198 49.4924C26.6789 49.4924 27.8533 49.5045 29.0398 49.4803C29.2093 49.4803 29.3788 49.3593 29.5362 49.2745C31.5944 48.1607 33.6404 47.0468 35.6986 45.933C35.8439 45.8482 35.9771 45.7514 36.2071 45.6061C32.914 44.3227 29.7057 43.0878 26.4126 41.8045ZM37.6479 11.1253C33.7131 10.7016 29.8631 10.2899 25.9525 9.87829C25.9525 11.5491 25.9404 13.123 25.9767 14.6848C25.9767 14.8301 26.2915 15.0722 26.4731 15.0843C27.1511 15.1327 27.8412 15.1085 28.5313 15.1085C31.3522 15.1085 34.1732 15.1085 36.9941 15.1085C37.321 15.1085 37.66 15.1448 37.66 14.6485C37.6479 13.4983 37.6479 12.3481 37.6479 11.1253ZM6.42388 53.5604C5.70957 55.7639 4.99526 57.9431 4.28094 60.1466C7.02923 60.1466 9.71699 60.1466 12.4653 60.1466C11.7025 57.7978 10.9519 55.4975 10.1892 53.1609C8.95425 53.7541 7.73144 53.8873 6.42388 53.5604ZM28.1923 40.5453C31.3643 41.7682 34.3669 42.9425 37.4905 44.1411C37.1636 41.6471 36.873 39.3346 36.5582 36.9496C33.7857 38.1361 31.0738 39.2983 28.1923 40.5453ZM26.7516 39.1773C29.512 37.9908 32.1876 36.8406 34.9843 35.6299C32.5024 34.4313 30.1173 33.2811 27.6717 32.1068C27.3569 34.504 27.0663 36.7922 26.7516 39.1773ZM29.0035 30.7266C31.4491 31.9009 33.7736 33.0269 36.195 34.1892C35.8923 31.8283 35.6018 29.5885 35.287 27.2519C33.1562 28.4262 31.1343 29.5522 29.0035 30.7266ZM28.0591 29.1648C30.1536 28.0025 32.1029 26.925 34.1489 25.799C32.3692 24.6488 30.6984 23.5592 28.9308 22.4212C28.6281 24.6973 28.3497 26.8523 28.0591 29.1648ZM29.8631 20.8594C31.5701 21.9611 33.1804 23.0144 34.8996 24.1161C34.5969 21.7916 34.3063 19.576 34.0037 17.2515C32.575 18.4864 31.2554 19.6486 29.8631 20.8594ZM37.8416 46.8531C36.2313 47.7248 34.7301 48.5481 33.2167 49.3714C33.2288 49.3956 33.253 49.4319 33.2651 49.4561C34.8875 49.4561 36.4977 49.4561 38.1685 49.4561C38.0595 48.6086 37.9505 47.7974 37.8416 46.8531ZM9.59592 8.11067C9.59592 8.57073 9.60803 8.95816 9.59592 9.33347C9.57171 9.70879 9.7291 9.82986 10.0923 9.81775C10.9519 9.80565 11.8236 9.81775 12.6832 9.81775C13.8213 9.81775 13.8213 9.81776 13.6639 8.57073C12.3442 8.41334 11.0124 8.25595 9.59592 8.11067ZM29.3909 18.8496C30.1536 18.1837 30.7832 17.6268 31.5217 16.9851C30.7953 16.9851 30.2505 16.9851 29.633 16.9851C29.5604 17.5541 29.4877 18.1111 29.3909 18.8496Z" fill="url(#paint0_linear_4920_88444)"/>
<path d="M7.97697 46.1017C9.32085 46.1138 10.3984 47.2034 10.3742 48.5352C10.362 49.8669 9.2482 50.9566 7.92854 50.9445C6.59677 50.9324 5.51924 49.8185 5.53135 48.4867C5.55557 47.1429 6.62098 46.0896 7.97697 46.1017ZM7.79536 49.2011C7.88011 49.2011 7.96486 49.2011 8.04961 49.2132C8.21911 48.9952 8.47335 48.8015 8.52178 48.5594C8.59442 48.2083 8.35228 47.8935 7.97697 47.954C7.74693 47.9904 7.42004 48.2688 7.40794 48.4746C7.38372 48.7047 7.65008 48.9589 7.79536 49.2011Z" fill="url(#paint1_linear_4920_88444)"/>
<path d="M15.082 38.9845C16.4259 38.9845 17.4913 40.062 17.4913 41.418C17.4913 42.7619 16.4138 43.8394 15.0699 43.8394C13.7503 43.8394 12.6364 42.7255 12.6485 41.4059C12.6485 40.062 13.7503 38.9724 15.082 38.9845ZM15.7479 41.5512C15.7479 41.4543 15.7479 41.3574 15.7479 41.2606C15.5179 41.1032 15.2636 40.8126 15.0578 40.849C14.8278 40.8853 14.5372 41.2122 14.5009 41.4422C14.4767 41.5996 14.8399 41.9628 15.0457 41.9749C15.2758 41.987 15.5179 41.7086 15.7479 41.5512Z" fill="url(#paint2_linear_4920_88444)"/>
<path d="M53.4248 11.2216C53.2311 11.0521 52.8679 10.8947 52.771 10.6284C52.6742 10.362 52.7105 9.87772 52.8921 9.69612C53.558 9.03023 54.2965 8.42488 55.035 7.83164C55.4103 7.54107 55.8462 7.61371 56.1731 7.97692C56.5 8.34013 56.5605 8.78809 56.2094 9.12709C55.4951 9.80508 54.7202 10.4225 53.9575 11.0521C53.8727 11.1247 53.7033 11.1369 53.4248 11.2216Z" fill="url(#paint3_linear_4920_88444)"/>
<path d="M12.1615 46.3568C11.8588 46.2115 11.6288 46.1509 11.4714 46.0057C11.1203 45.703 10.7934 45.3761 10.4786 45.0371C10.1033 44.6134 10.1154 44.0928 10.4907 43.7416C10.8539 43.4027 11.3382 43.3905 11.7378 43.7538C12.101 44.0806 12.4763 44.3954 12.7426 44.795C12.9 45.0371 12.9485 45.4608 12.8516 45.7272C12.7548 45.9815 12.4036 46.1509 12.1615 46.3568Z" fill="url(#paint4_linear_4920_88444)"/>
<path d="M53.9925 28.6786C53.9683 28.8844 53.9804 29.175 53.8956 29.4413C53.7625 29.8893 53.4235 30.083 52.9755 30.0467C52.5397 30.0104 52.237 29.7803 52.1886 29.3445C52.1401 28.8844 52.1401 28.4243 52.1643 27.9643C52.2007 27.4437 52.5397 27.1531 53.036 27.141C53.5082 27.1289 53.8351 27.4074 53.9199 27.8795C53.9804 28.1217 53.9683 28.3638 53.9925 28.6786Z" fill="url(#paint5_linear_4920_88444)"/>
<path d="M31.8279 12.3101C32.4938 12.3101 33.1597 12.298 33.8135 12.3101C34.443 12.3222 34.8062 12.6612 34.8062 13.206C34.8062 13.7387 34.443 14.114 33.8256 14.1261C32.4817 14.1503 31.1257 14.1503 29.7818 14.1261C29.1523 14.114 28.7891 13.7508 28.7891 13.2181C28.7891 12.6612 29.1523 12.3222 29.8303 12.3101C30.4961 12.298 31.162 12.3101 31.8279 12.3101Z" fill="url(#paint6_linear_4920_88444)"/>
<defs>
<linearGradient id="paint0_linear_4920_88444" x1="31.0372" y1="-0.00390625" x2="31.0372" y2="62.0069" gradientUnits="userSpaceOnUse">
<stop stop-color="#15CC4A"/>
<stop offset="1" stop-color="#1B2DBE"/>
</linearGradient>
<linearGradient id="paint1_linear_4920_88444" x1="7.9529" y1="46.1016" x2="7.9529" y2="50.9446" gradientUnits="userSpaceOnUse">
<stop stop-color="#15CC4A"/>
<stop offset="1" stop-color="#1B2DBE"/>
</linearGradient>
<linearGradient id="paint2_linear_4920_88444" x1="15.0699" y1="38.9844" x2="15.0699" y2="43.8394" gradientUnits="userSpaceOnUse">
<stop stop-color="#15CC4A"/>
<stop offset="1" stop-color="#1B2DBE"/>
</linearGradient>
<linearGradient id="paint3_linear_4920_88444" x1="54.5828" y1="7.65234" x2="54.5828" y2="11.2216" gradientUnits="userSpaceOnUse">
<stop stop-color="#15CC4A"/>
<stop offset="1" stop-color="#1B2DBE"/>
</linearGradient>
<linearGradient id="paint4_linear_4920_88444" x1="11.5523" y1="43.4844" x2="11.5523" y2="46.3568" gradientUnits="userSpaceOnUse">
<stop stop-color="#15CC4A"/>
<stop offset="1" stop-color="#1B2DBE"/>
</linearGradient>
<linearGradient id="paint5_linear_4920_88444" x1="53.0705" y1="27.1406" x2="53.0705" y2="30.051" gradientUnits="userSpaceOnUse">
<stop stop-color="#15CC4A"/>
<stop offset="1" stop-color="#1B2DBE"/>
</linearGradient>
<linearGradient id="paint6_linear_4920_88444" x1="31.7977" y1="12.3047" x2="31.7977" y2="14.1443" gradientUnits="userSpaceOnUse">
<stop stop-color="#15CC4A"/>
<stop offset="1" stop-color="#1B2DBE"/>
</linearGradient>
</defs>
</svg>
