<svg width="62" height="62" viewBox="0 0 62 62" fill="none" xmlns="http://www.w3.org/2000/svg">
<g clip-path="url(#clip0_4958_92545)">
<path d="M19.7496 19.195C18.7151 19.195 17.7645 19.2089 16.8139 19.195C15.8353 19.181 15.5138 18.8594 15.4998 17.8948C15.4858 16.8464 15.4998 15.7979 15.4998 14.7494C15.4998 13.7289 15.8213 13.3654 16.8279 13.4213C17.5129 13.4633 17.6806 13.2396 17.8065 12.5546C18.5753 7.99722 21.0917 4.73994 25.2996 2.81074C25.719 2.61503 25.9566 2.46125 25.9986 1.944C26.0685 0.923483 26.8094 0.11266 27.8439 0.0707212C29.6053 -0.0131571 31.3808 -0.0131571 33.1422 0.0707212C34.1907 0.12664 34.9176 0.951443 35.0015 2.0139C35.0295 2.46125 35.2252 2.62901 35.6026 2.79676C39.9643 4.78188 42.5505 8.10905 43.2355 12.8901C43.2495 13.002 43.2775 13.1138 43.3054 13.2256C43.3194 13.2676 43.3614 13.2955 43.4313 13.4074C43.7528 13.4074 44.1302 13.3794 44.4937 13.4074C45.1088 13.4633 45.4863 13.7988 45.4863 14.4419C45.5003 15.6301 45.5003 16.8184 45.4863 18.0067C45.4723 18.8035 45.1368 19.153 44.326 19.181C43.3334 19.2089 42.3269 19.181 41.2365 19.181C41.2365 19.5584 41.2504 19.88 41.2365 20.1875C41.1666 22.2286 41.1945 24.2836 40.9708 26.3106C40.7611 28.1979 39.8105 29.8475 38.5244 31.2455C38.1469 31.6509 38.1749 32.0004 38.2308 32.4897C38.3566 33.5521 38.9578 34.0135 39.9224 34.3909C44.5636 36.1803 49.1629 38.0815 53.8042 39.8989C54.6011 40.2065 54.9785 40.6678 55.0764 41.5206C55.8452 47.8534 56.6421 54.1862 57.4389 60.505C57.5508 61.3717 57.1314 61.889 56.2507 61.9589C56.1109 61.9729 55.9711 61.9589 55.8313 61.9589C48.5618 61.9729 41.2924 61.9868 34.0229 61.9868C24.4748 61.9868 14.9127 61.9729 5.36453 61.9589C5.12687 61.9589 4.9032 61.9729 4.66554 61.9449C3.8687 61.875 3.43533 61.3717 3.53319 60.5749C4.05043 56.367 4.58166 52.1731 5.11289 47.9652C5.36453 45.9102 5.67208 43.8552 5.8678 41.8002C5.96565 40.7657 6.37107 40.2065 7.36362 39.815C12.1167 37.9697 16.8279 36.0405 21.567 34.1672C22.1821 33.9296 22.4617 33.5801 22.6295 32.965C22.8531 32.1681 22.8112 31.6089 22.2101 30.9239C20.5325 29.0227 19.7776 26.716 19.7496 24.1857C19.7357 22.5641 19.7496 20.9424 19.7496 19.195ZM55.314 59.9039C55.2721 59.4985 55.2441 59.121 55.2022 58.7575C54.5172 53.3054 53.8322 47.8673 53.1611 42.4153C53.1052 41.9539 52.9375 41.7303 52.5181 41.5625C49.9877 40.5699 47.4714 39.5494 44.9411 38.5429C44.7593 38.473 44.5776 38.431 44.326 38.3611C44.326 39.7172 44.312 40.9753 44.326 42.2335C44.3399 42.7927 44.1302 43.2121 43.6549 43.5197C42.9839 43.953 42.3269 44.4283 41.6139 44.9176C42.3129 45.5327 42.942 46.0779 43.5711 46.6231C44.5077 47.448 44.5357 47.7136 43.8227 48.7341C41.3763 52.229 38.9438 55.71 36.4973 59.2049C36.3436 59.4146 36.2177 59.6383 36.036 59.9039C42.5366 59.9039 48.9113 59.9039 55.314 59.9039ZM19.3862 44.9036C18.7151 44.4423 18.142 43.995 17.5269 43.6315C16.8838 43.254 16.6461 42.7508 16.6741 42.0238C16.716 40.8216 16.6881 39.6193 16.6881 38.3611C16.4784 38.4171 16.3666 38.445 16.2687 38.487C13.6405 39.5354 10.9983 40.5979 8.37016 41.6324C7.96475 41.7862 7.90883 42.0518 7.85291 42.4292C7.41954 45.9801 6.95821 49.5449 6.52484 53.0958C6.24525 55.3605 5.96565 57.6112 5.68606 59.9039C12.1167 59.9039 18.5055 59.9039 24.9781 59.9039C24.7823 59.5963 24.6286 59.3726 24.4748 59.149C22.0004 55.6261 19.5399 52.1032 17.0655 48.5663C16.5064 47.7695 16.5623 47.42 17.2892 46.7769C17.9602 46.1618 18.6452 45.5607 19.3862 44.9036ZM39.2374 19.2649C33.3799 19.2649 27.6202 19.2649 21.7907 19.2649C21.7907 21.0263 21.7348 22.7458 21.8047 24.4513C21.9724 28.4495 24.8383 31.7348 28.7666 32.5456C32.625 33.3424 36.5253 31.4132 38.3147 27.8624C39.7266 25.1084 39.0556 22.1726 39.2374 19.2649ZM24.6425 33.2166C24.2092 34.8103 23.7758 36.376 23.3844 37.9557C23.3005 38.2912 23.3285 38.7106 23.4682 39.0182C24.7404 41.884 26.9772 43.4358 30.0946 43.5896C33.254 43.7433 35.6725 42.4153 37.2522 39.6193C37.6297 38.9343 37.7974 38.2912 37.5179 37.5084C37.2103 36.6836 37.0286 35.8168 36.8049 34.9641C36.6511 34.3909 36.5253 33.8177 36.3715 33.2306C32.4153 35.4813 28.5429 35.4813 24.6425 33.2166ZM19.0646 47.8813C19.2324 48.133 19.3722 48.3566 19.512 48.5523C21.9724 52.0613 24.4189 55.5702 26.8793 59.0791C27.5503 60.0297 27.8719 60.1555 29.0881 59.834C29.0322 59.6383 28.9902 59.4286 28.9343 59.2328C27.3826 54.1582 25.8448 49.0976 24.2651 44.0369C24.1113 43.5336 23.7478 43.0863 23.4543 42.625C22.8112 41.5765 22.0703 40.5839 21.539 39.4935C21.2874 38.9902 21.3853 38.2912 21.3993 37.6761C21.4132 37.2428 21.581 36.8094 21.7068 36.3061C20.7841 36.6696 20.0013 37.0051 19.1905 37.2987C18.827 37.4245 18.7012 37.6202 18.7012 38.0117C18.7291 39.172 18.6872 40.3463 18.7291 41.5066C18.7431 41.7722 18.9248 42.1217 19.1485 42.2894C19.8475 42.8346 20.6024 43.296 21.3294 43.7992C22.252 44.4423 22.28 45.0714 21.4412 45.8263C20.6443 46.4973 19.8615 47.1823 19.0646 47.8813ZM41.9634 47.8953C41.1106 47.1544 40.2998 46.4554 39.503 45.7424C38.762 45.0854 38.776 44.4144 39.5868 43.8552C40.3557 43.3239 41.1386 42.8207 41.8795 42.2615C42.0752 42.1217 42.257 41.8281 42.271 41.6044C42.3129 40.3742 42.2989 39.13 42.2849 37.8998C42.2849 37.7321 42.1731 37.4525 42.0473 37.3965C41.1666 37.0051 40.2719 36.6696 39.2933 36.2782C39.3911 36.6696 39.4191 36.9492 39.5169 37.2008C39.9084 38.2074 39.8105 39.1859 39.2653 40.0806C38.6782 41.0313 37.9932 41.912 37.3641 42.8207C37.1823 43.0863 36.9587 43.3379 36.8748 43.6315C35.2811 48.804 33.7014 53.9905 32.1217 59.1769C32.0518 59.4006 31.9959 59.6383 31.912 59.9458C32.4013 59.9458 32.8067 59.9738 33.1981 59.9318C33.3938 59.9039 33.6455 59.792 33.7573 59.6383C36.4554 55.7519 39.1814 51.8516 41.9634 47.8953ZM26.6277 44.8617C27.9278 49.1115 29.172 53.1796 30.4162 57.2477C30.4721 57.2337 30.528 57.2337 30.5839 57.2198C31.8281 53.1517 33.0723 49.0836 34.3584 44.8617C31.7303 45.8682 29.2558 45.8682 26.6277 44.8617ZM43.4732 15.4903C34.7778 15.4903 26.1663 15.4903 17.5409 15.4903C17.5409 16.0635 17.5409 16.5947 17.5409 17.112C26.2083 17.112 34.8337 17.112 43.4732 17.112C43.4732 16.5528 43.4732 16.0495 43.4732 15.4903ZM31.7303 13.3375C32.1776 9.54896 32.611 5.84434 33.0443 2.06982C31.3109 2.06982 29.6752 2.06982 27.9418 2.06982C28.3891 5.85832 28.8225 9.57692 29.2558 13.3375C30.1086 13.3375 30.8915 13.3375 31.7303 13.3375ZM21.2315 8.89192C20.4207 10.192 19.9034 11.6739 19.7357 13.3375C21.7767 13.3375 23.7618 13.3375 25.677 13.3375C24.2232 11.8836 22.7413 10.4157 21.2315 8.89192ZM41.2784 13.3375C41.0687 11.6599 40.5934 10.1781 39.7546 8.9059C38.2448 10.4157 36.7769 11.8836 35.323 13.3375C37.2383 13.3375 39.2234 13.3375 41.2784 13.3375ZM35.0015 4.55821C34.9176 4.61413 34.8477 4.67005 34.7638 4.73994C34.4982 6.9767 34.2326 9.19947 33.981 11.4362C35.4768 9.96835 36.9167 8.54242 38.4964 7.00466C37.3221 6.19383 36.1618 5.36903 35.0015 4.55821ZM27.0331 11.5201C26.7535 9.18549 26.4879 6.94874 26.2222 4.698C26.1524 4.64209 26.0825 4.60015 26.0126 4.54423C24.8383 5.36903 23.6779 6.17985 22.5176 6.99068C24.0834 8.57038 25.5093 9.99631 27.0331 11.5201Z" fill="white"/>
</g>
<defs>
<clipPath id="clip0_4958_92545">
<rect width="53.9337" height="62" fill="white" transform="translate(3.53125)"/>
</clipPath>
</defs>
</svg>
