<svg width="62" height="62" viewBox="0 0 62 62" fill="none" xmlns="http://www.w3.org/2000/svg">
<g clip-path="url(#clip0_4958_42577)">
<g clip-path="url(#clip1_4958_42577)">
<path d="M10.7262 11.6338C9.73339 11.6459 8.60744 11.7428 8.14737 10.7137C7.78416 9.8904 7.77206 8.90973 7.57834 7.90485C6.85192 7.8201 5.99233 7.72324 5.13273 7.63849C4.13995 7.54164 3.80096 6.93629 4.27313 6.05247C5.09641 4.50278 5.9439 2.9894 7.37252 1.91188C9.51547 0.301645 11.9127 -0.315813 14.552 0.144254C16.2227 0.434822 17.8814 0.785925 19.5401 1.10071C20.0122 1.19756 20.436 1.41549 20.4239 1.93609C20.4118 2.23877 20.1939 2.6383 19.9517 2.8078C19.7338 2.96519 19.3343 2.91676 19.0195 2.85622C17.5182 2.57776 16.0169 2.27509 14.5157 1.97241C11.271 1.33074 8.1958 2.73515 6.62189 5.5803C6.57346 5.66505 6.53714 5.76191 6.45239 5.94351C20.7023 7.46899 34.9039 8.99448 49.1296 10.5321C49.1296 9.92672 49.1296 9.3698 49.1296 8.75234C47.6768 8.46177 46.2118 8.1712 44.759 7.89274C37.6401 6.51254 30.5211 5.12023 23.4022 3.74004C23.148 3.69161 22.8816 3.63107 22.6637 3.48579C22.2884 3.23154 22.1673 2.84412 22.361 2.42037C22.5668 1.9482 22.9543 1.79081 23.4506 1.89977C25.0972 2.22666 26.7316 2.54144 28.3782 2.85622C35.4003 4.22432 42.4223 5.59241 49.4444 6.94839C49.6502 6.98471 49.9529 6.88786 50.1224 6.74257C52.0353 5.13234 53.9361 3.4979 55.8369 1.87556C56.9871 0.894888 58.2825 1.31863 58.5368 2.78358C59.4448 7.97749 60.0259 13.2077 59.8806 18.4864C59.7838 22.0458 59.3721 25.5569 58.3551 28.9953C58.1614 29.6611 57.7619 29.9638 57.2534 29.8549C56.6723 29.7338 56.4422 29.2374 56.5996 28.5231C56.9628 26.8523 57.3866 25.1816 57.6408 23.4987C58.1978 19.915 58.2341 16.295 57.9193 12.6992C57.6651 9.80565 57.2534 6.93629 56.9023 4.05482C56.8781 3.88532 56.8297 3.71582 56.7812 3.46157C55.4131 4.62385 54.1056 5.73769 52.8101 6.85154C52.2048 7.37214 51.3694 7.80799 51.0546 8.47388C50.7519 9.13976 50.9699 10.0599 50.9699 10.859C50.9699 19.4913 50.9699 28.1357 50.9699 36.768C50.9699 36.9859 50.9699 37.2038 50.9699 37.4217C51.0183 37.4581 51.0546 37.4823 51.1031 37.5186C51.6721 36.9496 52.3259 36.429 52.8101 35.7994C53.6092 34.7461 54.2993 33.608 55.0378 32.4942C55.1589 32.3126 55.2194 32.0825 55.3526 31.913C55.6553 31.5014 56.0548 31.3561 56.5149 31.6104C56.9628 31.8525 57.1566 32.252 56.9386 32.7363C55.5221 35.7873 53.5002 38.3298 50.5582 40.049C49.8681 40.4485 49.2022 40.049 49.1538 39.262C49.1417 39.0804 49.1538 38.8988 49.1538 38.7172C49.1538 30.206 49.1538 21.6826 49.1538 13.1714C49.1538 12.9293 49.1538 12.6871 49.1538 12.3844C45.9334 12.0333 42.7371 11.6943 39.4682 11.3432C39.4682 12.4208 39.4682 13.4256 39.4682 14.4305C39.4682 16.1618 38.6813 16.9488 36.9621 16.9488C36.5989 16.9488 36.2477 16.9488 35.7998 16.9488C37.2042 27.833 38.6086 38.6445 40.013 49.5166C40.352 49.5166 40.6789 49.5166 40.9937 49.5166C42.0349 49.5409 42.5434 50.0494 42.5676 51.0906C42.5797 52.1802 42.5676 53.2698 42.5797 54.3594C42.5797 54.4926 42.6039 54.6379 42.616 54.8558C42.9187 54.8558 43.1851 54.8679 43.4635 54.8558C45.5944 54.6984 46.1392 55.6549 46.0423 57.4588C45.9939 58.3427 46.0302 59.2265 46.0302 60.195C46.2966 60.195 46.5387 60.195 46.7687 60.195C51.3936 60.195 56.0064 60.195 60.6313 60.195C60.8371 60.195 61.0429 60.1708 61.2366 60.2071C61.7088 60.2919 61.9994 60.5825 62.0115 61.0667C62.0236 61.5873 61.733 61.89 61.2366 61.9869C61.0429 62.0232 60.8371 61.999 60.6313 61.999C40.8968 61.999 21.1624 61.999 1.44009 61.999C0.483635 61.999 0.0235688 61.6963 0.0477828 61.0546C0.0719969 60.4493 0.495742 60.1829 1.44009 60.1708C2.61447 60.1587 2.31179 60.3645 2.6629 59.2991C3.34089 57.2772 3.98256 55.2433 4.64845 53.2093C4.75741 52.8824 4.72109 52.6887 4.45473 52.4344C2.26337 50.4126 2.17862 47.2526 4.21259 45.0855C4.76952 44.4922 5.27801 44.4075 5.72597 44.8312C6.13761 45.2308 6.07707 45.7514 5.55647 46.3083C4.24892 47.7248 4.23681 49.6861 5.54437 50.9695C6.85192 52.2528 8.83747 52.2286 10.2056 50.8726C12.6875 48.4149 15.1452 45.9451 17.6151 43.4631C18.9953 42.0708 19.0195 40.0611 17.6998 38.7535C16.3801 37.446 14.3946 37.4823 12.9902 38.8746C11.4889 40.3637 9.99975 41.8771 8.48637 43.3542C8.25634 43.5721 7.89313 43.79 7.61467 43.7658C7.3362 43.7416 6.92456 43.451 6.86403 43.2089C6.79139 42.9062 6.90035 42.4219 7.11828 42.1919C8.17159 41.0538 9.30965 39.9884 10.3872 38.8625C10.593 38.6445 10.7625 38.2813 10.7625 37.9787C10.7867 29.3827 10.7746 20.7867 10.7746 12.1907C10.7504 12.0454 10.7383 11.8638 10.7262 11.6338ZM20.9929 54.8316C21.005 54.5774 21.0171 54.3716 21.0292 54.1536C21.0292 53.1003 21.0171 52.0591 21.0413 51.0058C21.0656 50.0372 21.5862 49.5287 22.5547 49.4924C22.8937 49.4803 23.2327 49.4924 23.5838 49.4924C24.9882 38.6082 26.3926 27.7967 27.7971 16.9246C27.2886 16.9246 26.8648 16.9246 26.4411 16.9246C24.964 16.9125 24.1286 16.065 24.1165 14.5758C24.1165 13.3288 24.1165 12.0697 24.1165 10.8226C24.1165 10.4473 24.1165 10.072 24.1165 9.66036C21.2229 9.35769 18.402 9.05501 15.5932 8.75234C15.2663 11.2706 15.2663 11.2706 12.627 11.6822C12.627 20.024 12.627 28.3778 12.627 36.7801C14.2614 35.8599 15.8959 35.7146 17.5545 36.4895C20.7387 37.9787 21.453 42.1314 18.9589 44.6859C16.6828 47.0105 14.3704 49.2866 12.0822 51.5869C11.9248 51.7443 11.7795 52.0954 11.84 52.2891C12.627 54.8074 13.4502 57.3136 14.2856 59.8197C14.3341 59.9529 14.5036 60.1466 14.6125 60.1587C15.5932 60.1829 16.5739 60.1708 17.5787 60.1708C17.5787 58.9722 17.5666 57.8705 17.5787 56.7566C17.5908 55.5217 18.2567 54.8437 19.4916 54.8316C19.9517 54.8316 20.4118 54.8316 20.9929 54.8316ZM44.1536 56.684C35.8966 56.684 27.6881 56.684 19.4432 56.684C19.4432 57.8584 19.4432 58.9843 19.4432 60.1224C27.7002 60.1224 35.9209 60.1224 44.1536 60.1224C44.1536 58.9601 44.1536 57.8342 44.1536 56.684ZM22.8816 54.7953C28.8261 54.7953 34.7465 54.7953 40.6789 54.7953C40.6789 53.6209 40.6789 52.495 40.6789 51.3569C34.7223 51.3569 28.8019 51.3569 22.8816 51.3569C22.8816 52.5313 22.8816 53.6451 22.8816 54.7953ZM26.4047 41.8045C26.0658 44.4075 25.7389 46.9136 25.412 49.4924C26.6711 49.4924 27.8455 49.5045 29.032 49.4803C29.2015 49.4803 29.371 49.3593 29.5284 49.2745C31.5865 48.1607 33.6326 47.0468 35.6908 45.933C35.8361 45.8482 35.9693 45.7514 36.1993 45.6061C32.9062 44.3227 29.6979 43.0878 26.4047 41.8045ZM37.6401 11.1253C33.7053 10.7016 29.8552 10.2899 25.9447 9.87829C25.9447 11.5491 25.9326 13.123 25.9689 14.6848C25.9689 14.8301 26.2837 15.0722 26.4653 15.0843C27.1433 15.1327 27.8334 15.1085 28.5235 15.1085C31.3444 15.1085 34.1653 15.1085 36.9863 15.1085C37.3132 15.1085 37.6522 15.1448 37.6522 14.6485C37.6401 13.4983 37.6401 12.3481 37.6401 11.1253ZM6.41607 53.5604C5.70176 55.7639 4.98744 57.9431 4.27313 60.1466C7.02142 60.1466 9.70918 60.1466 12.4575 60.1466C11.6947 57.7978 10.9441 55.4975 10.1814 53.1609C8.94644 53.7541 7.72363 53.8873 6.41607 53.5604ZM28.1845 40.5453C31.3565 41.7682 34.3591 42.9425 37.4827 44.1411C37.1558 41.6471 36.8652 39.3346 36.5504 36.9496C33.7779 38.1361 31.0659 39.2983 28.1845 40.5453ZM26.7437 39.1773C29.5041 37.9908 32.1798 36.8406 34.9765 35.6299C32.4946 34.4313 30.1095 33.2811 27.6639 32.1068C27.3491 34.504 27.0585 36.7922 26.7437 39.1773ZM28.9956 30.7266C31.4413 31.9009 33.7658 33.0269 36.1872 34.1892C35.8845 31.8283 35.594 29.5885 35.2792 27.2519C33.1483 28.4262 31.1265 29.5522 28.9956 30.7266ZM28.0513 29.1648C30.1458 28.0025 32.095 26.925 34.1411 25.799C32.3614 24.6488 30.6906 23.5592 28.923 22.4212C28.6203 24.6973 28.3419 26.8523 28.0513 29.1648ZM29.8552 20.8594C31.5623 21.9611 33.1726 23.0144 34.8918 24.1161C34.5891 21.7916 34.2985 19.576 33.9958 17.2515C32.5672 18.4864 31.2476 19.6486 29.8552 20.8594ZM37.8338 46.8531C36.2235 47.7248 34.7223 48.5481 33.2089 49.3714C33.221 49.3956 33.2452 49.4319 33.2573 49.4561C34.8797 49.4561 36.4899 49.4561 38.1607 49.4561C38.0517 48.6086 37.9427 47.7974 37.8338 46.8531ZM9.58811 8.11067C9.58811 8.57073 9.60021 8.95816 9.58811 9.33347C9.56389 9.70879 9.72128 9.82986 10.0845 9.81775C10.9441 9.80565 11.8158 9.81775 12.6754 9.81775C13.8135 9.81775 13.8135 9.81776 13.6561 8.57073C12.3364 8.41334 11.0046 8.25595 9.58811 8.11067ZM29.3831 18.8496C30.1458 18.1837 30.7754 17.6268 31.5139 16.9851C30.7875 16.9851 30.2427 16.9851 29.6252 16.9851C29.5526 17.5541 29.4799 18.1111 29.3831 18.8496Z" fill="white"/>
<path d="M7.96525 46.1017C9.30913 46.1138 10.3867 47.2034 10.3624 48.5352C10.3503 49.8669 9.23649 50.9566 7.91682 50.9445C6.58505 50.9324 5.50753 49.8185 5.51963 48.4867C5.54385 47.1429 6.60926 46.0896 7.96525 46.1017ZM7.78364 49.2011C7.86839 49.2011 7.95314 49.2011 8.03789 49.2132C8.20739 48.9952 8.46164 48.8015 8.51006 48.5594C8.58271 48.2083 8.34057 47.8935 7.96525 47.954C7.73521 47.9904 7.40833 48.2688 7.39622 48.4746C7.372 48.7047 7.63836 48.9589 7.78364 49.2011Z" fill="white"/>
<path d="M15.0742 38.9845C16.4181 38.9845 17.4835 40.062 17.4835 41.418C17.4835 42.7619 16.406 43.8394 15.0621 43.8394C13.7425 43.8394 12.6286 42.7255 12.6407 41.4059C12.6407 40.062 13.7425 38.9724 15.0742 38.9845ZM15.7401 41.5512C15.7401 41.4543 15.7401 41.3574 15.7401 41.2606C15.5101 41.1032 15.2558 40.8126 15.05 40.849C14.82 40.8853 14.5294 41.2122 14.4931 41.4422C14.4689 41.5996 14.8321 41.9628 15.0379 41.9749C15.2679 41.987 15.5101 41.7086 15.7401 41.5512Z" fill="white"/>
<path d="M53.417 11.2216C53.2233 11.0521 52.8601 10.8947 52.7632 10.6284C52.6663 10.362 52.7027 9.87772 52.8843 9.69612C53.5502 9.03023 54.2887 8.42488 55.0272 7.83164C55.4025 7.54107 55.8384 7.61371 56.1653 7.97692C56.4922 8.34013 56.5527 8.78809 56.2016 9.12709C55.4873 9.80508 54.7124 10.4225 53.9497 11.0521C53.8649 11.1247 53.6954 11.1369 53.417 11.2216Z" fill="white"/>
<path d="M12.1537 46.3568C11.851 46.2115 11.621 46.1509 11.4636 46.0057C11.1125 45.703 10.7856 45.3761 10.4708 45.0371C10.0955 44.6134 10.1076 44.0928 10.4829 43.7416C10.8461 43.4027 11.3304 43.3905 11.7299 43.7538C12.0932 44.0806 12.4685 44.3954 12.7348 44.795C12.8922 45.0371 12.9407 45.4608 12.8438 45.7272C12.7469 45.9815 12.3958 46.1509 12.1537 46.3568Z" fill="white"/>
<path d="M53.9847 28.6786C53.9605 28.8844 53.9726 29.175 53.8878 29.4413C53.7547 29.8893 53.4157 30.083 52.9677 30.0467C52.5318 30.0104 52.2292 29.7803 52.1807 29.3445C52.1323 28.8844 52.1323 28.4243 52.1565 27.9643C52.1929 27.4437 52.5318 27.1531 53.0282 27.141C53.5004 27.1289 53.8273 27.4074 53.912 27.8795C53.9726 28.1217 53.9605 28.3638 53.9847 28.6786Z" fill="white"/>
<path d="M31.8162 12.3101C32.4821 12.3101 33.148 12.298 33.8018 12.3101C34.4313 12.3222 34.7945 12.6612 34.7945 13.206C34.7945 13.7387 34.4313 14.114 33.8139 14.1261C32.47 14.1503 31.114 14.1503 29.7701 14.1261C29.1406 14.114 28.7773 13.7508 28.7773 13.2181C28.7773 12.6612 29.1406 12.3222 29.8185 12.3101C30.4844 12.298 31.1503 12.3101 31.8162 12.3101Z" fill="white"/>
</g>
</g>
<defs>
<clipPath id="clip0_4958_42577">
<rect width="62" height="62" fill="white"/>
</clipPath>
<clipPath id="clip1_4958_42577">
<rect width="61.9758" height="62" fill="white" transform="translate(0.0117188)"/>
</clipPath>
</defs>
</svg>
