<svg width="62" height="62" viewBox="0 0 62 62" fill="none" xmlns="http://www.w3.org/2000/svg">
<g clip-path="url(#clip0_4958_92598)">
<path d="M9.58269 56.1345C9.58269 49.5729 9.58269 43.1125 9.58269 36.5888C8.41955 36.6647 7.30699 36.513 6.61164 35.5268C6.23236 34.9832 5.9795 34.2752 5.92893 33.6178C5.89101 33.0742 6.13122 32.442 6.44729 31.9869C6.76335 31.5317 7.28171 31.1398 7.80006 30.9249C8.31841 30.6973 8.93791 30.7226 9.57004 30.6215C9.57004 24.1863 9.57004 17.7385 9.57004 11.1769C9.31719 11.1769 9.05169 11.1896 8.78619 11.1769C7.16792 11.1137 5.91629 9.86208 5.89101 8.26909C5.86572 6.67611 7.10471 5.38655 8.73562 5.31069C9.14019 5.28541 9.53211 5.29805 9.93668 5.29805C17.1051 5.29805 24.2609 5.29805 31.4293 5.31069C31.8971 5.31069 32.1879 5.17162 32.4787 4.80498C35.6394 0.822519 40.962 -0.896894 45.8041 0.481165C50.7475 1.89715 54.3886 6.10718 55.0081 11.1264C55.8551 18.0672 51.1014 24.2622 44.1227 25.3242C44.0215 25.3368 43.9204 25.3494 43.7813 25.3747C43.7813 27.1321 43.7813 28.8768 43.7813 30.6973C45.0076 30.672 46.234 30.8364 46.9041 32.0122C47.2201 32.5684 47.4224 33.2764 47.4098 33.9086C47.3845 35.5521 46.2719 36.3486 43.7939 36.652C43.7939 43.1125 43.7939 49.5856 43.7939 56.1472C44.1227 56.1472 44.4134 56.1345 44.6916 56.1472C46.2719 56.2483 47.4603 57.5252 47.4477 59.1182C47.4351 60.6859 46.1834 61.9755 44.6031 62.0007C41.7585 62.026 38.9138 62.0134 36.0692 62.0134C27.0676 62.0134 18.0786 62.0134 9.07698 62.0134C7.38285 62.0134 6.16915 61.0399 5.94158 59.5101C5.68872 57.8034 6.92771 56.2609 8.65977 56.1598C8.93791 56.1092 9.22869 56.1345 9.58269 56.1345ZM11.1757 56.0713C11.5423 56.0966 11.871 56.0966 12.1997 56.1472C12.6169 56.2104 12.8824 56.5012 12.7939 56.8931C12.7307 57.1586 12.4526 57.4241 12.2124 57.6011C12.0733 57.7022 11.8078 57.639 11.5929 57.6516C10.6194 57.6643 9.65854 57.6516 8.68505 57.6896C8.10349 57.7149 7.69892 58.0562 7.50928 58.5998C7.30699 59.1308 7.37021 59.7124 7.83799 60.0411C8.19198 60.3066 8.71034 60.4836 9.15283 60.4836C20.8221 60.5089 32.504 60.4963 44.1732 60.4963C44.3249 60.4963 44.464 60.4963 44.6157 60.4836C45.3869 60.4078 45.9432 59.8009 45.9306 59.0423C45.9179 58.3091 45.3743 57.7401 44.6284 57.6769C44.3755 57.6516 44.1227 57.6643 43.8698 57.6643C34.5395 57.6643 25.1965 57.6643 15.8661 57.6643C15.6133 57.6643 15.3604 57.6769 15.1076 57.639C14.6777 57.5758 14.4122 57.3229 14.4249 56.8678C14.4375 56.4127 14.703 56.1724 15.1455 56.1472C15.3604 56.1345 15.5627 56.1345 15.7776 56.1345C24.3115 56.1345 32.8453 56.1345 41.3792 56.1345C41.6447 56.1345 41.9102 56.1345 42.1883 56.1345C42.1883 49.5729 42.1883 43.1125 42.1883 36.6394C31.8339 36.6394 21.5301 36.6394 11.1883 36.6394C11.1757 43.1125 11.1757 49.5729 11.1757 56.0713ZM11.163 30.71C11.4791 30.71 11.732 30.71 11.9722 30.71C19.1153 30.71 26.2585 30.71 33.4016 30.71C33.6292 30.71 33.9073 30.6467 34.0843 30.7479C34.3372 30.8996 34.7038 31.1777 34.7038 31.3927C34.6912 31.6582 34.4004 31.9869 34.1475 32.1639C33.9705 32.2903 33.6545 32.2271 33.4143 32.2271C25.3229 32.2271 17.2315 32.2271 9.14019 32.2271C8.05291 32.2271 7.42078 32.7581 7.42078 33.6431C7.42078 34.5154 8.06556 35.0464 9.14019 35.0591C9.22869 35.0591 9.30455 35.0591 9.39304 35.0591C20.9106 35.0591 32.4408 35.0591 43.9583 35.0591C44.1859 35.0591 44.4261 35.0717 44.6537 35.0464C45.5892 34.9453 46.1581 33.9971 45.8168 33.1374C45.5386 32.4547 45.0076 32.2271 44.3123 32.2271C42.2515 32.2397 40.1781 32.2271 38.1174 32.2271C37.1565 32.2271 36.7899 32.0122 36.7899 31.4432C36.8025 30.887 37.1439 30.6973 38.13 30.6973C39.2931 30.6973 40.4436 30.672 41.6068 30.71C42.0745 30.7226 42.2262 30.5962 42.2262 30.1031C42.1883 28.8641 42.2136 27.6125 42.2136 26.3735C42.2136 26.0701 42.2136 25.7666 42.2136 25.5644C33.8062 24.338 29.6467 19.5843 29.6467 11.2149C23.4897 11.2149 17.3327 11.2149 11.163 11.2149C11.163 17.7259 11.163 24.161 11.163 30.71ZM53.5794 12.6941C53.5668 6.51175 48.5476 1.54315 42.3147 1.5558C36.1957 1.5558 31.2144 6.57497 31.2271 12.7193C31.2271 18.9269 36.2462 23.9334 42.4412 23.9208C48.5855 23.8955 53.5921 18.8511 53.5794 12.6941ZM31.0501 6.85311C30.8351 6.84046 30.6581 6.82782 30.4685 6.82782C23.3759 6.82782 16.2833 6.82782 9.19076 6.82782C9.00112 6.82782 8.81148 6.82782 8.62184 6.85311C7.67363 6.99218 7.14264 8.0036 7.57249 8.8633C7.87592 9.45751 8.38163 9.6598 9.02641 9.6598C15.8914 9.6598 22.7564 9.6598 29.6088 9.6598C29.7479 9.6598 29.8996 9.63451 30.0134 9.62187C30.3674 8.6863 30.6961 7.78867 31.0501 6.85311Z" fill="white"/>
<path d="M16.5237 48.4482C16.5237 50.1803 16.5237 51.8997 16.5237 53.6317C16.5237 53.8467 16.5743 54.1122 16.4605 54.2512C16.2961 54.4788 16.018 54.7569 15.7778 54.7569C15.5376 54.7569 15.2468 54.5041 15.0824 54.2765C14.9686 54.1248 15.0066 53.834 15.0066 53.6065C15.0066 50.1803 15.0066 46.7414 15.0066 43.3153C15.0066 43.1256 14.956 42.8728 15.0445 42.759C15.2468 42.5061 15.5123 42.2153 15.7904 42.1521C16.1823 42.0636 16.4478 42.3671 16.4984 42.7843C16.5363 43.0498 16.5237 43.3279 16.5237 43.606C16.5237 45.2117 16.5237 46.8299 16.5237 48.4482Z" fill="white"/>
<path d="M16.6139 40.0769C16.4875 40.4183 16.4495 40.7723 16.2472 40.9999C15.9691 41.3286 15.5772 41.2906 15.2485 40.9999C14.8945 40.6838 14.8818 39.5207 15.2358 39.192C15.5519 38.8885 15.9438 38.838 16.2346 39.1667C16.4369 39.3942 16.4875 39.7482 16.6139 40.0769Z" fill="white"/>
<path d="M36.2578 15.2588C36.2578 14.1589 36.5612 13.1348 37.1049 12.1866C38.5967 9.62012 40.1012 7.06629 41.6057 4.51245C42.0861 3.69068 42.7056 3.69068 43.1734 4.49981C44.6905 7.07893 46.2329 9.63277 47.6869 12.2372C48.9638 14.5255 48.85 16.8391 47.2696 18.9378C45.7019 21.0492 43.5021 21.833 40.9483 21.2135C38.4324 20.6067 36.9026 18.9125 36.3463 16.3713C36.2957 16.0173 36.2957 15.6381 36.2578 15.2588ZM42.4401 6.23187C42.3516 6.30772 42.301 6.34565 42.2631 6.39622C40.9356 8.65927 39.5829 10.9223 38.2933 13.2107C37.6612 14.3232 37.6232 15.5496 38.0278 16.7633C38.8875 19.3297 41.7448 20.594 44.2227 19.5194C46.7386 18.4321 47.7374 15.4358 46.372 12.9957C45.6134 11.643 44.8043 10.3028 44.0205 8.9627C43.5021 8.05242 42.9838 7.15479 42.4401 6.23187Z" fill="white"/>
<path d="M43.2266 18.1933C43.1129 18.0921 42.7841 17.9531 42.7209 17.7255C42.6451 17.4726 42.7209 16.9796 42.8853 16.9037C43.8082 16.4486 44.4277 15.8038 44.7185 14.805C44.7691 14.628 45.2495 14.4637 45.5023 14.5016C45.7173 14.5395 45.9954 14.8556 46.046 15.0832C46.2609 16.1831 44.5162 18.1933 43.2266 18.1933Z" fill="white"/>
</g>
<defs>
<clipPath id="clip0_4958_92598">
<rect width="49.2182" height="62" fill="white" transform="translate(5.89062)"/>
</clipPath>
</defs>
</svg>
