<svg width="51" height="62" viewBox="0 0 51 62" fill="none" xmlns="http://www.w3.org/2000/svg">
<path d="M4.58269 56.1345C4.58269 49.5729 4.58269 43.1125 4.58269 36.5888C3.41955 36.6647 2.30699 36.513 1.61164 35.5268C1.23236 34.9832 0.979504 34.2752 0.928933 33.6178C0.891005 33.0742 1.13122 32.442 1.44729 31.9869C1.76335 31.5317 2.28171 31.1398 2.80006 30.9249C3.31841 30.6973 3.93791 30.7226 4.57004 30.6215C4.57004 24.1863 4.57004 17.7385 4.57004 11.1769C4.31719 11.1769 4.05169 11.1896 3.78619 11.1769C2.16792 11.1137 0.916291 9.86208 0.891005 8.26909C0.86572 6.67611 2.10471 5.38655 3.73562 5.31069C4.14019 5.28541 4.53211 5.29805 4.93668 5.29805C12.1051 5.29805 19.2609 5.29805 26.4293 5.31069C26.8971 5.31069 27.1879 5.17162 27.4787 4.80498C30.6394 0.822519 35.962 -0.896894 40.8041 0.481165C45.7475 1.89715 49.3886 6.10718 50.0081 11.1264C50.8551 18.0672 46.1014 24.2622 39.1227 25.3242C39.0215 25.3368 38.9204 25.3494 38.7813 25.3747C38.7813 27.1321 38.7813 28.8768 38.7813 30.6973C40.0076 30.672 41.234 30.8364 41.9041 32.0122C42.2201 32.5684 42.4224 33.2764 42.4098 33.9086C42.3845 35.5521 41.2719 36.3486 38.7939 36.652C38.7939 43.1125 38.7939 49.5856 38.7939 56.1472C39.1227 56.1472 39.4134 56.1345 39.6916 56.1472C41.2719 56.2483 42.4603 57.5252 42.4477 59.1182C42.4351 60.6859 41.1834 61.9755 39.6031 62.0007C36.7585 62.026 33.9138 62.0134 31.0692 62.0134C22.0676 62.0134 13.0786 62.0134 4.07698 62.0134C2.38285 62.0134 1.16915 61.0399 0.941576 59.5101C0.688721 57.8034 1.92771 56.2609 3.65977 56.1598C3.93791 56.1092 4.22869 56.1345 4.58269 56.1345ZM6.17567 56.0713C6.54231 56.0966 6.87102 56.0966 7.19973 56.1472C7.61694 56.2104 7.88244 56.5012 7.79394 56.8931C7.73073 57.1586 7.45259 57.4241 7.21238 57.6011C7.07331 57.7022 6.80781 57.639 6.59288 57.6516C5.61939 57.6643 4.65854 57.6516 3.68505 57.6896C3.10349 57.7149 2.69892 58.0562 2.50928 58.5998C2.30699 59.1308 2.37021 59.7124 2.83799 60.0411C3.19198 60.3066 3.71034 60.4836 4.15283 60.4836C15.8221 60.5089 27.504 60.4963 39.1732 60.4963C39.3249 60.4963 39.464 60.4963 39.6157 60.4836C40.3869 60.4078 40.9432 59.8009 40.9306 59.0423C40.9179 58.3091 40.3743 57.7401 39.6284 57.6769C39.3755 57.6516 39.1227 57.6643 38.8698 57.6643C29.5395 57.6643 20.1965 57.6643 10.8661 57.6643C10.6133 57.6643 10.3604 57.6769 10.1076 57.639C9.67771 57.5758 9.41221 57.3229 9.42486 56.8678C9.4375 56.4127 9.703 56.1724 10.1455 56.1472C10.3604 56.1345 10.5627 56.1345 10.7776 56.1345C19.3115 56.1345 27.8453 56.1345 36.3792 56.1345C36.6447 56.1345 36.9102 56.1345 37.1883 56.1345C37.1883 49.5729 37.1883 43.1125 37.1883 36.6394C26.8339 36.6394 16.5301 36.6394 6.18831 36.6394C6.17567 43.1125 6.17567 49.5729 6.17567 56.0713ZM6.16303 30.71C6.4791 30.71 6.73195 30.71 6.97216 30.71C14.1153 30.71 21.2585 30.71 28.4016 30.71C28.6292 30.71 28.9073 30.6467 29.0843 30.7479C29.3372 30.8996 29.7038 31.1777 29.7038 31.3927C29.6912 31.6582 29.4004 31.9869 29.1475 32.1639C28.9705 32.2903 28.6545 32.2271 28.4143 32.2271C20.3229 32.2271 12.2315 32.2271 4.14019 32.2271C3.05291 32.2271 2.42078 32.7581 2.42078 33.6431C2.42078 34.5154 3.06556 35.0464 4.14019 35.0591C4.22869 35.0591 4.30455 35.0591 4.39304 35.0591C15.9106 35.0591 27.4408 35.0591 38.9583 35.0591C39.1859 35.0591 39.4261 35.0717 39.6537 35.0464C40.5892 34.9453 41.1581 33.9971 40.8168 33.1374C40.5386 32.4547 40.0076 32.2271 39.3123 32.2271C37.2515 32.2397 35.1781 32.2271 33.1174 32.2271C32.1565 32.2271 31.7899 32.0122 31.7899 31.4432C31.8025 30.887 32.1439 30.6973 33.13 30.6973C34.2931 30.6973 35.4436 30.672 36.6068 30.71C37.0745 30.7226 37.2262 30.5962 37.2262 30.1031C37.1883 28.8641 37.2136 27.6125 37.2136 26.3735C37.2136 26.0701 37.2136 25.7666 37.2136 25.5644C28.8062 24.338 24.6467 19.5843 24.6467 11.2149C18.4897 11.2149 12.3327 11.2149 6.16303 11.2149C6.16303 17.7259 6.16303 24.161 6.16303 30.71ZM48.5794 12.6941C48.5668 6.51175 43.5476 1.54315 37.3147 1.5558C31.1957 1.5558 26.2144 6.57497 26.2271 12.7193C26.2271 18.9269 31.2462 23.9334 37.4412 23.9208C43.5855 23.8955 48.5921 18.8511 48.5794 12.6941ZM26.0501 6.85311C25.8351 6.84046 25.6581 6.82782 25.4685 6.82782C18.3759 6.82782 11.2833 6.82782 4.19076 6.82782C4.00112 6.82782 3.81148 6.82782 3.62184 6.85311C2.67363 6.99218 2.14264 8.0036 2.57249 8.8633C2.87592 9.45751 3.38163 9.6598 4.02641 9.6598C10.8914 9.6598 17.7564 9.6598 24.6088 9.6598C24.7479 9.6598 24.8996 9.63451 25.0134 9.62187C25.3674 8.6863 25.6961 7.78867 26.0501 6.85311Z" fill="url(#paint0_linear_4920_34789)"/>
<path d="M11.5237 48.4482C11.5237 50.1803 11.5237 51.8997 11.5237 53.6317C11.5237 53.8467 11.5743 54.1122 11.4605 54.2512C11.2961 54.4788 11.018 54.7569 10.7778 54.7569C10.5376 54.7569 10.2468 54.5041 10.0824 54.2765C9.96864 54.1248 10.0066 53.834 10.0066 53.6065C10.0066 50.1803 10.0066 46.7414 10.0066 43.3153C10.0066 43.1256 9.956 42.8728 10.0445 42.759C10.2468 42.5061 10.5123 42.2153 10.7904 42.1521C11.1823 42.0636 11.4478 42.3671 11.4984 42.7843C11.5363 43.0498 11.5237 43.3279 11.5237 43.606C11.5237 45.2117 11.5237 46.8299 11.5237 48.4482Z" fill="url(#paint1_linear_4920_34789)"/>
<path d="M11.6139 40.0769C11.4875 40.4183 11.4495 40.7723 11.2472 40.9999C10.9691 41.3286 10.5772 41.2906 10.2485 40.9999C9.89447 40.6838 9.88183 39.5207 10.2358 39.192C10.5519 38.8885 10.9438 38.838 11.2346 39.1667C11.4369 39.3942 11.4875 39.7482 11.6139 40.0769Z" fill="url(#paint2_linear_4920_34789)"/>
<path d="M31.2578 15.2588C31.2578 14.1589 31.5612 13.1348 32.1049 12.1866C33.5967 9.62012 35.1012 7.06629 36.6057 4.51245C37.0861 3.69068 37.7056 3.69068 38.1734 4.49981C39.6905 7.07893 41.2329 9.63277 42.6869 12.2372C43.9638 14.5255 43.85 16.8391 42.2696 18.9378C40.7019 21.0492 38.5021 21.833 35.9483 21.2135C33.4324 20.6067 31.9026 18.9125 31.3463 16.3713C31.2957 16.0173 31.2957 15.6381 31.2578 15.2588ZM37.4401 6.23187C37.3516 6.30772 37.301 6.34565 37.2631 6.39622C35.9356 8.65927 34.5829 10.9223 33.2933 13.2107C32.6612 14.3232 32.6232 15.5496 33.0278 16.7633C33.8875 19.3297 36.7448 20.594 39.2227 19.5194C41.7386 18.4321 42.7374 15.4358 41.372 12.9957C40.6134 11.643 39.8043 10.3028 39.0205 8.9627C38.5021 8.05242 37.9838 7.15479 37.4401 6.23187Z" fill="url(#paint3_linear_4920_34789)"/>
<path d="M38.2227 18.1933C38.1089 18.0921 37.7802 17.9531 37.717 17.7255C37.6412 17.4726 37.717 16.9796 37.8814 16.9037C38.8043 16.4486 39.4238 15.8038 39.7146 14.805C39.7651 14.628 40.2456 14.4637 40.4984 14.5016C40.7133 14.5395 40.9915 14.8556 41.0421 15.0832C41.257 16.1831 39.5123 18.1933 38.2227 18.1933Z" fill="url(#paint4_linear_4920_34789)"/>
<defs>
<linearGradient id="paint0_linear_4920_34789" x1="25.4981" y1="0.0117187" x2="25.4981" y2="62.0165" gradientUnits="userSpaceOnUse">
<stop stop-color="#15CC4A"/>
<stop offset="1" stop-color="#1B2DBE"/>
</linearGradient>
<linearGradient id="paint1_linear_4920_34789" x1="10.7635" y1="42.1367" x2="10.7635" y2="54.7569" gradientUnits="userSpaceOnUse">
<stop stop-color="#15CC4A"/>
<stop offset="1" stop-color="#1B2DBE"/>
</linearGradient>
<linearGradient id="paint2_linear_4920_34789" x1="10.7952" y1="38.9414" x2="10.7952" y2="41.2324" gradientUnits="userSpaceOnUse">
<stop stop-color="#15CC4A"/>
<stop offset="1" stop-color="#1B2DBE"/>
</linearGradient>
<linearGradient id="paint3_linear_4920_34789" x1="37.4084" y1="3.89453" x2="37.4084" y2="21.4194" gradientUnits="userSpaceOnUse">
<stop stop-color="#15CC4A"/>
<stop offset="1" stop-color="#1B2DBE"/>
</linearGradient>
<linearGradient id="paint4_linear_4920_34789" x1="39.3738" y1="14.4961" x2="39.3738" y2="18.1933" gradientUnits="userSpaceOnUse">
<stop stop-color="#15CC4A"/>
<stop offset="1" stop-color="#1B2DBE"/>
</linearGradient>
</defs>
</svg>
