<svg width="366" height="219" viewBox="0 0 366 219" fill="none" xmlns="http://www.w3.org/2000/svg">
<g opacity="0.15" clip-path="url(#clip0_5102_151525)">
<path d="M182.588 0C182.588 11.6622 182.588 23.3245 182.588 34.9867C171.27 45.0662 159.951 55.1457 148.715 65.1419C149.045 66.4747 150.119 66.3914 150.946 66.7246C158.712 69.4736 165.569 73.8053 172.096 78.8867C178.292 83.7181 183.084 89.5493 186.306 96.7132C188.372 101.211 189.363 106.043 190.107 110.958C190.768 115.206 190.85 119.455 190.685 123.786C190.685 124.619 190.85 125.452 190.107 126.119C186.967 126.785 153.341 127.035 143.84 126.369C143.179 124.869 143.758 123.203 143.758 121.62C143.84 117.872 143.84 114.207 142.271 110.708C139.048 103.627 133.348 99.6288 126.243 97.7961C119.055 95.8802 111.619 96.38 104.266 97.3796C99.0611 98.046 94.2692 99.8787 89.4773 101.711C88.9816 101.878 88.4033 101.878 87.6597 101.961C87.6597 92.0483 87.6597 82.2187 87.6597 71.9726C99.722 61.4766 112.115 50.6474 125.086 39.4017C104.844 39.4017 85.1812 39.4017 65.1875 39.4017C65.1875 26.1567 65.1875 13.1617 65.1875 0.166603C104.349 0 143.51 0 182.588 0Z" fill="#AC2A21"/>
<path d="M248.682 0.000293834C250.417 5.4982 252.895 10.6629 255.043 15.9942C260.992 30.572 266.94 45.0665 272.889 59.561C278.259 72.556 283.712 85.4678 289.165 98.4628C292.635 106.793 296.105 115.123 299.575 123.453C299.988 124.37 300.318 125.203 299.657 126.369C284.125 126.369 268.51 126.369 252.813 126.369C251.16 124.286 250.582 121.704 249.756 119.705C248.516 118.705 247.525 118.955 246.616 118.955C240.668 118.955 234.802 118.955 228.853 118.872C226.953 118.872 225.053 119.038 223.153 118.455C221.004 117.789 218.856 118.955 216.708 118.955C210.181 118.955 203.655 117.872 197.293 118.539C195.888 116.706 196.054 114.873 195.971 113.124C195.145 99.879 190.27 88.3833 181.017 78.8869C178.786 76.6378 176.225 74.7219 173.664 72.556C176.308 65.9752 179.034 59.3111 181.761 52.6469C184.735 45.483 187.792 38.319 190.766 31.0718C194.897 21.0756 199.028 11.1627 203.159 1.16652C203.324 0.83331 203.242 0.3335 203.324 -0.0830078C218.361 0.000293834 233.562 0.000293834 248.682 0.000293834ZM225.218 59.1445C222.326 66.7249 219.435 74.3887 216.46 82.1357C222.739 82.1357 228.605 82.1357 234.967 82.1357C232.241 74.1388 229.018 66.6416 225.218 59.1445Z" fill="#AC2A21"/>
<path d="M0.000587268 137.448C3.55318 137.532 7.10578 137.615 10.6584 137.615C12.3107 137.615 13.8805 137.615 15.6981 138.531C15.6981 154.275 15.6981 170.186 15.6981 185.513C17.1026 188.429 19.0855 188.179 21.3988 187.596C21.3988 191.761 21.3988 195.676 21.3988 200.008C16.1112 202.257 10.6584 202.673 5.37079 199.841C2.64438 198.425 0.744154 195.926 0.578917 192.594C0.578917 191.428 1.4051 190.095 -0.0820312 189.179C0.000587268 171.852 0.000587268 154.692 0.000587268 137.448Z" fill="#252525"/>
<path d="M365.34 184.014C365.588 184.014 365.753 184.014 366.001 184.097C366.001 186.013 366.001 188.012 366.001 189.928L365.67 189.845H365.34C365.34 187.929 365.34 186.013 365.34 184.014Z" fill="#AC2A21"/>
<path d="M0 189.095C1.48713 190.011 0.57833 191.344 0.660948 192.51C0.413093 192.51 0.247856 192.51 0 192.427C0 191.344 0 190.178 0 189.095Z" fill="#AC2A21"/>
<path d="M116.411 159.273C116.411 157.607 116.411 156.524 116.411 155.275C119.055 154.692 121.699 155.108 124.26 155.025C126.739 154.942 129.217 155.025 131.448 155.025C132.357 155.608 132.274 156.358 132.274 157.024C132.274 169.52 132.274 182.015 132.274 194.427C132.274 199.841 130.787 204.756 127.4 209.005C124.343 212.92 120.294 215.502 115.668 217.001C106.167 220.25 96.9134 219.251 87.7428 215.335C87.7428 210.587 87.7428 206.089 87.7428 201.674C88.8994 201.257 89.4777 202.09 90.1387 202.424C95.922 205.173 102.036 205.589 108.232 204.839C111.867 204.34 114.181 202.09 115.503 198.842C116.164 197.259 116.246 195.426 116.577 193.594C115.585 193.51 115.172 194.177 114.676 194.51C108.232 199.425 101.292 199.425 94.0218 196.759C88.8994 194.843 86.4209 190.428 84.5206 185.847C81.8768 179.516 81.8768 172.852 84.438 166.437C89.8082 152.943 104.762 150.527 114.015 157.441C114.676 157.941 115.337 158.44 116.411 159.273ZM116.329 171.352C112.941 167.27 108.645 166.854 104.349 167.604C100.962 168.936 99.3094 171.269 98.6484 174.434C97.7396 178.683 100.383 183.931 104.184 184.68C108.81 185.513 113.272 185.18 116.329 180.849C116.329 177.766 116.329 174.768 116.329 171.352Z" fill="#252525"/>
<path d="M51.6384 201.59C45.7725 201.84 40.4849 200.09 35.693 196.509C22.7219 186.679 23.3828 165.687 38.502 157.19C47.8379 151.942 60.3959 152.359 68.9056 159.356C75.8456 165.021 78.4894 172.518 77.3327 181.431C75.9282 192.593 65.353 201.59 53.7864 201.59C53.1255 201.59 52.3819 201.59 51.6384 201.59ZM51.9688 188.095C59.2393 186.262 62.7093 182.014 61.8004 176.1C60.9743 170.768 56.3476 167.603 52.2167 167.52C47.8379 167.436 43.2113 170.685 42.3851 176.183C41.4763 182.097 44.8636 186.262 51.9688 188.095Z" fill="#252525"/>
<path d="M365.34 184.013C365.34 185.929 365.34 187.929 365.257 189.845C364.101 195.759 359.804 198.924 354.682 200.257C345.346 202.673 336.01 202.173 327.005 198.091C326.674 197.925 326.344 197.592 325.848 197.175C325.848 192.927 325.848 188.595 325.848 184.18C336.258 188.928 342.95 189.928 349.147 187.762C349.89 186.513 349.312 185.596 348.155 185.18C346.09 184.43 343.942 183.93 341.876 183.264C337.828 182.014 333.697 181.015 330.144 178.599C327.087 176.6 325.848 173.851 325.518 170.352C324.692 162.188 329.07 157.274 335.928 155.108C344.024 152.525 352.121 153.025 359.97 156.191C360.631 156.441 361.209 156.774 361.787 157.107C362.283 157.357 362.696 157.773 363.274 158.19C363.274 162.272 363.274 166.354 363.274 170.602C361.87 170.852 360.961 169.852 359.887 169.352C355.343 167.187 350.551 166.104 345.511 166.52C344.19 166.603 342.702 166.52 342.041 168.436C342.537 170.352 344.355 170.435 345.842 170.852C349.642 171.851 353.608 172.518 357.161 174.184C361.457 176.1 365.009 178.765 365.34 184.013Z" fill="#252525"/>
<path d="M183.909 168.103C185.066 170.352 187.049 170.268 188.619 170.852C191.18 171.768 193.824 172.518 196.467 173.184C197.954 173.517 199.276 174.267 200.598 174.933C206.299 178.099 209.191 184.596 207.125 190.761C205.638 195.176 202.168 198.008 198.037 199.841C196.55 200.507 194.898 200.923 193.328 201.09C185.644 202.09 178.043 201.923 170.69 199.091C170.029 198.841 169.451 198.508 168.873 198.175C168.542 197.925 168.294 197.591 167.964 197.341C167.964 193.093 167.964 188.845 167.964 184.18C174.821 187.762 181.679 189.844 189.197 188.512C190.354 188.262 190.354 188.178 191.758 186.679C190.354 185.013 188.453 184.43 186.388 184.097C181.348 183.43 176.721 181.264 172.343 178.849C168.377 176.683 167.468 172.768 167.138 168.686C166.972 166.52 167.386 164.354 168.129 162.188C168.625 161.688 169.368 161.189 169.864 160.605C172.591 157.024 176.391 155.191 180.605 154.441C186.553 153.358 192.584 153.608 198.45 155.191C200.681 155.774 202.912 156.607 204.977 158.19C204.977 162.272 204.977 166.52 204.977 171.101C199.689 168.436 194.65 166.27 188.866 166.603C187.131 166.52 185.644 167.103 183.909 168.103Z" fill="#252525"/>
<path d="M235.712 168.186C235.051 168.853 234.721 169.436 234.721 170.186C234.721 174.601 234.638 179.099 234.804 183.514C234.886 184.597 235.217 186.013 236.621 187.096C239.513 188.345 242.652 187.429 246.04 186.346C246.04 190.595 246.04 194.51 246.04 199.008C240.917 201.674 235.382 202.423 229.351 200.924C224.972 199.841 221.998 197.509 220.18 193.427C219.271 191.261 218.858 189.012 218.858 186.679C218.858 181.515 218.858 176.433 218.858 171.269C218.858 170.186 219.106 169.103 218.528 167.77C216.38 167.77 214.066 167.77 211.753 167.77C210.844 165.604 211.34 163.522 211.257 161.439C211.175 159.356 211.257 157.357 211.257 155.275C213.736 154.525 216.132 155.191 218.693 154.775C219.271 151.193 218.61 147.444 219.106 143.446C221.585 143.113 224.228 143.363 226.79 143.279C229.268 143.196 231.747 143.279 234.39 143.279C235.134 147.028 234.473 150.693 234.804 154.608C238.356 155.275 242.074 154.358 245.957 154.941C246.535 159.023 246.288 163.105 246.122 167.603C242.487 167.437 239.017 167.936 235.712 168.186Z" fill="#252525"/>
<path d="M317.753 170.352C313.622 168.353 309.574 167.853 305.443 168.02C302.138 168.187 299.412 169.519 297.181 172.019C293.298 176.517 296.024 184.264 300.403 186.013C305.112 187.846 309.656 188.012 314.366 186.596C315.44 186.263 316.431 185.93 317.505 185.597C318.992 188.012 319.075 188.179 318.579 198.092C316.018 200.258 312.713 200.674 309.491 201.174C298.999 203.007 288.341 199.258 282.888 190.428C276.361 179.766 277.766 162.439 293.959 155.608C301.56 152.443 311.639 153.026 317.753 156.608C317.753 161.023 317.753 165.438 317.753 170.352Z" fill="#252525"/>
<path d="M158.214 155.191C158.214 170.269 158.214 185.013 158.214 199.924C155.818 201.257 153.174 200.424 150.695 200.507C148.217 200.674 145.821 200.507 143.177 200.507C142.599 198.258 142.268 196.176 142.268 194.01C142.351 189.095 141.938 184.18 142.351 179.266C143.012 171.269 142.516 163.355 142.929 155.191C147.969 155.191 152.843 155.191 158.214 155.191Z" fill="#252525"/>
<path d="M255.375 199.758C255.375 184.93 255.375 170.019 255.375 154.941C260.58 154.941 265.62 154.941 271.073 154.941C271.238 170.102 271.073 185.097 271.073 200.091C265.785 201.007 258.101 200.841 255.375 199.758Z" fill="#252525"/>
<path d="M152.266 151.359C149.374 151.692 146.813 151.026 144.169 149.443C143.673 148.61 142.93 147.444 142.269 146.278C140.369 142.446 141.278 137.531 144.417 134.949C147.557 132.283 151.027 131.7 155.075 133.866C158.71 135.865 160.528 140.447 159.288 144.612C158.627 146.861 157.388 148.86 155.157 150.026C154.166 150.443 153.175 150.943 152.266 151.359Z" fill="#252525"/>
<path d="M253.805 141.696C255.54 134.949 259.258 131.95 264.545 132.616C268.924 133.199 272.476 137.198 272.476 141.696C272.476 146.444 268.593 150.943 264.049 151.442C258.927 151.942 255.457 148.777 253.805 141.696Z" fill="#252525"/>
</g>
<defs>
<clipPath id="clip0_5102_151525">
<rect width="366" height="219" fill="white"/>
</clipPath>
</defs>
</svg>
