<svg width="174" height="104" viewBox="0 0 174 104" fill="none" xmlns="http://www.w3.org/2000/svg">
<g clip-path="url(#clip0_5102_151613)">
<path d="M86.8057 0C86.8057 5.53823 86.8057 11.0765 86.8057 16.6147C81.4247 21.4013 76.0437 26.1879 70.7019 30.935C70.859 31.5679 71.3696 31.5283 71.7624 31.6866C75.4545 32.992 78.7145 35.0491 81.8175 37.4622C84.7633 39.7566 87.0414 42.5257 88.5732 45.9277C89.5552 48.0639 90.0265 50.3583 90.38 52.6923C90.6942 54.7098 90.7335 56.7273 90.6549 58.7843C90.6549 59.1799 90.7335 59.5755 90.38 59.892C88.8875 60.2084 72.9014 60.3271 68.3845 60.0107C68.0703 59.2986 68.3452 58.5074 68.3452 57.7558C68.3845 55.9757 68.3845 54.2351 67.6382 52.5736C66.1064 49.2111 63.3963 47.3123 60.0184 46.442C56.6012 45.5321 53.0662 45.7695 49.5705 46.2442C47.096 46.5607 44.8179 47.431 42.5398 48.3013C42.3042 48.3804 42.0292 48.3804 41.6757 48.4199C41.6757 43.7124 41.6757 39.0445 41.6757 34.1788C47.4102 29.1944 53.3019 24.0517 59.4685 18.7113C49.8455 18.7113 40.4974 18.7113 30.9922 18.7113C30.9922 12.4215 30.9922 6.25029 30.9922 0.0791175C49.6098 0 68.2274 0 86.8057 0Z" fill="#AC2A21"/>
<path d="M118.227 -0.000480294C119.051 2.6104 120.23 5.06304 121.251 7.5948C124.079 14.5176 126.907 21.4008 129.735 28.284C132.288 34.4552 134.88 40.5868 137.473 46.758C139.122 50.7139 140.772 54.6697 142.422 58.6256C142.618 59.0608 142.775 59.4563 142.461 60.0102C135.077 60.0102 127.653 60.0102 120.19 60.0102C119.405 59.0212 119.13 57.7949 118.737 56.8455C118.148 56.3708 117.677 56.4894 117.245 56.4894C114.417 56.4894 111.628 56.4894 108.8 56.4499C107.897 56.4499 106.993 56.529 106.09 56.2521C105.069 55.9356 104.047 56.4894 103.026 56.4894C99.9232 56.4894 96.8203 55.9752 93.7959 56.2917C93.1282 55.4214 93.2067 54.5511 93.1675 53.7203C92.7747 47.4305 90.4573 41.9714 86.0582 37.4617C84.9977 36.3936 83.7801 35.4837 82.5625 34.4552C83.8194 31.3301 85.1155 28.1654 86.4117 25.0007C87.8257 21.5986 89.279 18.1966 90.693 14.7549C92.6569 10.0079 94.6207 5.30039 96.5846 0.553342C96.6632 0.395107 96.6239 0.157755 96.6632 -0.0400391C103.812 -0.000480294 111.039 -0.000480294 118.227 -0.000480294ZM107.072 28.0862C105.697 31.6861 104.322 35.3255 102.908 39.0045C105.893 39.0045 108.682 39.0045 111.707 39.0045C110.41 35.2068 108.879 31.6465 107.072 28.0862Z" fill="#AC2A21"/>
<path d="M0.000215155 65.2715C1.68915 65.311 3.37809 65.3506 5.06703 65.3506C5.85259 65.3506 6.59886 65.3506 7.46297 65.7857C7.46297 73.2624 7.46297 80.8181 7.46297 88.0969C8.13069 89.4815 9.07335 89.3628 10.1731 89.0859C10.1731 91.0638 10.1731 92.9231 10.1731 94.9801C7.65936 96.0482 5.06703 96.246 2.55326 94.901C1.2571 94.2285 0.353714 93.0417 0.275159 91.4594C0.275159 90.9056 0.667935 90.2726 -0.0390625 89.8375C0.000215155 81.6093 0.000215155 73.4602 0.000215155 65.2715Z" fill="white"/>
<path d="M173.688 87.3848C173.805 87.3848 173.884 87.3848 174.002 87.4243C174.002 88.3342 174.002 89.2836 174.002 90.1934L173.845 90.1539H173.688C173.687 89.244 173.688 88.3342 173.688 87.3848Z" fill="#AC2A21"/>
<path d="M0 89.7979C0.706998 90.233 0.274944 90.8659 0.314221 91.4198C0.196388 91.4198 0.117833 91.4198 0 91.3802C0 90.8659 0 90.3121 0 89.7979Z" fill="#AC2A21"/>
<path d="M55.3432 75.6355C55.3432 74.8443 55.3432 74.33 55.3432 73.7366C56.6001 73.4597 57.8569 73.6575 59.0746 73.618C60.2529 73.5784 61.4312 73.618 62.4917 73.618C62.9238 73.8949 62.8845 74.2509 62.8845 74.5674C62.8845 80.5012 62.8845 86.435 62.8845 92.3293C62.8845 94.9006 62.1775 97.2346 60.5671 99.2521C59.1138 101.111 57.1892 102.338 54.9897 103.05C50.4728 104.592 46.0737 104.118 41.7138 102.259C41.7138 100.004 41.7138 97.8675 41.7138 95.7709C42.2637 95.5731 42.5387 95.9687 42.8529 96.1269C45.6023 97.4324 48.5089 97.6301 51.4547 97.2741C53.1829 97.0368 54.2827 95.9687 54.9111 94.4259C55.2253 93.6743 55.2646 92.804 55.4217 91.9337C54.9504 91.8941 54.754 92.2106 54.5184 92.3688C51.4547 94.7028 48.1554 94.7028 44.6989 93.4369C42.2637 92.5271 41.0854 90.4305 40.182 88.2547C38.9251 85.2483 38.9251 82.0836 40.1427 79.0375C42.6958 72.629 49.805 71.4818 54.2041 74.7652C54.5183 75.0025 54.8326 75.2399 55.3432 75.6355ZM55.3039 81.3715C53.6935 79.4331 51.6511 79.2353 49.6086 79.5913C47.9983 80.2243 47.2127 81.3319 46.8985 82.8352C46.4664 84.8527 47.7233 87.3449 49.5301 87.7009C51.7296 88.0965 53.8506 87.9383 55.3039 85.8812C55.3039 84.4175 55.3039 82.9934 55.3039 81.3715Z" fill="white"/>
<path d="M24.5493 95.7316C21.7605 95.8503 19.2468 95.0195 16.9687 93.3185C10.8021 88.6506 11.1163 78.6818 18.3041 74.6468C22.7425 72.1546 28.7127 72.3524 32.7583 75.6753C36.0576 78.3653 37.3145 81.9256 36.7646 86.1584C36.0969 91.4593 31.0693 95.7316 25.5705 95.7316C25.2563 95.7316 24.9028 95.7316 24.5493 95.7316ZM24.7064 89.3231C28.1628 88.4528 29.8125 86.4353 29.3804 83.6266C28.9876 81.0949 26.7881 79.5916 24.8242 79.5521C22.7425 79.5125 20.5429 81.0553 20.1502 83.6662C19.7181 86.4748 21.3285 88.4528 24.7064 89.3231Z" fill="white"/>
<path d="M173.686 87.3848C173.686 88.2946 173.686 89.244 173.647 90.1539C173.097 92.9625 171.055 94.4658 168.619 95.0987C164.181 96.2459 159.743 96.0086 155.461 94.0702C155.304 93.9911 155.147 93.8328 154.912 93.635C154.912 91.6175 154.912 89.5605 154.912 87.4639C159.861 89.7187 163.042 90.1934 165.988 89.1649C166.341 88.5715 166.066 88.1364 165.517 87.9386C164.535 87.5826 163.513 87.3452 162.531 87.0287C160.607 86.4353 158.643 85.9606 156.954 84.8134C155.501 83.864 154.912 82.5586 154.754 80.8971C154.362 77.0204 156.443 74.6864 159.703 73.6579C163.553 72.4315 167.402 72.6689 171.133 74.1721C171.447 74.2908 171.722 74.449 171.997 74.6073C172.233 74.726 172.429 74.9237 172.704 75.1215C172.704 77.0599 172.704 78.9983 172.704 81.0158C172.037 81.1345 171.605 80.6598 171.094 80.4224C168.934 79.3939 166.656 78.8796 164.26 79.0774C163.631 79.117 162.924 79.0774 162.61 79.9873C162.846 80.8971 163.71 80.9367 164.417 81.1345C166.224 81.6092 168.109 81.9256 169.798 82.7168C171.84 83.6267 173.529 84.8926 173.686 87.3848Z" fill="white"/>
<path d="M87.432 79.8293C87.9819 80.8974 88.9245 80.8579 89.6708 81.1348C90.8884 81.5699 92.1453 81.926 93.4022 82.2424C94.1092 82.4007 94.7376 82.7567 95.366 83.0732C98.0762 84.5764 99.4509 87.662 98.469 90.5893C97.762 92.6859 96.1123 94.0309 94.1484 94.9012C93.4414 95.2177 92.6559 95.4155 91.9096 95.4946C88.2568 95.9693 84.6433 95.8902 81.1475 94.5452C80.8333 94.4265 80.5584 94.2683 80.2834 94.11C80.1263 93.9914 80.0085 93.8331 79.8514 93.7145C79.8514 91.697 79.8514 89.6795 79.8514 87.4642C83.1114 89.1652 86.3715 90.1542 89.9457 89.5212C90.4956 89.4026 90.4956 89.363 91.1633 88.6509C90.4956 87.8598 89.5922 87.5829 88.6103 87.4246C86.2144 87.1081 84.0148 86.0796 81.9331 84.9324C80.0478 83.9039 79.6157 82.0446 79.4586 80.1062C79.38 79.0777 79.5764 78.0492 79.9299 77.0207C80.1656 76.7833 80.5191 76.546 80.7548 76.2691C82.0509 74.568 83.8577 73.6977 85.8609 73.3417C88.6888 72.8274 91.5561 72.9461 94.3448 73.6977C95.4053 73.9746 96.4658 74.3702 97.4478 75.1218C97.4478 77.0602 97.4478 79.0777 97.4478 81.2535C94.934 79.9876 92.5381 78.959 89.7886 79.1173C88.9638 79.0777 88.2568 79.3546 87.432 79.8293Z" fill="white"/>
<path d="M112.058 79.8691C111.744 80.1856 111.587 80.4625 111.587 80.8185C111.587 82.9151 111.547 85.0513 111.626 87.1479C111.665 87.6622 111.822 88.3347 112.49 88.8489C113.865 89.4423 115.357 89.0072 116.968 88.4929C116.968 90.5104 116.968 92.3697 116.968 94.5058C114.532 95.7717 111.901 96.1277 109.034 95.4157C106.952 94.9014 105.538 93.7938 104.674 91.8554C104.242 90.8269 104.045 89.7588 104.045 88.6511C104.045 86.1985 104.045 83.7854 104.045 81.3328C104.045 80.8185 104.163 80.3042 103.888 79.6713C102.867 79.6713 101.767 79.6713 100.667 79.6713C100.235 78.6428 100.471 77.6538 100.432 76.6648C100.393 75.6759 100.432 74.7264 100.432 73.7375C101.61 73.3814 102.749 73.6979 103.967 73.5001C104.242 71.7991 103.928 70.019 104.163 68.1201C105.342 67.9619 106.598 68.0806 107.816 68.041C108.994 68.0015 110.173 68.041 111.43 68.041C111.783 69.8212 111.469 71.5618 111.626 73.421C113.315 73.7375 115.082 73.3023 116.928 73.5792C117.203 75.5176 117.086 77.456 117.007 79.5922C115.279 79.5131 113.629 79.7504 112.058 79.8691Z" fill="white"/>
<path d="M151.062 80.8976C149.098 79.9482 147.174 79.7109 145.21 79.79C143.639 79.8691 142.343 80.5021 141.282 81.6888C139.436 83.825 140.732 87.504 142.814 88.3347C145.053 89.205 147.213 89.2841 149.452 88.6116C149.963 88.4534 150.434 88.2951 150.944 88.1369C151.651 89.2841 151.691 89.3632 151.455 94.0707C150.237 95.0992 148.666 95.297 147.135 95.5344C142.146 96.4047 137.079 94.6245 134.487 90.4313C131.384 85.3678 132.052 77.1396 139.75 73.8957C143.364 72.3925 148.156 72.6694 151.062 74.3704C151.062 76.4671 151.062 78.5637 151.062 80.8976Z" fill="white"/>
<path d="M75.2161 73.6973C75.2161 80.8574 75.2161 87.8593 75.2161 94.9403C74.077 95.5733 72.8201 95.1777 71.6418 95.2172C70.4635 95.2963 69.3244 95.2172 68.0675 95.2172C67.7926 94.1491 67.6355 93.1602 67.6355 92.1316C67.6748 89.7977 67.4784 87.4637 67.6748 85.1297C67.989 81.3321 67.7533 77.574 67.9497 73.6973C70.3456 73.6973 72.663 73.6973 75.2161 73.6973Z" fill="white"/>
<path d="M121.406 94.8617C121.406 87.8203 121.406 80.7392 121.406 73.5791C123.881 73.5791 126.277 73.5791 128.869 73.5791C128.948 80.7788 128.869 87.8994 128.869 95.02C126.355 95.4551 122.702 95.376 121.406 94.8617Z" fill="white"/>
<path d="M72.3901 71.8774C71.0154 72.0356 69.7978 71.7192 68.5409 70.9675C68.3053 70.572 67.9518 70.0181 67.6375 69.4643C66.7342 67.6446 67.1662 65.3106 68.6588 64.0843C70.1513 62.8184 71.801 62.5415 73.7256 63.5701C75.4538 64.5195 76.3179 66.6952 75.7287 68.6731C75.4145 69.7412 74.8253 70.6906 73.7649 71.2445C73.2935 71.4423 72.8222 71.6796 72.3901 71.8774Z" fill="white"/>
<path d="M120.66 67.2886C121.485 64.0844 123.252 62.6602 125.766 62.9767C127.848 63.2536 129.537 65.1525 129.537 67.2886C129.537 69.5435 127.691 71.6797 125.531 71.917C123.095 72.1544 121.446 70.6511 120.66 67.2886Z" fill="white"/>
</g>
<defs>
<clipPath id="clip0_5102_151613">
<rect width="174" height="104" fill="white"/>
</clipPath>
</defs>
</svg>
