<svg width="92" height="55" viewBox="0 0 92 55" fill="none" xmlns="http://www.w3.org/2000/svg">
<g clip-path="url(#clip0_5102_148951)">
<path d="M45.8973 0C45.8973 2.92887 45.8973 5.85774 45.8973 8.78661C43.0522 11.318 40.207 13.8494 37.3827 16.3598C37.4657 16.6946 37.7357 16.6736 37.9434 16.7573C39.8955 17.4477 41.6192 18.5356 43.2599 19.8117C44.8174 21.0251 46.0219 22.4895 46.8319 24.2887C47.3511 25.4184 47.6003 26.6318 47.7872 27.8661C47.9533 28.9331 47.9741 30 47.9325 31.0879C47.9325 31.2971 47.9741 31.5063 47.7872 31.6736C46.998 31.841 38.5456 31.9038 36.1574 31.7364C35.9912 31.3598 36.1366 30.9414 36.1366 30.5439C36.1574 29.6025 36.1574 28.682 35.7628 27.8033C34.9529 26.0251 33.5199 25.0209 31.7339 24.5607C29.9271 24.0795 28.058 24.205 26.2097 24.4561C24.9014 24.6234 23.6969 25.0837 22.4924 25.5439C22.3678 25.5858 22.2224 25.5858 22.0355 25.6067C22.0355 23.1172 22.0355 20.6485 22.0355 18.0753C25.0675 15.4393 28.1827 12.7197 31.4432 9.8954C26.3551 9.8954 21.4125 9.8954 16.3867 9.8954C16.3867 6.56904 16.3867 3.30544 16.3867 0.041841C26.2305 0 36.0743 0 45.8973 0Z" fill="#AC2A21"/>
<path d="M62.5131 -7.55903e-05C62.9493 1.38068 63.5723 2.67775 64.1122 4.01666C65.6075 7.67775 67.1028 11.3179 68.598 14.9581C69.9479 18.2217 71.3186 21.4644 72.6892 24.728C73.5614 26.82 74.4337 28.9121 75.3059 31.0041C75.4098 31.2342 75.4928 31.4434 75.3267 31.7363C71.4224 31.7363 67.4973 31.7363 63.5515 31.7363C63.1362 31.2133 62.9908 30.5648 62.7831 30.0627C62.4716 29.8116 62.2224 29.8744 61.9939 29.8744C60.4987 29.8744 59.0242 29.8744 57.5289 29.8535C57.0513 29.8535 56.5736 29.8953 56.096 29.7489C55.556 29.5815 55.0161 29.8744 54.4761 29.8744C52.8355 29.8744 51.1949 29.6024 49.5958 29.7698C49.2427 29.3096 49.2842 28.8493 49.2635 28.41C49.0558 25.0836 47.8305 22.1966 45.5046 19.8116C44.9438 19.2468 44.3 18.7656 43.6562 18.2217C44.3208 16.569 45.0061 14.8953 45.6915 13.2217C46.4391 11.4225 47.2075 9.62336 47.9551 7.80327C48.9935 5.29281 50.0319 2.80327 51.0702 0.292811C51.1118 0.209129 51.091 0.0836064 51.1118 -0.0209961C54.8915 -7.55903e-05 58.7127 -7.55903e-05 62.5131 -7.55903e-05ZM56.6152 14.8535C55.8883 16.7572 55.1614 18.6819 54.4138 20.6275C55.9921 20.6275 57.4666 20.6275 59.0657 20.6275C58.3804 18.6192 57.5705 16.7363 56.6152 14.8535Z" fill="#AC2A21"/>
<path d="M0.00123625 34.5186C0.894239 34.5395 1.78724 34.5604 2.68024 34.5604C3.09559 34.5604 3.49018 34.5604 3.94706 34.7905C3.94706 38.7445 3.94706 42.7403 3.94706 46.5897C4.30011 47.3219 4.79853 47.2591 5.38002 47.1127C5.38002 48.1587 5.38002 49.142 5.38002 50.2299C4.0509 50.7947 2.68024 50.8993 1.35112 50.188C0.665796 49.8324 0.188144 49.2047 0.146609 48.3679C0.146609 48.075 0.354284 47.7403 -0.0195312 47.5102C0.00123625 43.1587 0.00123625 38.8491 0.00123625 34.5186Z" fill="#252525"/>
<path d="M91.8359 46.2134C91.8982 46.2134 91.9398 46.2134 92.0021 46.2343C92.0021 46.7155 92.0021 47.2176 92.0021 47.6987L91.919 47.6778H91.8359C91.8359 47.1966 91.8359 46.7155 91.8359 46.2134Z" fill="#AC2A21"/>
<path d="M0 47.4893C0.373815 47.7194 0.145372 48.0541 0.16614 48.347C0.103837 48.347 0.0623025 48.347 0 48.3261C0 48.0541 0 47.7612 0 47.4893Z" fill="#AC2A21"/>
<path d="M29.2634 39.9998C29.2634 39.5814 29.2634 39.3094 29.2634 38.9956C29.928 38.8492 30.5925 38.9538 31.2363 38.9328C31.8593 38.9119 32.4824 38.9328 33.0431 38.9328C33.2715 39.0793 33.2508 39.2676 33.2508 39.4349C33.2508 42.573 33.2508 45.7111 33.2508 48.8282C33.2508 50.1881 32.8769 51.4224 32.0255 52.4893C31.2571 53.4726 30.2395 54.1211 29.0765 54.4977C26.6882 55.3136 24.3623 55.0626 22.0571 54.0793C22.0571 52.8868 22.0571 51.7571 22.0571 50.6483C22.3478 50.5437 22.4932 50.7529 22.6593 50.8366C24.1131 51.527 25.6498 51.6316 27.2074 51.4433C28.1212 51.3178 28.7027 50.7529 29.035 49.937C29.2011 49.5395 29.2219 49.0793 29.3049 48.619C29.0557 48.5981 28.9519 48.7655 28.8273 48.8492C27.2074 50.0835 25.4629 50.0835 23.6354 49.414C22.3478 48.9328 21.7248 47.8241 21.2471 46.6734C20.5826 45.0835 20.5826 43.4098 21.2264 41.799C22.5763 38.4098 26.3352 37.8031 28.6611 39.5395C28.8273 39.6651 28.9934 39.7906 29.2634 39.9998ZM29.2426 43.0333C28.3912 42.0082 27.3112 41.9036 26.2313 42.0918C25.3799 42.4266 24.9645 43.0123 24.7984 43.8073C24.5699 44.8743 25.2345 46.1923 26.1898 46.3805C27.3528 46.5897 28.4742 46.5061 29.2426 45.4182C29.2426 44.6441 29.2426 43.891 29.2426 43.0333Z" fill="#252525"/>
<path d="M12.981 50.6278C11.5065 50.6905 10.1774 50.2512 8.97288 49.3516C5.71239 46.883 5.87853 41.611 9.67898 39.4771C12.0257 38.1591 15.1824 38.2638 17.3214 40.0211C19.0659 41.4437 19.7304 43.3265 19.4397 45.565C19.0867 48.3684 16.4284 50.6278 13.521 50.6278C13.3548 50.6278 13.1679 50.6278 12.981 50.6278ZM13.0641 47.2386C14.8916 46.7784 15.7639 45.7114 15.5354 44.2261C15.3277 42.8872 14.1648 42.0922 13.1264 42.0713C12.0257 42.0504 10.8627 42.8663 10.6551 44.247C10.4266 45.7324 11.2781 46.7784 13.0641 47.2386Z" fill="#252525"/>
<path d="M91.8358 46.2135C91.8358 46.6947 91.8358 47.1968 91.815 47.678C91.5243 49.1633 90.4444 49.9583 89.1568 50.293C86.8101 50.8997 84.4633 50.7742 82.1997 49.7491C82.1166 49.7073 82.0335 49.6236 81.9089 49.519C81.9089 48.452 81.9089 47.3642 81.9089 46.2554C84.5256 47.4479 86.2078 47.6989 87.7654 47.155C87.9523 46.8412 87.8069 46.611 87.5162 46.5064C86.997 46.3182 86.457 46.1926 85.9378 46.0253C84.9202 45.7115 83.8818 45.4604 82.9888 44.8537C82.2204 44.3516 81.9089 43.6612 81.8259 42.7826C81.6182 40.7324 82.7189 39.4981 84.4426 38.9541C86.4778 38.3056 88.513 38.4311 90.4859 39.2261C90.652 39.2889 90.7974 39.3725 90.9428 39.4562C91.0674 39.519 91.1712 39.6236 91.3166 39.7282C91.3166 40.7533 91.3166 41.7784 91.3166 42.8454C90.9636 42.9081 90.7351 42.6571 90.4651 42.5315C89.3229 41.9876 88.1184 41.7156 86.8516 41.8202C86.5193 41.8412 86.1455 41.8202 85.9794 42.3014C86.104 42.7826 86.5608 42.8035 86.9347 42.9081C87.89 43.1592 88.8868 43.3265 89.7798 43.7449C90.8597 44.2261 91.7527 44.8956 91.8358 46.2135Z" fill="#252525"/>
<path d="M46.2288 42.2173C46.5195 42.7822 47.018 42.7612 47.4125 42.9077C48.0563 43.1378 48.7209 43.3261 49.3855 43.4934C49.7593 43.5771 50.0916 43.7654 50.4238 43.9328C51.8568 44.7278 52.5836 46.3596 52.0645 47.9077C51.6906 49.0165 50.8184 49.7278 49.78 50.188C49.4062 50.3554 48.9909 50.46 48.5963 50.5018C46.6649 50.7529 44.7543 50.711 42.906 49.9997C42.7399 49.937 42.5945 49.8533 42.4491 49.7696C42.366 49.7068 42.3037 49.6232 42.2207 49.5604C42.2207 48.4934 42.2207 47.4265 42.2207 46.255C43.9444 47.1545 45.6681 47.6775 47.5579 47.3428C47.8487 47.2801 47.8487 47.2591 48.2017 46.8826C47.8487 46.4642 47.371 46.3177 46.8518 46.234C45.585 46.0667 44.422 45.5227 43.3213 44.916C42.3245 44.3721 42.0961 43.3888 42.013 42.3637C41.9715 41.8198 42.0753 41.2759 42.2622 40.7319C42.3868 40.6064 42.5737 40.4809 42.6983 40.3345C43.3837 39.4349 44.339 38.9746 45.3981 38.7863C46.8934 38.5144 48.4094 38.5771 49.8839 38.9746C50.4446 39.1211 51.0053 39.3303 51.5245 39.7278C51.5245 40.7529 51.5245 41.8198 51.5245 42.9704C50.1954 42.301 48.9286 41.757 47.4748 41.8407C47.0387 41.8198 46.6649 41.9663 46.2288 42.2173Z" fill="#252525"/>
<path d="M59.2526 42.2386C59.0865 42.406 59.0034 42.5525 59.0034 42.7407C59.0034 43.8495 58.9826 44.9792 59.0242 46.088C59.0449 46.36 59.128 46.7156 59.481 46.9876C60.2079 47.3014 60.9971 47.0713 61.8485 46.7993C61.8485 47.8663 61.8485 48.8495 61.8485 49.9792C60.5609 50.6487 59.1695 50.837 57.6535 50.4604C56.5528 50.1884 55.8052 49.6027 55.3483 48.5776C55.1199 48.0336 55.016 47.4688 55.016 46.883C55.016 45.5859 55.016 44.3098 55.016 43.0127C55.016 42.7407 55.0783 42.4688 54.933 42.134C54.393 42.134 53.8115 42.134 53.23 42.134C53.0016 41.5901 53.1262 41.0671 53.1054 40.5441C53.0847 40.0211 53.1054 39.519 53.1054 38.996C53.7284 38.8077 54.3307 38.9751 54.9745 38.8704C55.1199 37.9709 54.9537 37.0294 55.0783 36.0253C55.7014 35.9416 56.3659 36.0043 57.0097 35.9834C57.6327 35.9625 58.2558 35.9834 58.9203 35.9834C59.1072 36.9248 58.9411 37.8453 59.0242 38.8286C59.9172 38.996 60.8517 38.7658 61.8278 38.9123C61.9731 39.9374 61.9108 40.9625 61.8693 42.0922C60.9555 42.0504 60.0833 42.1759 59.2526 42.2386Z" fill="#252525"/>
<path d="M79.8717 42.7821C78.8333 42.28 77.8157 42.1545 76.7774 42.1963C75.9467 42.2382 75.2613 42.5729 74.7006 43.2005C73.7245 44.3302 74.4099 46.2758 75.5105 46.7152C76.6943 47.1754 77.8365 47.2173 79.0202 46.8616C79.2902 46.7779 79.5394 46.6943 79.8094 46.6106C80.1832 47.2173 80.204 47.2591 80.0794 49.7486C79.4356 50.2926 78.6049 50.3972 77.795 50.5227C75.1575 50.983 72.4785 50.0415 71.1078 47.824C69.4672 45.1461 69.8202 40.7947 73.8907 39.0792C75.8013 38.2842 78.3349 38.4307 79.8717 39.3302C79.8717 40.439 79.8717 41.5478 79.8717 42.7821Z" fill="#252525"/>
<path d="M39.7726 38.9746C39.7726 42.7612 39.7726 46.4641 39.7726 50.2089C39.1703 50.5436 38.5058 50.3344 37.8828 50.3554C37.2597 50.3972 36.6575 50.3554 35.9929 50.3554C35.8475 49.7905 35.7645 49.2675 35.7645 48.7236C35.7852 47.4893 35.6814 46.2549 35.7852 45.0206C35.9514 43.0123 35.8268 41.0248 35.9306 38.9746C37.1974 38.9746 38.4227 38.9746 39.7726 38.9746Z" fill="#252525"/>
<path d="M64.1953 50.1673C64.1953 46.4435 64.1953 42.6987 64.1953 38.9121C65.5037 38.9121 66.7705 38.9121 68.1411 38.9121C68.1827 42.7196 68.1411 46.4853 68.1411 50.251C66.812 50.4811 64.8806 50.4393 64.1953 50.1673Z" fill="#252525"/>
<path d="M38.2768 38.0124C37.5499 38.0961 36.9061 37.9287 36.2416 37.5312C36.117 37.322 35.93 37.0291 35.7639 36.7362C35.2863 35.7739 35.5147 34.5396 36.3039 33.891C37.093 33.2216 37.9653 33.0751 38.9829 33.6191C39.8966 34.1212 40.3535 35.2718 40.042 36.3178C39.8759 36.8827 39.5644 37.3848 39.0036 37.6777C38.7544 37.7823 38.5052 37.9078 38.2768 38.0124Z" fill="#252525"/>
<path d="M63.8008 35.5859C64.2369 33.8913 65.1714 33.1382 66.5006 33.3055C67.6012 33.452 68.4942 34.4562 68.4942 35.5859C68.4942 36.7783 67.5182 37.908 66.3759 38.0336C65.0884 38.1591 64.2161 37.3641 63.8008 35.5859Z" fill="#252525"/>
</g>
<defs>
<clipPath id="clip0_5102_148951">
<rect width="92" height="55" fill="white"/>
</clipPath>
</defs>
</svg>
