<svg width="1538" height="669" viewBox="0 0 1538 669" fill="none" xmlns="http://www.w3.org/2000/svg">
<path d="M693.94 151.089C694.457 150.845 695.077 150.692 695.649 150.797C695.849 149.92 694.682 150.523 694.438 149.921C694.975 149.743 695.6 149.809 696.153 149.837C695.719 149.762 695.13 149.917 695.441 149.378C695.106 149.36 693.967 150.003 693.829 149.441C693.641 148.673 694.81 148.209 695.367 148.099C696.115 147.951 696.821 147.891 697.58 147.912C698.655 147.941 699.342 146.897 700.533 147.042C700.398 147.427 701.829 148.773 702.228 148.611C702.497 148.48 702.756 148.33 703.005 148.164C703.548 147.862 703.512 148.252 703.965 148.339C704.414 148.424 704.757 148.071 704.786 148.795C705.08 148.594 704.648 148.353 704.889 148.026C705.136 147.691 705.261 148.199 705.477 148.256C705.99 148.39 706.647 148.253 707.162 148.169C706.069 147.848 706.47 146.304 706.559 145.499C706.603 145.107 706.01 144.714 705.809 144.441C705.463 143.969 705.782 143.253 705.285 142.87C705.664 142.936 706.009 143.121 706.385 143.199C706.796 143.285 707.304 142.881 707.665 143.063C708.228 143.346 707.526 144.195 708.306 144.642C708.53 144.77 708.934 144.541 709.166 144.539C709.844 144.533 710.496 144.762 711.155 144.887C711.798 145.01 712.359 144.991 712.936 144.661C713.459 144.363 714.158 144.374 714.63 144.038C714.255 144.187 713.619 144.262 713.255 144.053C712.516 143.63 714.219 142.588 714.502 142.461C715.4 142.059 716.416 142.107 717.327 141.742C717.856 141.53 718.561 140.321 719.218 140.659C718.643 140.289 718.994 137.725 719.472 137.244C719.942 136.773 722.335 135.92 722.95 136.438C723.264 136.702 723.119 137.429 723.489 137.812C724.167 138.512 724.293 137.575 724.962 137.777C725.586 137.965 725.365 138.754 725.848 138.988C726.478 139.293 727.141 139.014 727.063 139.99C727.438 139.747 728.089 139.804 728.488 139.941C729.238 140.198 728.922 141.123 728.771 141.659C729.272 141.743 729.841 141.899 730.34 141.7C730.833 141.502 730.946 140.938 731.442 140.741C731.485 141.052 731.355 142.441 731.776 142.456C732.396 142.478 733.646 143.297 733.839 143.892C733.783 143.72 736.197 144.111 736.321 144.121C736.908 144.172 737.346 144.051 737.811 144.536C738.178 144.918 738.435 145.519 738.992 145.664C739.112 145.608 739.207 145.523 739.279 145.411C739.459 145.225 739.549 145.471 739.74 145.497C739.846 145.538 739.875 145.611 739.825 145.716C739.792 145.943 740.324 145.819 740.412 145.827C741.005 145.881 741.345 145.515 741.894 145.933C742.478 146.378 743.685 146.46 744.415 146.582C743.519 147.373 742.692 148.241 742.402 149.416C742.261 149.988 741.921 150.513 741.831 151.089C741.772 151.465 741.9 151.618 741.749 152.102C741.567 152.687 742.012 153.174 741.619 153.537C741.287 153.843 741.031 154.138 740.533 154.093C740.115 154.056 740.08 153.438 739.577 153.718C739.214 153.92 739.179 154.566 739.785 154.469C739.33 154.947 738.927 155.516 738.407 155.929C738.088 156.136 737.776 156.354 737.471 156.583C737.22 156.809 737.245 157.251 737.033 157.514C736.672 157.963 735.973 158.174 735.863 158.808C735.944 159.024 736 159.246 736.031 159.475C735.945 159.886 735.563 160.032 735.405 160.393C736.094 160.306 736.346 160.071 736.529 159.413C736.709 158.765 737.902 158.815 738.385 158.951C738.964 159.115 738.571 160.068 738.993 160.532C739.725 161.338 739.274 161.641 738.615 162.187C738.964 162.684 740.285 163.604 739.921 164.332C739.676 164.82 737.854 165.491 737.858 165.574C737.891 166.15 739.002 166.641 739.386 166.969C739.939 167.445 738.614 168.291 738.806 168.919C739.038 169.682 740.496 170.547 741.267 170.238C742.236 169.85 742.091 170.414 741.725 171.059C740.842 172.612 739.157 173.396 737.653 174.412C737.748 174.553 737.847 174.692 737.949 174.829C737.387 174.909 736.917 175.198 736.391 175.382C735.825 175.581 735.464 175.268 734.93 175.31C734.119 175.374 733.622 174.698 732.653 174.787C733.041 173.784 731.38 174.553 731.361 173.97C731.466 173.789 731.632 173.742 731.858 173.827C731.841 173.499 731.644 173.313 731.314 173.327C731.591 173.752 731.352 173.815 730.969 173.834C730.342 173.865 730.274 173.828 730.103 173.076C730.329 174.573 729.947 173.619 728.979 173.619C728.419 173.619 727.961 173.265 727.415 173.239C726.745 173.206 726.011 173.962 725.416 174.235C724.952 174.447 723.319 175.052 723.422 175.683C723.411 175.89 723.349 176.083 723.236 176.261C722.975 176.492 722.997 176.699 723.302 176.879C723.532 177.605 723.382 177.968 723.804 178.668C723.406 178.782 723.059 178.581 722.665 178.605C722.256 178.63 722.048 178.956 721.683 179.055C720.802 179.296 720.265 178.383 719.421 178.998C719.362 179.041 718.188 178.493 718.062 178.398C717.734 178.153 718.484 178.184 717.956 177.832C717.65 177.627 717.099 177.537 716.839 177.874C716.718 177.127 715.892 177.44 715.442 177.085C714.822 176.596 713.554 176.281 713.751 177.458C713.057 177.358 712.275 177.183 711.575 177.311C711.186 177.382 710.927 177.493 710.595 177.194C710.006 176.664 710.05 176.882 709.452 176.874C708.858 176.866 705.991 174.985 705.697 175.747C705.155 175.524 705.54 175.129 705.574 174.75C705.615 174.299 704.303 174.504 704.029 174.162C705.686 173.548 705.826 171.251 706.128 169.757C706.246 169.171 706.354 168.247 706.841 167.828C707.55 167.219 706.599 167.133 706.531 167.82C706.433 166.409 706.717 164.679 707.325 163.398C707.911 163.727 708.494 164.119 708.745 164.774C708.802 165.067 708.857 165.359 708.913 165.651C709.048 166.022 709.42 166.073 709.411 166.527C709.579 165.943 708.987 165.494 708.933 164.941C708.85 164.092 708.551 163.516 707.798 163.103C707.482 162.931 707.13 162.695 706.867 162.442C706.439 162.029 707.556 162.235 707.784 162.439C707.257 162.183 707.229 159.95 707.534 159.518C706.843 160.002 705.217 159.05 704.896 158.409C704.613 157.841 703.974 157.546 703.846 156.884C703.728 156.28 704.837 155.618 703.444 155.555C703.608 155.362 703.64 155.012 703.852 154.865C704.381 154.495 704.869 155.117 705.368 155.18C704.483 154.595 704.131 154.789 703.208 154.91C702.742 154.971 701.841 154.284 702.698 154.178C702.458 153.943 702.555 153.79 702.987 153.72C702.33 153.556 701.395 154.092 700.861 153.511C701.155 153.507 701.433 153.437 701.695 153.302C701.172 152.952 700.206 153.094 700.067 153.803C700.048 153.339 699.534 152.906 700.027 152.51C699.824 153.018 698.914 152.985 699.482 152.343C698.327 153.346 696.777 151.063 695.606 152.302C695.138 151.654 694.747 151.257 693.94 151.089Z" fill="#AC2A21"/>
<path d="M774.126 165.651C774.079 164.293 775.215 165.258 775.739 165.684C776.306 166.145 776.7 165.756 776.925 165.172C777.142 164.611 777.998 164.988 778.385 165.067C778.453 164.521 780.746 165.443 781.265 165.443C781.623 165.443 782.278 165.808 782.568 165.603C783.239 165.132 783.065 165.699 783.661 165.567C784.387 165.407 785.02 165.588 785.7 165.861C786.267 166.09 785.91 166.639 786.64 166.679C787.095 166.703 787.716 166.215 788.115 166.414C788.754 166.734 788.219 167.616 787.954 167.972C787.073 169.155 788.047 169.558 788.909 170.215C790.397 171.348 788.479 170.787 788.261 171.101C788.233 171.141 789.281 172.454 789.288 172.777C789.295 173.059 787.311 173.438 786.978 173.328C786.897 173.854 787.55 174.067 787.314 174.621C786.99 173.554 785.446 174.907 785.935 175.789C784.283 175.437 786.178 178.144 785.363 178.041C784.727 177.961 783.608 177.266 783.115 176.871C782.854 176.662 782.789 176.377 782.427 176.311C782.054 176.244 781.96 176.606 781.682 176.165C782.771 176.15 780.803 174.768 780.671 174.494C780.082 173.277 778.807 172.554 777.917 171.553C777.46 171.039 776.856 170.77 776.389 170.287C775.84 169.718 775.881 168.801 775.36 168.167C774.964 167.685 774.77 167.56 774.285 167.22C774.041 167.05 774.169 166.021 774.126 165.651Z" fill="#AC2A21"/>
<path d="M791.684 177.334C791.755 176.992 792.076 177.062 792.309 177.167C792.369 176.769 792.823 176.766 793.123 176.695C793.612 176.578 793.225 176.139 793.507 176.018C794.083 175.769 794.123 175.505 793.851 174.872C794.125 174.835 794.376 174.738 794.604 174.58C794.779 175.717 797.187 175.851 796.99 176.981C796.89 177.553 798.389 177.149 798.51 177.618C798.686 178.306 797.435 179.032 797.942 179.587C797.483 179.622 796.809 179.69 796.98 180.338C796.192 180.312 796.012 179.743 795.23 180.296C794.559 180.77 794.825 181.533 793.938 181.881C793.8 180.809 794.1 180.095 793.104 179.336C792.643 178.985 792.661 179.478 792.375 178.748C792.265 178.471 791.926 177.467 791.684 177.334Z" fill="#AC2A21"/>
<path d="M775.227 156.803C775.618 156.385 776.125 156.044 776.727 156.177C776.536 155.671 776.403 154.992 776.566 154.462C776.704 154.013 777.27 153.866 777.415 153.412C777.535 153.038 776.185 152.9 776.927 152.62C777.49 152.408 778.089 153.356 778.508 152.658C779.1 151.671 779.105 150.72 780.462 151.769C782.136 153.065 783.833 152.409 785.778 152.171C784.699 151.313 786.277 151.063 786.936 151C787.26 150.968 788.13 151.046 788.213 150.643C788.357 149.954 788.852 150.261 789.353 150.458C790.029 150.724 790.806 150.378 791.298 149.91C791.656 149.569 791.807 148.767 792.252 148.591C793.119 148.249 794.17 148.75 795.042 148.834C795.418 148.233 796.077 148.727 796.417 149.077C796.927 149.602 797.279 149.644 797.987 149.431C799.233 149.056 799.697 150.883 800.88 150.757C801.758 150.664 801.284 151.889 800.947 152.16C800.424 152.58 799.616 152.229 799.197 152.762C798.926 153.107 798.102 153.564 798.091 153.982C798.08 154.434 797.5 155.415 797.229 155.817C796.939 156.247 796.979 156.697 796.626 157.168C796.283 157.627 795.811 158.04 795.591 158.579C795.363 159.135 795.37 159.574 794.68 159.744C794.199 159.863 793.831 159.665 793.492 160.09C793.147 160.523 792.728 160.191 792.294 160.346C791.665 160.57 790.925 160.374 790.285 160.308C789.835 160.262 789.117 160.002 788.739 160.362C788.307 160.772 788.174 161.119 787.528 161.149C786.934 161.176 786.293 161.237 785.739 161.469C785.22 161.686 785.074 162.2 784.458 162.278C783.426 162.408 782.09 162.153 781.243 161.612C780.756 161.302 780.296 161.371 779.908 160.843C779.427 160.188 778.749 159.807 778.08 159.366C777.467 158.962 776.99 158.607 776.615 157.973C776.319 157.472 775.942 156.676 775.227 156.803Z" fill="#AC2A21"/>
<path d="M728.008 133.816C728.45 134.141 728.825 134.769 729.468 134.567C729.417 134.039 728.797 134.17 728.471 133.941C728.811 133.722 729.712 134.065 728.929 133.566C729.806 133.95 730.734 133.1 731.64 133.274C731.409 132.757 730.548 133.33 729.844 133.107C729.548 133.013 728.294 132.603 728.801 132.106C730.11 130.821 730.616 129.794 731.222 128.106C731.4 127.611 731.864 127.485 732.329 127.41C733.04 127.296 733.75 126.766 734.238 126.259C735.301 125.153 737.044 125.061 738.5 124.876C739.428 124.758 741.01 125.9 740.778 126.855C740.627 127.476 740.235 127.95 740.173 128.601C740.125 129.088 739.097 128.538 738.79 129.052C738.378 129.74 740.994 129.719 739.507 131.205C739.369 131.298 739.221 131.371 739.064 131.423C738.703 131.619 739.148 131.933 739.089 132.181C738.957 132.732 736.945 132.529 736.606 132.356C736.897 133.158 735.849 132.083 735.893 133.107C736.379 133.274 736.652 133.85 736.792 134.301C737.066 135.186 736.31 135.823 735.911 136.503C735.782 136.722 736.611 137.677 735.878 137.879C734.269 138.323 734.792 136.785 735.476 135.985C734.466 135.571 732.746 135.575 732.428 134.4C732.158 134.739 731.428 134.9 731.223 134.4C730.979 134.81 730.483 134.672 730.18 134.442C730.277 135.432 728.714 134.581 728.22 134.609C727.622 134.644 726.849 134.792 726.426 134.234C726.76 133.647 727.455 133.816 728.008 133.816Z" fill="#AC2A21"/>
<path d="M801.012 130.518C801.495 129.907 801.874 129.148 802.718 128.995C803.547 128.844 803.795 128.211 803.704 127.441C803.49 125.633 801.925 124.373 801.638 122.591C802.584 122.833 803.804 122.659 804.792 122.772C805.092 122.807 805.541 122.577 805.831 122.505C806.414 122.359 806.266 122.091 806.686 121.736C806.945 121.517 807.268 121.727 807.544 121.594C807.759 121.491 807.864 121.25 808.092 121.144C808.529 120.941 809.428 120.882 809.146 121.631C809.39 121.711 809.779 121.685 809.935 121.442C810.271 120.92 809.335 120.742 809.065 120.631C810.016 119.597 809.274 118.494 810.606 117.794C811.225 117.468 811.29 116.803 812.11 116.876C813.001 116.956 812.566 116.495 813.236 116.166C812.305 115.918 811.538 115.565 812.501 114.452C813.116 113.742 814.284 113.48 815.14 113.737C816.173 114.047 816.203 112.653 817.15 112.306C817.651 112.121 818.382 112.698 818.636 112.495C819.145 112.088 819.645 112.504 819.865 112.924C820.012 113.203 821.819 112.583 822.434 113.145C822.652 113.345 822.325 113.761 822.573 114.003C822.907 114.329 823.653 114.1 824.006 113.931C825.246 113.336 826.013 113.565 827.124 114.353C827.426 114.567 828.319 114.71 828.33 115.172C828.347 115.939 828.293 116.104 828.67 116.796C828.919 117.252 828.676 117.544 828.441 117.917C828.035 118.563 829 118.811 829.341 119.197C830.136 120.095 830.393 121.22 831.647 121.623C832.01 121.74 832.552 121.862 832.705 122.271C832.897 122.78 832.266 123.185 832.965 123.385C833.181 123.355 833.39 123.299 833.594 123.218C833.882 123.159 834.247 123.393 834.536 123.427C835.441 123.533 834.931 123.842 835.342 124.361C835.562 124.639 836.029 124.662 836.303 124.887C837.04 125.491 835.94 125.467 835.682 125.637C835.221 125.942 835.17 126.417 834.457 126.591C833.569 126.807 833.159 126.016 832.365 126.028C830.665 126.053 831.674 127.3 832.337 127.837C832.758 128.177 832.601 128.839 832.716 129.309C832.905 130.079 833.303 130.73 833.718 131.395C831.789 131.456 829.97 131.235 829.256 133.513C829.087 134.051 829.637 134.519 829.782 135.015C830.042 135.913 828.9 135.185 828.667 134.901C827.991 134.071 827.157 134.601 826.239 134.374C825.864 134.282 825.22 134.588 824.958 134.858C824.7 135.123 824.29 133.873 824.079 133.763C823.547 133.484 822.545 134.118 822.623 134.733C822.305 134.589 822.291 134.105 821.997 133.983C821.692 133.855 821.306 134.212 821.043 134.02C820.674 133.751 820.3 133.772 819.873 133.82C819.295 133.885 819.025 133.494 818.949 134.19C818.589 134.099 818.322 133.807 817.957 133.731C817.517 133.64 817.16 133.998 816.803 133.582C816.114 132.779 814.965 132.871 813.959 132.667C812.94 132.46 811.753 132.244 810.714 132.263C810.055 132.276 809.377 132.061 808.728 132.125C808.157 132.181 807.616 132.396 807.039 132.396C805.783 132.396 805.751 132.883 804.894 133.575C804.441 133.942 804.107 133.694 803.622 133.604C802.993 133.488 803.26 133.843 802.96 134.128C802.512 134.553 802.984 132.152 802.992 132.098C803.167 130.986 801.468 131.211 801.012 130.518Z" fill="#AC2A21"/>
<path d="M735.367 160.39C735.497 160.138 735.638 159.894 735.79 159.655C735.984 159.28 735.723 158.968 735.86 158.617C736.061 158.099 736.669 157.918 736.995 157.512C737.868 156.427 738.775 155.49 739.747 154.466C738.875 154.605 739.483 153.283 740.125 153.809C740.988 154.515 741.322 153.328 742.122 153.215C741.705 153.702 743.816 153.328 744.203 153.348C744.956 153.387 745.634 153.401 745.797 152.923C745.221 153.138 745.083 152.586 745.616 152.442C745.858 152.376 746.255 152.354 746.266 152.628C746.286 153.101 747.448 152.87 747.633 152.877C748.322 152.905 749.104 153.169 749.627 153.628C750.315 154.231 749.293 155.214 749.174 155.885C750.505 155.717 750.614 156.681 751.7 156.892C752.169 156.983 752.355 156.096 752.868 156.241C753.468 156.411 752.955 157.084 752.904 157.393C752.864 157.633 753.39 158.382 752.854 158.397C752.47 158.407 752.169 157.716 751.805 158.038C751.674 158.154 751.222 158.836 751.537 158.98C752.094 159.236 751.764 159.43 751.677 159.973C751.134 159.755 751.112 159.169 750.425 159.306C749.756 159.439 749.682 159.581 749.133 159.055C749.08 159.004 748.483 157.988 748.403 158.818C748.329 159.58 748.344 159.765 747.793 160.34C747.091 161.074 747.722 162.794 746.6 161.152C746.35 160.786 746.054 160.607 745.709 160.349C745.181 159.955 745.392 159.206 744.875 158.846C744.579 159.218 744.229 159.594 743.751 159.723C744.274 160.329 743.127 161.397 742.482 161.337C741.265 161.225 740.26 161.995 739.33 161.016C739.003 160.671 738.548 160.308 738.661 159.764C738.819 159.005 738.271 158.802 737.621 158.867C736.529 158.977 736.436 160.256 735.367 160.39Z" fill="#AC2A21"/>
<path d="M793.594 183.047C794.114 182.971 793.769 182.548 793.763 182.236C793.755 181.803 794.518 181.587 794.623 181.056C794.714 180.593 795.104 180.366 795.492 180.18C796.35 179.768 796.194 180.31 796.972 180.335C796.807 179.707 797.253 179.941 797.557 179.626C797.735 179.536 797.913 179.539 798.093 179.635C798.52 179.759 798.562 179.356 798.93 179.292C799.347 179.221 800.212 179.387 800.548 179.133C800.972 178.813 801.423 179.757 801.689 180.002C802.677 180.914 803.774 181.144 803.708 182.75C803.695 183.084 803.863 183.813 803.567 184.062C803.203 184.367 802.85 184.298 802.94 184.925C802.5 184.814 802.135 185.214 801.612 185.114C800.942 184.986 800.273 185.055 799.712 185.463C798.599 186.273 797.717 186.277 796.353 186.496C795.619 186.613 795.933 186.109 795.315 186.268C794.556 186.462 794.927 185.803 794.527 185.491C793.722 184.864 793.913 183.94 793.594 183.047Z" fill="#AC2A21"/>
<path d="M798.461 149.293C798.326 148.412 799.077 147.805 799.436 147.073C799.839 146.254 800.021 145.616 801.092 146.372C801.138 146.047 800.984 145.908 800.738 145.738C800.384 145.494 800.534 144.937 800.383 144.568C799.89 143.371 800.887 142.57 801.68 141.741C802.334 141.056 803.005 140.251 803.819 139.754C804.725 139.201 805.815 138.815 804.597 137.735C804.836 137.631 805.072 137.52 805.304 137.402C804.283 137.169 802.848 134.97 802.917 133.962C802.978 133.094 804.161 133.988 804.644 133.734C805.09 133.499 805.492 133.153 805.77 132.739C806.123 132.218 806.999 132.354 807.525 132.352C808.707 132.346 809.896 132.245 811.076 132.2C812.123 132.16 812.968 132.538 813.943 132.784C814.422 132.904 815.946 132.75 816.288 133.129C816.647 133.526 816.991 133.95 817.59 133.751C818.105 133.58 818.485 134.072 818.943 134.188C819.02 133.492 819.289 133.884 819.867 133.819C820.294 133.771 820.668 133.749 821.038 134.019C821.299 134.21 821.685 133.853 821.991 133.981C822.286 134.103 822.299 134.588 822.617 134.731C822.509 133.887 823.527 133.61 824.147 133.94C824.8 134.286 824.768 135.259 825.732 134.561C826.011 134.36 826.234 134.351 826.553 134.51C826.963 134.715 827.508 134.284 827.965 134.384C828.253 134.446 829.5 135.929 829.677 135.153C829.894 134.194 829.069 133.884 829.615 132.831C830.003 132.082 830.692 131.18 831.604 131.631C831.748 131.703 832.314 131.413 832.45 131.379C832.876 131.274 833.473 131.317 833.901 131.387C834.872 131.547 835.901 131.778 835.799 130.308C836.551 130.36 837.256 130.857 838.003 130.534C838.369 130.376 838.764 130.181 839.165 130.139C839.655 130.087 839.861 130.471 840.26 130.475C840.573 130.479 840.743 130.188 841.044 130.197C841.52 130.211 842.118 130.804 842.329 131.191C842.74 131.948 843.7 132.354 844.015 133.062C843.707 133.254 843.05 133.231 842.814 133.486C842.676 133.636 844.101 135.073 843.477 135.441C843.998 135.613 845.646 135.977 846.166 135.819C847.006 135.565 847.203 136.525 847.985 136.483C847.692 137.034 848.388 137.421 848.544 137.878C848.754 138.495 848.484 139.012 849.081 139.528C849.686 140.052 850.202 139.472 850.827 139.415C851.562 139.347 851.961 140.149 852.703 140.082C853.3 140.029 853.133 140.591 853.867 140.148C854.472 139.783 855.197 139.894 855.836 139.541C856.469 139.191 856.935 139.991 857.231 140.42C857.701 141.1 858.708 141.263 859.034 142.032C860.007 141.472 859.565 141.084 860.745 141.702C861.356 142.022 862.995 142.709 863.501 142.116C863.938 142.988 864.632 142.466 865.128 143.055C865.373 143.346 865.775 143.569 866.147 143.638C866.613 143.725 867.012 143.294 867.424 143.492C866.841 144.049 868.043 145.19 867.048 145.987C866.762 146.215 866.118 146.108 866.381 146.664C866.724 147.389 867.422 146.565 867.505 147.415C867.009 147.266 866.151 147.735 866.43 148.36C866.526 148.574 868.114 149.114 867.297 149.709C867.47 149.85 867.665 149.891 867.882 149.834C867.936 150.104 867.518 151.442 867.378 151.712C866.958 152.529 865.767 151.893 865.002 152.046C864.556 152.135 864.177 151.855 863.737 152.075C863.299 152.294 863.282 152.838 862.743 153.033C862.433 153.145 861.896 153.215 861.808 153.618C861.685 154.178 861.51 154.652 862.041 154.758C861.721 155.038 862.047 155.502 861.66 155.725C861.188 155.999 859.987 155.718 859.42 155.822C858.86 155.925 858.784 156.528 858.203 156.572C857.519 156.625 856.709 156.983 856.537 157.72C856.221 157.193 855.496 157.234 855.026 157.502C854.235 157.953 853.68 157.729 852.844 157.979C851.445 158.399 851.223 160.364 849.816 160.723C849.871 160.481 851.845 158.967 850.279 158.762C850.825 159.554 849.772 159.704 849.3 160.023C848.613 160.485 849.728 162.019 850.042 162.445C850.609 163.217 852.833 165.853 853.409 163.768C853.859 164.292 854.147 164.133 854.662 163.864C855.351 163.506 856.191 163.849 856.746 164.311C856.082 164.4 856.093 164.72 856.103 165.271C856.116 165.946 855.501 165.915 854.984 165.974C854.421 166.037 854.113 166.013 853.6 165.73C853.29 165.558 852.864 165.29 852.487 165.438C852.115 165.584 852.318 165.974 852.089 166.065C851.534 166.287 851.213 166.841 850.622 166.924C849.82 167.038 849.113 166.958 848.491 167.585C847.42 168.664 845.434 169.958 844.271 168.024C845.109 168.213 845.318 165.391 844.029 165.201C843.315 165.096 842.941 164.838 842.337 164.478C841.775 164.142 841.253 164.381 840.658 164.307C839.754 164.192 841.77 162.85 842.081 162.725C842.697 162.48 844.826 162.137 845.019 161.39C844.491 161.406 844.404 160.88 844.393 160.472C843.781 160.816 843.936 160.902 843.153 160.516C842.51 160.199 841.644 160.538 840.938 160.55C840.172 160.563 839.694 160.646 838.992 160.258C838.389 159.925 837.707 159.381 836.971 159.596C839.148 158.737 836.417 159.065 835.888 158.303C837.249 158.971 839.07 158.783 840.221 157.927C839.445 158.149 838.392 158.53 837.702 157.846C837.183 157.33 837.578 156.454 837.012 155.925C837.453 156.504 837.312 157.055 837.324 157.7C837.334 158.193 836.196 157.879 835.928 158.052C835.778 157.766 835.792 157.488 835.968 157.218C835.629 157.289 835.567 157.743 835.399 157.981C835.163 158.314 834.476 157.998 834.123 158.059C832.615 158.321 832.846 159.757 831.965 160.68C831.883 160.242 831.048 158.919 830.464 159.345C830.679 159.958 831.631 160.011 831.812 160.627C832.027 161.355 829.983 162.696 829.461 162.976C829.935 162.66 830.526 162.326 830.672 161.724C830.12 161.765 829.111 163.594 828.998 162.308C828.737 162.596 828.37 163.524 829.206 163.142C829.103 163.277 829.007 163.416 828.916 163.56C829.505 163.645 829.831 164.769 829.166 164.978C829.567 163.407 827.526 164.031 826.727 164.261C825.705 164.555 825.193 165.129 824.115 164.555C823.935 164.46 822.801 163.52 823.668 163.514C824.703 163.505 824.308 162.804 824.798 162.193C825.338 161.52 826.331 161.011 826.19 160.011C826.067 159.134 825.664 158.822 826.749 158.428C826.839 158.681 826.935 158.931 827.039 159.179C827.662 157.895 829.528 160.041 830.463 159.054C830.056 158.929 829.845 158.545 829.461 158.386C830.609 157.979 828.936 156.859 828.527 156.572C828.242 156.372 827.833 156.121 827.887 155.707C827.94 155.288 828.079 154.216 827.275 154.619C827.044 154.735 826.36 153.859 826.249 153.693C825.968 153.268 826.322 152.437 826.129 151.918C825.779 150.975 825.141 151.755 824.651 151.058C824.346 150.622 823.34 150.117 823.157 150.96C823.027 150.212 822.591 150.848 822.45 150.126C821.601 150.526 820.688 149.417 819.973 149.124C819.053 148.746 818.086 149.496 817.098 149.407C816.754 149.377 816.365 149.418 816.482 149.876C816.154 149.818 815.703 150.032 815.408 150.143C815.117 150.251 814.711 150.353 814.593 150.683C814.323 151.444 813.925 151.381 813.142 151.451C812.176 151.538 811.126 151.352 810.417 152.15C809.373 153.326 808.804 151.885 807.811 151.564C807.336 151.41 806.798 151.576 806.323 151.633C805.73 151.704 805.426 151.508 804.869 151.412C804.303 151.316 803.75 151.508 803.243 151.154C802.398 150.563 802.282 151.306 801.511 151.504C801.49 150.608 800.634 150.96 800.187 150.467C799.872 150.12 799.691 150.271 799.384 150.044C799.036 149.788 798.961 149.406 798.461 149.293Z" fill="#AC2A21"/>
<path d="M737.855 165.483C738.441 164.86 739.983 165.387 739.911 164.09C739.882 163.568 739.439 163.132 739.107 162.774C738.927 162.589 738.759 162.394 738.603 162.188C738.78 162.041 739.33 161.411 739.606 161.485C740.129 161.624 740.343 161.584 740.904 161.389C741.608 161.143 741.942 161.334 742.615 161.384C743.057 161.417 743.629 160.829 743.829 160.486C743.991 160.223 743.973 159.969 743.776 159.726C744.255 159.597 744.604 159.221 744.9 158.849C745.382 159.185 744.988 159.658 745.414 160.05C745.789 160.396 746.194 160.626 746.528 161.019C746.687 161.205 747.045 162.146 747.403 161.978C747.79 161.797 747.397 160.778 747.777 160.41C748.209 159.99 748.522 159.77 748.444 159.128C748.328 158.167 748.888 158.798 749.158 159.058C749.631 159.511 749.656 159.437 750.242 159.35C751.022 159.233 751.068 159.721 751.702 159.976C751.763 159.594 752.058 159.208 751.572 158.986C751.136 158.788 751.714 158.07 751.992 158.015C752.267 157.96 752.58 158.376 752.836 158.446C753.398 158.6 752.97 157.41 752.984 157.216C753.044 156.39 754.202 157.048 754.623 157.263C755.175 157.546 755.562 156.756 755.885 156.465C756.317 156.077 756.996 156.187 757.52 156.218C758.369 156.268 759.183 155.631 760.005 155.803C759.094 156.349 760.657 157.535 761.17 157.698C762.712 158.187 764.346 158.067 765.886 158.515C765.822 159.098 764.899 159.241 764.635 159.725C764.98 159.921 765.325 160.138 765.718 160.226C765.384 160.618 764.673 161.183 765.597 161.394C765.167 161.953 765.724 162.063 766.129 162.28C766.66 162.564 766.78 163.258 765.967 163.063C766.551 161.859 764.974 162.535 764.675 162.646C764.549 161.815 763.541 162.572 763.248 162.756C762.926 162.958 762.59 163.145 762.251 163.316C762.026 163.429 760.118 164.045 761.297 163.437C760.981 163.503 760.559 163.46 760.295 163.688C760.108 163.85 760.197 164.517 759.837 164.439C759.834 164.632 760.545 165.624 760.614 165.643C761.673 165.934 761.003 167.471 760.382 166.776C759.173 168.911 761.887 170.941 763.35 171.874C764.066 172.331 765.226 172.653 765.728 173.37C766.46 174.413 766.847 175.786 767.277 176.977C767.828 178.506 769.836 180.07 771.266 180.727C772.324 181.213 772.888 181.364 774.066 181.206C774.505 181.147 776.446 180.862 776.206 181.869C776.091 182.35 774.716 182.798 775.219 183.386C775.763 184.02 777.202 184.381 777.939 184.644C779.116 185.065 780.174 185.48 781.158 186.265C782.162 187.065 783.395 187.302 784.375 188.186C785.034 188.78 785.911 189.402 785.747 190.392C785.709 190.617 785.662 191.629 785.324 191.662C784.864 191.708 784.295 191.435 784.052 191.035C783.519 190.162 783.554 189.152 782.236 189.284C781.178 189.391 780.964 188.7 780.817 188.304C779.7 188.492 779.455 188.481 778.751 189.519C778.315 190.163 777.998 190.971 777.839 191.733C777.656 192.606 778.769 192.819 779.372 193.096C780.339 193.54 780.514 194.232 780.609 195.21C780.769 196.861 777.913 195.674 778.18 197.668C778.311 198.643 778.048 198.72 777.426 199.382C776.899 199.943 776.491 200.635 775.863 201.095C775.273 201.528 774.774 201.284 774.478 200.653C774.028 199.693 775.423 199.247 775.493 198.373C775.517 198.076 775.373 197.719 775.578 197.454C775.92 197.011 776.591 197.342 776.773 196.773C776.932 196.277 776.308 195.714 776.186 195.261C775.996 194.557 775.935 193.938 775.555 193.295C775.1 192.524 775.032 191.369 774.427 190.718C774.066 190.33 773.814 190.422 773.473 190.706C773.066 191.045 772.647 190.356 772.38 190.142C772.077 189.9 771.585 189.963 771.492 189.476C771.415 189.074 771.678 188.955 771.465 188.461C771.005 187.395 769.806 187.37 768.929 187.928C769.379 187.245 769.236 186.604 768.309 186.697C767.618 186.766 767.228 185.747 766.978 185.27C766.535 184.424 766.01 184.916 765.286 184.703C764.899 184.589 764.539 184.407 764.124 184.507C763.253 184.713 763.811 184.599 763.212 184.109C762.617 183.624 761.865 183.491 761.274 182.955C760.617 182.361 760.231 181.483 759.513 180.982C758.889 180.546 758.647 180.657 758.231 179.976C757.797 179.266 756.684 178.431 755.835 178.958C756.321 178.142 754.336 176.038 753.601 176.142C753.688 176.13 752.515 172.806 752.47 172.59C752.068 170.633 750.735 170.852 749.328 169.904C747.873 168.924 746.023 168.392 744.801 169.973C744.367 170.535 744.008 171.182 743.361 171.531C743.132 171.655 741.376 172.416 741.305 171.866C741.189 170.975 743.152 169.95 740.988 170.189C739.821 170.317 737.951 168.929 739.24 167.788C739.721 167.363 739.655 167.022 739.059 166.745C738.367 166.425 738.405 165.949 737.855 165.483Z" fill="#AC2A21"/>
<path d="M672.037 194.312C671.994 194.173 671.952 194.034 671.909 193.895C673.254 193.793 673.716 191.61 674.103 190.618C674.443 189.748 674.632 188.784 674.883 187.88C674.952 187.636 675.184 187.594 675.332 187.424C675.456 187.282 675.468 186.358 675.125 187.344C675.276 186.276 675.542 185.639 675.313 184.56C675.237 184.208 674.697 182.353 675.415 182.337C674.372 182.655 675.207 181.114 675.765 180.877C676.395 180.608 677.283 180.573 677.796 180.084C677.735 180.432 677.89 180.634 678.254 180.585C678.025 180.749 677.233 181.805 677.978 181.785C678.588 181.769 679.214 181.294 679.819 181.394C680.614 181.526 680.913 181.841 681.713 181.419C681.973 180.565 683.173 181.219 683.886 181.148C684.717 181.064 684.249 181.665 684.304 182.112C684.34 182.402 685.325 182.577 685.546 182.778C686.027 183.217 683.001 185.612 682.607 185.708C682.946 185.625 682.797 187.855 682.802 188.019C682.812 188.327 682.95 188.894 682.802 189.179C682.606 189.558 682.036 189.407 681.913 189.894C681.84 190.184 682.876 191.359 681.944 191.661C681.592 191.776 681.798 192.232 681.505 192.404C681.079 192.655 679.997 192.559 679.546 192.433C679.7 192.77 680.019 192.969 680.279 193.211C680.613 193.523 680.304 193.864 680.53 194.263C680.762 194.675 681.67 195.325 681.514 195.812C681.247 196.648 680.329 197.068 680.094 197.913C679.888 198.656 680.59 200.039 681.51 199.735C681.11 200.694 680.459 200.457 679.977 201.421C679.739 201.897 679.283 202.215 679.061 202.704C678.762 203.363 679.425 204.013 679.083 204.674C678.568 205.667 677.08 205.785 676.208 205.43C675.159 205.003 673.763 204.957 672.831 205.743C672.699 205.315 673.011 204.74 673.184 204.369C673.463 203.775 673.422 203.016 673.693 202.494C674.015 201.878 673.586 201.442 673.621 200.827C673.673 199.921 674.227 199.306 673.665 198.399C673.967 199.354 674.328 198.307 674.25 197.941C674.067 198.384 672.683 198.525 672.205 198.692C672.443 198.289 672.296 197.828 672.413 197.399C672.581 197.464 672.747 197.534 672.911 197.607C672.946 197.286 673.194 197.225 673.421 197.079C673.748 196.868 673.374 196.306 673.369 196.022C673.073 196.413 672.081 197.829 671.465 197.365C670.677 196.771 672.034 195.063 672.037 194.312Z" fill="#AC2A21"/>
<path d="M749.445 154.845C749.855 154.127 749.771 154.33 749.572 153.682C749.503 153.459 752.699 153.554 751.948 154.845C752.854 154.818 752.878 153.969 753.078 153.3C753.463 153.645 754.345 153.68 754.828 153.634C754.411 153.84 755.383 154.233 755.625 154.167C755.816 154.188 756.009 154.205 756.201 154.218C756.417 154.075 756.612 153.909 756.786 153.718C757.577 153.24 758.934 152.923 759.834 153.217C759.822 153.061 759.795 152.908 759.753 152.758C760.202 152.814 760.921 153.216 761.362 152.996C762.11 152.623 762.157 153.53 762.735 153.761C763.365 154.013 763.425 152.946 762.99 152.729C762.657 152.562 762.877 152.103 762.809 151.835C762.719 151.476 762.324 151.329 762.175 151.007C761.795 150.185 763.912 149.903 764.335 149.617C764.701 149.37 764.449 148.223 765.13 148.481C766.047 148.829 765.916 148.332 766.133 147.502C766.724 147.758 767.152 148.439 767.842 148.462C768.164 148.472 768.317 148.134 768.595 148.128C768.899 148.121 769.199 148.354 769.47 148.462C769.472 148.058 769.696 147.661 770.096 147.534C770.624 147.365 770.67 147.001 770.594 146.334C770.949 146.309 771.147 146.567 771.475 146.626C772.148 146.745 772.706 146.721 773.386 146.949C774.19 147.219 775.099 147.85 775.935 147.47C776.518 147.205 778.113 147.579 778.23 148.253C778.299 148.654 777.904 148.734 777.9 149.087C777.894 149.49 778.138 150.008 778.372 150.324C779.003 151.176 779.102 151.337 778.688 152.422C778.298 153.442 776.882 151.927 776.635 152.658C776.493 153.079 778.084 153.447 776.95 154.025C776.151 154.432 776.47 155.496 776.729 156.179C775.989 156.016 774.264 156.952 774.979 157.848C774.071 157.274 773.647 157.932 772.788 158.01C772.17 158.067 771.391 157.623 770.848 158.098C770.367 157.831 769.773 158.805 769.424 158.987C768.769 159.329 767.49 158.77 766.847 158.624C765.078 158.223 763.194 158.39 761.462 157.848C760.935 157.682 758.995 156.408 760.002 155.803C759.427 155.683 758.959 156.101 758.414 156.179C757.618 156.293 756.942 156.186 756.144 156.412C755.666 156.546 755.286 157.406 754.793 157.262C754.294 157.117 753.842 157.003 753.339 156.879C752.925 156.776 753.332 156.325 753.064 156.281C752.74 156.228 752.242 156.588 752.016 156.791C751.59 157.173 750.829 156.568 750.794 156.173C750.77 155.894 749.872 155.893 749.694 155.887C749.862 155.505 749.662 155.149 749.445 154.845Z" fill="#AC2A21"/>
<path d="M816.48 187.138C816.914 186.932 817.511 186.34 817.641 185.87C817.844 185.138 817.281 184.588 818.297 184.13C818.852 183.879 818.65 183.875 818.51 183.292C818.428 182.949 818.291 182.607 817.923 182.486C816.592 182.051 818.233 181.841 818.158 181.308C818.137 181.16 819.583 180.748 819.817 180.671C820.584 180.422 821.035 180.164 821.592 180.796C822.112 181.385 822.403 181.008 823.062 180.942C823.369 180.911 823.73 180.944 823.979 181.15C824.403 181.501 823.767 181.623 824.067 182.008C825.183 183.446 826.487 184.071 828.26 184.603C828.945 184.808 828.376 185.806 827.952 185.963C827.141 186.263 825.964 185.478 825.139 185.429C824.73 185.406 824.48 185.69 824.143 185.863C823.729 186.075 823.295 185.707 822.82 185.85C822.244 186.022 822.007 186.642 821.611 187.074C820.967 187.775 820.1 187.973 819.358 188.515C818.729 188.974 818.123 190.254 817.441 190.518C817.235 189.705 817.578 188.861 818.379 188.576C818.522 188.525 820.057 188.061 819.551 187.645C818.731 186.969 816.88 188.781 816.48 187.138Z" fill="#AC2A21"/>
<path d="M735.887 133.108C735.879 132.915 736.096 132.921 735.887 132.734C736.363 132.426 736.842 133.026 736.6 132.358C736.967 132.546 739.399 132.703 738.988 131.882C738.699 131.303 740.969 130.486 739.898 129.91C739.557 129.726 738.309 129.536 738.894 128.896C739.309 128.44 739.77 128.997 740.186 128.395C740.537 127.887 740.743 125.366 741.391 125.683C741.129 125.549 740.101 125.589 740.094 125.161C740.085 124.645 740.85 123.897 741.31 123.806C741.71 123.726 745.394 123.922 744.022 124.849C744.273 125.037 744.551 125.093 744.856 125.016C744.513 124.632 744.72 124.084 745.273 124.348C745.744 124.574 745.609 124.969 745.65 125.391C745.697 125.134 745.766 124.884 745.858 124.64C745.865 124.313 745.57 124.062 745.609 123.723C745.708 122.872 746.31 123.055 746.942 123.118C747.484 123.172 748.096 122.849 748.602 123.147C749.373 123.602 749.609 124.448 750.615 124.557C750.228 124.249 749.828 124.157 749.495 123.755C749.217 123.419 748.947 123.072 748.511 122.938C748.102 122.812 747.615 122.916 747.283 122.591C746.979 122.293 747.175 122.034 747.568 122.054C747.407 121.546 746.391 121.271 747.318 120.844C746.905 120.941 746.476 121.017 746.067 120.844C746.376 120.283 747.179 120.547 747.451 120.102C747.616 119.832 747.013 119.408 746.89 119.202C746.752 118.969 746.517 118.255 746.276 118.132C745.762 117.869 744.983 118.178 744.983 118.632C744.904 118.297 744.924 117.75 745.314 117.59C744.956 118.205 745.833 118.129 746.182 118.092C746.954 118.01 747.751 118.017 748.451 118.401C748.294 118.314 752.189 118.649 751.032 119.175C751.752 119.157 751.115 120.039 750.824 120.176C751.206 120.02 751.645 119.962 752.035 120.135C751.842 120.4 751.846 120.459 751.907 120.761C752.14 120.082 752.915 120.334 753.389 120.548C754.15 120.891 754.598 120.62 755.367 120.468C755.215 121.314 754.686 121.683 754.121 122.263C754.415 122.327 754.658 122.506 754.741 122.806C753.418 122.689 754.655 123.684 754.812 124.02C755.032 124.494 753.602 124.882 753.536 125.351C754.196 125.321 754.635 126.089 755.205 126.31C755.746 126.519 756.772 126.587 757.204 126.935C757.01 127.372 756.361 127.807 755.871 127.624C755.253 127.393 754.772 127.931 754.162 127.853C754.186 128.544 754.894 128.807 755.037 129.481C754.55 129.761 755.319 130.02 755.245 130.398C755.136 130.957 755.243 131.554 754.492 131.63C754.055 131.674 753.124 131.685 753.64 132.36C753.687 132.525 753.644 132.666 753.513 132.782C753.393 133.023 753.81 133.296 753.866 133.507C754.057 134.223 752.926 133.833 752.691 134.058C752.319 134.414 751.606 134.337 751.282 134.738C750.622 135.555 752.275 135.571 752.127 135.985C751.935 135.987 751.831 136.095 751.813 136.309C751.84 136.468 751.916 136.596 752.039 136.695C752.032 136.568 751.108 137 751.074 136.992C751.788 137.291 750.983 138.018 750.824 138.411C751.348 138.069 751.467 138.646 751.491 139.036C752.677 138.35 753.422 141.079 754.37 140.371C754.242 140.235 754.117 140.095 753.994 139.954C754.552 139.415 755.603 139.679 756.039 140.246C756.058 140.204 756.037 138.53 756.537 139.102C757.237 139.903 758.199 139.123 758.976 139.7C759.574 140.147 759.484 140.952 760.204 141.348C760.876 141.717 761.212 142.182 760.5 142.748C761.404 143.239 761.598 144.417 762.547 144.945C763.303 145.365 763.923 145.984 764.651 146.42C765.273 146.794 766.709 147.511 765.895 148.496C765.447 149.038 764.59 147.932 764.59 149.153C764.59 149.847 763.075 150.114 762.608 150.329C762.199 150.517 761.936 150.836 762.299 151.223C762.78 151.736 762.787 151.723 762.736 152.346C762.695 152.857 763.425 152.591 763.251 153.186C763.078 153.782 763.084 154.065 762.434 153.566C762.218 153.401 762.115 152.896 761.855 152.866C761.615 152.913 761.379 152.975 761.148 153.054C760.671 153.054 760.22 152.82 759.752 152.762C759.794 152.912 759.821 153.065 759.833 153.221C758.824 152.892 757.904 153.609 756.994 153.701C756.524 153.748 756.241 154.15 755.742 154.139C755.53 154.134 754.407 153.846 754.827 153.638C754.344 153.684 753.462 153.649 753.077 153.304C752.877 153.974 752.853 154.823 751.947 154.849C752.601 153.725 749.279 153.424 748.808 153.151C748.04 152.705 747.028 152.928 746.275 152.554C745.207 152.025 744.914 153.266 745.817 152.929C745.655 153.408 744.976 153.394 744.224 153.354C743.837 153.334 741.725 153.707 742.143 153.221C741.414 153.664 741.927 150.688 742.143 150.217C742.467 149.514 742.442 148.723 742.928 148.088C743.352 147.533 743.875 147.047 744.397 146.587C743.755 146.48 742.924 146.325 742.307 146.131C741.622 145.916 741.462 145.504 740.719 145.762C740.515 145.784 740.311 145.814 740.109 145.851C739.575 145.989 739.975 145.586 739.597 145.46C738.975 145.252 738.841 145.912 738.284 144.977C737.989 144.483 737.265 144.29 737.265 143.646C737.265 143.09 738.271 142.834 737.406 142.402C736.33 141.865 735.971 140.259 737.433 139.995C737.264 139.644 737.293 138.98 736.72 139.077C737.173 138.489 736.503 138.471 736.164 138.188C735.627 137.741 736.476 137.349 736.112 137.021C735.485 136.455 736.583 135.449 736.845 134.946C737.136 134.385 736.419 133.292 735.887 133.108Z" fill="#AC2A21"/>
<path d="M751.068 136.986C751.13 137 752 136.704 752.03 136.652C751.947 136.557 751.891 136.446 751.862 136.32C751.834 136.091 751.92 135.978 752.121 135.98C752.19 135.787 751.096 135.393 751.095 135.087C751.093 134.55 752.04 134.367 752.399 134.232C752.56 134.143 752.712 134.04 752.854 133.925C753.192 133.824 753.534 134.211 753.819 133.773C753.804 133.796 753.6 132.311 753.634 132.355C753.216 131.809 753.769 131.683 754.218 131.647C754.889 131.592 755.151 131.385 755.202 130.71C755.226 130.387 754.804 129.801 754.853 129.646C755.123 128.77 754.187 128.732 754.155 127.849C754.64 127.911 755.016 127.566 755.487 127.553C756.161 127.536 756.834 127.75 757.197 126.931C756.876 126.672 756.656 126.931 756.322 126.806C755.964 126.671 755.833 126.305 755.406 126.305C754.634 126.305 754.291 125.312 753.529 125.346C753.594 124.877 755.025 124.489 754.804 124.015C754.648 123.679 753.411 122.684 754.734 122.801C754.284 122.023 756.31 122.475 756.657 122.801C756.799 122.381 757.759 121.635 756.907 122.049C757.341 121.771 759.207 120.936 759.114 121.882C758.914 121.322 759.628 121.074 759.965 120.814C760.679 120.265 760.827 119.982 761.785 120.339C761.292 120.258 760.003 120.305 760.116 121.09C760.816 120.381 761.435 120.319 762.37 120.403C762.816 120.443 763.82 121.651 764.288 121.924C764.147 121.637 764.679 121.613 764.938 121.613C765.363 121.613 765.495 122.463 765.526 122.748C765.586 123.296 766.244 123.415 766.666 123.571C767.351 123.825 767.546 124.53 767.718 125.172C767.852 125.674 767.872 126.167 767.689 126.659C767.52 127.115 766.865 127.104 766.918 127.681C767.004 128.606 768.954 128.569 768.607 129.709C768.326 130.635 769.423 130.846 769.176 132.015C769.115 132.298 768.656 132.674 768.914 132.957C769.297 133.379 769.204 133.555 769.262 134.067C769.304 134.444 770.118 134.342 770.195 134.815C770.303 135.482 770.417 136.227 770.047 136.84C769.738 137.353 769.078 137.729 768.759 136.948C768.491 136.291 768.136 136.514 767.544 136.651C767.687 136.773 767.826 136.898 767.961 137.026C766.449 137.608 764.326 138.181 763.055 139.199C762.259 139.836 760.303 139.201 760.156 140.739C759.768 139.281 758.143 139.864 757.2 139.63C756.925 139.562 756.561 138.724 756.352 139.082C756.143 139.44 756.194 139.877 756.031 140.239C755.595 139.672 754.544 139.408 753.986 139.947C754.109 140.088 754.234 140.227 754.362 140.364C753.414 141.072 752.669 138.343 751.483 139.029C751.459 138.639 751.34 138.061 750.816 138.403C750.976 138.013 751.782 137.285 751.068 136.986Z" fill="#AC2A21"/>
<path d="M765.435 163.647C765.721 163.714 766 163.809 766.292 163.85C766.663 163.902 766.98 163.435 767.181 163.47C768.033 163.617 768.89 163.749 769.311 162.729C770.07 163.462 770.666 163.219 771.511 163.647C772.587 164.191 771.96 162.928 772.527 162.812C772.319 162.766 772.145 162.588 771.941 162.52C772.411 162.106 773.124 161.877 773.738 161.811C773.699 161.709 773.394 160.345 773.397 160.338C773.511 160.007 774.422 159.758 774.699 159.689C775.188 159.566 775.109 159.348 775.488 159.1C775.491 159.097 775.936 159.222 776.033 159.225C774.929 157.932 777.913 159.166 778.116 159.267C778.421 159.419 779.174 160.153 779.407 160.417C780.022 161.112 780.361 161.082 781.16 161.395C781.804 161.645 782.024 162.07 782.869 162.146C783.84 162.233 784.704 162.464 785.48 161.713C785.839 161.366 786.368 161.841 786.497 162.23C786.682 162.784 786.298 163.365 787.168 163.397C785.84 164.32 788.757 164.855 788.547 165.112C788.416 165.271 787.418 165.257 787.168 165.358C787.59 166.048 787.102 167.224 786.224 166.544C786.052 166.408 786.005 166.235 786.085 166.026C785.832 165.918 785.578 165.816 785.321 165.719C784.779 165.52 784.339 165.503 783.774 165.539C783.179 165.578 783.124 165.254 782.543 165.579C782.116 165.818 781.863 165.539 781.455 165.442C780.964 165.324 780.434 165.363 779.954 165.225C779.536 165.106 779.114 164.8 778.67 164.79C778.016 164.777 778.911 165.15 777.828 164.955C777.042 164.813 777.279 164.918 776.866 165.275C775.869 166.135 775.947 165.579 774.895 164.986C773.936 164.446 774.189 166.193 774.119 166.726C774.067 167.121 774.169 167.254 774.606 167.339C775.082 167.431 775.324 168.184 775.584 168.541C776.088 169.23 775.871 169.933 776.636 170.522C777.647 171.299 778.432 172.258 779.451 173.019C780.272 173.632 780.525 174.824 781.395 175.259C782.319 175.721 781.944 176.614 780.979 175.63C779.901 174.532 777.482 172.749 775.866 173.351C775.442 173.508 775.22 173.346 774.949 172.993C774.611 172.556 774.82 172.439 774.182 172.122C773.25 171.659 771.972 170.609 771.605 169.614C772.185 169.514 772.709 169.598 773.28 169.698C772.529 169.146 771.603 168.733 771.079 167.923C770.642 167.247 770.931 166.381 770.506 165.71C770.131 165.121 769.296 164.558 768.624 164.374C768.129 164.239 767.676 165.663 767.77 166.026C767.558 165.938 767.479 166.001 767.313 165.818C767.249 166.295 767.134 166.806 766.768 167.153C766.471 166.924 765.514 165.739 765.974 165.359C765.446 165.481 765.191 164.033 765.059 163.606C765.184 163.619 765.31 163.632 765.435 163.647Z" fill="#AC2A21"/>
<path d="M791.45 110.452C791.506 110.591 791.562 110.729 791.618 110.869C791.561 110.145 791.39 109.382 791.898 108.767C792.116 108.503 792.503 108.317 792.595 107.96C792.71 107.513 792.585 107.126 792.82 106.684C793.274 105.832 793.835 105.44 794.754 105.213C795.196 105.104 796.387 104.395 796.735 104.819C797.288 105.491 797.889 105.784 798.514 106.36C799.224 107.014 799.518 107.881 800.516 108.201C801.303 108.453 802.069 108.124 802.712 107.668C803.644 107.009 803.509 106.218 803.115 105.271C802.958 104.897 802.797 104.484 802.882 104.068C803.233 104.169 803.594 103.912 803.874 103.748C804.432 103.422 805.52 102.955 806.108 103.329C806.498 103.577 807.253 103.506 807.763 103.789C808.527 104.212 809.171 104.328 809.844 104.94C810.394 105.441 810.912 105.74 811.616 105.381C812.4 104.982 813.28 105.535 814.105 105.61C814.6 105.656 815.471 106.346 815.88 106.663C816.103 106.835 815.641 108.578 815.483 108.782C816.724 108.632 816.142 109.329 816.687 109.536C817.328 109.779 817.718 110.864 817.833 111.468C817.952 112.096 817.392 112.102 816.944 112.329C816.605 112.5 816.327 112.862 816.11 113.163C815.987 113.332 816.11 113.716 815.901 113.83C815.233 114.196 814.473 113.336 813.729 113.711C812.868 114.144 812.396 114.649 811.395 114.095C810.572 113.64 809.827 113.049 809.054 112.518C808.31 112.006 807.366 112.265 806.633 111.803C805.992 111.399 805.863 110.532 804.991 111.046C804.232 111.492 803.969 111.475 803.134 111.556C802.387 111.628 801.495 111.14 800.681 111.152C799.832 111.164 799.268 111.307 798.493 111.022C797.998 110.84 797.051 110.95 796.511 110.95C795.667 110.95 794.922 111.085 794.107 111.283C793.589 111.408 792.635 111.564 792.411 112.143C792.263 112.524 792.019 112.622 791.758 112.3C791.301 111.741 791.403 111.118 791.45 110.452Z" fill="#AC2A21"/>
<path d="M791.684 160.517C792.136 160.206 792.483 160.232 792.94 160.351C793.384 160.465 793.411 159.891 793.769 159.766C794.163 159.629 794.589 159.728 794.984 159.604C795.556 159.425 795.445 158.732 795.714 158.303C795.971 157.895 796.316 157.553 796.604 157.169C796.975 156.674 796.928 156.232 797.26 155.786C797.552 155.392 797.529 154.794 797.896 154.457C798.238 154.144 798.021 153.654 798.411 153.447C798.796 153.242 798.909 153.104 799.176 152.764C799.594 152.232 800.355 152.611 800.855 152.192C801.267 151.846 801.554 151.36 802.008 151.062C802.636 150.65 803.346 151.171 803.99 151.255C804.603 151.335 805.209 151.464 805.824 151.527C806.556 151.601 807.484 151.277 808.145 151.704C809.398 152.512 809.513 152.999 810.677 151.888C811.406 151.192 812.923 151.546 813.846 151.391C814.453 151.289 814.409 150.909 814.757 150.525C815.131 150.111 815.851 150.065 816.365 150.123C817.515 150.253 818.104 151.421 818.586 152.335C819.12 153.348 819.874 154.231 820.691 155.015C821.884 156.161 822.437 157.006 822.917 158.582C823.093 159.158 822.749 159.743 822.62 160.287C822.472 160.914 822.749 161.579 822.796 162.211C822.873 163.262 823.131 163.689 823.96 164.274C824.278 164.498 825.669 165.479 825.637 164.481C826.667 164.887 828.551 162.772 829.122 164.543C829.754 166.5 828.527 167.291 826.68 167.276C826.906 167.094 827.1 165.996 826.62 166.012C826.047 166.032 826.354 167.356 825.932 167.693C826.206 167.629 826.485 167.587 826.766 167.568C826.345 167.751 825.595 167.807 826.1 168.36C826.249 168.231 826.388 168.092 826.517 167.943C826.338 168.603 825.632 168.965 825.515 169.653C825.39 170.387 825.973 171.415 825.493 172.1C825.215 172.499 824.048 172.055 823.745 171.922C823.318 171.734 823.064 171.451 822.827 171.055C822.678 170.806 822.531 171.17 822.345 171.114C820.903 170.669 819.738 170.097 818.226 170.401C817.328 170.582 816.316 170.656 815.552 171.214C814.805 171.761 814.302 172.537 813.314 172.676C812.351 172.811 811.407 172.443 810.457 172.366C810.062 172.333 809.673 172.153 809.272 172.197C808.729 172.258 808.437 172.558 807.846 172.423C806.817 172.186 805.819 171.719 804.751 171.677C804.208 171.656 802.982 172.25 802.612 171.657C802.058 170.772 803.934 170.797 802.242 170.031C801.719 169.794 801.167 169.384 800.97 168.816C800.789 168.296 801.747 168.33 802.026 168.194C801.712 167.809 800.991 167.43 800.485 167.61C800.138 167.733 799.901 168.592 799.486 168.502C799.069 168.413 798.618 167.725 798.086 167.572C797.509 167.406 796.833 167.312 796.394 166.859C796.878 166.718 796.99 166.098 796.394 166.025C796.949 165.503 796.796 165.139 796.139 164.909C795.253 164.599 794.655 164.079 793.891 163.563C794.574 162.208 792.463 161.387 791.684 160.517Z" fill="#AC2A21"/>
<path d="M734.9 142.241C734.894 142.115 735.183 142.16 734.859 142.075C735.27 141.729 735.254 140.924 735.821 140.739C736.471 140.528 736.268 141.257 736.487 141.594C736.781 142.046 737.394 142.196 737.725 142.619C738.083 143.079 737.177 143.63 737.241 144.161C736.874 143.849 735.665 143.975 735.108 143.785C735.812 143.275 735.103 142.794 734.9 142.241Z" fill="#AC2A21"/>
<path d="M759.293 139.993C759.725 139.994 760.063 140.351 760.168 140.744C760.311 139.249 762.123 139.959 762.866 139.364C764.238 138.266 766.344 137.658 767.973 137.031C767.837 136.902 767.697 136.777 767.555 136.656C767.919 136.571 768.343 136.439 768.627 136.761C768.879 137.047 769.102 137.584 769.56 137.427C769.872 137.32 770.356 137.473 770.329 137.015C770.302 136.57 770.696 136.646 770.986 136.721C771.472 136.845 771.498 136.936 771.637 137.394C771.79 137.898 771.856 137.531 772.17 137.659C772.657 137.856 774.286 137.87 774.311 138.617C774.529 138.386 775.084 138.249 775.381 138.368C776.189 138.691 775.355 139.206 775.024 139.493C775.748 139.745 775.995 140.131 776.412 140.708C776.921 141.415 777.741 140.588 778.193 140.286C777.919 140.057 777.767 139.766 777.736 139.41C778.813 139.692 779.818 140.513 780.986 140.161C780.888 140.678 780.822 141.533 781.581 141.512C782.243 141.494 782.165 141.376 782.863 141.705C783.611 142.056 783.969 141.803 784.354 142.616C784.443 142.804 785.902 143.692 785.245 143.937C784.487 144.218 783.881 144.355 783.208 144.859C782.724 145.221 782.763 146.216 782.197 146.273C781.342 146.358 781.057 147.441 779.955 147.226C778.948 147.029 778.616 147.265 778.234 148.255C777.853 146.864 775.923 147.859 775.054 147.56C774.338 147.313 773.636 147.028 772.913 146.794C772.327 146.604 771.207 146.293 770.597 146.336C770.642 146.733 770.478 147.108 770.516 147.504C769.926 147.422 769.477 147.891 769.473 148.464C768.596 148.114 768.579 148.49 767.719 148.411C767.147 148.359 766.671 147.744 766.22 147.441C765.643 147.053 765.027 146.727 764.427 146.378C763.866 146.052 763.315 145.118 762.648 144.953C761.609 144.694 761.4 143.235 760.504 142.748C761.724 141.775 759.406 140.997 759.293 139.993Z" fill="#AC2A21"/>
<path d="M789.134 187.596C789.36 187.21 789.554 186.755 789.389 186.303C790.001 186.401 789.688 184.998 789.814 184.544C789.911 184.193 789.367 184.176 789.563 183.729C789.711 183.394 789.833 183.042 789.906 182.683C790.031 182.071 789.928 181.391 789.134 181.588C788.836 180.662 788.915 179.535 789.506 178.755C789.982 178.128 790.154 177.224 790.676 178.234C791.067 178.991 791.724 177.877 792.31 178.5C792.504 178.706 792.392 179.05 792.599 179.251C792.999 179.637 793.488 179.359 793.813 180.058C794.09 180.653 794.117 182.871 793.642 183.048C793.673 183.3 793.901 183.566 794.012 183.78C794.032 183.963 793.987 184.133 793.878 184.288C793.796 184.691 794.292 185.091 794.501 185.367C794.788 185.748 794.724 186.264 795.314 186.185C795.886 186.107 795.912 186.442 796.032 186.867C796.391 188.129 795.442 188.013 795.054 189.014C794.924 189.349 794.863 190.282 794.466 190.434C793.449 190.823 793.36 190.651 793.81 191.767C793.051 191.69 793.706 192.319 792.931 192.536C792.282 192.717 792.079 192.22 791.995 191.688C791.776 190.303 789.937 189.807 789.134 188.721C789.415 188.765 789.611 188.918 789.72 189.18C790.136 188.698 789.33 188.392 789.76 188.221C789.505 188.059 789.297 187.85 789.134 187.596Z" fill="#AC2A21"/>
<path d="M766.883 127.766C766.855 126.771 768.338 126.511 767.792 125.351C767.603 124.95 767.163 124.351 767.328 123.865C767.405 123.641 768.182 123.928 768.343 123.927C768.26 123.599 768.329 123.307 768.552 123.051C768.508 123.12 768.466 123.19 768.424 123.26C768.172 123.043 767.881 122.917 767.549 122.884C767.726 123.327 767.039 123.076 767.005 122.676C767.965 123.037 769.504 122.205 770.376 121.854C771.422 121.433 773.969 121.548 774.626 120.675C775.429 119.61 777.32 119.12 778.586 118.785C780.167 118.367 782.346 118.031 783.691 119.171C783.329 118.921 782.898 118.666 782.439 118.837C782.99 119.355 783.131 120.349 783.931 120.581C784.896 120.86 786.189 120.441 787.115 120.173C786.708 120.418 786.21 120.483 785.812 120.753C785.24 121.141 786.465 120.932 786.676 120.806C788.284 119.849 789.488 120.632 791.249 120.632C793.589 120.632 796.056 120.974 798.379 120.632C800.113 120.377 801.36 121.393 801.793 122.982C802.238 124.616 804.246 126.537 803.67 128.333C803.378 129.242 802.196 128.842 801.713 129.54C801.23 130.237 800.79 130.858 801.967 131.076C803.853 131.425 802.246 132.937 802.805 133.954C803.394 135.026 803.929 137.09 805.303 137.403C805.071 137.522 804.835 137.633 804.596 137.737C805.308 138.368 805.497 139.083 804.479 139.46C803.455 139.838 802.586 140.818 801.839 141.576C801.156 142.269 799.932 143.225 800.343 144.296C800.516 144.742 800.458 145.219 800.627 145.664C800.762 146.017 801.158 145.895 801.091 146.374C800.398 145.884 799.354 145.893 798.564 145.613C797.788 145.337 797.41 144.743 796.613 144.53C795.83 144.32 794.956 144.197 794.187 144.517C793.192 144.932 793.076 144.555 792.116 144.436C791.377 144.345 791.104 144.491 790.562 144.949C790.327 145.147 790.027 145.401 789.703 145.428C789.148 145.474 789.331 144.888 789.115 144.621C788.882 144.334 788.351 144.096 788.056 143.741C787.579 143.17 786.423 144.424 785.905 144.496C786.039 144.048 784.123 142.034 783.48 141.858C782.758 141.661 782.406 141.363 781.704 141.587C780.969 141.819 780.898 140.591 780.98 140.156C779.812 140.508 778.807 139.688 777.73 139.405C777.76 139.761 777.913 140.053 778.187 140.282C777.735 140.584 776.915 141.411 776.406 140.704C775.989 140.126 775.742 139.74 775.018 139.489C775.209 139.323 775.927 138.94 775.771 138.598C775.567 138.152 774.56 138.342 774.305 138.612C774.268 137.469 772.181 138.281 771.728 137.628C771.291 137 771.499 136.873 770.705 136.644C770.135 136.48 770.588 137.622 769.716 137.361C770.211 136.211 770.794 135.222 769.552 134.379C769.018 134.015 769.441 133.607 769.021 133.234C768.473 132.747 769.078 132.52 769.17 132.002C769.226 131.683 769.103 131.108 769.062 130.784C769.02 130.458 768.351 130.54 768.479 129.995C768.563 129.638 769.008 129.284 768.525 128.993C767.939 128.643 767.38 128.235 766.883 127.766Z" fill="#AC2A21"/>
<path d="M722.852 136.278C723.885 135.742 724.929 135.201 726.061 134.901C725.82 135.656 726.956 135.413 727.356 135.497C727.727 135.574 727.908 135.744 728.317 135.635C728.822 135.499 729.391 134.653 729.567 135.443C729.502 135.266 729.446 135.085 729.399 134.9C729.781 134.985 730.244 134.964 730.193 134.442C730.496 134.672 730.992 134.809 731.236 134.4C731.441 134.9 732.171 134.739 732.441 134.4C732.759 135.575 734.479 135.572 735.489 135.985C734.948 136.617 734.272 137.748 735.345 137.863C735.845 137.917 737.349 138.282 736.741 139.073C737.314 138.976 737.285 139.639 737.453 139.991C736.787 140.111 736.853 140.479 736.439 140.822C736.271 140.96 735.851 140.607 735.474 141.201C735.155 141.702 734.899 141.949 734.98 142.387C735.063 142.831 735.76 143.124 735.32 143.621C734.54 144.502 733.68 143.539 733.176 143.093C732.795 142.754 731.803 142.751 731.525 142.411C731.34 142.185 731.488 141.064 731.444 140.742C731.059 140.895 730.948 141.218 730.674 141.486C730.169 141.978 729.377 141.76 728.773 141.659C728.91 141.165 729.175 140.507 728.732 140.075C728.39 139.741 727.446 139.743 727.063 139.991C727.126 139.205 726.713 139.313 726.142 139.073C725.465 138.788 725.565 138.384 725.187 137.8C724.981 137.484 724.016 138.176 723.609 137.974C722.991 137.669 723.138 136.8 722.852 136.278Z" fill="#AC2A21"/>
<path d="M800.72 172.031C800.689 171.349 801.278 170.416 801.702 169.906C801.838 169.742 802.985 170.298 803.055 170.446C803.243 170.853 802.444 171.258 802.685 171.673C803.035 172.277 804.971 171.7 805.572 171.826C806.551 172.03 807.623 172.72 808.616 172.362C809.415 172.074 810.427 172.298 811.276 172.366C812.532 172.466 813.204 173.03 814.365 172.146C815.261 171.462 815.885 170.911 817.035 170.712C818.085 170.53 819.211 169.945 820.236 170.481C820.887 170.823 821.828 171.098 822.561 170.963C822.812 170.918 823.76 171.937 824.122 172.082C824.61 172.277 825.471 171.885 825.557 172.589C825.649 173.35 825.756 173.935 824.834 173.864C823.913 173.792 823.489 174.467 823.118 175.227C822.798 175.882 823.144 176.614 822.748 177.332C822.626 177.551 822.485 177.761 822.354 177.976C822.143 178.323 821.714 178.088 821.497 178.5C822.632 178.758 822.848 179.577 823.579 180.337C824.478 181.272 822.498 181.262 821.911 181.095C821.273 180.915 821.198 180.218 820.392 180.449C819.794 180.621 819.351 180.994 818.703 180.985C817.829 180.973 818.478 181.3 818.2 181.545C817.937 181.778 817.023 181.728 817.406 182.297C815.162 181.802 817.634 183.456 816.221 184.163C815.479 184.533 814.335 184.203 813.471 184.548C812.871 184.787 812.396 183.859 811.837 183.807C811.043 183.734 811.015 184.121 810.402 183.365C809.988 182.854 809.512 183.002 808.923 183.097C808.109 183.229 807.512 183.751 806.648 183.775C805.637 183.804 804.647 184.22 803.64 184.132C803.975 182.997 803.746 182.009 803.194 181.028C803.014 180.707 802.6 180.636 802.307 180.461C801.796 180.157 801.46 179.669 801.055 179.25C802.288 178.371 800.861 177.949 801.405 176.742C801.608 176.292 802.035 176.609 802.345 176.413C802.724 176.172 803.211 175.36 803.391 174.954C802.276 174.599 801.014 173.144 800.72 172.031Z" fill="#AC2A21"/>
<path d="M749.215 155.887C749.228 155.523 749.311 155.176 749.464 154.845C749.73 155.218 750.009 156.057 749.215 155.887Z" fill="#CCCCCC"/>
<path d="M785.308 178.041C786.399 177.861 784.214 175.421 785.934 175.788C785.445 174.906 786.989 173.552 787.313 174.62C787.549 174.065 786.896 173.852 786.977 173.326C787.677 173.557 787.855 173.194 788.441 173.702C789.238 174.392 789.956 174.941 790.9 175.417C791.268 175.602 792.661 176.027 792.889 176.428C793.237 177.039 791.942 176.995 791.848 177.072C791.561 177.308 792.219 177.941 791.691 178.207C791.333 178.388 790.901 178.614 790.6 178.19C790.436 177.958 790.324 177.472 789.956 177.889C789.018 178.95 788.661 180.211 789.104 181.586C788.426 181.2 787.762 180.427 787.309 179.798C787.171 179.606 786.054 178.884 785.813 178.916C786.227 178.733 786.099 178.521 786.561 178.749C786.607 178.044 785.104 179.224 785.308 178.041Z" fill="#AC2A21"/>
<path d="M786.062 161.519C786.895 161.258 787.994 161.088 788.656 160.515C789.441 159.835 791.575 160.28 792.158 161.12C792.769 161.999 794.664 162.052 793.902 163.564C794.512 163.976 795.035 164.515 795.739 164.774C796.425 165.028 797.218 165.262 796.405 166.026C797.743 166.191 794.983 167.582 794.597 167.677C793.364 167.981 793.474 165.154 792.152 165.525C792.581 166.415 790.873 168.673 789.97 167.035C789.701 166.548 789.775 166.129 789.019 166.354C788.442 166.525 787.597 166.288 787.146 166.693C787.165 166.147 787.524 165.911 787.187 165.358C787.332 165.299 788.484 164.999 788.537 165.051C788.182 164.695 786.045 164.191 787.187 163.397C786.789 163.383 786.62 163.283 786.539 162.898C786.41 162.287 786.299 162.103 786.062 161.519Z" fill="#AC2A21"/>
<path d="M787.512 169.11C787.503 168.207 788.315 167.616 788.439 166.743C788.513 166.217 789.891 166.084 789.944 166.553C789.969 166.781 789.645 166.9 789.847 167.149C790.137 167.505 790.772 167.321 791.017 167.692C791.517 167.583 792.342 165.938 792.141 165.522C793.217 165.219 793.409 167.031 793.81 167.442C794.615 168.267 795.922 166.606 797.009 167.166C797.556 167.448 798.143 167.603 798.711 167.837C798.955 167.938 799.415 168.537 799.632 168.547C799.792 168.555 800.224 167.818 800.378 167.695C800.863 167.306 801.709 167.803 802.027 168.193C801.704 168.35 801.291 168.239 800.974 168.447C800.595 168.696 801.637 169.653 801.819 169.819C801.022 171.146 800.229 172.259 801.644 173.585C802.083 173.997 802.832 174.77 803.406 174.951C803.21 175.394 802.929 175.841 802.615 176.207C802.29 176.583 801.734 176.309 801.462 176.705C801.184 177.108 801.283 177.968 801.632 178.272C802.469 179 799.796 179.353 799.4 179.292C798.999 179.231 798.147 179.993 797.888 179.474C797.599 178.894 798.501 178.343 798.587 177.826C798.646 177.471 797.733 177.353 797.525 177.245C797.006 176.975 797.428 176.796 797.11 176.601C796.428 176.185 794.731 175.394 794.604 174.575C794.377 174.732 794.125 174.83 793.851 174.867C794.184 175.64 793.64 175.567 793.497 176.236C793.297 177.173 792.887 176.47 792.54 176.2C791.596 175.468 790.343 175.228 789.341 174.566C788.587 174.068 787.328 173.149 788.884 172.954C790.196 172.789 788.161 170.996 788.309 170.958C788.584 170.888 788.837 171.208 789.158 171.093C789.926 170.819 789.324 170.684 789.135 170.403C788.744 169.821 787.686 169.647 787.512 169.11Z" fill="#AC2A21"/>
<path d="M674.297 176.581C674.339 176.511 674.382 176.441 674.425 176.372C673.887 176.418 673.868 175.961 674.018 175.58C674.259 174.967 674.695 175.131 675.079 174.716C675.824 173.913 677.433 174.291 678.469 173.827C677.627 173.862 678.169 173.622 678.469 173.452C678.291 173.517 678.11 173.573 677.925 173.619C677.8 173.071 679.64 171.668 679.64 172.576L680.474 172.075C680.543 172.691 682.96 172.41 682.977 173.452C683.715 172.499 685.875 173.239 686.894 173.077C687.77 172.938 687.996 172.886 688.917 173.106C689.896 173.34 690.891 173.557 691.888 173.726C693.247 173.956 694.492 173.829 695.737 173.53C696.524 173.341 697.454 173.52 698.143 173.934C699.086 174.5 698.944 173.716 699.817 173.778C700.586 173.833 701.336 174.139 702.09 174.284C702.546 174.372 703.905 173.946 704.105 174.264C704.323 174.61 705.687 174.19 705.441 175.025C705.389 175.201 705.261 175.413 705.413 175.585C705.767 175.987 705.677 175.475 706.055 175.494C707.242 175.555 708.199 176.762 709.302 176.863C709.551 176.885 709.817 176.718 710.058 176.808C710.365 176.922 710.535 177.267 710.873 177.318C711.806 177.461 712.78 177.321 713.719 177.457C713.671 177.137 713.741 176.845 713.928 176.581C715.11 177.178 716.803 177.142 716.929 178.667C717.588 178.589 718.002 178.261 718.644 178.626C718.834 178.734 719.122 179.085 719.363 179.007C719.643 178.916 719.929 178.623 720.253 178.753C720.871 178.999 721.409 179.269 722.039 178.858C722.558 178.519 722.848 178.477 723.437 178.709C723.77 178.842 723.797 179.273 724.23 179.21C724.226 179.655 723.951 179.519 723.698 179.721C723.325 180.021 723.696 180.761 723.678 181.148C723.629 182.22 721.288 182.995 720.497 183.322C719.905 183.568 719.747 184.127 719.254 184.361C718.659 184.644 717.838 184.635 717.201 184.796C715.655 185.185 714.719 185.857 713.471 186.72C714.441 187.495 713.521 187.642 712.861 188.021C711.892 188.577 711.702 189.916 710.751 190.524C709.129 191.561 708.556 194.531 709.891 195.95C710.704 196.814 711.359 197.077 710.02 197.913C709.245 198.398 708.658 198.602 708.028 199.293C707.655 199.702 707.318 200.328 707.059 200.924C706.896 201.298 706.712 201.716 706.702 202.131C706.694 202.477 707.262 202.945 706.918 202.115C707.449 202.991 705.292 203.057 704.874 203.107C703.867 203.228 702.469 204.143 702.225 205.136C702.017 205.991 701.308 207.513 700.393 206.775C699.834 206.323 699.416 206.931 698.951 207.122C698.28 207.398 697.554 206.983 696.842 207.099C695.359 207.342 693.88 207.172 692.365 207.202C691.555 207.217 691.376 207.369 690.788 207.918C690.116 208.547 689.231 208.289 688.455 208.678C688.068 208.87 687.688 210.174 687.341 210.14C686.909 210.097 687.024 210.809 686.355 210.793C685.814 210.78 685.407 209.852 684.891 209.908C684.328 209.97 683.901 208.793 683.765 208.373C684.509 208.243 683.584 207.708 683.365 207.538C682.836 207.131 683.466 206.433 683.974 206.287C683.657 206.185 683.499 206.356 683.475 206.662C683.203 206.372 680.978 204.865 681.471 204.409C680.701 204.324 681.456 204.73 680.632 204.749C680.262 204.757 679.804 204.897 679.442 204.764C678.924 204.576 678.942 203.251 679.015 202.823C679.078 202.449 679.372 202.168 679.622 201.911C679.931 201.594 679.968 201.095 680.238 200.829C680.86 200.218 681.12 200.69 681.518 199.736C680.722 199.999 680.08 198.943 680.058 198.275C680.023 197.237 681.228 196.73 681.522 195.813C681.68 195.316 680.737 194.652 680.515 194.214C680.328 193.843 680.514 193.627 680.24 193.31C680.011 193.043 679.701 192.758 679.553 192.433C680.082 192.581 680.637 192.475 681.174 192.475C681.732 192.475 681.58 192.148 681.774 191.802C682.017 191.37 682.78 190.484 681.971 189.997C681.613 189.782 682.524 189.408 682.597 189.374C682.971 189.195 682.838 188.665 682.823 188.343C682.811 188.094 682.938 185.628 682.614 185.708C683.195 185.566 683.455 184.907 684.028 184.58C684.383 184.377 685.763 183.461 685.657 182.936C685.57 182.507 684.703 182.407 684.389 182.235C684.04 182.044 684.763 181.328 684.236 181.165C683.862 181.05 681.822 180.837 681.784 181.208C681.71 181.917 680.548 181.654 680.153 181.493C679.519 181.234 678.898 181.626 678.275 181.748C677.297 181.939 677.796 180.921 678.262 180.584C677.899 180.633 677.743 180.431 677.804 180.083C677.444 180.426 676.959 180.438 676.503 180.521C675.93 180.625 675.593 181.09 675.092 181.335C674.635 180.14 675.958 180.01 676.257 179.081C676.04 179.489 675.602 179.617 675.173 179.624C675.265 179.148 675.717 178.957 676.094 178.748C675.714 178.916 675.144 178.958 675.173 178.373C675.194 177.956 675.853 177.796 675.926 177.371C675.557 177.717 674.972 177.683 674.756 178.205C674.34 177.603 675.005 177.118 675.422 176.787C675.001 177.128 674.461 177.221 674.297 176.581Z" fill="#AC2A21"/>
<path d="M778.242 148.251C778.697 147.074 779.264 147.282 780.346 147.271C780.762 147.266 782.518 146.399 782.565 146.015C782.745 144.54 786.246 143.408 785.92 144.495C786.376 144.432 787.479 143.332 787.879 143.685C788.128 143.904 788.245 144.231 788.555 144.399C788.758 144.419 788.943 144.483 789.114 144.592C789.069 144.756 789.103 144.905 789.216 145.037C789.904 145.542 790.17 145.31 790.923 144.756C791.183 144.566 792.362 144.199 792.662 144.468C793.558 145.274 794.17 144.204 795.217 144.317C796.399 144.445 797.147 144.853 798.145 145.455C799.071 146.014 800.166 145.681 799.446 146.917C799.047 147.604 798.584 148.255 798.452 149.025C798.19 150.571 795.886 148.479 795.44 148.539C795.085 148.587 795.21 148.873 794.807 148.795C794.325 148.702 793.851 148.572 793.363 148.506C792.212 148.35 792.041 148.697 791.613 149.644C791.309 150.318 789.956 150.68 789.316 150.396C788.223 149.912 788.538 150.811 787.677 150.928C787.063 151.012 784.448 151.102 785.791 152.172C784.877 152.284 783.951 152.806 783.019 152.485C782.541 152.32 782.061 152.609 781.579 152.485C781.147 152.374 780.674 151.996 780.267 151.793C779.646 151.485 778.849 150.959 778.509 150.331C778.365 150.064 778.034 149.73 777.942 149.442C777.772 148.905 778.34 148.738 778.242 148.251Z" fill="#AC2A21"/>
<path d="M791.742 112.497C792.331 112.592 792.47 111.978 792.866 111.705C793.299 111.407 794.066 111.309 794.565 111.193C795.86 110.89 797.381 110.875 798.707 110.953C799.163 110.981 798.859 111.506 799.393 111.186C799.789 110.948 800.724 111.171 801.163 111.208C802.026 111.282 803.903 112.007 804.617 111.327C805.551 110.439 805.803 111.276 806.568 111.762C807.025 112.053 807.547 112.037 808.066 112.115C808.758 112.218 809.214 112.651 809.755 113.058C810.101 113.318 812.41 114.395 812.341 114.699C812.057 115.949 812.095 115.867 813.227 116.169C812.531 116.509 813.041 117.083 812.074 116.892C811.331 116.745 811.304 117.584 810.705 117.764C808.958 118.287 810.15 119.444 809.056 120.634C809.332 120.747 809.896 120.793 809.971 121.175C810.06 121.637 809.445 121.734 809.137 121.634C809.457 120.78 807.96 120.982 807.888 121.155C807.558 121.953 806.734 121.439 806.344 122.246C806.208 122.528 805.511 122.532 805.212 122.695C804.709 122.971 803.779 122.614 803.216 122.666C802.938 122.692 801.778 122.885 801.681 122.414C801.566 121.855 801.363 121.456 800.818 121.21C800.276 120.964 799.767 120.637 799.213 120.424C798.983 120.336 798.6 120.592 798.47 120.282C798.113 119.43 799.241 118.462 798.346 117.82C798.425 117.876 797.714 117.2 797.813 117.237C797.356 117.063 796.274 117.22 795.741 117.185C795.014 117.138 793.407 115.96 792.827 116.376C792.854 115.758 792.618 115.082 792.305 114.557C791.919 113.916 791.975 113.186 791.742 112.497Z" fill="#AC2A21"/>
<path d="M792.262 192.394C792.568 192.464 792.964 192.523 793.26 192.381C793.89 192.079 792.855 191.671 793.809 191.768C793.472 190.933 793.244 190.963 794.045 190.53C794.549 190.257 794.89 189.877 795.07 189.328C795.319 188.568 795.593 188.635 796.076 188.092C796.543 187.568 795.868 187.091 795.895 186.553C796.475 186.523 796.993 186.372 797.556 186.259C798.103 186.15 798.604 186.526 799.125 186.117C799.668 185.691 799.799 185.126 800.588 185.032C801.36 184.941 801.886 185.194 802.648 184.936C803.134 184.771 802.834 184.215 803.476 184.153C803.926 184.11 804.476 184.281 804.877 184C805.416 183.623 806.228 183.851 806.836 183.769C807.444 183.687 808.022 183.326 808.603 183.142C809.061 182.996 809.837 182.739 810.234 183.154C810.581 183.515 810.851 184.191 811.485 183.99C812.171 183.773 812.59 184.308 813.235 184.435C813.812 184.548 814.332 184.188 814.911 184.211C815.432 184.232 816.146 184.387 816.599 184.039C817.161 183.605 816.544 183.061 816.381 182.613C816.092 181.81 817.634 182.36 817.818 182.464C818.408 182.792 818.489 183.43 818.712 184.009C816.909 184.314 818.068 186.39 816.499 187.138C816.744 186.471 813.685 186.336 813.211 186.149C812.288 185.783 812.302 185.968 811.476 186.512C810.905 186.887 810.377 185.82 809.838 186.088C809.081 186.465 809.052 187.476 807.903 187.056C807.042 186.742 807.103 187.149 807.326 187.722C807.447 188.032 807.899 187.802 807.654 188.247C807.487 188.55 807.853 188.909 808.082 188.662C808.551 188.159 809.737 189.771 809.992 190.058C809.332 190.419 808.496 189.001 807.813 188.944C806.238 188.813 808.332 190.365 808.409 190.809C807.675 191.047 806.906 189.759 806.297 189.514C805.787 189.31 805.721 189.635 805.916 190.018C806.201 190.579 806.752 190.719 807.199 191.101C806.124 191.552 805.862 190.606 805.552 189.932C805.202 189.171 804.067 189.07 803.572 188.431C803.896 188.337 804.061 188.101 803.989 187.764C801.664 188.083 802.732 190.672 803.59 191.801C804.046 192.4 807.049 195.145 804.905 195.356C805.825 195.036 804.955 193.781 804.279 193.98C803.396 194.239 804.16 195.888 804.864 195.607C804.415 196.187 803.67 196.536 802.941 196.317C803.419 196.562 804.741 196.924 804.943 197.392C805.105 197.768 805.56 197.159 805.816 197.541C806.058 197.902 805.445 197.94 806.289 198.178C807.179 198.429 807.727 198.941 808.567 199.318C809.188 199.597 809.151 200.118 809.073 200.702C808.987 201.345 809.537 201.919 809.205 202.534C808.497 201.972 807.882 201.006 806.933 200.828C806.241 200.698 805.569 201.248 804.906 201.198C804.893 201.775 805.425 201.254 805.462 201.871C805.486 202.272 806.17 203.705 806.285 202.659C806.428 202.945 807.18 203.257 806.905 203.66C806.968 203.567 805.651 204.24 805.862 204.244C805.273 204.232 805.672 203.634 805.222 203.453C804.778 203.275 804.237 203.235 803.862 202.909C803.787 203.938 804.76 204.846 805.099 205.766C805.301 206.313 805.565 206.787 805.42 207.368C805.291 207.881 806.073 208.03 805.962 208.51C805.913 208.724 804.436 207.238 804.311 207.039C803.575 205.87 802.932 207.734 803.149 208.417C802.521 208.506 802.299 206.726 801.844 206.406C801.552 206.202 801.665 205.636 801.192 205.684C800.573 205.746 800.679 206.534 800.733 206.956C799.481 206.744 799.05 205.301 799.551 204.269C799.959 203.429 797.497 201.817 797.1 201.24C797.595 201.084 797.844 200.387 798.2 200.055C798.547 199.731 798.952 200.08 799.333 199.747C799.594 199.518 799.881 198.992 800.299 199.073C801.064 199.22 801.584 200.007 802.435 200.083C803.098 200.142 803.531 200.626 804.068 200.948C804.494 201.204 804.701 200.696 805.143 200.429C805.5 200.214 805.981 199.895 805.184 199.797C804.75 199.743 804.379 199.808 803.983 199.561C803.53 199.278 803.434 198.776 803.068 199.362C802.857 199.06 802.606 198.795 802.314 198.57C802.381 199.654 800.829 198.797 800.386 198.896C799.256 199.149 798.536 199.503 797.934 198.445C797.855 198.825 797.506 199.105 797.187 199.279C796.973 198.591 796.799 197.838 796.192 197.387C795.872 197.149 794.968 196.503 795.431 196.024C795.605 195.844 797.895 196.565 796.851 195.607C796.528 195.312 795.313 195.239 795.391 195.982C795.048 194.971 794.11 194.827 793.453 194.173C792.992 193.714 793.066 192.465 792.262 192.394Z" fill="#AC2A21"/>
<path d="M765.03 160.807C765.281 160.645 765.503 160.45 765.697 160.223C765.304 160.135 764.959 159.918 764.613 159.722C765.176 158.691 766.123 158.469 767.208 158.73C767.615 158.828 768.992 159.401 769.341 159.093C770.033 158.479 770.65 157.801 771.651 157.864C772.179 157.897 772.819 158.158 773.317 157.855C773.827 157.544 774.442 157.516 774.962 157.845C774.515 157.284 775.211 156.404 775.818 156.889C776.289 157.266 776.859 158.253 777.21 158.763C776.743 158.691 775.223 158.258 776.046 159.222C775.582 159.204 775.323 158.898 775.13 159.434C775.022 159.734 773.869 160.006 773.527 160.212C773.262 160.372 773.748 161.164 773.727 161.506C773.696 162.04 772.451 162.08 771.955 162.517C772.158 162.584 772.332 162.762 772.54 162.809C772.169 162.885 772.438 164.223 771.721 163.764C770.899 163.238 770.106 163.48 769.324 162.726C769.06 163.365 768.138 163.913 767.433 163.597C767.143 163.467 767.151 163.459 766.921 163.686C766.573 164.031 765.845 163.736 765.448 163.644C765.886 163.257 766.787 163.111 766.451 162.517C766.185 162.047 764.976 162.171 765.576 161.391C765.274 161.322 765.081 161.111 765.03 160.807Z" fill="#AC2A21"/>
<path d="M815.961 150.046C816.364 149.812 816.34 149.986 816.504 149.603C816.615 149.345 817.031 149.375 817.242 149.389C817.883 149.429 818.656 149.484 819.214 149.065C820.375 148.197 821.281 150.689 822.468 150.129C822.608 150.851 823.044 150.215 823.175 150.964C823.33 150.247 824.23 150.501 824.572 150.898C824.741 151.095 824.9 151.485 825.211 151.503C825.564 151.525 825.654 151.226 825.922 151.575C826.571 152.419 825.914 153.188 826.518 153.967C826.7 154.174 826.89 154.375 827.086 154.569C827.32 154.828 827.471 154.308 827.697 154.587C828.136 155.129 827.658 155.903 828.265 156.36C828.663 156.661 830.72 157.95 829.479 158.39C829.863 158.549 830.074 158.933 830.481 159.057C829.546 160.045 827.681 157.898 827.057 159.182C826.954 158.934 826.857 158.685 826.768 158.431C825.267 158.977 826.483 160.079 825.66 161.171C825.184 161.802 824.883 162.249 824.554 162.938C824.483 163.088 824.513 163.415 824.302 163.469C824 163.545 823.435 163.283 823.383 163.814C822.83 163.339 823.241 162.812 822.958 162.246C822.671 161.67 822.584 160.944 822.616 160.308C822.657 159.539 823.204 158.841 822.972 158.057C822.779 157.401 822.435 156.631 821.921 156.162C820.744 155.089 819.48 153.916 818.666 152.528C818.015 151.419 817.429 150.123 815.961 150.046Z" fill="#AC2A21"/>
<path d="M733.685 129.644C734.199 129.374 734.635 128.821 735.278 129.104C735.761 129.316 735.555 129.646 735.276 129.869C735.003 130.087 734.727 130.301 734.451 130.515C734.038 130.837 733.419 130.252 732.973 130.27C733.11 129.972 733.37 129.739 733.685 129.644Z" fill="#AC2A21"/>
</svg>
