<svg width="1538" height="669" viewBox="0 0 1538 669" fill="none" xmlns="http://www.w3.org/2000/svg">
<path d="M893.31 147.71C893.502 147.072 893.462 146.567 894.057 146.179C894.359 145.983 894.605 145.487 894.394 145.147C893.91 144.368 893.328 144.562 893.304 143.461C893.277 142.225 893.717 142.199 894.305 141.269C894.688 140.662 894.189 139.717 894.715 139.188C895.899 137.997 897.965 141.782 899.011 141.92C899.638 142.003 901.311 141.392 900.428 140.626C899.752 140.039 899.812 138.361 898.901 138.072C900.121 138.392 900.296 137.581 901.314 137.239C902.314 136.902 900.914 136.08 901.96 135.881C902.927 135.696 903.836 135.373 904.755 134.914C905.555 134.514 904.988 132.914 906.283 133.525C906.171 133.247 906.058 132.968 905.947 132.691C906.34 132.775 908.173 133.055 908.282 133.368C908.713 134.606 909.329 133.321 909.828 134.15C910.127 133.782 910.144 133.366 910.582 133.107C910.774 133.132 910.966 133.131 911.158 133.104C911.4 132.923 911.652 132.757 911.914 132.607C912.71 135.159 915.186 133.264 916.799 134.35C917.57 134.87 918.308 135.181 919.09 135.632C919.411 135.818 919.665 136.115 919.881 136.41C920.211 136.86 920.789 136.869 921.26 137.071C921.054 137.424 921.284 139.01 921.93 138.645C922.91 138.092 921.407 136.915 921.219 136.362C921.763 135.988 922.817 136.584 923.204 136.971C923.884 137.649 924.882 137.61 925.49 138.152C926.162 138.751 926.64 138.415 927.282 137.836C927.498 137.642 927.369 137.259 927.604 137.095C927.964 136.842 928.469 136.645 928.434 136.112C928.76 136.132 929.051 136.243 929.308 136.446C929.341 135.83 931.062 135.727 931.333 136.17C931.504 136.448 931.913 136.683 932.181 136.853C932.661 137.158 933.044 136.601 933.526 136.821C933.49 135.573 933.409 135.975 934.597 136.045C935.213 136.082 935.456 135.561 936.126 135.958C936.607 136.243 936.781 136.613 936.995 137.088C937.291 137.748 941.237 138.077 940.827 138.74C941.338 138.706 941.858 138.617 942.118 138.115C942.266 137.832 941.962 137.231 942.348 137.071C942.855 136.862 943.138 137.591 943.498 137.781C943.965 138.028 944.78 138.023 945.302 138.011C945.911 137.998 947.588 137.76 947.723 136.994C947.807 136.507 947.291 135.204 948.087 135.111C947.503 134.918 947.335 134.285 946.671 134.205C946.111 134.138 945.517 134.276 945.054 133.862C944.61 133.466 944.41 133.36 943.772 133.357C942.985 133.352 942.966 133.027 942.377 132.579C941.948 132.253 941.595 132.171 941.088 132.118C940.596 132.067 940.54 131.542 941.114 131.597C941.561 131.639 941.907 131.017 942.319 130.878C943.081 130.622 943.423 130.306 944.123 129.937C943.869 129.773 942.348 128.428 942.312 128.207C942.23 127.703 943.479 127.46 942.953 126.85C944.083 126.722 945.037 126.988 946.128 126.933C946.434 126.917 946.944 127.232 947.013 126.719C947.088 126.167 946.412 126.07 946.039 125.974C945.121 125.737 944.107 125.614 943.219 125.293C942.039 124.867 944.253 124.352 944.285 124.305C944.018 123.907 943.763 123.961 943.364 124.057C942.769 124.202 942.203 123.869 941.701 123.596C943.119 123.479 941.981 122.554 941.573 122.219C941.854 122.164 942.133 122.179 942.407 122.261C942.179 121.435 944.256 121.959 944.566 122.081C945.234 122.345 945.368 121.997 945.994 121.886C946.693 121.761 946.803 122.427 947.414 122.47C947.236 121.364 948.332 121.511 949.168 121.511C949.224 121.372 949.28 121.232 949.337 121.093C949.611 121.049 949.886 121.038 950.164 121.059C950.738 121.035 951.16 120.969 951.742 121.015C952.327 121.06 952.197 120.43 952.786 120.422C953.384 120.413 953.941 120.171 954.543 120.28C954.982 120.36 955.361 119.912 955.784 120.209C956.357 120.611 956.311 120.25 956.307 119.801C956.296 118.44 960.035 118.828 960.82 118.641C961.918 118.378 963.182 117.88 964.309 117.88C964.764 117.88 965.147 117.332 965.425 117.355C965.94 117.396 966.437 117.371 966.812 116.921C966.436 116.853 966.23 116.287 966.685 116.346C967.173 116.409 967.927 116.068 967.733 115.503C968.075 115.6 968.422 115.628 968.776 115.586C968.653 115.445 968.527 115.306 968.4 115.169C968.838 115.19 969.242 115.447 969.676 115.502C970.127 115.558 970.594 115.444 971.075 115.533C971.412 115.596 974.147 116.993 974.259 116.136C974.389 115.152 975.909 116.152 976.295 116.519C976.657 116.862 976.73 117.153 976.93 117.597C977.189 118.175 977.892 118.442 978.412 118.715C977.859 119.29 979.359 120.543 978.163 120.634C978.946 121.6 979.526 120.9 980.269 121.346C980.698 121.603 981.151 121.32 981.247 120.902C981.351 120.454 982.378 121.052 982.665 121.011C982.347 120.851 982.163 120.534 982.248 120.176C982.858 120.447 983.297 121.26 984.003 121.303C983.417 121.737 983.998 121.873 984.253 122.429C984.488 122.174 984.78 122.048 985.128 122.054C984.939 121.765 984.628 121.607 984.293 121.762C984.905 120.034 987.752 123.631 988.506 121.595C988.815 121.838 989.051 122.188 989.05 122.596C988.262 122.486 988.058 122.878 987.766 123.521C987.564 123.963 988.72 124.309 988.842 124.683C989.401 124.164 989.752 123.669 990.591 123.723C991.242 123.764 991.872 124.429 992.469 124.433C992.389 123.21 993.047 123.161 993.929 122.847C994.353 122.696 995.605 122.188 995.059 121.554C995.556 121.511 996.034 121.377 996.499 121.199C996.811 121.076 997.122 120.947 997.431 120.816C997.555 120.666 997.668 120.509 997.77 120.345C998.047 120.246 998.411 120.543 998.65 120.287C999.044 119.865 999.273 119.961 999.81 119.761C999.69 119.907 999.58 120.06 999.479 120.22C999.869 120.32 1000.03 120.712 999.769 121.037C999.452 121.43 999.033 121.138 998.646 121.387C1000.41 122.723 1002.47 123.49 1004.38 124.566C1006.3 125.645 1007.93 127.159 1009.58 128.593C1011.47 130.231 1013.25 131.967 1015.06 133.684C1016.15 134.715 1017.68 137.158 1019.21 137.492C1018.46 136.702 1020.8 136.979 1020.09 136.016C1019.48 135.188 1020.49 135.557 1020.47 134.905C1020.93 135.093 1022.42 135.083 1022.58 135.612C1022.76 136.212 1022.36 136.769 1023.34 136.574C1024.14 136.416 1024.29 137.527 1024.97 137.659C1025.33 137.729 1025.66 137.507 1026.01 137.472C1026.5 137.423 1026.93 137.76 1027.43 137.737C1028.35 137.694 1028.68 137.449 1029.34 136.925C1029.5 136.798 1029.83 136.903 1030.01 136.867C1030.34 136.803 1030.3 136.496 1030.58 136.408C1032.58 135.793 1034.74 138.17 1035.87 139.418C1036.51 140.112 1037.31 140.181 1038.17 140.445C1039.16 140.752 1039.55 141.416 1040.26 142.093C1040.56 142.385 1040.81 142.556 1041.06 142.9C1041.44 143.425 1041.67 142.985 1042.16 143.165C1042.82 143.406 1043.71 143.113 1044.37 143.388C1045.21 143.735 1045.22 143.255 1045.76 142.831C1045.89 142.732 1047 141.895 1046.74 142.524C1046.25 143.761 1049.8 144.853 1050.37 145.628C1049.72 145.465 1047.67 145.245 1048.46 146.545C1049.01 147.455 1048.71 148.273 1047.76 148.682C1047.04 148.99 1045.64 148.557 1045.55 149.598C1045.4 151.235 1046.42 152.792 1047.3 154.071C1048.25 155.443 1046.36 155.536 1045.68 156.116C1045.14 156.588 1044.96 156.734 1044.42 156.145C1043.89 155.564 1042.77 155.847 1042.1 155.928C1040.58 156.111 1039.58 155.383 1038.24 154.884C1036.94 154.395 1037.34 157.435 1037.36 158.171C1037.41 159.605 1037.23 161.002 1037.21 162.421C1037.18 163.788 1039.36 163.086 1039.1 164.681C1038.99 165.36 1038.35 164.838 1038.01 164.675C1037.45 164.402 1036.98 164.859 1036.4 164.754C1035.92 164.668 1035.56 163.848 1035.11 164.056C1034.49 164.346 1033.37 164.786 1032.7 164.867C1031.8 164.976 1029.32 165.071 1028.89 166.115C1028.58 166.849 1032.09 166.36 1031.37 167.317C1030.72 168.184 1032.71 170.899 1033.19 171.515C1033.65 172.094 1034.36 172.749 1034.57 173.473C1034.72 173.993 1035.45 174.441 1035.19 175.041C1034.67 174.672 1034.23 175.245 1033.98 175.625C1034.29 175.755 1034.57 175.935 1034.81 176.168C1034.43 176.264 1034.09 176.479 1033.69 176.46C1033.77 176.873 1033.65 177.325 1033.84 177.716C1034.1 178.279 1034.77 178.842 1034.56 179.547C1033.6 178.979 1033.13 178.278 1031.93 178.262C1030.76 178.247 1030.34 177.347 1029.45 176.812C1028.69 176.356 1027.12 176.365 1026.25 176.273C1024.81 176.12 1023.35 176.175 1021.91 176.055C1021.43 176.015 1021.14 175.934 1020.7 175.751C1020.12 175.505 1019.61 175.851 1019.05 175.986C1018.53 176.11 1015.62 175.624 1015.52 176C1015.1 177.618 1009.76 174.599 1008.7 174.249C1008.9 174.614 1007.13 175.039 1006.91 175.161C1005.99 175.664 1006.55 177.766 1007.16 178.337C1006.68 178.497 1006.12 178.042 1005.71 177.877C1005.07 177.619 1004.3 177.633 1003.62 177.414C1002.44 177.029 1000.95 176.43 999.701 176.475C999.351 176.487 998.968 176.824 998.684 176.627C998.491 176.494 997.853 176.675 997.683 176.794C997.281 177.074 996.309 179.144 997.144 179.255C996.843 179.46 996.271 180.105 995.993 180.217C995.42 180.446 995.334 179.751 994.803 180.45C993.993 181.516 993.12 181.985 991.962 182.611C991.571 182.824 991.202 183.136 990.87 183.43C990.495 183.762 990.97 183.984 990.572 184.391C990.149 184.823 989.694 185.177 989.396 185.73C989.025 186.412 989.721 186.801 989.803 187.433C989.051 187.208 987.236 187.103 987.295 186.025C987.335 185.284 986.74 184.552 985.92 184.52C984.581 184.467 981.824 185.658 980.98 184.196C980.468 183.309 980.224 182.296 979.857 181.348C979.379 180.108 978.614 180.936 977.83 180.389C976.635 179.557 976.842 176.979 976.662 175.71C975.476 175.817 975.39 175.908 974.575 174.893C973.78 173.903 972.621 173.52 971.725 172.651C970.588 171.55 970.31 172.59 969.06 172.814C967.806 173.039 966.53 172.661 965.284 172.547C963.765 172.409 962.134 172.634 960.657 172.99C959.229 173.334 958.485 172.15 957.422 171.374C956.332 170.579 955.57 169.572 954.579 168.704C953.457 167.72 951.708 167.123 950.381 166.451C948.903 165.704 947.42 164.966 945.953 164.195C944.629 163.5 943.691 162.766 942.146 163.181C939.51 163.889 936.327 164.43 933.88 165.65C933.437 165.871 935.347 172.763 935.508 173.502C936.258 176.945 937.001 180.39 937.696 183.845C937.145 183.83 936.67 184.206 936.119 184.206C935.428 184.207 934.776 183.393 934.368 182.927C933.354 181.77 932.472 180.528 931.085 179.781C929.551 178.953 928.589 178.664 926.87 179.102C925.221 179.521 923.864 180.387 922.888 181.801C922.988 181.027 922.273 180.388 922.574 179.616C922.888 178.811 923.454 177.804 922.592 177.127C922.722 177.238 922.86 177.335 923.009 177.419C923.649 176.579 921.146 176.364 920.66 176.17C920.153 175.967 919.824 176.488 919.362 176.026C919.003 175.667 918.616 175.253 918.423 174.774C918.145 174.083 916.917 175.511 916.769 173.882C916.719 173.326 916.551 172.993 916.101 172.645C915.484 172.167 915.195 171.384 914.786 170.741C914.195 169.811 913.648 169.351 912.562 169.151C911.98 169.045 910.708 168.51 911.498 167.717C912.034 167.18 913.231 167.438 913.863 167.623C914.248 167.735 914.516 168.082 914.892 168.176C915.428 168.31 916.054 168.018 916.629 168.116C916.187 167.351 914.928 167.288 914.301 166.7C913.716 166.15 914.821 164.394 915.446 164.127C915.627 164.05 916.373 163.595 916.468 163.59C916.684 163.642 916.888 163.723 917.082 163.832C917.438 163.97 917.922 163.757 918.282 163.726C919.539 163.619 921.363 164.681 922.47 164.026C921.848 163.715 920.673 163.592 920.372 162.86C919.955 161.844 921.517 160.588 921.179 159.354C920.864 158.207 920.239 157.292 919.566 156.459C919.242 156.057 917.968 155.859 917.577 156.235C915.8 157.944 912.515 153.518 911.174 156.2C911.119 156.309 910.229 156.357 910.145 156.347C909.56 156.276 909.542 156.948 909.143 157.244C908.784 157.511 908.37 157.706 907.971 157.906C907.712 158.031 907.438 158.103 907.15 158.122C906.691 158.146 906.058 157.503 906.573 158.352C906.296 158.17 906.006 158.017 905.698 157.893C905.865 158.06 906.033 158.227 906.201 158.393C906.002 158.332 905.862 158.388 905.783 158.562C905.674 159.143 905.115 158.475 905.616 159.061C905.068 158.82 902.442 158.165 902.406 157.476C902.357 156.51 905.699 158.078 903.585 156.024C902.238 154.715 901.334 152.712 899.444 152.14C898.81 151.948 897.983 151.732 897.329 151.95C896.849 152.109 897.123 152.598 896.513 152.126C896.118 151.821 896.088 151.269 895.727 150.926C895.865 150.827 896.005 150.73 896.144 150.634C895.856 150.372 895.807 150.009 895.605 149.695C895.425 149.417 894.773 149.387 894.484 149.308C893.505 149.037 893.128 148.781 893.31 147.71Z" fill="#AC2A21"/>
</svg>
