<svg width="1538" height="669" viewBox="0 0 1538 669" fill="none" xmlns="http://www.w3.org/2000/svg">
<path d="M810.688 54.5896C811.459 54.312 812.576 54.2512 813.204 53.6851C813.671 53.2649 813.043 52.8472 813.863 52.6814C814.573 52.5377 816.385 52.5302 815.856 51.3353C816.459 51.5961 817.104 51.9241 817.783 51.7479C818.447 51.5764 818.205 51.0549 817.779 50.7512C818.378 50.8625 819.168 50.9679 819.7 51.2727C819.859 51.3643 820.486 50.9859 820.532 50.7512C820.604 50.3786 821.244 50.5316 821.487 50.5003C821.348 50.3757 821.209 50.2506 821.07 50.1254C821.637 49.9081 822.416 50.3097 822.906 50.56C823.631 50.9303 824.398 50.735 825.12 51.0433C824.965 52.1825 822.302 51.537 821.824 50.9598C821.713 51.0821 821.629 51.2212 821.574 51.3771C822.125 51.5996 822.713 51.7247 823.243 52.0029C822.946 52.0852 822.654 52.1825 822.368 52.2949C822.79 52.2648 823.148 51.9942 823.581 52.0336C824.068 52.077 824.544 52.2005 825.033 52.2121C824.945 52.3702 824.849 52.5232 824.744 52.6704C825.254 52.3326 826.058 52.0179 826.54 52.587C826.138 52.8066 825.95 52.8866 826.54 53.0042C825.756 53.1178 826.307 53.2835 826.622 53.3797C826.28 53.6167 825.068 53.6091 825.41 54.2975C825.803 53.4805 826.996 53.8056 827.039 52.7121C827.613 52.9173 828.249 52.711 828.838 52.726C829.488 52.7428 830.129 53.0349 830.769 53.1392C832.261 53.3826 833.584 52.9196 835.092 53.5158C836.781 54.184 838.547 54.7252 840.287 55.2473C841.781 55.6952 843.004 56.8165 844.559 57.0929C844.41 56.9631 844.258 56.8385 844.102 56.7174C845.316 57.3977 846.911 58.2692 848.355 58.0942C848.252 57.9366 848.141 57.783 848.024 57.6353C848.676 57.852 849.347 58.2842 849.852 58.7449C850.423 59.2653 851.137 59.1726 851.792 59.5005C852.384 59.7978 852.636 59.5973 852.889 60.3292C852.989 60.6195 853.339 61.5965 853.633 61.6712C855.068 62.0374 854.206 63.4281 853.419 64.1449C852.231 65.2256 851.245 65.837 849.665 66.2107C847.937 66.6198 846.397 66.8487 844.608 66.6662C842.617 66.4634 840.804 65.797 838.786 65.7089C837.08 65.6342 835.559 65.3369 834.012 64.6189C833.681 64.4654 832.295 64.6821 832.252 64.6068C831.865 63.9305 830.806 64.3918 830.961 63.6443C830.651 64.1247 830.174 64.0482 829.777 63.7306C829.508 63.5151 828.774 63.8425 828.389 63.7098C828.065 63.5985 825.54 62.3133 826.789 62.2669C826.167 62.2912 825.473 62.2495 824.889 62.0166C824.338 61.7969 823.723 62.1046 823.157 62.0166C823.951 62.3509 824.844 62.213 825.579 62.7258C825.445 62.884 825.306 63.037 825.161 63.1848C825.594 63.1123 827.545 63.9253 826.453 63.8106C827.032 64.0035 827.746 63.861 828.25 64.2695C827.757 64.0644 827.363 64.521 826.871 64.4364C827.516 64.5958 828.339 64.1386 828.875 64.6867C828.355 64.543 827.74 64.5141 827.247 64.7708C827.78 64.8901 829.014 65.0408 829.541 64.9371C829.731 65.6318 829.002 65.5015 828.579 65.6469C830.018 65.7211 831.754 65.9418 833.007 66.7235C833.3 66.9067 835.109 68.5587 833.922 68.2753C834.52 69.1063 832.833 69.5641 833.176 69.9228C833.515 70.2786 834.984 70.818 834.38 71.4879C834.994 71.5707 834.997 72.4063 835.591 72.4475C835.42 72.5373 835.254 72.6346 835.092 72.7395C835.246 72.8346 835.399 72.9319 835.55 73.0316C835.427 73.1724 835.301 73.3109 835.174 73.4488C835.739 73.6342 836.278 73.972 836.812 74.2316C837.473 74.5521 837.901 73.9726 838.591 74.3093C838.833 74.3748 839.028 74.5057 839.177 74.7016C839.531 75.182 839.483 74.6019 839.803 74.7845C840.405 75.1252 840.792 75.7371 841.472 75.9532C842.301 76.2169 843.178 76.2916 844.016 76.5454C844.813 76.7871 844.964 76.1682 845.522 76.2244C847.564 76.4295 845.764 75.0962 846.23 74.493C845.655 74.3186 845.272 73.8927 844.628 74.085C844.13 74.234 843.517 74.2971 843.079 73.9477C842.146 73.2014 840.987 72.6793 840.261 71.6977C841.226 71.7469 841.273 71.518 841.613 70.8389C841.929 70.2084 842.876 70.6859 843.349 70.7804C844.597 71.0295 845.469 72.3965 846.855 71.9897C846.624 72.2435 846.287 72.393 845.94 72.3652C846.122 73.1707 846.822 72.4145 847.412 72.3617C848.345 72.2783 849.292 72.5802 850.142 72.9337C850.951 73.2703 851.332 73.2286 852.152 73.0374C852.692 72.9116 853.902 73.286 854.445 73.4499C854.077 72.579 853.501 71.8269 852.794 71.204C852.319 70.785 850.802 70.1256 850.722 69.465C850.639 68.7777 851.874 68.4567 852.295 68.1878C853.065 67.6965 853.602 67.1176 854.526 66.9072C855.435 66.7004 856.19 66.4848 856.839 65.7738C857.368 65.1949 857.877 64.5847 858.749 64.8409C859.636 65.1005 860.056 65.1329 860.974 65.1735C861.559 65.199 862.804 65.3856 862.957 66.107C862.621 66.1748 862.329 66.3278 862.082 66.5659C862.216 66.6928 862.368 66.7902 862.54 66.858C862.496 66.2733 863.244 66.2165 863.649 66.2855C864.412 66.4153 864.662 67.1749 865.211 67.609C864.549 66.7757 863.964 64.6184 865.46 64.1461C864.787 63.9705 865.014 63.1436 864.626 62.7276C863.938 61.9888 863.208 62.1348 862.387 61.7975C861.815 61.5623 862.127 60.8588 862.288 60.452C862.412 60.1368 862.56 59.8123 862.594 59.4716C862.637 59.0509 862.124 58.7982 862.836 58.764C862.496 58.5369 862.25 58.2814 862.876 58.1794C862.166 58.0919 862.737 57.3079 862.195 56.9799C861.295 56.434 860.033 56.0666 859.034 55.7595C859.586 55.1401 860.84 55.8111 861.458 55.9734C862.731 56.3077 864.217 55.8163 865.538 55.9368C866.802 56.0527 867.447 56.4398 868.459 57.0865C869.384 57.6776 870.583 57.9968 871.052 59.0967C869.624 59.5139 868.087 59.0631 866.671 59.5562C866.727 59.7092 866.783 59.8616 866.839 60.0145C866.303 60.1472 865.405 60.4943 866 61.1688C866.485 61.7193 867.356 61.5153 867.963 61.8085C868.532 62.0838 868.794 62.7258 869.31 63.0689C870.039 63.5533 871.077 63.2178 871.885 63.2682C871.766 63.4131 871.641 63.5521 871.509 63.6854C872.012 63.2746 872.904 63.343 873.515 63.241C873.901 63.1761 874.787 63.2752 875.102 63.1013C875.909 62.6557 874.987 62.242 875.133 61.6892C875.29 61.0929 875.749 60.5581 874.974 60.1808C875.363 59.8042 875.844 60.2562 876.344 59.8876C876.869 59.5005 878.527 59.661 879.059 59.9722C878.574 59.5457 878.01 59.0712 877.396 58.8457C878.859 59.1534 879.757 58.4633 881.083 58.1104C882.021 57.8607 882.981 56.7985 884.098 56.7191C884.69 56.6768 885.409 56.8147 885.94 56.4752C886.445 56.1524 887.228 55.8812 887.825 56.084C888.388 56.2753 887.873 56.5221 888.058 56.9225C888.261 57.3617 889.371 56.5656 889.656 56.5094C889.288 56.157 888.825 55.8146 888.283 55.8418C889.517 54.33 892.734 54.0258 894.5 54.0895C893.711 54.6064 892.725 54.2141 891.869 54.465C892.317 54.6215 892.799 54.6023 893.248 54.7571C892.038 54.8677 893.456 56.2399 893.619 56.5094C893.169 57.0129 891.669 56.3164 891.661 57.3015C892.424 57.4423 894.179 57.7146 894.749 57.0094C894.715 57.7529 895.346 57.2737 895.684 57.1056C896.082 56.9069 896.544 57.7778 897.084 57.5518C896.66 55.3064 901.442 55.4426 902.737 55.7804C903.158 55.8905 903.592 56.0377 904.027 55.8986C904.474 55.756 904.739 55.289 905.22 55.2832C905.524 55.2797 905.986 55.2583 905.92 54.8834C905.825 54.3485 907.196 55.0636 907.264 55.0908C907.141 54.9604 907.029 54.822 906.928 54.6736C907.665 53.9962 908.702 54.2361 909.599 54.0889C908.476 54.1886 910.53 54.9622 910.85 55.1737C909.491 55.5202 910.324 56.5818 911.271 56.7388C911.648 56.8014 912.799 57.1189 913.031 56.5957C913.194 56.2283 912.441 55.7705 912.184 55.6743C912.592 55.0688 916.239 55.6234 915.057 53.7488C914.699 53.1815 914.106 53.7505 913.641 53.1004C913.149 52.412 912.309 52.0863 911.604 51.6691C911.868 51.191 912.108 51.5092 912.479 51.2942C912.632 51.2797 912.784 51.2652 912.937 51.2525C912.972 51.0752 913.024 50.9036 913.096 50.7373C913.589 50.3334 914.206 50.5148 914.755 50.6556C915.669 50.8891 916.635 50.91 917.572 50.9361C919.24 50.983 920.926 51.0392 922.567 51.3649C924.281 51.7039 925.905 52.3992 927.618 52.7539C926.728 52.9596 927.521 53.8409 927.762 53.2557C927.99 52.7034 930.034 53.4452 930.579 53.5048C929.399 53.4828 931.595 54.0519 931.888 54.1098C932.654 54.261 933.42 54.4378 934.194 54.5415C935.937 54.775 937.504 56.04 939.254 56.4763C939.361 56.503 942.034 58.29 941.416 56.8333C941.254 56.4508 941.583 55.9554 941.708 55.6094C941.971 54.8828 941.045 54.5351 941.761 54.4644C941.33 54.1127 940.928 54.4743 940.469 54.4644C939.925 54.4528 939.497 54.0965 939.049 53.8386C938.65 53.6086 938.244 53.3866 937.865 53.1218C937.354 52.7637 937.471 52.2509 937.131 51.7943C936.644 52.1883 935.763 51.8789 935.246 51.7271C934.637 51.5474 933.249 50.7611 933.168 51.5862C932.379 51.4101 932.392 50.5009 932.247 49.8757C932.46 49.8988 933.711 49.9719 933.375 49.4469C933.193 49.1623 932.931 49.0917 932.665 48.9335C932.437 48.7984 932.42 48.1297 932.323 47.924C931.967 47.1702 932.074 46.1752 930.864 46.5055C930.348 46.6457 928.955 46.3015 929.911 45.7035C928.842 45.9457 929.609 44.5313 930.313 44.3632C931.212 44.1477 932.305 43.7345 932.892 42.9789C933.668 41.9811 932.705 40.2983 932.799 39.1846C932.838 38.7141 933.074 38.2111 933.459 37.9254C933.788 37.6814 934.972 37.8095 934.001 38.0268C935.561 38.2818 937.021 38.0175 938.568 37.9271C939.391 37.879 940.213 37.8999 940.989 38.1885C941.633 38.4284 942.308 38.2308 942.981 38.3583C943.965 38.5449 945.586 39.6261 945.631 40.7451C945.648 41.1907 945.596 41.944 945.28 42.2992C945.065 42.5402 945.482 42.8549 945.259 43.1759C945.071 43.4471 944.624 43.4564 944.35 43.5757C945.49 45.3199 948.398 44.6159 949.231 46.6875C949.429 47.1771 949.331 47.3712 949.704 47.7658C950.143 48.2288 949.31 48.2161 949.461 48.7196C949.673 49.4254 951.101 50.0709 951.139 50.8463C951.171 51.5103 951.435 51.5434 951.773 52.044C951.707 52.7202 952.302 52.5545 952.033 53.1583C951.547 54.2495 954.765 55.1366 955.318 55.3406C955.757 55.5022 956.32 55.5434 956.698 55.8412C957.349 56.3552 956.81 56.5395 956.57 57.0929C956.378 57.5338 956.364 57.6497 956.662 57.9812C957.122 58.4929 956.935 59.176 957.323 59.5544C955.852 59.7677 956.245 61.1792 955.237 61.5982C955.382 61.746 955.535 61.885 955.695 62.016C955.395 61.9551 955.103 61.9824 954.82 62.0994C956.076 62.3654 954.055 62.9866 953.736 63.0248C952.823 63.1344 951.965 63.7335 951.061 63.9566C950.145 64.1826 949.613 63.5127 948.748 63.4855C947.82 63.4565 946.742 63.132 945.851 63.518C946.836 63.8343 947.171 64.7117 948.343 64.8484C949.468 64.9799 950.55 65.3352 951.681 65.4313C952.877 65.5339 954.046 65.323 955.24 65.5403C955.842 65.6492 956.427 66.0595 957.052 66.0375C957.436 66.0241 958.006 65.5281 957.884 65.1434C957.553 64.0957 958.498 64.47 959.145 63.9815C959.825 63.4675 961.105 63.5846 961.325 62.5589C961.544 61.5368 960.799 60.8403 962.034 60.2452C964.019 59.2879 961.524 57.6486 960.531 57.0987C959.777 56.6809 960.036 56.4433 959.728 55.7659C959.307 54.8399 960.866 54.877 961.446 54.7426C962.607 54.4731 964.185 53.8954 965.38 54.2234C966.105 54.4221 966.759 55.2409 967.527 55.5416C968.46 55.9079 969.048 55.9206 969.581 56.8553C969.83 57.291 970.023 57.7558 970.221 58.2159C970.384 58.5919 970.994 59.2502 970.169 59.0109C971.671 60.8837 974.932 59.8679 976.884 60.2625C976.592 60.0829 976.13 59.6952 975.782 59.9438C975.416 60.2057 975.431 59.8245 975.094 59.8036C974.076 59.7399 973.112 59.5452 972.106 59.4183C971.532 59.3458 970.935 58.3764 971.021 57.823C971.097 57.3438 972.398 57.4591 972.118 57.0987C971.791 56.678 971.243 56.5012 970.841 56.1738C970.072 55.5474 969.939 54.7084 968.893 54.4349C967.878 54.1695 966.973 53.9557 965.989 53.5918C965.123 53.2713 963.98 53.3565 963.043 53.1201C961.943 52.8419 961.299 53.2429 960.254 53.4753C959.233 53.7024 957.956 53.7557 956.915 53.6752C956.157 53.6167 956.087 52.4943 955.582 52.055C954.815 51.3869 954.137 51.2658 954.018 50.1434C953.974 49.7337 953.863 49.3362 953.976 48.9253C954.071 48.5736 954.64 48.0254 954.604 47.6998C954.546 47.1794 953.555 46.7193 953.176 46.4922C951.602 45.5505 950.101 44.5145 948.308 44.0329C948.597 43.7762 948.96 43.49 949.102 43.1151C949.2 42.8572 949.089 42.4626 949.31 42.2656C950.05 41.609 951.225 41.8003 952.077 41.379C953.783 40.5365 950.856 38.7361 950.185 38.2754C951.733 37.4908 954.612 39.6621 954.371 41.273C954.207 42.3734 954.301 42.5188 955.105 43.1232C955.48 43.4048 956.221 44.0526 955.238 43.9495C955.953 44.7376 957.435 44.7202 958.407 44.8262C959.308 44.9241 960.927 44.4281 961.496 45.4103C961.57 43.6372 967.585 47.7734 968.292 45.6606C967.723 46.0014 967.15 45.787 966.542 45.911C966.541 45.758 966.541 45.6056 966.542 45.4526C965.834 45.7337 965.628 45.0708 965.149 44.7358C964.741 44.4496 964.034 44.9276 963.911 44.2427C963.201 45.1206 961.188 44.1517 960.358 43.9257C959.754 43.7612 959.124 43.7177 958.525 43.5323C957.661 43.2657 957.087 42.491 956.402 41.948C957.497 41.7452 958.496 41.3338 959.618 41.656C960.774 41.988 962.031 42.8311 963.164 41.948C962.771 41.3599 961.96 41.0545 961.273 41.1797C960.862 41.2544 959.853 41.5308 960.157 40.7381C960.843 41.1229 961.822 40.1291 962.51 40.0526C963.23 39.9732 964.443 39.9692 965.447 40.1175C966.472 40.2693 967.425 40.6448 968.457 40.7735C969 40.8407 969.551 40.8998 970.078 41.0545C970.323 41.1264 971.646 41.7238 970.464 41.4885C971.539 41.7267 972.511 42.2691 973.565 42.5721C974.882 42.9511 976.272 42.8642 977.597 42.5733C977.34 42.123 976.877 41.875 976.424 41.6676C975.891 41.4242 975.66 41.2075 975.215 40.9044C974.051 40.1111 972.614 40.3209 971.3 40.1488C970.281 40.0161 968.911 39.6284 968.584 38.5141C968.287 37.5047 967.156 36.7949 966.043 36.858C967.129 36.8441 965.88 36.3197 965.579 36.3151C965.86 36.1557 966.913 35.4575 965.956 35.6481C966.79 34.619 969.714 34.9383 970.867 34.9383C972.951 34.9383 975.241 35.0026 977.29 34.6288C978.125 34.4759 978.842 34.8212 979.66 34.765C980.311 34.721 980.755 34.1583 981.477 34.1038C982.312 34.0407 984.199 34.4735 984.856 33.9787C984.578 33.8344 984.34 33.6397 984.144 33.3946H985.019C984.039 33.3042 983.224 32.8209 982.28 32.6645C981.531 32.5399 980.543 32.7896 979.973 32.1429C980.301 32.1551 980.621 32.2113 980.934 32.3098C980.673 32.074 980.368 31.9349 980.019 31.8926C980.601 31.9604 981.161 31.7663 981.731 31.9743C981.95 32.0369 982.145 32.1435 982.316 32.2953C982.556 32.4924 983.051 32.0919 983.31 32.1006C983.058 31.8416 982.638 31.7958 982.304 31.7495C982.088 31.7199 980.407 31.4424 981.601 31.392C980.973 31.3421 980.345 31.345 979.721 31.2529C979.419 31.2083 979.102 31.1497 978.827 31.0113C977.916 30.5523 979.716 30.7065 978.559 30.3489C979.63 30.1508 980.626 31.5571 981.687 31.0165C981.44 30.7667 981.102 30.419 981.849 30.6827C981.203 30.1878 982.241 29.7567 981.392 29.6391C981.886 29.5052 982.297 29.8471 982.771 29.89C982.812 29.117 980.701 29.4566 980.268 29.0556C981.319 28.7508 982.4 29.4954 983.422 29.157C984.221 28.8922 984.64 27.9847 985.563 28.0125C984.402 27.8995 986.383 27.9523 986.566 27.9291C986.954 27.8816 988.223 27.7964 987.777 27.3861C989.694 27.1932 991.65 26.9295 993.565 26.8194C995.217 26.725 997.065 26.7058 998.582 25.967C997.98 26.0858 997.392 26.0661 996.786 26.0087C996.489 25.9809 994.557 25.9943 995.743 26.1756C995.411 26.2255 994.466 25.8193 995.138 25.5197C995.864 25.1958 996.817 25.8459 997.661 25.5081C997.34 25.5075 997.035 25.438 996.745 25.2995C999.205 25.606 1001.71 24.7525 1004.13 25.5081C1003.8 25.7179 1003.51 25.9682 1003.25 26.2585C1003.73 26.2034 1004.21 26.0864 1004.66 25.9236C1005.24 25.7138 1005.59 26.1345 1006.13 26.1756C1006.69 26.2174 1007.1 25.7694 1007.67 25.8836C1008.16 25.9815 1008.76 25.894 1009.22 25.7167C1008.93 25.6193 1008.64 25.5498 1008.34 25.5087C1008.51 25.4484 1010.63 25.4693 1009.22 25.2166C1011.4 24.6412 1012.81 25.4444 1014.97 25.5915C1013.78 24.4083 1011.81 24.9669 1010.59 23.8392C1012.34 24.0142 1014.18 24.2588 1015.9 23.7882C1016.37 23.659 1017.2 24.0658 1017.76 24.0357C1018.72 23.9829 1019.68 24.2988 1020.64 24.2988C1020.12 24.184 1016.14 23.7488 1016.18 23.5055C1016.29 22.9446 1015.72 22.8727 1015.3 22.78C1014.56 22.6148 1014.33 21.7596 1015.18 22.0035C1015.04 21.8708 1014.9 21.7312 1014.76 21.5863C1015.15 21.2971 1015.55 21.0375 1015.93 20.7519C1015.69 20.6829 1015.44 20.6279 1015.18 20.5856C1016.12 20.7455 1016.86 19.8595 1017.74 19.714C1018.81 19.5385 1019.77 19.3206 1020.84 19.4782C1021.91 19.6347 1022.94 19.714 1024.01 19.9256C1025.25 20.1672 1026.5 20.0177 1027.62 20.7101C1026.88 20.6145 1026.34 21.0271 1025.67 21.223C1024.71 21.5029 1023.68 21.3128 1022.73 21.6697C1024.42 21.6199 1026.11 21.7682 1027.78 21.5034C1027.76 21.861 1027.49 22.0887 1027.15 22.1292C1028.83 21.9832 1030.87 21.5243 1032.53 22.0278C1033.71 22.3854 1032.61 23.8711 1031.91 23.7981C1032.85 24.1168 1033.96 23.8213 1034.93 23.7865C1035.41 23.7697 1036.8 23.6573 1035.87 23.0054C1037.16 22.8756 1038.42 23.0773 1039.71 22.9278C1040.89 22.7922 1042.11 22.9602 1043.3 22.9109C1044.18 22.8744 1049.09 23.0987 1049.14 24.3405C1049.63 23.7651 1050.72 24.2472 1051.23 24.5259C1051.57 24.7102 1052.61 25.2149 1052.73 25.5921C1053.02 25.0764 1053.54 25.1981 1054.02 25.3001C1053.6 25.1088 1053.13 25.0405 1052.73 24.7994C1053.82 24.5027 1054.54 25.5759 1055.4 26.0093C1055.96 26.2927 1056.17 26.0215 1056.73 26.2179C1057.27 26.4051 1057.35 26.966 1057.69 27.3444C1056.09 27.3467 1054.42 26.1235 1052.77 26.4265C1053.47 26.6925 1054.26 26.6195 1054.84 27.1538C1055.4 27.6666 1055.91 27.1161 1056.57 27.2778C1057.07 27.4024 1059.36 28.0966 1058.5 28.9542C1058.08 29.3691 1057.8 29.7631 1057.21 29.9398C1056.98 30.0111 1056.32 29.9306 1056.2 30.2087C1056.11 30.4219 1056.18 30.7899 1055.94 30.9319C1055.63 31.1242 1055.14 30.6931 1054.76 30.9069C1053.86 31.414 1053.38 31.5142 1052.35 31.6829C1052.51 31.7761 1052.66 31.8735 1052.81 31.9749C1052.22 32.2953 1051.56 32.1847 1050.94 32.3504C1051.38 32.479 1051.86 32.3052 1052.27 32.559C1052.04 33.5916 1050.41 33.3604 1049.81 34.061C1049.51 34.4017 1049.76 34.7076 1049.14 34.8253C1048.49 34.9481 1047.7 34.9278 1047.09 35.144C1046.72 35.2738 1046.14 35.5983 1046.14 36.063C1046.14 36.5573 1045.22 36.2913 1044.95 36.3272C1044.23 36.4217 1044.52 37.0342 1044.57 37.4485C1044.65 38.094 1043.51 38.4724 1043.05 38.4834C1044.12 38.6741 1045.03 38.3623 1045.8 37.6067C1045.48 37.4908 1045.17 36.8557 1045.74 36.8377C1046.29 36.8204 1046.81 36.9229 1047.38 36.8743C1048.13 36.8105 1048.87 36.9426 1049.62 36.8598C1049.9 36.8285 1051.99 36.6158 1050.89 36.3974C1051.38 36.3556 1051.86 36.2647 1052.35 36.22C1052.88 36.1714 1053.47 35.6336 1054.02 35.8133C1053.71 35.7368 1053.42 35.6255 1053.14 35.4795C1054.72 35.8567 1056.06 35.2773 1057.52 34.7702C1056.28 33.6136 1053.92 36.0045 1052.98 34.2279C1053.46 34.1114 1053.25 33.8883 1053.54 33.6397C1053.95 33.2874 1055.1 33.5145 1055.57 33.602C1055.79 33.6443 1057.15 34.2041 1057.18 33.6635C1057.22 33.1651 1057.79 33.3326 1058.11 33.518C1056.75 33.6606 1059.8 34.7239 1060.25 34.7917C1061.07 34.9163 1062.75 35.1683 1063.36 34.3942C1063.03 34.207 1062.72 33.9648 1062.45 33.6843C1063.42 34.0233 1064.74 34.3519 1065.52 35.0484C1065.92 35.4065 1065.35 35.7652 1066.27 35.9975C1067.17 36.2241 1067.39 36.4443 1068.29 36.1459C1067.6 36.2983 1066.71 35.9645 1066.16 35.5618C1069.53 34.7818 1072.99 34.7899 1076.41 35.1289C1077.97 35.2831 1081.7 34.4063 1082.8 35.7698C1082.35 35.8005 1081.87 35.5693 1081.51 35.9784C1082.45 36.9896 1084.12 37.208 1085.42 37.2892C1087.3 37.4068 1089.18 37.6675 1091.06 37.7695C1092.63 37.8541 1094.3 37.7574 1095.87 37.6658C1096.54 37.627 1097.26 37.8779 1097.93 37.7603C1099.19 37.5377 1097.39 36.9803 1098.33 36.7294C1097.5 36.5695 1095.79 35.7976 1095.94 34.7273C1096.32 34.9881 1096.81 35.3051 1097.24 34.8937C1097.08 34.7442 1096.91 34.6051 1096.74 34.4764C1097.47 34.7882 1098.24 34.5014 1098.99 34.6433C1099.98 34.8305 1100.9 34.8479 1101.84 35.2303C1102.13 35.3306 1102.44 35.3926 1102.75 35.4152C1103.02 35.4424 1103.05 35.8376 1103.29 35.8532C1104.07 35.9048 1104.7 35.1631 1105.5 35.5195C1104.46 35.7849 1105.53 35.9987 1105.86 36.0253C1106.4 36.0671 1106.93 35.8602 1107.46 35.8532C1107.31 35.7449 1107.15 35.6336 1107 35.5195C1107.8 35.1596 1109.18 35.6777 1110.06 35.7003C1110.55 35.713 1111.23 35.9465 1111.95 36.2739C1112.8 36.6604 1113.72 36.4715 1114.6 36.8128C1114.8 36.8928 1114.67 37.175 1114.82 37.2741C1115.1 37.4497 1115.39 36.9386 1115.8 37.2295C1115.6 37.7145 1115.07 37.8628 1114.6 37.897C1115.51 38.2006 1116.5 38.0761 1117.43 38.2719C1117.07 38.4933 1116.65 38.3785 1116.26 38.5228C1116.88 38.5599 1117.48 38.6694 1118.09 38.7309C1117.89 38.9939 1117.5 38.9505 1117.22 38.8977C1117.38 39.0107 1117.55 39.1081 1117.72 39.1898C1117.24 39.5873 1116.65 39.37 1116.1 39.3567C1116.93 39.8811 1117.94 39.5409 1118.85 39.6904C1119.75 39.8388 1120.42 40.5324 1121.31 40.6918C1121.01 40.8604 1120.55 41.1188 1121.35 41.0672C1119.99 41.9191 1118.44 40.8384 1117.05 40.65C1117.62 41.397 1121.33 43.3017 1122.1 42.3606C1121.64 42.0958 1121.15 41.8739 1120.68 41.6091C1121.6 41.8119 1122.48 42.2389 1123.27 42.7355C1122.78 42.4985 1122.34 42.823 1121.85 42.819C1121.9 43.2808 1122.41 43.3074 1122.76 43.3277C1123.47 43.3683 1124 43.698 1124.59 44.0648C1125.98 44.9218 1127.59 45.0221 1129.06 45.6676C1130.25 46.188 1131.51 46.243 1132.73 46.7298C1134.57 47.4639 1133.1 45.0702 1134.03 44.8222C1133.21 44.73 1132.34 43.457 1132.17 42.7303C1131.84 41.2903 1133.76 42.604 1134.27 42.7755C1135.73 43.2762 1136.95 43.8863 1138.53 44.019C1139.39 44.0909 1141.26 43.6992 1141.79 44.6136C1141.59 44.3036 1141.15 43.6389 1141.85 43.6957C1142.41 43.7409 1143.04 43.1898 1143.63 43.1325C1144.28 43.0681 1144.94 43.1649 1145.58 43.2802C1148.16 43.7461 1150.6 44.7839 1153.18 45.1977C1152.79 44.8859 1152.29 44.9885 1151.84 44.8227C1152.15 44.7735 1152.46 44.7735 1152.76 44.8227C1152.59 44.7312 1152.43 44.6338 1152.26 44.5307C1152.56 44.4177 1152.87 44.3754 1153.18 44.405C1151.95 44.0868 1151.7 44.515 1151.06 43.3202C1151.54 43.2935 1152.06 43.0699 1152.43 43.5288C1152.47 42.633 1153.99 43.4546 1154.34 43.6273C1155.46 44.1622 1156.42 43.4367 1157.52 43.7791C1156.17 42.9308 1154.58 42.1537 1153.06 41.8182C1153.35 41.8263 1153.64 41.8124 1153.93 41.7771C1153.64 41.583 1153.44 41.2608 1153.55 40.9004C1153.88 41.0452 1154.2 41.0319 1154.52 40.8592C1154.02 40.7028 1153.54 40.7248 1153.04 40.8169C1152.66 40.8865 1150.96 40.7798 1152.05 41.1096C1151.64 41.0244 1149.91 40.059 1151.03 39.6789C1151.6 39.4865 1152.28 39.6551 1152.86 39.6649C1153.67 39.6789 1154.39 39.2634 1155.18 39.2738C1154.6 39.3248 1154.11 38.7546 1153.58 38.597C1153.07 38.4429 1152.51 38.3501 1152.1 37.9804C1153.77 38.1618 1155.56 38.6903 1157.22 38.6903C1159.14 38.6903 1161.07 38.7807 1162.99 38.9406C1166.49 39.2327 1170.83 38.867 1174.12 40.2757C1172.79 40.3209 1171.31 40.3412 1170 40.1181C1169.24 39.99 1167.13 39.3016 1167.37 40.6512C1167.06 40.4953 1166.74 40.4536 1166.4 40.526C1167.02 40.9467 1167.59 40.9334 1168.24 40.7091C1169.18 40.3852 1170.55 40.4733 1171.54 40.4078C1173.07 40.3076 1175.17 40.11 1174.21 42.1943C1173.64 41.9364 1173.75 40.8824 1173.04 40.9009C1173.01 41.0533 1172.98 41.2063 1172.96 41.3599C1172.58 40.9629 1171.71 40.5759 1171.16 40.6923C1171.64 40.7445 1171.57 41.2011 1171.95 41.3726C1172.36 41.5633 1172.87 41.5187 1173.12 41.9863C1172.21 41.8953 1171.3 41.9434 1170.41 41.7782C1170.7 41.9979 1172.25 42.4678 1171.24 42.5704C1171.92 43.0751 1174.92 43.0241 1175.03 41.8466C1175.1 40.949 1174.96 40.3186 1176.08 40.2763C1177.22 40.2334 1178.37 40.2885 1179.51 40.3899C1181.56 40.5753 1183.49 40.9044 1185.47 41.5047C1185.69 41.5731 1187.18 42.4244 1186.22 42.5003C1185.61 42.5478 1185.06 42.1578 1184.47 42.1526C1184.47 42.834 1184.19 42.5095 1183.63 42.5275C1184.34 43.9223 1186.9 42.3502 1187.94 43.2959C1188.69 43.9796 1188.99 43.5172 1190.05 43.654C1191.24 43.8069 1191.1 44.2195 1190.22 44.7804C1190.7 44.7544 1191.28 44.5626 1191.71 44.3505C1192.47 43.9709 1193.43 44.2346 1194.22 44.3719C1195.45 44.5857 1197.03 44.9137 1197.98 45.7818C1197.54 45.9098 1197.09 45.8223 1196.65 45.7818C1199.03 46.4522 1201.72 46.6991 1204.16 46.1573C1206.84 45.561 1209.62 45.0702 1212.37 45.3437C1215.2 45.6236 1218.05 45.7904 1220.85 46.3027C1222.13 46.5362 1223.36 46.9581 1224.59 47.3654C1225.93 47.807 1226.71 48.6849 1227.85 49.3692C1227.55 49.3304 1227.24 49.3165 1226.93 49.3275C1227.22 49.3964 1227.67 49.3142 1227.9 49.5506C1228.11 49.7575 1228.05 50.2546 1228.3 50.3943C1229.15 50.8497 1229.95 50.9152 1230.88 51.0323C1231.86 51.158 1232.82 51.2919 1233.76 51.6094C1234.92 51.9994 1235.87 51.2936 1237.04 51.2838C1238.18 51.2751 1239.31 51.2322 1240.44 51.2496C1241.6 51.267 1242.79 50.859 1243.91 51.205C1246.1 51.8829 1248.37 51.4344 1250.59 51.8655C1251.61 52.0626 1253.77 52.4352 1254.28 51.1783C1254.71 50.1347 1257.76 52.0347 1258.26 52.4137C1259.85 53.6254 1262.01 53.1091 1263.8 53.7517C1264.63 54.049 1265.24 54.7779 1266.1 54.99C1267.31 55.285 1268.55 54.7403 1269.78 55.1268C1269.42 55.0433 1269.09 54.8023 1268.94 54.4598C1269.23 54.5936 1269.51 54.7466 1269.78 54.9187C1269.51 54.7014 1269.24 54.5067 1268.94 54.3346C1269.08 54.1782 1269.22 54.0258 1269.36 53.8751C1268.17 52.9729 1266.75 52.547 1265.42 51.9165C1264.74 51.5972 1264.2 51.6256 1263.49 51.5828C1262.81 51.5422 1262.88 50.8254 1263.52 50.7883C1262.73 50.2262 1261.93 49.5726 1260.98 49.3275C1263.28 49.1728 1265.68 49.8125 1268 49.8849C1268.8 49.9099 1269.5 49.9892 1270.24 50.268C1270.71 50.4424 1271.98 51.0798 1272.4 50.5374C1271.96 50.4024 1271.51 50.2836 1271.07 50.1625C1271.98 50.046 1272.84 50.469 1273.74 50.4957C1274.64 50.5223 1275.55 50.4737 1276.45 50.4957C1278.42 50.5438 1280.04 50.3085 1281.98 50.7901C1283.88 51.2612 1285.85 51.4338 1287.76 51.8731C1289.57 52.2897 1291.57 51.8064 1293.26 52.7492C1292.8 52.6762 1292.36 52.5209 1291.89 52.4989C1292.65 53.2904 1293.91 52.7081 1294.84 53.0424C1295.96 53.444 1297.16 53.5802 1298.23 54.126C1297.64 53.9904 1297.07 53.772 1296.48 53.6671C1299.59 54.4337 1302.87 54.6898 1305.9 55.8366C1305.51 55.7114 1305.1 55.6141 1304.69 55.5446C1305.67 56.0811 1306.72 56.0313 1307.74 56.3755C1308.35 56.5789 1309.52 57.3641 1310.16 56.9213C1309.22 56.6565 1308.26 56.4277 1307.32 56.1704C1308.61 56.372 1309.86 56.7858 1311.12 57.1294C1310.11 56.9289 1311.16 57.4295 1311.41 57.3531C1312 57.1792 1312.48 57.5593 1313.01 57.7332C1313.49 57.8891 1314.08 57.7581 1314.59 57.8798C1315.35 58.0606 1316.08 58.3347 1316.85 58.5021C1318.35 58.8318 1319.89 59.0086 1321.36 59.4913C1321.82 59.6431 1324.27 61.334 1324.68 60.9683C1324.54 60.8484 1324.41 60.7371 1324.26 60.6345C1325.29 60.7591 1326.02 61.4806 1326.82 62.0623C1327.8 62.7733 1328.98 63.1123 1329.97 63.8054C1328.9 63.5429 1330.56 64.3356 1330.98 64.3883C1331.91 64.5048 1332.62 65.425 1333.56 65.3908C1333.2 64.3935 1335.43 66.0236 1335.69 66.1C1335.4 65.6382 1335.16 65.2036 1334.64 64.9626C1333.95 64.6375 1333.07 64.8154 1332.43 64.3895C1333.53 63.4884 1328.52 62.3017 1328.22 62.2617C1329.06 62.1545 1330.22 62.1191 1331.05 62.1493C1331.38 62.1609 1331.65 62.3863 1331.98 62.4286C1332.41 62.4859 1332.83 62.3254 1333.27 62.4286C1332.22 62.4286 1333.68 63.3244 1334.14 63.1795C1334.04 63.0214 1333.93 62.8678 1333.81 62.7206C1334.53 63.1662 1335.41 63.0121 1336.19 62.8875C1335.43 62.6441 1334.61 62.7357 1333.85 62.4697C1334.06 62.4593 1336.17 62.6372 1335.02 62.6372C1336.45 62.767 1338.11 62.6018 1339.45 63.1732C1340.33 63.5539 1341.13 63.9752 1342.07 64.2052C1342.66 64.3506 1346.93 65.0622 1346.75 65.9749C1347.05 65.6654 1347.51 65.6765 1347.88 65.8051C1348.1 65.8798 1349.2 66.3625 1348.12 66.2252C1348.82 66.4222 1349.5 66.3776 1350.12 66.8093C1348.75 67.4682 1350.58 67.9619 1350.66 68.7291C1349.23 68.6943 1347.94 67.9758 1346.54 67.7695C1347.53 68.2979 1349.46 68.1438 1350.04 69.2714C1349.57 69.2599 1349.14 69.042 1348.66 69.0211C1348.07 68.995 1347.51 69.2668 1346.91 69.2291C1348.02 68.9452 1346.08 68.9336 1345.59 68.787C1344.72 68.5228 1343.84 68.2018 1342.9 68.353C1343.83 68.5796 1344.79 68.6989 1345.58 69.268C1345.87 69.4743 1346.45 69.1782 1346.65 69.3897C1346.99 69.7692 1347.39 70.0978 1347.83 70.3556C1347.39 70.1911 1346.92 70.1841 1346.49 70.3973C1347.46 70.5173 1348.37 70.413 1349.02 71.2775C1349.19 71.4983 1349.22 71.7342 1348.88 71.7956C1348.29 71.9016 1347.62 71.7817 1347.62 72.3582C1348.02 71.9555 1349.27 72.2458 1348.7 72.9006C1349.55 72.5489 1351.7 73.4268 1352.33 73.9442C1351.56 74.2734 1350.8 73.3393 1350.08 73.7356C1350.6 73.7426 1351.01 74.1181 1351.21 74.5701C1349.81 75.2173 1348.96 73.3265 1347.74 73.0681C1349.95 74.4327 1347.72 74.1749 1346.46 73.6678C1344.67 72.9476 1342.49 72.9574 1340.82 72.0245C1341.98 72.7146 1339.73 72.1572 1339.4 72.0587C1338.49 71.7788 1337.69 71.4902 1336.87 70.982C1335.12 69.8973 1332.93 69.0738 1330.88 68.8873C1330.41 68.8444 1329.95 68.7296 1329.48 68.7296C1329.02 68.7296 1328.77 69.1579 1328.35 69.272C1327.53 69.4963 1326.13 69.4557 1325.31 69.2129C1324.54 68.9846 1324.1 68.1855 1323.29 68.0372C1322.35 67.8657 1321.55 67.3221 1320.67 66.9773C1321.58 67.0701 1320.27 65.3514 1319.46 65.3925C1319.66 65.6342 1319.76 65.9123 1319.75 66.2264C1318.86 66.362 1318.27 65.531 1317.5 65.2668C1317.66 65.3838 1317.81 65.509 1317.96 65.6423C1317.66 65.6573 1317.37 65.6301 1317.08 65.5583C1317.52 65.757 1317.96 65.9697 1318.42 66.1423C1318.04 66.4993 1317.43 66.6123 1317.08 66.1423C1317.36 67.0846 1318.45 67.609 1319.29 67.9329C1319.83 68.1444 1322.18 68.4405 1322.33 69.1208C1322.51 69.9633 1319.34 69.1457 1321.63 70.0647C1320.57 69.5936 1322.14 69.5647 1322.46 69.6661C1322.77 69.7611 1323.61 70.5955 1323.2 70.9223C1322.95 71.1165 1322.58 71.0093 1322.46 71.3697C1322.36 71.6577 1322.39 71.9445 1322.17 72.1925C1321.96 72.4394 1320.81 73.1845 1320.51 73.1521C1320.6 73.0136 1320.7 72.8745 1320.8 72.7349C1319.14 72.8253 1317.26 73.064 1315.77 72.1688C1314.41 71.3552 1312.1 70.6593 1310.53 71.1906C1310.9 71.1379 1311.17 71.4201 1311.53 71.3882C1311.94 71.3506 1312.33 71.1889 1312.75 71.2323C1313.45 71.3048 1314.56 71.6397 1314.91 72.3165C1314.11 72.6034 1313.38 71.6768 1312.59 72.0372C1311.82 72.3837 1310.96 71.642 1310.16 71.7747C1311.12 71.9567 1312.03 72.3015 1312.91 72.7343C1312.78 72.8809 1312.64 73.02 1312.5 73.1515C1312.94 73.1081 1313.28 72.7395 1313.75 72.8688C1314.03 72.9458 1314.58 73.2906 1314.81 72.9186C1315.4 71.9561 1316.44 72.6005 1316.92 73.2935C1317.73 74.4571 1320.23 74.9542 1321.55 74.8621C1321.19 74.7995 1321.05 74.5503 1321.26 74.2363C1322.17 74.7126 1323.15 75.0835 1324.01 75.6542C1323.11 75.2677 1323.83 75.8373 1324.04 75.9196C1324.36 76.0488 1324.71 76.0743 1325.04 76.1665C1325.49 76.2911 1325.89 76.5877 1326.27 76.8462C1326.56 77.053 1326.85 77.268 1327.14 77.4894C1326.53 77.3828 1326.53 77.439 1327.14 77.6569C1326.8 77.4987 1326.16 77.2333 1326.14 77.8649C1326.98 77.3509 1327.54 78.5376 1328.26 78.1986C1327.94 78.0393 1327.63 77.8446 1327.35 77.6146C1328.11 78.1326 1329 78.4293 1329.8 78.8662C1329.53 78.7126 1329.24 78.657 1328.93 78.6993C1329.7 78.7995 1330.44 79.0423 1331.18 79.2417C1332.05 79.4723 1332.09 80.035 1332.74 80.4284C1333.54 80.903 1334.63 80.9018 1335.35 81.4946C1335.7 81.7855 1335.74 82.6698 1335.19 82.704C1335.51 82.7863 1335.75 83.0447 1335.81 83.3715C1334.28 82.6924 1332.41 82.5371 1330.76 82.3163C1330.03 82.219 1328.96 82.4305 1328.33 81.9959C1328.15 81.8713 1326.5 80.644 1327.35 81.6198C1326.67 81.6007 1326.15 81.0635 1325.51 80.9099C1325.88 81.0739 1326.1 81.3793 1326.39 81.6493C1326.89 82.1245 1327.51 82.1089 1328.14 82.2456C1326.88 82.3099 1326.81 82.7654 1325.96 83.4631C1325.54 83.8021 1324.4 84.4192 1323.84 84.2477C1323.95 84.3972 1324.04 84.5501 1324.13 84.7072C1323.57 85.0131 1323.04 84.9917 1322.42 84.9575C1322.77 85.0253 1323.06 85.1922 1323.3 85.4582C1322.68 85.8754 1321.93 85.4924 1321.26 85.6251C1321.94 85.8284 1321.6 86.2555 1321.15 86.2375C1320.77 86.2225 1320.43 86.0121 1320.05 86.0423C1320.26 86.354 1320.53 86.6269 1320.84 86.835C1320.18 86.8071 1320.37 87.065 1320.67 87.335C1320.13 87.8032 1319.5 87.0424 1318.92 87.4191C1319.42 87.561 1319.97 87.6242 1320.34 88.0449C1320.03 87.9893 1319.73 87.9336 1319.42 87.878C1319.67 87.8989 1320.12 88.1451 1319.84 88.4621C1319.7 88.6203 1319.15 88.4621 1318.96 88.4621C1319.56 88.6632 1319.58 88.7744 1319 88.7959C1319.36 88.8109 1319.67 89.0184 1319.88 89.2965C1319.41 89.2919 1319 89.0561 1318.54 89.0045C1318.8 89.1314 1319.1 89.1737 1319.35 89.329C1319.76 89.5845 1319.55 90.1715 1319 89.7137C1319.02 89.9194 1318.54 90.722 1318.08 90.5482C1319.12 91.1659 1317.47 91.6822 1316.92 91.5495C1317.2 91.9058 1317.33 92.042 1316.75 91.9255C1317.25 92.1313 1318.82 93.6929 1318.38 94.3031C1316.15 93.318 1313.91 91.7314 1311.51 91.2545C1310.52 91.0593 1309.15 91.0697 1308.16 91.2047C1307.23 91.3304 1306.14 92.2941 1305.2 91.7587C1305.33 91.8919 1305.45 92.031 1305.57 92.1759C1305.28 92.2599 1304.99 92.2732 1304.69 92.217C1304.83 92.8393 1305.16 94.058 1304.65 94.5864C1303.89 95.371 1302.91 93.0416 1302.53 92.6933C1302.22 92.41 1301.36 91.3588 1300.86 91.699C1300.47 91.9667 1300.48 92.6893 1299.98 93.0514C1299.54 93.3759 1299.3 93.3041 1298.77 93.3435C1299.16 93.4773 1299.85 93.5272 1300.11 93.8864C1300.51 94.4549 1299.96 94.9469 1299.38 94.696C1298.89 94.4816 1298.5 94.0672 1298.06 93.774C1297.57 93.4437 1296.19 93.5562 1297.15 93.8864C1296.44 94.3935 1295.46 93.2473 1294.6 93.8864C1294.81 93.9189 1295.02 93.9467 1295.23 93.9699C1295.21 94.3234 1294.98 94.4891 1294.64 94.3871C1294.57 95.1271 1295.81 95.2464 1295.36 95.8537C1295.16 96.1249 1296.8 96.8371 1296.98 97.1419C1295.71 96.942 1297.49 97.9751 1297.6 98.1003C1297.3 97.9583 1296.99 97.9583 1296.69 98.1003C1297.05 98.2087 1297.38 98.4144 1297.64 98.6844C1296.3 98.1513 1297.63 101.735 1297.76 101.957C1298.28 102.821 1298.86 103.285 1299.78 103.692C1300.31 103.927 1301.61 103.887 1301.77 104.609C1301.77 103.992 1300.54 102.963 1302.08 103.444C1302.94 103.712 1304.1 103.797 1304.77 104.451C1305.35 105.021 1305.03 105.336 1304.9 105.986C1304.82 106.427 1305.38 106.724 1305.66 106.945C1306.2 107.385 1306.68 107.9 1307.21 108.364C1308.01 109.064 1308.29 108.889 1309.19 109.053C1309.99 109.198 1312.76 111.165 1312.25 111.964C1311.74 112.773 1310.18 111.89 1309.8 111.285C1309.45 110.72 1310.07 110.72 1310 110.235C1309.96 109.885 1309.44 110.023 1309.53 110.408C1309.1 110.139 1308.53 110.266 1308.37 110.784C1309.9 111.069 1308.27 111.769 1308.65 112.463C1309.15 113.369 1309.41 114.259 1310.14 115.037C1310.97 115.935 1311.96 116.474 1313.02 117.072C1313.57 117.384 1314.34 117.682 1314.75 118.184C1315.06 118.576 1314.57 119.152 1314.67 119.586C1314.26 119.459 1313.85 119.58 1313.45 119.617C1312.9 119.667 1312.48 119.228 1311.94 119.194C1310.8 119.123 1310.75 120.042 1310.21 120.741C1309.62 121.523 1310.39 122.336 1310.87 122.988C1311.05 123.24 1313.07 124.828 1312.08 124.342C1312.89 124.962 1314.02 125.271 1314.54 126.22C1314.19 126.168 1313.54 126.039 1313.35 125.689C1313.12 125.267 1312.85 125.594 1312.5 125.594C1311.69 125.594 1310.89 126.609 1310.45 127.138C1310.12 126.842 1309.67 126.375 1309.16 126.595C1309.21 127.064 1309.59 127.003 1309.93 127.061C1310.26 127.117 1310.55 127.848 1310.8 128.105C1311.05 128.364 1310.97 128.632 1311.24 128.907C1311.61 129.286 1312.17 129.559 1312.39 130.051C1312.91 131.206 1313.45 132.767 1312.52 133.796C1312.14 134.218 1312.61 134.326 1312.33 134.753C1311.93 135.375 1311.82 136.095 1311.29 136.65C1311.01 135.792 1310.11 135.493 1309.41 135.064C1308.6 134.566 1308.04 133.777 1307.45 133.062C1306.77 132.253 1305.98 131.563 1305.19 130.877C1304.79 130.536 1304.4 130.195 1304.02 129.838C1303.68 129.526 1302.84 129.143 1303.69 129.056C1301.57 129.038 1299.38 125.807 1297.96 124.526C1295.7 122.492 1293.37 120.527 1291.07 118.548C1289.09 116.854 1287.56 115.038 1285.95 113.013C1285.34 112.247 1284.74 111.464 1284.16 110.674C1283.88 110.295 1283.6 109.895 1283.42 109.455C1283.32 109.208 1283.3 108.179 1283.55 109.155C1283.52 108.613 1283.61 107.226 1284.21 107.445C1283.77 106.904 1283.84 106.077 1283.31 105.596C1282.7 105.042 1281.76 104.77 1281.33 104.024C1281.97 103.871 1282.7 104.441 1283.29 104.193C1283.66 104.04 1283.25 103.351 1283.42 103.065C1284.14 103.43 1284.92 102.844 1285.63 103.19C1285 103.02 1285.26 102.489 1285.52 102.099C1285.68 101.858 1285.86 101.629 1286 101.377C1286.23 100.973 1285.93 100.538 1286.59 100.937C1285.87 100.371 1286.75 99.5003 1286.06 98.886C1285.11 98.0522 1286.26 97.2566 1285.99 96.326C1285.75 95.5199 1286.25 96.0635 1286.58 95.5304C1286.91 94.9805 1286.63 94.4601 1286.76 93.8859C1286.82 93.5984 1287.38 93.256 1287.26 92.9321C1287.09 92.4812 1286.59 92.3486 1286.34 91.9661C1286.83 91.648 1287.33 91.3704 1287.78 91.0036C1287.99 90.8396 1287.97 90.4775 1288.18 90.3396C1288.51 90.1107 1289.05 90.1535 1289.4 90.3268C1289.56 90.4039 1290.06 89.7381 1290.22 89.672C1289.73 89.5526 1289.02 89.4472 1288.91 88.844C1288.78 88.1961 1289.45 88.1979 1288.74 87.6306C1288.18 87.1832 1287.43 87.5222 1287.1 86.7144C1286.84 86.0874 1286.83 85.7149 1286.24 85.2681C1285.55 84.746 1283.87 83.605 1285.11 82.7387C1285.83 82.2352 1287.56 83.0285 1288.26 83.3304C1287.83 83.0997 1287.36 82.9578 1286.97 82.6634C1287.56 82.6634 1288.17 82.8877 1288.76 82.7469C1287.28 82.5133 1285.72 82.5678 1284.33 81.9344C1282.96 81.3104 1281.37 81.9599 1280.04 82.3719C1280.23 82.8813 1280.75 83.0771 1281.25 83.1229C1280.56 83.6833 1282.09 84.5577 1282.42 84.983C1283.1 85.8429 1284.08 85.6453 1284.76 86.3355C1284.62 86.4009 1284.48 86.4705 1284.34 86.5441C1284.42 86.6878 1284.5 86.8269 1284.59 86.9613C1284.14 86.8025 1283.77 86.4456 1283.34 86.2427C1282.98 86.0747 1281.86 86.2312 1282.92 86.5441C1282.07 86.3123 1281.21 86.6159 1281.21 87.7117C1281.21 88.6145 1279.99 89.7114 1280.8 90.5493C1280.16 90.27 1279.51 90.6009 1279.25 91.2163C1278.82 90.9996 1278.87 90.4595 1278.45 90.3013C1278.05 90.1541 1278.37 89.4142 1277.7 89.1795C1276.92 88.9042 1276.66 89.9936 1276.14 89.1963C1275.77 88.6162 1275.2 88.2639 1274.62 87.9197C1275.91 88.2384 1274.32 87.5448 1274.83 87.5448C1274.19 87.2887 1274.76 87.0853 1274.55 86.686C1274.31 86.2404 1273.93 85.6592 1273.54 85.3417C1272.93 84.8433 1272.56 85.282 1272.26 85.8087C1271.75 86.6768 1271.49 85.9264 1270.91 85.7647C1270.34 85.61 1269.87 85.1313 1269.25 85.2038C1268.64 85.2762 1268.11 85.683 1267.48 85.6766C1267.03 85.672 1266.36 86.0081 1265.98 85.9211C1265.3 85.7659 1264.55 85.7467 1263.85 85.6674C1263.88 85.8203 1263.91 85.9733 1263.94 86.1263C1263.06 85.8337 1263.27 86.9694 1262.6 87.1282C1262.84 87.4156 1263.91 88.0547 1263.29 88.3926C1262.53 88.808 1263.2 89.9276 1263.36 90.3992C1263.47 90.7127 1263.16 91.2458 1262.94 91.5089C1262.54 91.9835 1262.07 91.9742 1262.04 92.7154C1262.01 93.3064 1262.25 93.9061 1262.64 94.346C1261.39 94.1385 1263.32 95.5762 1263.64 95.7228C1262.88 95.3003 1263.2 96.2599 1263.66 96.3799C1264.09 96.4894 1264.57 96.3816 1264.98 96.5572C1264.82 96.472 1264.67 96.3747 1264.52 96.2651C1265.51 95.1485 1267.57 97.1581 1268.4 97.3916C1267.34 98.2266 1266.7 97.3435 1265.69 97.6002C1266.53 98.6363 1263.55 97.7115 1263.23 97.6414C1262.35 97.4542 1262.57 97.4322 1262.06 97.85C1261.64 98.1919 1261.25 98.5743 1261.89 98.9759C1261.23 98.6096 1259.39 98.2933 1258.68 98.5586C1258.78 98.6989 1258.87 98.8374 1258.97 98.9759C1257.34 99.1201 1255.89 99.0553 1254.5 98.0997C1255.1 98.0632 1255.65 97.7926 1256.26 97.8077C1256.85 97.8222 1257.56 97.9688 1258.06 97.5573C1257.35 96.9918 1256.3 97.3296 1255.48 96.8585C1254.39 96.2333 1253.23 95.6069 1251.92 95.8462C1252.4 96.9078 1248.8 95.5049 1248.51 95.4406C1247.55 95.2285 1245.99 94.6125 1245.11 95.2412C1244.18 95.9041 1245.74 96.049 1246.08 96.3886C1245.56 96.0264 1244.88 96.4048 1244.33 96.0959C1244.2 97.0045 1245.69 96.6574 1245.96 97.3893C1245.4 97.0799 1244.68 97.577 1244.21 97.2137C1243.39 96.5775 1242.52 96.5137 1241.53 96.8475C1241.62 97.0057 1241.72 97.1587 1241.83 97.3059C1241.36 96.9918 1240.98 97.4496 1240.46 97.2068C1239.86 96.9234 1239.07 96.7745 1238.4 96.8365C1237.37 96.9327 1235.45 95.936 1237.03 97.6814C1236.45 97.4386 1235.88 97.916 1235.32 97.5145C1234.79 97.1401 1234.65 96.7003 1233.94 96.6383C1232.15 96.4824 1230.39 96.8939 1228.59 96.6795C1227.8 96.585 1227.24 96.8498 1226.47 96.9304C1225.78 97.0034 1225.38 96.8388 1224.7 97.0463C1223.94 97.274 1223.05 97.5145 1222.75 98.35C1222.52 98.9996 1223.02 99.6602 1222.61 100.303C1222.27 100.848 1221.37 100.999 1221.19 101.648C1221.03 102.222 1221.52 102.964 1221.8 103.436C1222.08 103.899 1222.15 104.29 1221.47 104.346C1220.78 104.404 1221.02 105.061 1220.87 105.523C1220.67 106.11 1220.39 106.246 1219.96 106.615C1219.53 106.993 1219.55 107.616 1219.13 108.003C1218.83 108.269 1219.01 109.137 1218.92 109.537C1218.81 110.054 1219.15 110.255 1219.59 110.447C1218.6 110.497 1218.94 112.28 1218.36 112.798C1218.05 113.075 1217.66 113.46 1217.5 113.851C1217.34 114.253 1216.84 114.216 1216.59 114.516C1216.33 114.831 1216.56 115.316 1216.35 115.667C1216.07 116.161 1215.55 116.336 1215.12 116.667C1213.77 117.717 1215.44 118.426 1216.27 118.676C1217.46 119.033 1218.44 119.164 1219.68 119.06C1220.54 118.988 1222.33 118.826 1222.45 120.085C1222.47 120.33 1223.06 120.714 1223.2 120.913C1223.53 121.362 1223.76 121.77 1223.92 122.302C1224.22 123.38 1225.28 122.857 1226.02 122.713C1225.96 122.445 1225.93 122.046 1225.73 121.837C1225.44 121.548 1224.96 121.872 1224.76 121.395C1224.37 120.423 1225.79 120.612 1226.31 120.459C1226.22 120.891 1226.1 121.511 1225.51 121.461C1226.13 122.178 1227.27 122.09 1228.1 122.295C1227.85 122.49 1227.22 124.08 1227.41 124.177C1228.09 124.523 1229.5 124.169 1230.1 123.753C1230.74 123.313 1230.11 122.106 1230.82 122.212C1231.53 122.321 1231.33 123.917 1231.23 124.382C1232.5 124.113 1232.05 123.56 1231.52 122.546C1231.24 122.004 1231.09 122.049 1230.69 121.628C1230.32 121.237 1230.42 120.694 1229.77 120.585C1230.4 120.422 1231.12 120.773 1231.71 120.94C1232.54 121.175 1233.02 120.729 1233.8 120.649C1235.19 120.506 1236.7 122.122 1237.74 122.796C1238.35 123.192 1239.06 123.404 1239.74 123.642C1240.57 123.934 1241.18 124.451 1241.94 124.815C1242.35 125.008 1244.9 125.364 1244.63 126.392C1244.49 126.942 1244.14 125.744 1244.25 126.843C1243.61 126.577 1242.81 126.039 1242.08 126.175C1243.39 127.113 1246.15 127.353 1246.3 129.288C1246.35 129.996 1247.51 130.264 1248.07 130.386C1249.03 130.599 1248.24 131.569 1249.29 131.849C1248.73 132.224 1249.34 132.872 1248.9 133.23C1248.49 133.557 1248.83 134.463 1249.29 134.561C1248.53 135.037 1249.52 135.773 1249.84 136.164C1250.27 136.696 1250.1 137.555 1250.48 138.145C1250.89 138.772 1252.3 141.092 1253.26 140.778C1252.63 142.007 1253.81 142.261 1254.38 143.192C1254.65 143.634 1254.88 144.224 1254.68 144.742C1255.08 144.846 1255.64 145.867 1255.22 146.035C1255.9 145.784 1256.03 147.379 1256.35 147.851C1257.18 149.054 1256.25 149.975 1255.7 151.095C1255.06 152.412 1256.13 153.832 1255.37 155.114C1255.01 155.708 1255.28 156.701 1255.43 157.329C1255.52 157.56 1255.62 157.788 1255.73 158.014C1255.74 158.444 1255.54 158.557 1255.68 159.059C1256 160.201 1255.47 161.879 1254.95 162.903C1254.73 163.337 1254.61 163.735 1254.34 164.15C1253.98 164.698 1254.11 165.07 1253.92 165.657C1253.86 165.863 1253.85 166.793 1253.61 166.817C1252.91 166.884 1253.77 167.896 1253.36 168.232C1252.86 168.641 1252.88 168.598 1252.76 169.232C1252.67 169.727 1252.91 170.581 1252.38 170.902C1253.23 171.324 1252.07 173.32 1251.6 173.794C1250.28 175.122 1249.04 175.912 1247.4 176.734C1246.9 176.986 1246.45 177.344 1246.05 176.766C1245.97 176.662 1244.58 176.284 1244.44 176.291C1243.93 176.314 1243.23 175.77 1242.81 176.026C1242.61 176.153 1241.7 174.225 1241.5 173.989C1241.55 174.264 1241.12 175.237 1240.79 175.24C1239.98 175.248 1240.75 174.085 1239.92 174.021C1238.81 173.936 1240.03 176.056 1238.91 175.866C1239.3 176.079 1239.18 177.133 1239.08 177.577C1238.59 177.343 1237.42 176.878 1236.95 177.368C1237.75 177.786 1238.02 178.154 1237.91 179.078C1237.26 178.245 1236.65 177.28 1235.61 176.992C1236.04 176.225 1236.69 176.288 1237.41 176.236C1237.89 176.202 1237.62 175.564 1237.62 175.282C1237.62 173.672 1236.55 173.12 1235.9 171.777C1235.14 170.194 1234.21 168.832 1233.04 167.516C1232.91 167.365 1231.57 166.297 1231.98 166.152C1232.51 165.965 1233.02 166.102 1233.38 165.507C1233.53 165.272 1233.75 164.281 1234.03 164.225C1234.59 164.112 1235.87 164.804 1236.45 164.963C1236.82 165.067 1239.93 165.999 1239.29 164.773C1239.03 164.28 1238.26 163.401 1239.06 163.001C1239.7 162.683 1239.12 162.168 1238.93 161.768C1238.6 161.042 1239.59 160.674 1238.74 160.052C1239.65 159.598 1238.81 158.93 1238.54 158.511C1238.37 158.253 1238.53 157.914 1238.45 157.632C1238.32 157.139 1237.99 156.741 1237.86 156.249C1237.77 155.904 1237.85 155.52 1237.7 155.189C1237.55 154.83 1237.03 154.564 1237.26 154.102C1237.62 153.355 1238.35 153.773 1238.11 152.72C1237.93 151.96 1237.25 151.752 1236.77 151.19C1236.51 150.881 1236.32 150.516 1236.28 150.108C1236.21 149.441 1236.09 149.67 1235.52 149.37C1234.73 148.953 1233.84 149.124 1233.1 149.587C1232.98 149.667 1231.85 150.537 1231.96 150.579C1231.01 150.199 1229.44 150.589 1229.44 151.832C1229.44 152.715 1227.27 152.486 1226.59 152.571C1226.06 152.637 1225.91 152.653 1225.5 152.339C1225.15 152.072 1224.45 152.419 1224.08 152.482C1223.48 152.587 1220.93 150.888 1220.95 150.262C1220.98 149.137 1220.15 148.638 1219.2 148.125C1218.15 147.559 1219.28 146.505 1217.61 146.644C1216.42 146.744 1215.32 146.095 1214.44 145.31C1213.94 144.864 1213.64 144.857 1213.05 144.679C1212.96 144.651 1211.42 143.293 1212.04 144.405C1211.3 144.098 1210.49 144.19 1209.79 143.732C1209.17 143.326 1208.81 143.186 1208.11 143.235C1207.13 143.303 1206.63 143.404 1205.64 143.169C1204.71 142.951 1203.94 142.363 1203.28 141.703C1202.85 141.288 1202.72 140.373 1202.24 140.096C1201.39 139.601 1201 139.43 1200.47 138.54C1199.54 136.993 1197.55 136.5 1196.49 135.025C1196.24 134.682 1195.42 133.914 1195.02 133.769C1194.48 133.571 1193.76 132.701 1193.25 132.358C1192.51 131.864 1192.39 131.146 1191.73 130.643C1191.04 130.124 1190.29 129.669 1189.62 129.133C1189.29 128.873 1188.71 128.961 1188.52 128.533C1188.31 128.074 1188.3 128.097 1187.8 127.828C1187.21 127.51 1186.27 127.307 1185.93 126.741C1185.71 126.379 1184.44 126.205 1183.98 126.022C1183.57 125.856 1182.72 125.557 1182.71 126.299C1182 125.935 1181.15 126.06 1180.44 125.703C1180.07 125.521 1179.77 125.243 1179.4 125.06C1179 124.858 1178.53 124.917 1178.12 124.696C1176.4 123.754 1174.47 124.683 1172.64 124.497C1171.03 124.334 1169.54 125.209 1167.94 125.35C1166.29 125.495 1166.92 127.415 1165.53 127.885C1166.08 128.501 1166.33 128.647 1167.16 128.595C1167.72 128.559 1168.67 128.615 1168.96 129.204C1169.31 129.896 1170.2 130.381 1170.43 131.035C1170.82 132.163 1169.93 132.134 1169.57 133.066C1169.29 133.755 1169.63 134.678 1169.69 135.387C1169.72 135.775 1169.77 136.259 1169.59 136.622C1169.39 137.025 1169.89 137.356 1169.79 137.772C1169.65 138.362 1169.61 138.75 1169.74 139.359C1169.82 139.713 1170.8 139.862 1171.04 140.325C1171.51 141.246 1169.44 141.421 1168.95 141.601C1168.24 141.865 1167.99 142.736 1167.52 143.264C1166.94 143.906 1165.52 143.045 1164.83 142.925C1163.92 142.768 1162.96 142.685 1162.15 142.217C1161.25 141.7 1160.58 141.08 1159.46 141.218C1158.57 141.327 1158.03 141.909 1157.11 141.727C1156.04 141.517 1155.29 140.902 1154.35 140.402C1152.41 139.373 1150.76 140.124 1149.19 141.381C1148.59 141.864 1148.55 142.338 1148.28 143.006C1147.89 143.964 1146.88 143.429 1146.11 143.62C1145.41 143.792 1144.26 143.814 1143.64 144.128C1143.19 144.356 1142.72 144.168 1142.29 144.383C1141.9 144.578 1141.61 144.914 1141.21 145.106C1140.54 145.432 1139.75 145.061 1139.05 145.047C1137.81 145.022 1136.69 145.096 1135.49 144.698C1133.63 144.081 1132.04 144.826 1130.32 143.653C1129.68 143.221 1128.99 143.027 1128.5 142.408C1127.84 141.59 1127.64 141.322 1126.52 141.293C1125.55 141.269 1124.74 141.188 1123.91 140.638C1123.27 140.204 1122.63 139.63 1121.83 139.526C1120.94 139.411 1120.37 139.659 1119.47 139.359C1118.39 138.995 1116.93 138.869 1115.82 139.125C1113.67 139.62 1111.55 140.992 1109.29 140.193C1108.66 139.971 1108.41 139.711 1107.69 139.643C1107.16 139.593 1106.28 139.294 1105.87 138.95C1105.46 138.598 1104.88 138.607 1104.57 138.126C1104.27 137.654 1103.85 137.388 1103.5 136.96C1102.83 136.127 1102.41 134.629 1101.23 134.415C1099.88 134.17 1098.54 134.145 1097.25 133.647C1095.61 133.015 1093.92 133.066 1092.27 132.552C1090.7 132.061 1089.2 131.377 1087.64 130.889C1087.75 131.308 1088 132.443 1087.39 132.625C1086.55 132.878 1086.45 133.39 1086.8 134.143C1085.54 133.723 1086.44 136.495 1087.14 136.849C1087.79 137.179 1087.87 138.057 1088.6 138.367C1089.35 138.683 1089.71 138.833 1089.84 139.743C1089.93 140.337 1089.73 141.315 1088.99 141.409C1088.28 141.499 1088.23 142.231 1087.56 142.371C1086.82 142.528 1085.88 141.835 1085.12 141.749C1084.06 141.628 1083.06 141.322 1082.01 141.193C1081.33 141.113 1080.89 141.266 1080.32 141.66C1080.08 141.828 1078.12 141.221 1077.78 141.168C1076.81 141.016 1075.9 140.731 1075.18 140.041C1074.63 139.518 1074.21 138.795 1073.48 138.503C1072.06 137.939 1070.31 138.717 1068.94 138.212C1068.33 137.988 1068.64 137.052 1067.83 137.618C1066.91 138.261 1066.62 137.046 1065.74 137.063C1066.13 137.888 1064.95 137.842 1064.46 137.88C1064.1 137.909 1063.8 137.942 1063.59 138.272C1063.15 138.972 1062.99 138.784 1062.25 139.021C1061.76 139.178 1061.48 139.461 1061.14 139.827C1060.76 140.239 1060.42 140.109 1059.92 140.288C1059.8 140.33 1058.75 140.748 1058.77 140.882C1058.86 141.614 1058.06 141.302 1057.56 141.652C1057.69 142.011 1057.9 142.368 1058.23 142.569C1057.61 142.803 1057.11 143.006 1056.44 143.112C1056.52 143.25 1056.61 143.389 1056.69 143.53C1056.28 143.845 1055.81 143.663 1055.4 143.488C1055.47 144.287 1054.72 143.75 1054.18 143.663C1053.53 143.56 1053.04 143.794 1052.99 144.46C1052.94 145.308 1051.13 145.893 1050.39 145.616C1049.84 145.409 1049.96 144.966 1049.24 144.879C1048.53 144.795 1048.19 144.008 1047.66 143.616C1047.24 143.307 1046.45 143.493 1046.68 142.759C1046.86 142.191 1046.41 142.069 1046.03 142.415C1045.82 142.601 1045.48 142.901 1045.39 143.178C1045.14 144.012 1044.44 143.331 1044.05 143.279C1043.23 143.173 1041.61 143.382 1040.96 142.846C1040.29 142.295 1039.85 141.517 1039.3 140.859C1038.49 139.899 1036.5 140.479 1035.72 139.317C1034.72 137.812 1032.88 136.61 1031.04 136.301C1030.85 136.269 1030.51 136.206 1030.35 136.369C1029.89 136.854 1030.12 136.691 1029.47 136.804C1028.99 136.889 1028.9 137.477 1028.23 137.497C1027.99 137.479 1027.76 137.526 1027.54 137.637C1027.07 137.86 1026.82 137.523 1026.38 137.459C1025.85 137.382 1025.04 137.888 1024.57 137.522C1024.24 137.256 1023.99 136.571 1023.51 136.545C1023.24 136.531 1022.61 136.726 1022.5 136.348C1022.37 135.885 1022.82 135.334 1022.02 135.414C1021.64 135.452 1021.38 134.979 1020.93 134.965C1020.83 134.962 1020 135.141 1019.94 135.311C1019.75 135.811 1020.31 135.955 1020.05 136.453C1019.67 137.161 1018.68 136.899 1019.22 137.48C1017.76 137.161 1016.21 134.768 1015.16 133.77C1013.49 132.18 1011.76 130.663 1010.08 129.092C1008.45 127.575 1006.91 126.024 1004.98 124.874C1002.91 123.634 1000.6 122.849 998.662 121.375C998.914 121.213 999.44 121.453 999.623 121.225C999.903 120.878 1000.08 120.359 999.495 120.207C999.596 120.047 999.706 119.894 999.826 119.748C999.189 119.986 998.604 120.45 997.931 120.353C997.878 120.345 997.163 120.945 997.091 120.978C996.45 121.263 995.777 121.48 995.075 121.542C995.62 122.176 994.369 122.684 993.945 122.835C993.047 123.155 992.412 123.276 992.485 124.421C992.146 124.419 992.034 124.226 991.811 124.025C991.452 123.703 991.213 124.148 990.839 123.841C990.117 123.249 989.315 124.247 988.858 124.67C988.676 124.115 987.894 124.18 987.728 123.627C987.505 122.89 988.493 122.504 989.066 122.584C989.067 122.176 988.831 121.826 988.522 121.582C987.768 123.619 984.921 120.021 984.309 121.749C984.644 121.594 984.955 121.753 985.144 122.041C984.796 122.036 984.504 122.161 984.269 122.417C984.015 121.861 983.434 121.725 984.019 121.29C983.312 121.248 982.873 120.435 982.264 120.164C982.179 120.521 982.363 120.838 982.681 120.998C982.314 121.052 981.607 120.583 981.339 120.847C981.077 121.106 980.683 121.573 980.251 121.354C979.53 120.987 978.916 121.53 978.179 120.622C979.375 120.531 977.876 119.279 978.429 118.703C977.993 118.474 977.56 118.326 977.218 117.952C976.781 117.472 976.774 116.819 976.244 116.387C975.317 115.631 974.824 115.598 974.094 116.335C973.545 116.891 972.148 115.962 971.633 115.706C971.123 115.453 970.55 115.444 969.998 115.365C969.616 115.685 968.963 115.183 968.417 115.157C968.545 115.294 968.671 115.433 968.793 115.574C968.44 115.616 968.093 115.588 967.75 115.491C967.995 116.204 967.325 116.061 966.916 116.283C966.708 116.396 965.935 116.749 966.83 116.909C966.328 117.513 964.827 117.832 964.057 117.983C963.039 118.182 962.04 118.372 961.029 118.6C960.123 118.805 956.371 118.628 956.393 119.755C956.398 120.033 956.376 120.739 955.894 120.276C955.52 119.917 955.199 120.384 954.781 120.308C954.15 120.193 953.759 120.305 953.142 120.388C952.913 120.464 952.678 120.487 952.437 120.455C952.387 120.596 952.332 120.735 952.275 120.873C951.772 121.016 949.369 120.639 949.31 121.349C949.249 122.085 947.177 120.877 947.432 122.458C946.914 122.422 946.775 121.873 946.223 121.873C945.687 121.873 945.244 122.296 944.703 122.189C944.348 122.119 942.162 121.294 942.425 122.249C942.151 122.166 941.873 122.152 941.592 122.207C941.999 122.542 943.137 123.467 941.719 123.584C942.129 123.806 942.724 124.132 943.209 124.071C943.661 124.015 943.986 123.821 944.303 124.293C944.132 124.542 941.927 124.925 943.543 125.377C944.66 125.69 945.788 125.635 946.841 126.247C947.905 126.865 945.767 126.968 945.555 126.968C945.178 126.968 944.89 126.711 944.527 126.691C944.067 126.667 943.435 126.786 942.97 126.838C943.395 127.332 942.549 127.696 942.359 128.054C942.28 128.202 943.886 129.762 944.14 129.926C943.872 130.067 943.665 130.342 943.443 130.541C943.071 130.874 942.723 130.733 942.289 130.903C942.175 130.947 940.714 131.775 940.714 131.772C940.717 132.407 942.37 132.294 942.684 132.738C943.203 133.471 943.625 133.198 944.397 133.385C945.045 133.542 945.338 134.121 946.112 134.196C947.105 134.292 947.275 134.825 948.103 135.099C947.217 135.203 947.867 136.394 947.862 136.902C947.853 137.76 945.49 138.051 944.869 138.019C944.423 137.997 943.822 137.969 943.453 137.684C943.202 137.491 942.848 136.927 942.466 137.018C942.053 137.116 942.172 137.689 942.146 137.984C942.09 138.606 941.324 138.696 940.844 138.729C941.266 138.044 939.559 137.977 939.239 137.946C938.476 137.875 937.385 137.661 936.934 136.967C936.613 136.472 935.935 135.197 935.092 135.812C934.023 136.591 933.488 134.893 933.542 136.81C933.125 136.619 932.937 137.101 932.554 136.986C932.212 136.884 931.434 136.449 931.298 136.101C931.158 135.745 929.355 135.87 929.325 136.435C929.068 136.232 928.776 136.121 928.45 136.101C928.496 136.782 927.607 136.95 927.434 137.577C927.193 138.455 926.075 138.648 925.506 138.141C925.031 137.717 924.145 137.672 923.562 137.248C923.028 136.86 921.981 135.84 921.236 136.352C921.396 136.826 921.87 137.185 922.105 137.625C922.288 137.97 922.141 139.071 921.574 138.586C921.243 138.303 921.127 137.693 921.2 137.284C921.252 136.992 919.847 136.421 919.479 135.986C918.972 135.386 918.447 135.569 917.804 135.293C917.09 134.986 916.968 134.114 916.042 134C914.453 133.805 912.576 134.666 911.93 132.597C911.387 132.9 910.91 132.913 910.398 133.143C910.035 133.306 910.071 133.862 909.845 134.141C909.39 133.384 908.613 134.618 908.365 133.609C908.2 132.937 906.612 132.819 905.963 132.681C906.074 132.958 906.187 133.237 906.299 133.515C905.222 133.007 905.479 133.853 905.078 134.599C904.819 135.082 904.289 135.028 903.835 135.157C903.341 135.297 903.126 135.851 902.57 135.851C902.259 135.851 901.628 135.736 901.541 136.185C901.485 136.475 901.97 136.93 901.68 137.164C900.875 137.816 899.929 138.329 898.917 138.063C899.638 138.292 899.885 139.658 900.205 140.239C900.381 140.559 900.964 140.95 900.588 141.324C900.148 141.763 899.295 142.101 898.701 141.821C897.565 141.285 896.638 139.119 895.299 139.104C893.755 139.086 894.999 140.828 894.376 141.278C893.355 142.013 893.031 142.514 893.302 143.926C893.426 144.576 895.242 145.202 894.266 145.925C893.562 146.447 892.825 147.783 893.353 148.682C893.636 149.164 894.292 149.294 894.787 149.421C895.683 149.652 895.555 150.072 896.159 150.62C896.02 150.716 895.88 150.813 895.742 150.912C896.005 151.163 896.597 152.737 897.025 152.162C897.389 151.672 898.436 151.883 898.923 151.975C900.911 152.348 901.768 154.03 903.046 155.439C903.425 155.858 904.148 156.345 904.31 156.915C904.534 157.713 902.803 156.727 902.505 157.311C902.27 157.77 905.625 158.567 905.76 159.423C905.607 159.337 905.452 159.253 905.296 159.172C905.323 159.467 905.365 159.759 905.424 160.048C905.088 159.828 904.397 159.813 904.421 160.382C904.138 160.202 903.846 160.189 903.546 160.34C903.931 160.419 903.963 160.672 903.754 160.966C904.1 160.968 904.299 161.155 904.253 161.509C904.063 161.408 902.161 160.699 902.88 161.593C902.522 161.556 902.41 161.829 902.14 161.973C901.592 162.265 900.735 161.626 900.916 162.552C900.476 162.322 900.068 162.021 899.583 161.885C899.903 162.14 899.927 162.571 900.041 162.928C899.795 162.535 899.491 162.016 898.958 162.01C900.275 163.5 898.921 164.964 898.459 166.558C898.337 166.427 898.225 166.288 898.123 166.141C898.585 166.744 897.34 167.197 897.29 167.768C897.217 168.585 898.175 168.751 898.727 169.043C899.466 169.433 899.835 169.768 900.319 170.45C900.609 170.859 901.016 171.325 901.044 171.854C901.071 172.357 900.493 172.746 901.252 172.858C901.187 172.43 901.095 170.742 901.878 171.23C901.551 171.788 900.895 173.836 901.959 174.026C901.566 174.337 901.417 175.337 901.903 175.634C902.586 176.051 902.772 176.688 903.176 177.328C903.552 177.923 904.244 178.345 904.767 178.8C905.369 179.322 905.719 179.981 906.258 180.539C906.722 181.019 907.321 181.203 906.937 181.861C906.575 182.482 906.001 182.846 905.53 183.364C905.297 183.62 905.048 184.324 904.757 184.456C904.235 184.695 903.234 184.306 902.754 184.09C902.174 183.827 902.199 183.056 901.669 182.774C901.172 182.509 900.833 182.315 900.404 181.885C899.406 180.884 897.839 180.812 896.521 180.286C896.174 180.147 895.148 179.77 895.098 179.325C895.048 178.878 895.431 178.227 894.92 177.954C894.123 177.53 893.709 178.136 893.048 177.324C892.659 176.846 891.346 176.52 891.28 177.447C890.416 175.66 888.311 178.234 887.027 177.28C887.506 176.756 884.083 175.335 883.595 175.002C883.196 174.73 882.743 174.789 882.288 174.773C881.788 174.755 881.417 174.421 880.938 174.401C880.268 174.374 879.72 174.659 879.008 174.55C878.248 174.434 877.474 174.213 876.771 173.899C875.889 173.505 871.414 171.689 871.505 173.692C869.547 172.711 868.302 170.748 866.382 169.682C865.542 169.215 864.559 169.075 863.737 168.62C862.98 168.203 862.565 167.258 861.702 167.016C862.305 167.778 860.389 167.272 860.017 166.662C859.269 165.433 858.042 165.576 856.864 165.056C857.053 164.591 857.57 164.569 857.947 164.346C857.594 164.346 857.349 164.112 857.321 163.762C857.175 163.849 857.036 163.946 856.904 164.054C857.217 162.934 858.696 164.004 859.158 164.43C858.185 163.83 860.653 164.077 860.995 164.179C861.225 163.734 860.884 163.356 860.827 162.928C860.553 163.945 860.331 162.789 860.37 162.51C861.223 163.044 861.268 160.834 861.789 160.507C861.842 160.786 861.898 161.064 861.957 161.342C862.173 161.061 862.109 160.24 862.455 160.09C862.859 159.916 863.323 160.619 863.746 160.591C863.884 160.063 862.58 159.324 862.236 159.117C861.365 158.59 860.704 158.79 860.329 157.587C860.84 157.795 861.238 157.618 861.728 157.471C862.271 157.309 862.669 157.624 863.202 157.587C863.406 156.765 862.08 156.746 863.829 156.511C864.702 156.394 865.747 155.807 866.331 155.292C865.572 155.524 866.02 154.455 865.062 154.623C864.304 154.756 863.577 155.299 862.785 155.209C862.976 154.789 863.437 154.602 863.875 154.625C863.333 154.592 863.041 154.935 862.589 155.137C861.968 155.416 861.434 154.945 862.037 154.416C861.106 154.231 861.986 152.89 862.726 152.677C863.1 152.569 863.26 152.337 863.443 152.013C863.81 151.365 864.451 151.813 864.998 151.704C865.621 151.58 866.309 151.834 866.944 151.778C867.547 151.724 867.984 150.02 867.877 149.493C867.66 149.55 867.465 149.508 867.292 149.368C868.109 148.772 866.521 148.232 866.425 148.018C866.146 147.393 867.004 146.925 867.5 147.073C867.414 146.186 866.818 147.079 866.437 146.426C866.14 145.918 866.496 145.9 866.876 145.745C868.35 145.147 866.779 143.763 867.42 143.151C866.996 142.946 866.952 143.295 866.586 143.318C866.051 143.352 865.474 143.129 865.124 142.714C864.628 142.124 863.934 142.646 863.497 141.774C862.991 142.367 861.352 141.68 860.741 141.36C859.561 140.743 860.004 141.13 859.03 141.69C858.765 141.065 858.058 141.044 857.641 140.581C857.262 140.161 856.93 139.191 856.278 139.125C855.146 139.011 854.237 140.099 853.236 140.147C853.202 140.148 852.127 139.662 852.042 139.616C851.452 139.302 851.017 138.827 850.309 139.219C849.532 139.65 848.964 139.24 848.659 138.44C848.478 137.964 847.737 136.6 847.98 136.141C847.161 136.185 846.819 135.031 845.957 135.462C845.408 135.735 844.025 135.282 843.473 135.099C844.121 134.718 842.746 133.467 842.861 133.249C843.096 132.805 843.642 132.95 844.012 132.721C843.741 132.117 842.834 132.024 842.556 131.418C842.297 130.852 841.693 129.609 840.843 129.967C840.037 130.306 839.38 129.635 838.447 130.008C837.426 130.417 836.855 130.041 835.796 129.967C835.865 130.956 835.095 131.481 834.18 131.17C833.045 130.785 832.743 129.61 832.545 128.549C832.414 127.842 832.603 127.841 831.995 127.348C831.69 127.1 830.898 126.522 831.402 126.106C832.455 125.237 833.298 126.339 834.368 126.247C834.75 126.214 836.576 125.19 836.485 124.863C836.353 124.385 835.625 124.121 835.262 123.86C834.693 123.45 835.612 123.349 834.545 123.084C833.924 122.93 833.737 122.857 833.104 122.989C832.211 123.175 832.843 122.415 832.754 122.041C832.607 121.414 831.838 121.469 831.375 121.248C830.743 120.946 830.34 120.329 829.996 119.746C829.664 119.183 827.808 117.894 828.552 117.398C828.98 117.112 828.685 116.53 828.475 116.218C828.053 115.587 828.338 115.287 828.284 114.639C828.258 114.326 825.918 113.298 825.54 113.183C824.931 112.998 822.61 114.396 822.454 113.468C822.391 113.093 822.644 112.794 822.192 112.586C821.769 112.39 821.208 112.41 820.762 112.506C819.81 112.713 819.372 111.812 818.45 112.207C817.915 112.436 817.728 110.594 817.568 110.317C817.15 109.587 816.404 108.328 815.483 108.44C815.952 107.829 816.21 106.44 815.411 106.085C813.568 105.268 814.244 104.663 815.483 103.683C815.007 103.62 814.682 102.703 814.284 102.365C813.956 102.087 814.081 101.728 814.149 101.37C814.266 100.748 813.72 100.218 813.706 99.5994C813.693 98.9811 814.463 98.7476 814.716 98.2423C815.067 97.5376 814.985 96.8684 815.981 96.8823C815.87 96.5676 815.563 96.4106 815.274 96.2982C815.568 95.9041 815.234 95.7257 815.166 95.3444C815.023 94.5372 815.794 95.3484 816.205 95.3455C816.446 95.3444 816.492 95.0709 816.579 94.8959C816.873 94.3089 817.433 94.9202 817.871 94.8907C818.639 94.8391 818.798 93.8314 819.661 93.8557C820.654 93.8835 821.58 94.5036 822.551 94.5036C823.44 94.5036 821.435 93.4362 821.39 93.4049C820.41 92.7339 819.559 93.4217 818.563 93.0665C817.866 92.8173 816.648 91.8867 816.148 91.3322C816.435 91.495 816.727 91.648 817.023 91.7911C816.917 91.4736 816.647 90.9509 817.064 90.7064C816.756 90.3807 816.106 90.8008 815.842 90.9752C815.141 91.4388 814.715 91.4255 813.894 91.4162C815.34 89.8795 817.342 89.0132 818.953 87.6723C820.62 86.2845 821.996 84.6023 823.721 83.2968C824.523 82.6901 824.764 82.0782 825.156 81.1881C825.492 80.4249 825.197 80.2946 824.5 79.8768C822.828 78.8749 821.118 77.9379 819.399 76.9806C820.058 76.6474 822.168 75.3413 820.751 74.6315C820.111 74.311 817.844 73.4888 819.445 72.7662C819.141 72.1543 818.555 72.4173 818.034 72.2487C817.249 71.9938 817.082 70.9994 817.985 70.8053C817.851 70.5103 816.971 70.3956 817.215 69.9882C817.473 69.5565 817.756 68.7123 817.191 68.5523C817.623 68.4747 818.042 68.3246 818.483 68.3014C817.764 66.1916 815.827 65.1503 814.52 63.5162C813.168 61.8259 817.527 60.8895 816.505 59.6842C816.043 59.1407 814.948 58.6789 814.346 58.2669C813.579 57.7419 812.622 57.7233 811.846 57.2146C811.044 56.6884 810.932 56.0637 811.605 55.431C812.383 54.7165 811.142 54.6493 810.688 54.5896Z" fill="#C44239"/>
</svg>
