<svg width="1538" height="669" viewBox="0 0 1538 669" fill="none" xmlns="http://www.w3.org/2000/svg">
<path d="M1011.74 193.186C1012.33 193.189 1012.74 192.892 1012.61 192.268C1012.44 191.41 1012.02 191.571 1012.29 190.666C1012.5 189.933 1013.11 190.192 1013.66 189.973C1014.29 189.719 1014.54 188.825 1015.28 188.805C1015.16 188.536 1015.14 188.258 1015.2 187.971C1015.63 188.059 1016.5 188.481 1016.89 188.124C1017.19 187.856 1017.52 187.411 1017.95 187.352C1018.39 187.29 1018.6 188.442 1018.9 188.705C1019.41 189.153 1020.4 188.545 1021.05 188.602C1022.25 188.706 1022.34 187.009 1022.47 186.178C1022.59 185.492 1022.9 185.235 1023.64 185.346C1024.59 185.486 1025.47 185.504 1026.38 185.301C1026.86 185.195 1027.52 185.372 1027.91 185C1028.34 184.589 1028.27 183.778 1028.68 183.298C1029.7 182.091 1031.71 181.971 1032.91 180.994C1033.39 180.602 1033.63 180.389 1034.25 180.374C1035.03 180.355 1034.82 180.07 1034.58 179.5C1034.27 178.774 1034.01 178.138 1033.65 177.44C1033.18 176.527 1034.18 176.323 1034.81 176.163C1034.56 175.932 1034.28 175.751 1033.97 175.621C1034.23 175.24 1034.66 174.668 1035.18 175.037C1035.52 174.274 1034.59 174.198 1034.56 173.564C1034.5 172.733 1033.68 172.151 1033.22 171.532C1032.59 170.683 1031.93 169.829 1031.57 168.822C1031.33 168.159 1031.72 167.079 1031.1 166.791C1030.56 166.548 1028.4 166.801 1029.01 165.899C1029.35 165.389 1030.63 165.245 1031.2 165.066C1032.24 164.741 1033.27 164.658 1034.32 164.282C1035.36 163.907 1035.52 164.432 1036.37 164.775C1037.06 165.05 1037.64 164.343 1038.33 164.823C1039.12 165.377 1039.13 164.462 1038.97 163.922C1038.72 163.114 1037.72 163.583 1037.31 162.979C1036.96 162.464 1037.33 161.477 1037.37 160.915C1037.44 160.067 1037.23 159.175 1037.24 158.319C1037.24 157.51 1037.59 156.62 1037.42 155.833C1037.23 154.883 1037.72 154.615 1038.56 155.019C1039.27 155.36 1039.89 155.684 1040.66 155.867C1041.68 156.105 1042.65 155.725 1043.67 155.826C1044.45 155.904 1044.72 156.929 1045.44 156.324C1045.99 155.858 1046.75 155.795 1047.27 155.328C1048.22 154.477 1045.84 152.133 1045.57 151.214C1045.42 150.716 1045.32 149.355 1045.81 149.005C1046.29 148.669 1046.99 149.013 1047.52 148.776C1048.87 148.175 1048.77 147.551 1048.34 146.304C1048.06 145.49 1049 145.432 1049.53 145.485C1050.38 145.571 1050.77 145.586 1051.58 145.33C1051.94 145.216 1052.87 145.922 1052.58 146.209C1052.12 146.669 1052.81 147.147 1053.33 147.257C1054.35 147.471 1053.48 147.969 1054.07 148.246C1054.88 148.63 1055.99 148.589 1056.61 149.343C1057.3 150.189 1059.31 151.209 1060.37 150.876C1061.07 150.656 1062.84 152.337 1063.05 151.464C1063.43 151.587 1063.46 151.93 1063.76 152.132C1064.17 152.407 1064.61 152.43 1065.01 152.762C1065.76 153.386 1066.04 154.34 1066.77 154.981C1067.4 155.543 1068.17 155.923 1068.82 156.466C1069.89 157.368 1069.52 158.135 1069.93 159.254C1070.2 160.011 1070.99 160.168 1070.62 161.121C1070.31 161.922 1070.05 162.661 1070.71 163.379C1071.19 163.894 1071.85 164.771 1072.61 164.71C1073.57 164.632 1074.54 165.228 1075.48 165.274C1076.43 165.321 1077.41 165.611 1078.35 165.574C1079.25 165.537 1080.12 165.471 1081.02 165.538C1083.18 165.697 1084.66 166.943 1086.62 167.728C1087.51 168.086 1088.31 168.626 1089.21 168.966C1089.86 169.213 1090.52 169.167 1091.2 169.26C1092.06 169.378 1091.36 169.979 1091.98 170.348C1092.83 170.849 1093.31 171.037 1093.9 171.922C1094.35 172.621 1094.86 173.336 1095.41 173.966C1096.06 174.701 1096.98 175.088 1097.72 175.705C1098.23 176.137 1098.45 176.769 1099.14 176.874C1100.08 177.018 1100.95 176.686 1101.87 176.593C1103.84 176.395 1106 177.323 1108 177.441C1109.05 177.503 1110.13 177.662 1111.18 177.636C1112.19 177.61 1113.08 177.137 1114.11 177.209C1115.21 177.285 1116.28 177.511 1117.37 177.66C1118.32 177.79 1119.39 177.635 1120.29 177.967C1121.14 178.281 1121.68 179.049 1122.47 179.45C1123.63 180.037 1125.15 180.028 1126.41 180.291C1128.31 180.69 1130.06 181.844 1132.06 181.358C1132.98 181.136 1133.08 181.285 1133.63 181.916C1134.18 182.536 1135.24 181.876 1135.7 182.373C1135.58 182.238 1140.12 179.724 1140.56 179.503C1141.43 179.057 1142.56 178.849 1143.53 178.726C1144.67 178.58 1145.97 178.263 1147.11 178.242C1148.82 178.209 1150.84 178.821 1152.39 177.89C1153.12 177.454 1154.47 177.311 1155.01 176.669C1155.53 176.055 1155.57 175.132 1155.95 174.439C1156.31 173.796 1156.97 173.521 1157.59 173.178C1157.93 172.984 1158.19 172.728 1158.36 172.362C1158.46 172.149 1158.95 172.356 1159 172.159C1159.28 170.964 1156.11 169.818 1155.56 168.907C1155.03 168.029 1154.68 165.622 1156.07 165.33C1157.79 164.97 1159.8 166.456 1161.5 166.733C1161.87 166.793 1162.92 167.111 1163.24 166.795C1163.72 166.3 1164.46 165.965 1164.74 165.353C1165 164.807 1165.15 164.16 1165.53 163.686C1165.9 163.232 1167.14 163.627 1167.63 163.675C1168.92 163.801 1170.18 163.143 1170.91 162.036C1171.27 161.501 1170.34 160.724 1170.78 159.9C1171.2 159.132 1171.66 158.954 1172.51 158.934C1173.12 158.919 1173.68 159.226 1173.57 158.301C1173.48 157.585 1174.44 158.044 1174.75 158.144C1175.07 158.249 1176.04 157.442 1176.49 157.318C1176.86 157.214 1177.22 157.309 1177.59 157.353C1177.83 157.388 1178.07 157.4 1178.31 157.39C1178.41 157.249 1178.51 157.11 1178.61 156.972C1178.89 156.97 1179.53 157.323 1179.87 157.388C1180.48 157.506 1181.1 157.614 1181.73 157.664C1184.02 157.846 1181.95 155.851 1181.05 155.196C1178.94 153.661 1176.57 152.317 1174.2 151.252C1173.12 150.766 1171.53 150.381 1170.84 151.616C1169.95 153.199 1168.79 151.546 1167.34 151.613C1166.84 151.635 1165.81 151.438 1165.39 151.643C1164.85 151.904 1164.84 152.597 1164.05 152.154C1163.55 151.872 1161.74 150.954 1162.2 150.174C1162.46 149.734 1162.81 149.749 1162.47 149.201C1162.12 148.657 1162.12 148.202 1162.13 147.587C1162.17 145.734 1161.98 143.882 1161.83 142.038C1163.21 142.697 1164.72 142.679 1166.05 143.268C1167.56 143.939 1167.77 142.619 1168.71 141.786C1169.35 141.207 1171.15 141.723 1170.99 140.485C1170.91 139.825 1170.52 139.679 1169.95 139.552C1169.58 139.468 1169.64 138.891 1169.61 138.567C1169.56 138.052 1169.91 137.82 1169.67 137.291C1169.53 137.05 1169.51 136.798 1169.61 136.532C1169.82 135.988 1169.51 135.683 1169.51 135.148C1169.51 134.015 1169.11 133.142 1170.18 132.34C1171.39 131.445 1169.59 130.384 1169.15 129.594C1168.76 128.893 1167.85 128.319 1167.03 128.647C1166.29 128.941 1165.94 128.375 1165.51 127.895C1166.69 127.495 1166.44 125.693 1167.83 125.422C1169.5 125.099 1171.01 124.491 1172.73 124.585C1174.43 124.679 1175.86 124.073 1177.6 124.518C1178.34 124.708 1179.07 125.062 1179.76 125.389C1180.7 125.836 1181.78 125.842 1182.69 126.309C1182.7 125.287 1185.76 126.468 1186 126.882C1186.21 127.256 1187.6 127.726 1188.02 127.96C1188.35 128.141 1188.22 128.494 1188.52 128.669C1188.97 128.942 1189.43 129.017 1189.87 129.361C1190.33 129.738 1191.13 130.046 1191.4 130.582C1191.56 130.901 1192.36 130.709 1192.37 131.248C1192.4 132.047 1193.32 132.44 1193.91 132.828C1194.45 133.184 1194.97 134.164 1195.61 134.352C1196.47 134.608 1196.72 135.666 1197.4 136.173C1198.16 136.741 1199.02 137.147 1199.76 137.751C1200.39 138.262 1200.58 139.062 1201.17 139.594C1201.83 140.187 1202.36 139.978 1202.67 140.888C1203.18 142.379 1205.68 143.671 1207.19 143.388C1207.83 143.268 1208.61 143.06 1209.19 143.381C1210.14 143.908 1211.04 144.013 1212.02 144.416C1211.47 143.438 1213.18 144.792 1213.48 144.792C1214.2 144.792 1215.07 145.865 1215.68 146.219C1216.67 146.789 1217.55 146.331 1218.51 146.711C1218.79 146.825 1218.68 147.657 1218.9 147.918C1219.15 148.214 1219.65 148.427 1219.98 148.615C1220.95 149.171 1220.73 149.655 1221.11 150.511C1221.38 151.119 1223.21 152.563 1223.9 152.478C1224.28 152.43 1224.63 152.259 1225.02 152.259C1225.61 152.259 1226.1 152.624 1226.7 152.551C1227.38 152.469 1229.34 152.593 1229.43 151.772C1229.51 150.934 1230.48 150.307 1231.29 150.395C1231.34 150.401 1232.06 150.712 1232.11 150.505C1232.22 150.026 1232.18 149.891 1232.72 149.75C1233.21 149.621 1234.14 148.754 1234.65 149.089C1234.93 149.272 1235.93 149.627 1236.26 149.673C1236.2 150.238 1236.36 150.699 1236.76 151.102C1237.33 151.692 1238.61 152.602 1238.05 153.594C1237.93 153.804 1237.46 153.848 1237.28 154.029C1236.84 154.479 1237.5 154.813 1237.67 155.179C1237.81 155.475 1237.74 155.827 1237.8 156.139C1237.92 156.715 1238.46 157.202 1238.41 157.809C1238.34 158.514 1239.73 159.558 1238.72 160.061C1239.46 160.607 1238.81 160.755 1238.84 161.397C1238.86 161.87 1239.42 162.252 1239.35 162.751C1239.25 163.437 1238.45 163.185 1238.9 164.144C1239.06 164.485 1239.28 164.818 1239.34 165.196C1239.43 165.807 1236.1 164.826 1235.58 164.708C1235.35 164.656 1234.01 164.067 1233.91 164.264C1233.69 164.699 1233.73 165.482 1233.28 165.745C1232.92 165.956 1232.16 165.986 1231.91 166.275C1231.67 166.552 1232.8 167.272 1232.93 167.402C1234.14 168.658 1235.05 170.125 1235.83 171.677C1236.48 172.978 1237.7 173.844 1237.59 175.383C1237.54 176.054 1238 175.962 1237.22 176.25C1236.6 176.48 1235.97 176.318 1235.59 177.001C1236.63 177.287 1236.44 177.851 1237.18 178.419C1236.38 177.773 1235.28 177.543 1234.68 176.648C1234.19 175.908 1233.53 175.699 1232.67 175.749C1232.83 176.281 1233.68 177.802 1233.33 178.321C1233.07 178.725 1232.28 178.307 1231.92 178.617C1231.39 179.071 1232.36 180.005 1231.19 180.304C1230.14 180.571 1229.04 180.323 1228 180.589C1228.55 181.332 1230.35 182.225 1230.12 183.247C1229.99 183.794 1227.8 183.396 1227.24 183.31C1226.72 183.232 1226.18 183.118 1225.72 182.85C1225.18 182.536 1224.67 181.618 1223.95 181.698C1223.58 181.74 1223.52 182.164 1223.07 182.173C1223.11 183.122 1223.19 183.633 1222.87 184.547C1222.73 184.95 1222.67 185.633 1222.3 185.908C1222.11 186.048 1221.23 186.083 1221.28 186.398C1221.35 186.808 1220.99 186.752 1220.8 187.055C1220.59 187.251 1220.34 187.373 1220.05 187.418C1219.8 187.548 1219.55 188.151 1219.4 188.196C1218.5 188.471 1217.79 189.466 1217.8 190.484C1217.82 191.683 1215.98 191.723 1215.32 191.02C1215.41 191.653 1214.53 191.581 1214.15 191.561C1214.31 192.025 1213.89 192.112 1213.54 192.17C1212.82 192.291 1212.29 192.844 1211.73 193.272C1211.17 193.696 1210.79 193.874 1210.72 194.64C1210.67 195.198 1210.02 195.145 1210.18 195.691C1209.91 195.499 1209.6 195.416 1209.27 195.441C1209.71 196.044 1207.77 197.516 1207.34 196.091C1207.11 195.348 1208.55 195.362 1208.74 195.146C1209.03 194.833 1208.66 194.573 1208.63 194.26C1208.59 193.869 1209.2 193.665 1209.39 193.397C1208.09 193.971 1207.42 193.088 1206.26 192.896C1206.47 192.602 1206.78 192.383 1207.14 192.312C1206.41 191.217 1206.93 191.394 1207.74 190.584C1208.11 190.213 1208.26 189.105 1208.31 188.599C1208.46 186.775 1205.65 187.162 1205.43 185.553C1205.56 186.612 1204.47 186.15 1203.91 185.949C1203.2 185.694 1201.68 186.495 1202.76 186.93C1201.94 187.091 1201.45 188.359 1201.52 189.135C1201.58 189.775 1199.69 190.477 1199.26 190.768C1198.84 191.049 1198.45 191.256 1198.21 191.728C1197.83 192.498 1198.58 192.88 1198.39 193.471C1197.95 194.873 1196.77 194.403 1195.73 195.042C1195.01 195.479 1194.26 194.332 1193.48 194.48C1192.33 194.696 1192.91 196.565 1193.17 197.273C1193.63 198.511 1195.02 198.965 1196.02 199.662C1196.33 199.883 1197.08 199.964 1197.44 199.823C1198.03 199.589 1198.17 200.446 1198.67 200.53C1198.81 200.238 1198.81 199.946 1198.67 199.654C1199.52 199.654 1200.68 200.503 1201.07 201.25C1201.62 202.28 1200.84 203.275 1201.97 204.14C1202.72 204.721 1203.65 204.878 1204.57 204.731C1205.21 204.627 1205.99 204.27 1205.26 203.618C1205.61 203.409 1207.27 202.032 1206.05 202.033C1206.75 202.164 1207.4 201.547 1208.03 201.356C1208.63 201.175 1209.59 201.799 1209.94 202.235C1210.26 202.615 1210.52 202.57 1210.95 202.44C1211.2 202.366 1211.5 202.864 1211.63 202.992C1212.2 203.579 1213.18 202.715 1213.77 203.326C1213.84 203.148 1213.89 202.968 1213.94 202.783C1214.82 203.405 1216.05 202.942 1216.9 203.576C1216.74 203.656 1216.59 203.739 1216.44 203.826C1217.36 204.574 1215.97 204.784 1216.84 205.406C1217.19 205.656 1217.14 206.035 1216.68 206.218C1215.92 206.521 1215.84 205.824 1215.52 205.37C1215.43 205.587 1215.32 205.796 1215.19 205.996C1215.1 205.368 1214.7 205.551 1214.35 205.869C1214.15 206.053 1212.69 207.092 1213.52 206.205C1213.05 206.511 1212.19 207.321 1211.66 207.417C1211.28 207.486 1210.38 206.982 1210.6 207.748C1211.21 207.209 1211.76 208.015 1211.39 208.583C1211.21 208.143 1210.7 208.113 1210.6 208.624C1210.52 209.058 1211 209.31 1210.91 209.757C1210.87 209.962 1210.25 210.254 1210.06 210.21C1209.47 210.07 1209.72 209.379 1209.22 209.125C1209.79 209.933 1209 209.261 1208.55 209.334C1208.57 209.877 1209.24 210.64 1209.81 210.627C1208.62 210.805 1209.31 212.889 1207.89 212.546C1207.91 213.108 1207.78 214.296 1207.49 214.782C1207 215.591 1207.41 216.123 1207.64 216.927C1208.24 216.357 1209.2 217.17 1209.68 217.524C1210.62 218.221 1211.72 218.479 1212.78 218.958C1213.6 219.335 1213.91 220.577 1214.39 221.265C1215.14 222.308 1215.84 223.515 1216.79 224.373C1217.45 224.964 1218.09 225.851 1218.15 226.739C1218.22 227.795 1219.82 227.945 1220.58 228.284C1221.25 228.581 1220.95 228.977 1221.28 229.484C1221.53 229.874 1221.94 229.875 1222.33 230.069C1222.96 230.389 1224.38 231.093 1223.95 232.029C1223.05 231.78 1222.05 230.879 1221.06 231.16C1219.74 231.539 1219.79 230.593 1218.65 230.173C1217.52 229.75 1217.03 231.195 1216.07 230.671C1215.6 230.412 1215.33 229.97 1215.03 229.544C1214.66 229.014 1214.12 229.045 1213.61 228.734C1213.87 228.932 1213.96 229.275 1213.81 229.568C1214.04 229.297 1214.3 229.283 1214.56 229.526C1214.41 229.407 1214.25 229.282 1214.11 229.151C1214.61 228.962 1215.63 230.295 1214.65 229.861C1215.33 230.314 1216.12 231.322 1217.06 230.891C1217.44 230.718 1217.4 230.349 1217.89 230.374C1218.3 230.396 1218.84 230.581 1219.11 230.921C1219.27 231.132 1219.08 231.389 1219.36 231.529C1219.82 231.759 1220.37 231.827 1220.84 232.014C1221.88 232.419 1222.78 233.353 1223.77 233.878C1224.33 234.168 1225.53 235.32 1225.49 236.016C1225.47 236.339 1224.8 236.216 1224.61 236.233C1223.91 236.297 1223.52 236.878 1223 237.268C1222.65 237.529 1222.22 237.663 1222.14 238.12C1222.11 238.324 1222.07 238.817 1221.77 238.835C1221.27 238.865 1220.98 238.377 1220.41 238.598C1219.93 238.782 1219.58 239.215 1219.19 239.539C1219.46 239.408 1220.47 238.576 1220.76 238.781C1221.32 239.17 1221.33 240.226 1222.16 240.207C1221.98 240.097 1221.8 239.999 1221.61 239.915C1222.6 240.065 1223.22 238.889 1224.17 239.162C1224.83 239.35 1225.16 239.886 1225.6 240.341C1226.14 240.881 1227.32 240.998 1228.04 241.166C1227.55 241.397 1227.33 241.77 1227 242.168C1226.88 242.379 1226.74 242.574 1226.58 242.752C1226.33 242.949 1225.99 242.845 1225.75 243.086C1225.83 243.247 1225.94 243.386 1226.08 243.503C1226.33 243.138 1226.82 242.628 1227.29 243.044C1227.05 242.799 1227.09 242.138 1227.57 242.399C1228.11 242.691 1227.64 243.142 1227.9 243.569C1227.9 243.578 1228.41 244.985 1227.87 244.635C1227.57 244.44 1227.6 243.939 1227.33 243.711C1227.39 243.986 1227.44 244.264 1227.46 244.546C1227.1 244.639 1226.87 244.415 1226.79 244.086C1226.94 244.86 1226.72 244.369 1226.53 244.086C1226.46 244.422 1226.32 244.728 1226.12 245.004C1226.65 244.895 1227.46 245.406 1227.54 245.964C1227.29 245.702 1227.1 245.73 1226.96 246.048C1227.4 246.017 1227.9 246.628 1227.4 246.933C1226.78 247.311 1225.9 246.569 1225.37 246.34C1225.65 246.563 1225.82 247.035 1226.16 247.174C1226.65 247.37 1226.98 246.973 1227.27 247.567C1227.42 247.85 1228.2 248.567 1227.81 248.914C1227.46 249.23 1227.01 249.208 1227.21 249.844C1226.66 249.594 1226.63 248.865 1226.08 248.634C1225.92 248.91 1225.9 248.967 1225.62 249.093C1226.45 249.204 1225.22 251.665 1223.87 250.011C1224.05 250.619 1225.4 250.502 1225.22 251.204C1225.07 251.809 1224.45 252.907 1225.2 253.307C1224.78 253.506 1224.79 253.778 1224.85 254.178C1224.97 255.041 1224.25 254.135 1224.5 254.725C1224.21 254.479 1223.94 254.229 1223.66 253.974C1223.65 254.276 1225.12 255.315 1223.91 255.059C1224.13 255.554 1223.74 256.006 1223.28 256.144C1223.79 256.848 1224.16 258.099 1222.7 257.729C1223.14 257.547 1223.35 257.091 1223.16 256.644C1222.96 256.803 1222.81 256.997 1222.7 257.229C1222.42 257.026 1222.2 256.731 1222.11 256.394C1221.94 256.702 1221.63 256.889 1221.28 256.728C1221.5 256.967 1221.58 257.245 1221.53 257.562C1222.22 257.253 1223.01 258.451 1222.03 258.355C1222.07 258.87 1222.71 259.147 1222.87 258.522C1223.38 259.056 1222.81 259.031 1222.46 259.377C1222.1 259.733 1221.91 260.224 1221.74 260.691C1221.29 260.271 1220.61 260.034 1220.03 259.858C1220.48 260.141 1220.76 260.937 1221.4 260.83C1222.04 260.723 1222.26 260.059 1222.79 260.859C1222.36 261.036 1222.51 261.734 1222.38 262.177C1222.15 262.907 1223.28 262.93 1223.04 263.696C1222.9 263.14 1222.75 263.14 1222.57 263.696C1222.31 263.294 1221.94 262.952 1221.49 262.778C1221.46 263.129 1221.25 263.437 1220.95 263.612C1221.25 263.776 1222.01 263.882 1221.89 264.405C1221.71 265.158 1221.12 264.073 1221.12 265.031C1221.02 264.599 1220.61 263.853 1220.16 264.489C1220.73 264.691 1220.23 265.543 1220.9 265.573C1220.75 266.035 1219.78 266.744 1219.78 265.948C1219.32 266.316 1219.43 266.414 1219.81 266.658C1220.29 266.962 1219.88 267.686 1219.65 267.993C1219.41 267.751 1219.17 267.5 1218.94 267.242C1218.8 267.791 1218.08 268.139 1217.78 267.492C1217.46 267.951 1216.68 267.661 1217.15 268.326C1216.84 268.233 1216.52 268.219 1216.19 268.285C1216.48 268.602 1216.91 268.723 1217.32 268.577C1217.23 268.91 1217.4 269.107 1217.73 269.119C1217.62 269.427 1217.33 269.426 1217.12 269.613C1216.78 269.905 1217.01 270.462 1216.48 270.788C1216.67 270.383 1216.54 270.23 1216.11 270.329C1216.27 270.779 1215.99 271.178 1215.98 271.622C1215.94 270.78 1215.09 271.664 1214.65 271.664C1214.56 271.769 1214.23 273.223 1213.77 272.781C1213.38 272.392 1213.11 272.19 1213.03 272.919C1212.95 273.721 1212.57 273.91 1211.77 273.792C1212.25 273.977 1212.85 273.965 1212.98 274.585C1212.45 273.927 1212.48 274.951 1212.1 274.543C1211.93 275.052 1212.23 275.702 1211.56 275.906C1211.12 276.039 1210.36 276.209 1209.93 275.961C1210.56 276.625 1208.15 276.961 1208.68 275.92C1208.32 276.327 1207.84 276.156 1207.43 275.961C1207.51 276.317 1208.47 276.791 1208.21 277.225C1208.06 277.491 1207.71 277.266 1207.55 277.16C1207.07 276.831 1206.62 276.883 1206.68 276.295C1206.42 276.65 1205.46 277.232 1205.14 277.005C1205.87 277.262 1205.4 277.826 1204.95 277.704C1204.43 277.561 1204.45 276.934 1204.8 276.63C1204.31 276.628 1203.86 276.886 1203.6 277.297C1204.16 277.398 1203.56 277.97 1204.18 278.131C1204.05 278.242 1203.91 278.325 1203.76 278.382C1203.49 277.486 1201.43 277.566 1200.97 278.298C1200.91 277.077 1199.38 276.759 1199.55 275.461C1199.38 276.293 1199.4 275.796 1199.05 275.503C1199.32 275.036 1199.8 274.957 1200.3 275.044C1199.65 274.594 1199.11 275.502 1198.46 275.211C1199.39 275.584 1198.42 276.303 1197.8 276.087C1198.03 276.181 1198.9 276.506 1198.95 276.788C1198.86 276.861 1198.75 276.864 1198.63 276.796C1199.15 277.142 1200.41 278.811 1199.88 279.55C1199.32 280.333 1198.15 278.068 1197.88 277.756C1197.84 278.503 1198.74 279.172 1199.09 279.759C1198.78 279.83 1198.55 280.069 1198.5 280.384C1198.2 280.232 1197.97 279.948 1197.96 279.592C1197.21 279.94 1198 280.802 1197.5 281.302C1196.93 280.564 1196.51 281.158 1196.13 281.684C1195.87 282.04 1194.95 281.281 1195.46 280.802C1195.1 280.942 1194.88 280.769 1194.92 280.384C1194.85 280.869 1195.2 281.369 1195.05 281.853C1194.86 282.464 1193.28 281.356 1192.95 281.261C1193.71 282.213 1192.71 281.775 1192.17 281.804C1193.11 282.176 1191.74 283.597 1191.12 282.721C1191.02 283.036 1190.82 283.347 1190.5 283.472C1190.81 282.836 1190.03 283.223 1189.61 283.323C1189.08 283.447 1188.33 283.619 1187.99 284.098C1188.09 283.859 1188.21 283.637 1188.36 283.431C1188.02 283.673 1187.75 284.093 1187.99 284.515C1187.09 284.788 1187.41 284.143 1186.86 283.723C1186.65 284.198 1187.29 284.51 1186.87 284.938C1186.57 285.24 1185.93 285.549 1186.19 286.097C1186.34 286.41 1186.79 286.426 1187.07 286.525C1187.47 286.662 1187.35 287.554 1187.03 286.601C1187.09 287.334 1188.11 287.715 1188.06 288.444C1187.97 289.671 1186.3 289.069 1185.61 289.397C1185.65 288.976 1185.16 288.302 1185.91 288.688C1185.75 287.979 1184.48 288.123 1184.99 287.144C1184.4 287.223 1184.77 286.384 1184.28 286.331C1183.96 286.298 1183.88 285.13 1184.08 284.914C1184.49 284.489 1183.98 284.194 1184.55 283.851C1185.41 283.323 1184.19 283.02 1183.86 282.723C1183.94 282.873 1184.01 283.026 1184.07 283.181C1183.43 283.32 1183.11 282.364 1182.82 281.972C1182.61 282.318 1182.76 282.643 1183.11 282.805C1182.87 283.078 1182.05 283.791 1181.74 283.223C1181.23 284.394 1181.11 282.625 1180.86 282.43C1180.55 282.2 1179.47 282.684 1180.11 281.805C1179.96 281.751 1179.81 281.71 1179.65 281.679C1179.61 281.984 1179.68 282.262 1179.86 282.513C1179.35 282.436 1179.11 281.471 1178.61 281.595C1178.84 281.302 1178.74 281.017 1178.4 280.886C1178.27 281.184 1178.14 281.605 1178.06 281.011C1177.95 281.626 1178.89 282.008 1178.54 282.635C1178.38 282.936 1177.8 282.236 1177.56 282.263C1177.72 282.623 1177.56 282.96 1177.23 283.139C1177.21 282.765 1176.23 282.638 1175.76 282.438C1175.1 282.159 1174.19 283.035 1173.93 282.346C1173.79 282.431 1173.65 282.514 1173.51 282.597C1173.32 281.895 1172.4 281.959 1171.93 281.554C1171.76 281.407 1172.12 281.193 1171.82 281.105C1171.4 280.976 1170.84 280.37 1170.39 280.761C1170.03 279.651 1169.43 278.814 1169.43 277.674C1170.48 278.035 1170.06 275.456 1168.6 276.176C1168 276.47 1167.7 275.955 1167.24 275.726C1166.69 275.448 1166.39 276.26 1165.78 275.791C1164.86 275.09 1164.01 274.697 1163.3 273.711C1162.99 274.414 1162.15 274.494 1161.61 274.937C1161.27 275.22 1161.91 275.788 1161.48 276.22C1161.13 276.577 1158.95 277.634 1159.17 276.464C1158.42 276.494 1158.23 278.257 1157.96 278.087C1157.58 277.846 1157.27 277.462 1156.96 277.137C1156.3 276.447 1156.35 277.195 1156.12 277.716C1155.31 276.784 1155.21 276.582 1154.58 277.748C1153.99 278.822 1153.17 277.68 1152.62 277.22C1151.42 276.223 1151.22 277.655 1150.71 278.432C1150.44 278.852 1150.07 278.365 1149.75 278.395C1149.53 278.413 1149.31 278.454 1149.1 278.519C1148.81 278.604 1148.88 278.133 1148.63 278.133C1147.54 278.133 1148.07 280.241 1148.34 280.643C1148.65 281.1 1149.04 281.537 1149.21 282.072C1149.32 282.242 1149.43 282.417 1149.53 282.598C1149.57 282.903 1149.31 283.168 1149.32 283.474C1149.33 283.798 1150.01 284.479 1149.7 284.767C1149.28 285.156 1148.8 284.275 1148.29 284.431C1147.5 284.67 1147.41 284.726 1147.09 283.913C1146.81 283.213 1146.37 282.533 1146.32 281.763C1145.61 282.287 1144.4 283.756 1143.47 283.155C1143.02 282.869 1142.93 283.533 1142.55 283.455C1142.17 283.374 1142.05 282.535 1142.23 282.264C1140.77 282.244 1141.84 280.814 1141.07 280.43C1140.22 280.01 1139.17 280.064 1138.28 280.189C1137.14 280.351 1138.04 278.695 1138.12 278.291C1138.22 277.696 1137.53 276.002 1138.64 276.047C1138.35 275.168 1137.78 275.087 1136.93 275.087C1135.81 275.087 1135.91 274.174 1135.45 273.459C1135.41 273.393 1135.01 272.961 1135.09 272.851C1135.48 272.29 1134.69 271.905 1134.45 271.489C1134.05 270.789 1135.06 270.487 1134.89 269.789C1133.88 270.536 1132.62 269.586 1131.57 270.177C1131.32 270.313 1129.9 271.442 1129.65 271.246C1129.14 270.845 1129.68 270.426 1129.85 270.014C1130.01 269.606 1129.73 268.957 1129.51 268.62C1129.16 268.098 1128.95 268.167 1128.82 267.417C1128.72 266.86 1128.96 266.455 1129.55 266.41C1129.1 265.673 1129.51 265.095 1129.47 264.323C1130.44 265.208 1130.51 262.919 1130.6 262.613C1132.03 262.716 1131 262.104 1131.93 261.403C1132.07 261.293 1132.59 261.584 1132.63 261.331C1132.69 260.822 1132.05 260.45 1131.89 260.026C1132.75 260.361 1132.3 258.816 1132.3 258.393C1132.3 257.472 1132.04 256.403 1131.73 255.539C1131.48 254.852 1131.31 254.134 1131.15 253.421C1130.97 252.582 1130.48 252.455 1129.72 252.099C1129.89 252.432 1129.71 252.693 1129.39 252.809C1129.09 252.207 1128.52 251.602 1128.33 250.968C1128.16 250.408 1128.18 249.928 1127.72 249.51C1126.95 248.817 1125.75 248.544 1125.09 247.802C1125.07 248.37 1125.03 250.015 1124.11 249.107C1123.6 248.613 1123.3 249.061 1122.8 248.832C1122.34 248.624 1121.77 248.214 1121.25 248.219C1120.77 248.224 1120.58 248.845 1120.06 248.637C1119.69 248.489 1119.99 247.955 1120.11 247.749C1120.29 247.423 1120.64 247.088 1120.74 246.73C1120.88 246.156 1119.83 245.894 1120.04 245.173C1119.67 245.279 1119.28 245.789 1118.86 245.692C1117.92 245.476 1118.96 244.606 1119.29 244.464C1118.91 244.122 1118.4 243.662 1117.99 243.364C1117.57 243.069 1116.36 243.984 1116.02 244.221C1115.67 244.465 1115.84 245.006 1115.51 245.234C1115.21 245.438 1114.66 245.178 1114.4 245.069C1114.3 245.026 1113.06 244.268 1113.57 244.881C1113.19 244.657 1112.6 244.198 1112.19 244.088C1111.72 243.961 1111.36 244.356 1110.9 244.628C1110.23 245.019 1109.88 245.751 1109.39 246.316C1108.78 247.033 1108.18 247.016 1107.32 247.167C1106.37 247.333 1106.74 247.977 1106.32 248.565C1105.94 249.105 1105.01 249.348 1104.84 249.989C1104.62 250.825 1104.61 251.438 1103.48 251.478C1102.75 251.504 1102.22 251.954 1101.5 251.858C1100.98 251.788 1100.59 251.735 1100.57 251.157C1100.55 250.643 1099.22 250.23 1098.77 250.175C1098.09 250.09 1098.09 250.876 1097.33 250.513C1096.65 250.192 1096 250.198 1095.26 250.187C1094.53 250.177 1095.01 249.365 1094.36 249.169C1093.53 248.921 1092.81 248.973 1092.07 249.462C1091.3 249.976 1090.7 250.791 1090.3 251.619C1090 252.249 1089.39 253.245 1089.34 253.935C1088.11 253.331 1088.96 252.009 1088.58 251.014C1087.99 249.463 1086.54 250.688 1085.45 250.764C1085.48 250.918 1085.51 251.071 1085.54 251.223C1084.6 250.95 1083.27 251.301 1082.27 251.28C1081.37 251.262 1080.79 250.916 1079.96 250.493C1079.67 250.346 1079.17 250.031 1078.82 250.182C1078.51 250.316 1078.71 250.814 1078.38 250.875C1077.88 250.966 1076.89 250.247 1076.86 249.722C1076.74 249.82 1076.72 251.534 1076.29 250.823C1075.86 250.098 1074.92 249.671 1074.65 248.845C1074.5 249.519 1072.24 249.238 1072.07 248.643C1071.98 248.324 1072.31 247.764 1072.05 247.501C1071.79 247.229 1070.99 247.841 1070.53 247.564C1069.79 247.124 1068.14 246.572 1067.85 245.711C1067.5 244.652 1066.4 243.492 1065.29 244.607C1064.89 245.008 1063.6 243.285 1063.39 243.037C1062.82 242.354 1061.69 242.211 1060.85 241.696C1059.53 240.893 1058.35 240.002 1057.22 238.988C1056.79 238.6 1056.19 238.657 1055.67 238.49C1055.11 238.309 1055.11 239.022 1054.5 238.791C1054.73 240.309 1053.88 240.501 1052.99 239.53C1052.2 238.661 1051.2 238.256 1050.1 237.956C1049.87 237.892 1049.33 237.823 1049.16 237.623C1048.9 237.313 1049.38 236.813 1048.82 236.593C1048.41 236.426 1048.2 236.378 1047.83 236.043C1047.21 235.469 1046.79 235.882 1046.12 235.685C1045.12 235.388 1044.71 234.302 1044.04 233.639C1043.36 232.97 1042.62 234.867 1042.2 233.532C1042.04 233.062 1042.23 232.586 1041.95 232.146C1041.66 231.702 1041.55 231.338 1041.46 230.825C1041.37 230.274 1040.82 229.938 1040.44 229.597C1039.88 229.094 1040 228.322 1039.53 227.776C1040.66 226.929 1040.89 227.547 1041.54 228.33C1041.86 228.715 1042.35 228.783 1042.61 228.35C1042.93 227.81 1043.61 227.911 1043.96 227.441C1044.38 226.862 1043.69 226.237 1043.35 225.836C1043.08 225.517 1043.22 224.643 1042.89 224.543C1041.53 224.133 1041.02 223.653 1040.53 222.312C1041.6 222.417 1039.29 220.603 1040.99 220.309C1041.34 220.247 1042.01 220.563 1042.28 220.211C1042.59 219.798 1042.47 218.886 1042.24 218.473C1042.47 218.41 1043.35 218.448 1043 217.994C1042.83 217.776 1043.59 217.114 1043.81 217.064C1044.71 216.853 1044.33 214.365 1044.28 213.717C1044.28 213.724 1044.65 212.266 1043.88 212.885C1043.24 213.393 1043.05 213.199 1042.68 212.573C1042.53 212.321 1041.71 212.283 1041.45 212.12C1040.88 211.765 1040.45 210.882 1039.81 210.643C1039.1 210.376 1037.51 210.792 1036.91 211.183C1035.92 211.827 1034.84 213.031 1033.62 213.083C1032.27 213.142 1028.22 212.864 1028.13 210.921C1027.74 211.024 1027.16 211.667 1026.73 211.283C1026.4 210.984 1025.52 210.459 1025.34 210.072C1025.18 209.717 1025.22 209.009 1025.11 208.595C1024.96 208.026 1024.68 207.569 1024.25 207.166C1023.64 206.6 1022.6 206.917 1022.22 206.336C1021.81 205.708 1020.47 204.948 1019.96 205.873C1019.54 204.866 1018.39 205.608 1017.99 204.874C1017.47 203.905 1019.29 204.314 1019.55 204.267C1020.64 204.07 1020.21 203.06 1019.59 202.68C1019.07 202.357 1019.31 202.188 1019.3 201.681C1019.29 201.454 1018.9 200.774 1018.79 200.531C1018.65 200.188 1018.23 200.151 1018.09 199.768C1017.94 199.32 1018.08 198.838 1017.99 198.381C1017.82 197.536 1016.4 197.305 1015.71 197.153C1014.78 196.949 1014.13 198.184 1013.42 197.297C1013.2 197.01 1012.23 195.699 1013.16 195.693C1012.87 195.274 1012.46 194.952 1012.1 194.591C1011.75 194.237 1011.89 193.615 1011.74 193.186Z" fill="#DF6961"/>
</svg>
